<?xml version="1.0" standalone="no"?>
<!DOCTYPE svg PUBLIC "-//W3C//DTD SVG 20010904//EN"
 "http://www.w3.org/TR/2001/REC-SVG-20010904/DTD/svg10.dtd">
<svg version="1.0" xmlns="http://www.w3.org/2000/svg"
 width="720.000000pt" height="720.000000pt" viewBox="0 0 720.000000 720.000000"
 preserveAspectRatio="xMidYMid meet">
<metadata>
Created by potrace 1.15, written by Peter Selinger 2001-2017
</metadata>
<g transform="translate(0.000000,720.000000) scale(0.100000,-0.100000)"
fill="#000000" stroke="none">
<path d="M3490 5245 c-41 -30 -80 -54 -86 -54 -6 -1 -17 -8 -24 -16 -7 -8 -21
-15 -32 -15 -10 0 -21 -7 -24 -15 -4 -8 -17 -15 -30 -15 -13 0 -24 -4 -24 -10
0 -5 -20 -19 -45 -30 -25 -11 -45 -24 -45 -28 0 -8 -8 -13 -84 -50 -25 -12
-46 -27 -46 -32 0 -6 -8 -10 -19 -10 -10 0 -24 -7 -31 -15 -7 -8 -20 -15 -29
-15 -9 0 -27 -10 -41 -22 -14 -13 -45 -33 -70 -46 -75 -38 -135 -74 -138 -83
-2 -5 -12 -9 -22 -9 -11 0 -23 -6 -27 -12 -9 -15 -75 -54 -115 -69 -16 -6 -28
-15 -28 -20 0 -5 -9 -9 -20 -9 -11 0 -23 -7 -26 -15 -4 -8 -12 -15 -19 -15 -7
0 -15 -3 -17 -7 -1 -5 -21 -17 -43 -28 -22 -10 -56 -32 -76 -47 -20 -15 -44
-28 -53 -28 -9 0 -16 -4 -16 -10 0 -5 -6 -10 -13 -10 -8 0 -33 -13 -55 -30
-23 -16 -46 -30 -51 -30 -5 0 -14 -7 -21 -15 -7 -8 -21 -15 -31 -15 -11 0 -19
-4 -19 -9 0 -5 -10 -13 -22 -17 -13 -4 -57 -28 -98 -53 -41 -25 -92 -54 -112
-65 -20 -10 -39 -25 -42 -32 -3 -8 -14 -14 -24 -14 -11 0 -25 -7 -32 -15 -7
-8 -17 -15 -23 -15 -5 0 -25 -11 -43 -25 -18 -14 -40 -25 -49 -25 -8 0 -18 -7
-21 -15 -4 -8 -14 -15 -24 -15 -9 0 -29 -11 -44 -25 -15 -14 -33 -25 -40 -25
-8 0 -19 -7 -26 -15 -7 -8 -18 -15 -26 -15 -7 0 -29 -9 -48 -21 l-36 -21 0
-960 0 -960 23 -19 c12 -10 28 -18 36 -19 7 0 40 -18 73 -40 33 -22 67 -40 74
-40 8 0 14 -4 14 -8 0 -5 25 -19 55 -33 30 -13 55 -27 55 -30 0 -4 11 -10 25
-13 14 -4 25 -11 25 -16 0 -6 7 -10 15 -10 8 0 15 -4 15 -9 0 -5 10 -13 23
-17 12 -4 49 -24 83 -45 34 -22 66 -39 72 -39 5 0 12 -7 16 -15 3 -8 12 -15
20 -15 19 0 74 -30 105 -57 14 -13 34 -23 43 -23 10 0 18 -4 18 -10 0 -5 11
-12 25 -16 14 -3 25 -10 25 -14 0 -4 8 -10 18 -14 9 -3 31 -15 47 -25 17 -11
50 -30 75 -43 25 -12 58 -31 75 -43 35 -24 58 -37 102 -60 18 -9 37 -23 44
-31 6 -8 19 -14 29 -14 10 0 20 -7 24 -15 3 -8 14 -15 24 -15 11 0 25 -7 32
-15 7 -8 18 -15 25 -15 8 0 15 -3 17 -7 2 -5 23 -18 48 -31 54 -27 75 -40 117
-69 17 -13 36 -23 41 -23 5 0 15 -7 22 -15 17 -21 108 -21 116 0 4 8 14 15 24
15 10 0 23 7 30 15 7 8 17 15 23 15 5 0 24 10 41 23 17 12 49 31 71 42 22 10
53 28 70 40 37 25 66 42 85 51 8 3 32 14 52 23 52 22 65 71 19 71 -10 0 -24 7
-31 15 -7 8 -17 15 -23 15 -5 0 -25 11 -43 25 -18 14 -39 25 -46 25 -7 0 -25
11 -40 25 -15 14 -34 25 -42 25 -8 0 -17 4 -21 9 -3 6 -30 22 -61 36 -30 14
-63 34 -72 43 -10 9 -38 27 -62 40 -25 13 -67 37 -95 53 -27 16 -60 34 -72 39
-11 5 -24 14 -28 19 -3 6 -14 11 -24 11 -10 0 -26 9 -36 20 -10 11 -38 29 -64
42 -25 12 -59 31 -76 42 -40 28 -62 41 -112 66 -23 12 -79 45 -125 75 -45 30
-89 55 -97 55 -8 0 -28 10 -45 23 -35 26 -242 147 -253 148 -5 0 -33 17 -63
37 l-55 38 -2 675 -2 675 47 26 c26 15 67 37 92 50 25 13 47 25 50 28 3 3 34
20 70 39 36 19 67 37 70 40 14 16 102 71 114 71 7 0 19 7 26 15 7 8 21 15 31
15 11 0 19 5 19 10 0 6 6 10 13 10 8 0 32 12 53 28 21 15 57 36 79 47 22 11
42 23 43 28 2 4 10 7 17 7 7 0 15 7 19 15 3 8 14 15 24 15 11 0 25 7 32 15 7
8 17 15 23 15 5 0 25 11 43 25 18 14 35 25 38 25 3 0 35 18 71 40 36 22 69 40
74 40 5 0 14 7 21 15 7 8 20 15 30 15 10 0 20 7 24 15 3 8 13 15 21 15 9 0 23
6 30 13 35 30 45 37 58 37 8 0 20 7 27 15 7 8 17 15 22 15 6 0 37 18 70 40 33
22 66 40 73 40 7 0 18 6 24 14 7 8 26 22 44 31 18 9 46 25 62 36 17 10 38 22
48 25 9 4 17 10 17 14 0 5 10 12 22 16 12 3 28 13 36 20 7 8 22 14 32 14 25 0
98 -38 130 -67 14 -13 31 -23 39 -23 8 0 29 -11 47 -25 18 -14 37 -25 42 -25
5 0 15 -7 22 -15 7 -8 20 -15 30 -15 10 0 23 -6 29 -14 7 -8 26 -22 44 -31 47
-24 69 -37 104 -62 17 -13 35 -23 41 -23 5 0 15 -7 22 -15 7 -8 21 -15 32 -15
10 0 21 -6 24 -14 3 -8 13 -16 22 -19 9 -3 40 -19 67 -36 28 -16 70 -40 95
-52 25 -12 59 -33 75 -45 17 -12 40 -25 53 -29 12 -3 22 -11 22 -16 0 -5 6 -9
13 -9 7 0 28 -14 46 -31 21 -19 37 -27 43 -21 6 6 9 125 8 293 -1 312 5 286
-69 325 -20 11 -42 25 -49 31 -7 7 -20 13 -28 13 -8 0 -14 4 -14 8 0 4 -12 13
-27 19 -37 15 -104 55 -121 71 -7 6 -20 12 -28 12 -8 0 -14 4 -14 9 0 5 -8 12
-17 15 -24 9 -62 31 -76 45 -6 6 -19 11 -29 11 -10 0 -18 4 -18 8 0 5 -20 19
-45 31 -25 12 -45 27 -45 32 0 5 -8 9 -19 9 -10 0 -24 7 -31 15 -7 8 -19 15
-28 15 -8 0 -25 11 -38 25 -13 14 -32 25 -42 25 -11 0 -22 7 -26 15 -3 8 -14
15 -24 15 -11 0 -25 7 -32 15 -7 8 -17 15 -22 15 -5 0 -36 18 -69 40 -33 22
-64 40 -68 40 -5 0 -14 7 -21 15 -24 29 -71 16 -150 -40z"/>
<path d="M5325 4276 c-16 -12 -17 -18 -8 -39 9 -19 12 -250 13 -869 1 -464 4
-869 6 -901 4 -55 2 -60 -28 -88 -18 -16 -41 -29 -51 -29 -9 0 -20 -7 -23 -15
-4 -8 -13 -15 -22 -15 -8 0 -30 -11 -48 -25 -18 -14 -39 -25 -47 -25 -8 0 -20
-7 -27 -15 -7 -8 -18 -15 -24 -15 -6 0 -23 -11 -38 -25 -15 -14 -34 -25 -41
-25 -8 0 -20 -7 -27 -15 -7 -8 -18 -15 -25 -15 -7 0 -18 -7 -25 -15 -7 -8 -21
-15 -31 -15 -11 0 -19 -4 -19 -8 0 -5 -20 -19 -45 -31 -24 -12 -47 -26 -50
-32 -4 -5 -12 -9 -20 -9 -8 0 -26 -11 -41 -25 -15 -14 -35 -25 -46 -25 -10 0
-21 -7 -24 -15 -4 -8 -12 -15 -19 -15 -7 0 -40 -18 -73 -40 -33 -22 -64 -40
-70 -40 -6 0 -17 -6 -24 -12 -15 -14 -38 -28 -99 -60 -21 -11 -42 -24 -45 -29
-3 -5 -13 -9 -24 -9 -10 0 -20 -7 -24 -15 -3 -8 -12 -15 -19 -15 -8 0 -20 -7
-27 -15 -7 -8 -23 -15 -37 -15 -13 0 -26 7 -29 15 -4 8 -14 15 -24 15 -10 0
-23 7 -30 15 -7 8 -17 15 -23 15 -5 0 -25 11 -43 25 -18 14 -37 25 -42 25 -5
0 -15 7 -22 15 -7 8 -21 15 -30 15 -10 0 -20 4 -22 8 -5 12 -107 72 -122 72
-8 0 -16 7 -20 15 -3 8 -15 15 -26 15 -11 0 -20 4 -20 8 0 5 -20 19 -45 31
-24 12 -47 26 -50 32 -4 5 -14 9 -24 9 -10 0 -28 11 -41 25 -13 14 -32 25 -42
25 -10 0 -21 7 -24 15 -4 8 -14 15 -24 15 -10 0 -23 7 -30 15 -7 8 -19 15 -27
15 -7 0 -26 11 -41 25 -15 14 -35 25 -45 25 -10 0 -20 7 -23 15 -4 8 -14 15
-24 15 -10 0 -23 7 -30 15 -7 8 -17 15 -23 15 -5 0 -25 11 -43 25 -18 14 -39
25 -47 25 -8 0 -20 7 -27 15 -7 8 -18 15 -24 15 -6 0 -23 11 -38 25 -15 14
-34 25 -41 25 -8 0 -20 7 -27 15 -7 8 -20 15 -29 15 -9 0 -28 11 -42 24 -15
13 -47 34 -72 45 -25 12 -49 25 -52 31 -3 5 -13 10 -20 10 -12 0 -98 53 -115
70 -14 15 -61 40 -75 40 -8 0 -15 5 -15 10 0 6 -6 10 -13 10 -7 0 -29 11 -50
25 l-37 26 0 605 c0 679 5 642 -73 587 -36 -25 -70 -46 -192 -120 -11 -7 -30
-17 -42 -22 -11 -5 -24 -15 -28 -20 -3 -6 -13 -11 -21 -11 -8 0 -33 -13 -56
-30 -22 -16 -45 -30 -50 -30 -5 0 -16 -6 -24 -14 -12 -13 -14 -106 -12 -627
l3 -612 34 -18 c19 -10 39 -23 45 -29 5 -5 17 -10 26 -10 8 0 27 -11 42 -25
15 -14 34 -25 43 -25 9 0 18 -7 21 -15 4 -8 16 -15 29 -15 13 0 25 -7 29 -15
3 -8 12 -15 20 -15 14 0 73 -34 107 -62 17 -14 50 -33 142 -82 74 -39 86 -46
124 -74 17 -12 35 -22 40 -22 4 0 26 -12 48 -27 53 -36 113 -71 148 -84 15 -6
27 -14 27 -18 0 -4 17 -16 37 -27 21 -10 73 -41 116 -67 43 -26 88 -52 100
-56 12 -5 45 -24 72 -42 28 -19 68 -43 90 -54 22 -11 42 -23 45 -26 3 -3 32
-21 65 -39 33 -18 67 -39 76 -46 8 -8 21 -14 28 -14 6 0 24 -11 39 -25 15 -14
34 -25 43 -25 9 0 22 -7 29 -15 7 -8 18 -15 25 -15 7 0 24 -11 39 -25 15 -14
33 -25 40 -25 8 0 19 -7 26 -15 7 -8 20 -15 30 -15 10 0 23 -7 30 -15 7 -8 17
-15 22 -15 5 0 24 -11 41 -24 18 -13 60 -38 95 -57 34 -18 62 -37 62 -41 0 -5
8 -8 19 -8 10 0 24 -7 31 -15 7 -8 18 -15 25 -15 7 0 18 -7 25 -15 17 -20 108
-21 116 -1 3 8 31 27 62 43 31 15 82 44 112 63 30 20 77 47 103 60 61 31 75
39 114 68 17 12 36 22 41 22 6 0 17 6 24 13 7 6 29 21 48 31 19 11 38 25 43
32 4 7 14 11 21 8 7 -3 20 1 28 8 16 15 47 35 68 45 8 4 17 10 20 13 3 4 27
17 54 30 27 12 57 29 67 38 10 10 39 28 66 42 26 14 50 28 51 33 2 4 15 7 28
7 14 0 27 6 30 14 3 7 22 22 42 32 20 11 43 25 50 31 7 7 20 13 28 13 8 0 14
5 14 10 0 6 6 10 13 10 8 0 33 13 55 30 23 16 49 30 57 30 8 0 15 4 15 10 0 5
11 12 25 16 14 3 25 10 25 15 0 5 7 9 15 9 9 0 18 7 21 15 4 8 12 15 20 15 7
0 53 24 102 53 49 30 97 57 106 60 15 6 16 86 16 971 l0 965 -22 7 c-13 3 -36
16 -53 28 -16 11 -43 28 -60 37 -16 9 -46 26 -65 38 -19 11 -45 25 -57 30 -11
5 -24 15 -28 20 -3 6 -15 11 -26 11 -10 0 -19 5 -19 10 0 6 -6 10 -14 10 -7 0
-29 13 -47 30 -19 16 -39 30 -45 30 -6 0 -17 7 -24 15 -16 19 -31 19 -55 1z"/>
<path d="M4095 3930 l-469 -5 1 -108 c0 -59 3 -110 6 -114 8 -7 481 -4 524 3
17 3 39 2 47 -3 14 -8 9 -17 -30 -63 -107 -127 -144 -176 -144 -188 0 -6 -4
-12 -9 -14 -4 -1 -97 -124 -206 -273 -109 -148 -203 -273 -209 -277 -13 -8
-28 -170 -16 -181 4 -5 230 -9 501 -9 l494 -1 3 108 c1 60 -1 112 -6 117 -10
10 -466 11 -549 1 -47 -5 -53 -4 -53 13 0 10 13 32 29 49 37 38 361 483 361
494 0 5 4 11 8 13 11 4 102 125 102 135 0 4 18 28 40 53 22 25 40 49 40 53 0
5 7 15 15 23 19 20 22 170 3 175 -7 2 -224 2 -483 -1z"/>
<path d="M4666 3693 c-8 -139 -6 -662 4 -773 4 -50 8 114 8 398 1 265 0 482
-2 482 -2 0 -6 -48 -10 -107z"/>
<path d="M2600 3663 c0 -5 42 -9 93 -10 56 -1 106 -8 129 -17 35 -15 36 -18
37 -63 0 -27 0 -220 0 -430 0 -254 4 -383 11 -388 7 -4 10 137 10 454 l0 461
-140 0 c-77 0 -140 -3 -140 -7z"/>
<path d="M3200 3235 c0 -391 2 -434 16 -428 14 5 15 49 13 399 -4 472 -16 433
136 444 53 4 99 11 102 14 4 3 -55 6 -130 6 l-137 0 0 -435z"/>
</g>
</svg>
