<?xml version="1.0" standalone="no"?>
<!DOCTYPE svg PUBLIC "-//W3C//DTD SVG 20010904//EN"
 "http://www.w3.org/TR/2001/REC-SVG-20010904/DTD/svg10.dtd">
<svg version="1.0" xmlns="http://www.w3.org/2000/svg"
 width="1200.000000pt" height="1600.000000pt" viewBox="0 0 1200.000000 1600.000000"
 preserveAspectRatio="xMidYMid meet">
<metadata>
Created by potrace 1.15, written by Peter Selinger 2001-2017
</metadata>
<g transform="translate(0.000000,1600.000000) scale(0.100000,-0.100000)"
fill="#000000" stroke="none">
<path d="M3650 15573 c-8 -3 -22 -7 -30 -10 -8 -3 -27 -5 -42 -4 -16 2 -28 -2
-28 -7 0 -12 -56 -36 -68 -28 -5 3 -17 -3 -27 -14 -10 -11 -23 -20 -29 -20 -7
0 -19 -8 -28 -17 -23 -26 -60 -53 -73 -53 -5 0 -23 -18 -39 -40 -17 -22 -38
-40 -48 -40 -11 0 -35 -16 -55 -35 -20 -19 -42 -35 -50 -35 -7 0 -13 -7 -13
-15 0 -9 -6 -18 -14 -21 -8 -3 -18 -19 -21 -34 -4 -16 -15 -32 -26 -35 -11 -4
-17 -10 -15 -13 8 -13 -26 -126 -45 -154 -11 -14 -19 -36 -19 -48 0 -34 -30
-128 -46 -144 -7 -8 -14 -25 -14 -38 1 -39 -12 -92 -28 -116 -9 -15 -16 -53
-18 -101 -2 -43 -10 -115 -19 -160 -14 -67 -15 -84 -4 -97 18 -22 -3 -34 -59
-34 -79 0 -130 -84 -134 -223 -2 -75 -5 -87 -20 -87 -22 0 -78 59 -78 83 0 10
-9 27 -20 39 -11 12 -20 27 -20 34 0 19 -45 64 -64 64 -9 0 -28 11 -41 24 -15
15 -32 22 -43 19 -10 -2 -24 3 -31 11 -7 9 -31 21 -52 26 -22 6 -56 22 -76 35
-20 14 -48 25 -62 25 -29 0 -154 41 -159 52 -10 23 -99 48 -167 48 -45 0 -84
6 -101 15 -32 17 -139 20 -149 5 -3 -5 -14 -1 -25 10 -11 11 -31 20 -44 20
-14 0 -31 9 -40 21 -9 13 -19 18 -27 13 -31 -19 -107 -5 -94 17 4 5 0 9 -8 9
-9 0 -34 10 -57 22 -31 17 -45 20 -58 12 -12 -8 -22 -8 -38 2 -11 8 -42 14
-70 15 -27 1 -55 6 -61 12 -9 6 -15 4 -19 -7 -3 -9 -24 -21 -45 -27 -21 -7
-39 -16 -39 -22 0 -5 -10 -7 -22 -4 -12 4 -28 1 -35 -5 -8 -6 -16 -8 -19 -5
-3 3 -14 -3 -24 -13 -15 -15 -30 -18 -71 -15 -51 4 -54 3 -94 -41 -23 -24 -44
-42 -47 -39 -2 3 -12 -3 -21 -13 -15 -16 -25 -64 -26 -128 -1 -11 -12 -34 -26
-50 -25 -29 -29 -38 -26 -61 1 -8 -9 -13 -23 -13 -14 0 -28 -5 -31 -10 -4 -6
-10 -8 -15 -5 -16 10 -71 -17 -69 -34 4 -34 -19 -68 -53 -76 -18 -4 -39 -7
-45 -6 -7 1 -14 -5 -14 -14 -3 -36 -5 -40 -22 -37 -9 2 -17 -2 -17 -8 0 -5 8
-10 18 -11 10 0 12 -3 5 -6 -8 -3 -10 -11 -5 -21 15 -30 13 -92 -2 -108 -11
-11 -13 -28 -9 -67 3 -28 9 -54 13 -57 19 -14 17 -56 -3 -94 -12 -23 -27 -44
-33 -48 -17 -11 -1 -118 19 -130 9 -5 17 -15 17 -22 0 -7 9 -25 20 -38 10 -14
22 -40 25 -57 3 -18 13 -44 22 -58 12 -17 17 -49 18 -97 2 -65 26 -176 45
-201 8 -10 13 -33 32 -143 9 -56 8 -65 -8 -83 -13 -14 -18 -38 -19 -96 -2 -83
8 -130 33 -150 13 -11 14 -16 2 -39 -9 -15 -10 -28 -5 -32 6 -4 12 -27 13 -51
3 -33 1 -42 -9 -36 -9 6 -10 0 -4 -26 4 -19 9 -47 10 -64 3 -52 16 -87 31 -81
11 4 14 -6 16 -42 1 -26 2 -65 4 -86 1 -22 -1 -34 -6 -26 -4 7 -10 8 -12 4 -3
-5 -3 -3 -1 5 2 8 -2 18 -9 23 -10 6 -10 8 0 8 6 0 12 5 12 10 0 6 -7 10 -16
10 -14 0 -16 -8 -12 -44 5 -39 26 -77 43 -76 24 1 26 -2 20 -30 -6 -27 -4 -32
24 -41 25 -9 29 -14 21 -24 -18 -22 43 -50 70 -33 17 11 19 22 17 80 -1 37 -5
68 -9 68 -3 0 -8 23 -10 50 -1 28 0 50 3 50 4 0 9 9 12 20 3 14 -1 24 -15 31
-17 9 -19 17 -14 52 4 23 15 47 26 54 10 7 21 26 25 42 6 27 9 29 43 24 59 -8
67 -12 54 -25 -20 -20 -13 -30 20 -26 29 3 33 0 41 -29 5 -17 18 -33 28 -36
22 -6 37 -56 19 -67 -19 -12 6 -23 36 -16 20 5 26 2 34 -19 11 -28 20 -31 38
-13 9 9 12 9 12 0 0 -14 42 -58 52 -55 4 2 5 -3 2 -10 -3 -8 11 -20 36 -31 22
-9 40 -20 40 -24 0 -4 23 -5 50 -4 30 3 57 -1 65 -8 11 -10 22 -8 49 9 24 15
43 20 60 15 44 -11 94 4 98 28 4 25 28 37 28 13 0 -9 5 -13 10 -10 6 4 8 11 4
16 -10 17 24 57 56 64 21 5 30 13 30 26 0 10 5 19 11 19 7 0 8 -11 4 -30 -4
-19 -3 -30 4 -30 6 0 11 7 11 17 0 30 37 -14 45 -54 7 -39 -1 -56 -15 -33 -7
11 -10 5 -10 -22 0 -20 6 -39 13 -41 9 -4 8 -8 -3 -16 -12 -9 -11 -11 10 -12
14 -1 28 -1 32 0 4 0 5 -6 2 -13 -3 -9 3 -17 16 -21 19 -6 21 -12 17 -56 -4
-35 -1 -54 9 -64 22 -21 28 -70 13 -104 -15 -34 -29 -40 -30 -13 0 11 -2 12
-6 4 -4 -10 -8 -10 -19 -1 -10 8 -18 7 -31 -7 -10 -10 -18 -22 -18 -28 0 -6
-8 -22 -18 -36 -13 -19 -17 -21 -17 -7 0 24 -17 21 -23 -3 -5 -19 -12 -21 -69
-18 -35 2 -66 7 -69 11 -12 16 -103 18 -123 2 -11 -8 -18 -16 -15 -18 2 -1 25
-17 51 -35 25 -17 51 -32 57 -32 29 0 6 -19 -36 -30 -27 -7 -56 -14 -65 -17
-10 -2 -18 -11 -18 -19 0 -10 -12 -14 -41 -14 -32 0 -42 4 -46 20 -3 11 -12
20 -19 20 -8 0 -15 10 -16 23 -2 35 -3 41 -10 53 -4 5 0 21 7 35 8 13 19 34
24 46 5 11 15 24 21 28 6 4 8 14 6 23 -4 12 6 22 34 36 28 13 37 23 30 30 -13
13 -13 46 0 46 6 0 10 7 10 15 0 24 -16 18 -46 -17 -17 -21 -29 -28 -31 -20
-8 21 -23 2 -23 -29 0 -33 -2 -34 -30 -17 -10 7 -23 9 -27 5 -4 -5 -1 -12 6
-17 21 -12 -10 -40 -43 -40 -19 0 -26 -5 -26 -19 0 -11 -4 -23 -10 -26 -5 -3
-10 -15 -10 -26 0 -20 -8 -23 -34 -13 -21 8 -21 24 0 24 9 0 14 6 12 13 -6 16
-58 22 -58 6 0 -8 -12 -10 -38 -6 -30 4 -41 1 -50 -14 -10 -15 -8 -17 13 -16
30 2 34 -16 4 -23 -26 -6 -38 -30 -15 -30 20 0 20 -26 2 -62 -13 -24 -12 -27
2 -31 13 -4 14 -5 2 -6 -8 0 -21 3 -29 8 -11 7 -9 13 8 30 24 24 28 46 6 37
-18 -7 -32 24 -31 69 1 22 -4 31 -19 35 -11 3 -21 16 -23 28 -4 23 -21 29 -38
12 -6 -6 -18 -8 -27 -4 -19 7 -23 23 -7 25 11 2 25 5 38 9 4 1 10 2 15 1 15
-2 10 57 -6 78 -9 12 -9 13 0 7 14 -8 7 19 -9 41 -6 7 -7 17 -3 23 3 5 1 10
-5 10 -7 0 -10 -13 -8 -32 3 -30 1 -33 -25 -33 -24 1 -29 -5 -38 -39 -9 -34
-8 -48 10 -91 12 -28 21 -65 21 -82 0 -17 5 -44 10 -59 12 -31 -4 -323 -21
-384 -16 -58 -22 -451 -8 -501 10 -39 19 -165 19 -273 0 -21 7 -55 16 -75 9
-20 22 -51 30 -69 8 -18 14 -39 14 -47 0 -8 21 -33 46 -57 61 -57 87 -94 80
-116 -3 -9 -20 -33 -37 -52 -29 -31 -32 -40 -30 -90 1 -39 7 -60 21 -74 26
-27 33 -17 21 34 -8 36 -7 46 10 63 10 11 19 24 19 29 0 4 12 8 26 8 14 0 32
7 41 15 22 23 48 14 48 -15 0 -22 5 -25 35 -26 24 0 36 -5 38 -16 2 -10 10
-14 20 -11 30 8 105 -79 79 -91 -7 -3 -2 -3 10 -1 12 3 24 1 28 -5 3 -5 19
-10 35 -10 19 0 36 -10 53 -30 14 -16 33 -30 41 -30 9 0 16 -4 16 -10 0 -5 0
-13 0 -17 0 -5 -12 -11 -26 -15 -22 -6 -33 0 -65 33 -43 44 -54 47 -69 19 -9
-16 -6 -22 15 -36 14 -9 25 -24 25 -32 0 -23 -31 -102 -40 -102 -9 0 -24 -38
-41 -100 -18 -67 -18 -69 -2 -63 13 5 14 -1 8 -34 -5 -32 -3 -42 9 -46 10 -4
16 -1 16 8 0 8 5 15 11 15 6 0 8 9 4 20 -6 20 19 68 28 53 10 -17 4 -69 -11
-98 -9 -16 -15 -33 -14 -38 1 -4 -4 -23 -12 -41 -8 -19 -12 -37 -8 -41 3 -3
-7 -18 -22 -32 -27 -25 -28 -29 -22 -86 4 -39 0 -88 -10 -139 -9 -44 -14 -88
-11 -99 3 -10 1 -22 -5 -25 -5 -3 -7 -12 -4 -20 7 -18 -2 -18 -20 1 -9 8 -14
23 -12 32 2 10 -7 28 -19 42 -16 16 -23 36 -23 62 0 21 -5 41 -11 44 -14 9
-27 -4 -13 -13 6 -4 12 -27 12 -51 1 -25 6 -47 10 -50 5 -3 12 -26 16 -50 9
-59 -11 -91 -59 -91 -18 0 -37 -5 -41 -11 -4 -7 -9 -7 -13 -1 -4 6 -29 5 -68
-1 -61 -11 -63 -12 -63 -41 0 -17 7 -44 16 -61 11 -22 14 -48 10 -100 -3 -38
-5 -71 -6 -72 0 -2 -6 -3 -13 -3 -19 0 -44 -30 -52 -62 -6 -21 -4 -28 8 -28
24 0 30 -31 7 -37 -23 -6 -27 -23 -6 -23 8 0 16 7 20 15 7 20 76 21 76 1 0
-28 51 -48 129 -53 168 -9 167 -8 169 -55 1 -18 7 -78 13 -133 6 -55 11 -116
10 -136 0 -32 3 -37 32 -46 27 -7 32 -14 32 -38 0 -27 -37 -73 -55 -69 -3 1
-15 5 -27 8 -16 5 -23 2 -27 -12 -4 -11 -22 -28 -41 -38 -19 -10 -36 -25 -36
-34 -1 -8 -3 -35 -4 -60 -2 -25 -9 -93 -16 -152 -10 -82 -16 -108 -27 -108
-15 0 -14 -24 3 -145 2 -16 9 -66 15 -109 6 -51 16 -83 26 -91 13 -9 14 -18 6
-49 -10 -34 -9 -39 8 -43 11 -3 17 -10 14 -15 -3 -5 8 -27 25 -48 17 -21 31
-47 31 -57 0 -10 9 -24 20 -31 12 -7 18 -17 15 -22 -3 -6 -1 -10 4 -10 6 0 11
-11 11 -25 0 -26 9 -32 26 -15 6 6 21 6 42 -2 38 -14 60 -1 47 29 -5 10 -9 23
-10 28 0 6 -7 23 -13 38 -7 16 -10 32 -7 37 3 4 -3 6 -13 3 -13 -3 -21 5 -30
31 -8 20 -19 36 -25 36 -15 0 -40 38 -32 50 3 5 -3 11 -13 14 -13 5 -19 17
-19 44 -1 36 -4 52 -16 82 -30 81 -34 172 -8 208 10 15 24 52 31 82 7 30 18
66 25 80 7 14 21 51 30 82 23 79 53 109 105 106 37 -3 40 -5 40 -32 0 -16 -8
-34 -17 -41 -24 -18 -20 -90 7 -127 11 -15 20 -32 20 -38 0 -5 7 -10 15 -10 8
0 15 -7 15 -15 0 -12 7 -14 26 -9 19 5 25 4 20 -5 -4 -6 -15 -11 -25 -11 -9 0
-21 -4 -26 -9 -14 -12 -114 -32 -126 -25 -13 7 -58 -44 -65 -74 -4 -13 -12
-21 -19 -19 -19 8 -20 -118 -1 -145 9 -12 16 -30 16 -39 0 -24 20 -59 60 -106
27 -32 49 -45 93 -58 32 -9 70 -23 85 -31 15 -8 32 -14 39 -14 6 0 24 -20 40
-45 15 -24 36 -44 46 -45 9 0 17 -4 17 -10 0 -5 23 -12 51 -16 48 -6 50 -8 44
-33 -4 -14 -11 -27 -16 -29 -5 -2 -18 -11 -29 -20 -18 -15 -19 -22 -10 -52 8
-29 7 -37 -7 -47 -13 -10 -19 -10 -26 0 -6 8 -7 5 -4 -10 3 -12 0 -24 -7 -26
-6 -3 2 -10 18 -16 16 -7 35 -10 42 -7 9 3 12 -4 10 -22 -1 -16 -8 -26 -15
-24 -61 13 -104 14 -112 1 -7 -12 -9 -12 -9 1 0 10 -10 15 -29 15 -22 0 -27
-3 -19 -12 6 -7 16 -13 22 -13 7 0 29 -17 50 -39 35 -36 40 -38 67 -27 24 8
32 8 39 -3 4 -8 6 -20 3 -28 -3 -7 2 -23 10 -36 10 -15 17 -60 20 -128 4 -57
9 -127 13 -156 6 -47 9 -51 35 -55 16 -3 30 0 32 6 2 5 12 6 23 2 17 -7 18 -9
3 -19 -13 -10 -17 -31 -17 -102 -1 -50 3 -108 9 -130 5 -22 16 -65 24 -95 31
-128 37 -145 46 -154 5 -6 9 -20 9 -32 0 -13 14 -43 30 -67 17 -25 30 -48 30
-52 0 -21 104 -217 120 -228 11 -6 20 -17 20 -24 0 -7 13 -32 30 -56 41 -61
100 -167 100 -179 0 -6 14 -29 30 -52 37 -50 88 -124 134 -193 19 -28 43 -54
54 -57 11 -4 23 -14 26 -24 15 -39 38 -72 52 -72 8 0 19 -12 25 -27 6 -16 22
-40 37 -56 14 -15 22 -27 19 -27 -4 0 -3 -9 3 -20 6 -11 16 -20 23 -20 7 0 21
-18 31 -40 10 -22 24 -40 32 -40 7 0 26 -19 40 -42 36 -58 83 -111 105 -120
10 -4 27 -24 38 -45 11 -21 35 -51 55 -67 20 -16 38 -42 42 -59 3 -17 22 -46
40 -64 19 -18 34 -39 34 -47 0 -9 9 -20 20 -26 11 -6 17 -16 14 -22 -4 -7 -3
-8 5 -4 6 4 14 0 17 -8 3 -9 12 -16 20 -16 8 0 14 -10 14 -25 0 -36 23 -76 61
-105 17 -13 39 -42 49 -65 10 -22 36 -57 59 -78 22 -21 41 -41 41 -45 0 -4 14
-22 30 -41 17 -18 30 -38 30 -42 0 -5 6 -9 13 -9 7 0 24 -18 36 -40 23 -41 22
-74 -1 -65 -16 6 -82 -26 -118 -58 -42 -38 -180 -132 -230 -157 -60 -30 -193
-120 -203 -137 -4 -7 -14 -13 -21 -13 -7 0 -30 -13 -51 -30 -21 -16 -41 -30
-46 -30 -7 0 -93 -52 -224 -135 -90 -58 -189 -113 -242 -136 -29 -13 -53 -26
-53 -31 0 -4 -5 -8 -10 -8 -6 0 -27 -7 -48 -16 -74 -33 -116 -10 -137 77 -7
30 -20 74 -29 99 -8 25 -25 83 -37 130 -38 150 -116 408 -129 425 -4 6 -11 26
-15 45 -4 19 -21 67 -36 107 -16 39 -29 78 -29 87 0 9 -13 37 -29 63 -16 27
-32 62 -35 78 -4 17 -15 48 -25 70 -54 118 -69 152 -74 176 -10 41 -76 179
-86 179 -5 0 -12 12 -15 26 -4 15 -17 41 -30 58 -12 17 -31 54 -41 81 -10 28
-29 64 -41 80 -20 27 -22 38 -17 88 3 31 3 57 0 57 -3 0 -32 -15 -65 -34 -60
-34 -60 -34 -70 -12 -10 21 -11 21 -11 0 -1 -11 -6 -25 -13 -32 -7 -7 -8 -12
-4 -12 17 0 -40 -37 -91 -61 -30 -13 -57 -34 -65 -49 -7 -14 -17 -28 -21 -31
-8 -6 42 -21 110 -34 17 -4 37 -13 44 -21 6 -8 20 -14 30 -14 10 0 26 -9 36
-19 24 -25 141 -108 173 -122 l25 -11 -25 -10 c-14 -5 -38 -7 -55 -4 -19 4
-25 3 -17 -3 11 -7 11 -9 -1 -14 -16 -6 -70 38 -80 66 -9 23 -34 22 -42 -3 -7
-22 -34 -27 -52 -9 -7 7 -29 7 -74 -2 -72 -14 -90 -24 -82 -45 3 -8 0 -14 -6
-14 -6 0 -11 6 -11 13 -1 37 -21 -30 -26 -90 -6 -67 -5 -70 20 -90 27 -22 27
-53 -1 -53 -8 0 -13 -6 -10 -13 19 -45 19 -47 6 -43 -8 2 -27 7 -42 11 -20 4
-33 16 -43 41 -11 25 -22 36 -44 41 -24 4 -28 8 -19 19 9 11 9 14 0 14 -7 0
-10 4 -7 9 3 4 -6 19 -19 31 -33 31 -33 76 0 120 27 36 31 50 15 50 -5 0 -10
-7 -10 -15 0 -8 -6 -15 -13 -15 -7 0 -23 -13 -35 -30 -26 -35 -67 -41 -77 -11
-6 18 -40 38 -57 33 -5 -1 -8 7 -8 18 0 35 -46 46 -260 65 -86 7 -206 24 -251
36 -20 5 -48 9 -63 9 -26 0 -26 0 -10 -25 9 -14 22 -25 29 -25 14 0 205 -158
205 -169 0 -4 13 -22 30 -41 23 -25 27 -37 20 -51 -15 -27 -12 -38 10 -32 22
6 52 -18 42 -34 -4 -6 -16 -13 -27 -16 -19 -5 -19 -5 1 -6 28 -1 48 -45 28
-61 -11 -10 -14 -10 -15 1 0 10 -2 10 -7 -2 -11 -24 -164 -179 -192 -194 -14
-8 -58 -45 -97 -83 l-73 -70 0 -186 c0 -180 1 -186 20 -186 18 0 60 -51 60
-72 0 -4 -18 -11 -40 -14 l-39 -6 -1 -209 c0 -160 3 -210 13 -216 7 -4 24 -26
37 -48 13 -22 50 -64 82 -94 32 -30 58 -58 58 -64 0 -5 7 -15 17 -22 12 -9 16
-26 14 -70 -1 -48 1 -56 14 -51 8 3 15 1 15 -4 0 -6 9 -10 21 -10 15 0 19 -5
15 -15 -3 -9 0 -25 6 -35 16 -25 -4 -52 -24 -32 -18 18 -28 14 -28 -12 0 -17
-8 -27 -27 -34 -16 -6 -22 -11 -15 -11 23 -2 12 -21 -13 -21 -14 0 -25 -4 -25
-10 0 -5 8 -10 17 -10 14 0 15 -2 4 -13 -11 -9 -14 -9 -18 0 -3 8 -14 11 -28
7 -12 -3 -26 -1 -29 5 -10 16 -43 13 -50 -4 -4 -11 -13 -14 -31 -9 l-25 6 0
-821 0 -821 3735 0 3734 0 35 31 c19 16 38 39 41 50 4 10 13 19 20 19 8 0 19
8 24 18 5 10 21 24 34 31 15 8 23 19 20 27 -8 22 11 16 25 -7 10 -15 11 -24 3
-32 -6 -6 -11 -19 -11 -28 0 -10 -8 -20 -18 -24 -11 -3 -24 -17 -30 -30 -6
-14 -16 -25 -22 -25 -5 0 -10 -7 -10 -15 0 -13 104 -15 874 -15 690 0 875 3
879 13 4 9 6 9 6 0 1 -10 129 -13 606 -13 l605 0 0 29 c0 39 9 61 26 61 8 0
14 5 14 10 0 18 32 10 37 -9 3 -11 10 -18 17 -15 16 6 40 -40 33 -60 -6 -14
59 -16 659 -16 l665 0 -1 750 c-1 413 -5 750 -9 750 -4 0 -8 7 -8 15 0 8 4 15
9 15 4 0 8 1335 8 2966 l0 2966 -25 20 c-14 11 -25 28 -25 38 0 10 -6 20 -12
22 -7 3 -13 11 -14 19 0 8 -2 28 -2 46 -2 26 -5 30 -23 26 -13 -4 -27 2 -40
15 -22 24 -24 34 -6 31 35 -4 39 1 35 46 -3 38 -1 44 14 39 15 -4 15 -1 5 32
-9 28 -9 38 0 41 7 3 9 17 6 39 -5 29 -2 38 16 50 24 17 19 34 -10 34 -11 0
-23 10 -29 24 -10 28 -32 44 -38 28 -2 -8 -10 -8 -27 0 -14 6 -22 15 -19 20 3
4 -2 11 -10 14 -9 3 -16 12 -16 20 0 17 26 19 36 3 4 -7 21 -9 42 -5 25 4 41
1 53 -10 13 -12 19 -13 25 -3 4 7 2 15 -4 17 -13 4 -16 22 -4 22 4 0 22 -13
40 -29 l32 -30 0 48 0 47 -50 18 c-28 10 -57 15 -66 12 -16 -6 -70 18 -89 40
-19 21 -65 23 -76 3 -13 -25 -38 -14 -32 14 5 18 3 20 -8 10 -18 -17 -29 -16
-29 2 0 8 6 15 14 15 13 0 30 39 21 49 -3 2 -5 -1 -5 -7 0 -7 -4 -12 -9 -12
-5 0 -9 17 -10 38 -4 135 -7 163 -19 171 -11 7 -8 14 15 35 15 14 34 24 41 21
18 -7 82 43 82 64 0 9 -5 22 -12 29 -9 9 -8 12 5 12 22 0 22 12 -2 41 -16 21
-21 21 -49 10 -46 -19 -77 5 -86 66 -9 66 -8 68 19 68 14 0 25 -3 25 -7 0 -5
9 -8 21 -8 11 0 18 -4 14 -9 -9 -15 14 -24 43 -16 20 5 23 8 11 16 -10 6 0 9
30 9 24 0 41 -3 38 -7 -9 -9 33 -53 50 -53 7 0 13 4 13 8 0 5 23 8 50 7 l50
-1 0 118 c0 65 -2 118 -5 118 -4 0 -19 -7 -35 -15 -18 -9 -40 -13 -55 -9 -14
3 -31 2 -38 -4 -17 -13 -96 -22 -103 -11 -7 12 -44 12 -44 0 0 -5 -14 -11 -30
-15 -19 -3 -34 -15 -42 -30 -6 -15 -16 -22 -22 -18 -6 3 -18 8 -26 9 -21 3
-80 -19 -80 -30 0 -5 -7 -7 -15 -4 -8 4 -22 -4 -34 -19 -17 -22 -29 -25 -98
-28 -43 -3 -81 -5 -85 -5 -5 -1 -8 -9 -9 -18 0 -14 -2 -13 -9 4 -11 26 8 73
30 73 8 1 2 7 -15 14 -20 8 -25 15 -16 20 10 6 9 12 -5 27 -9 11 -12 19 -6 19
6 0 9 7 6 15 -4 11 -13 13 -28 9 -16 -5 -18 -3 -10 5 13 14 56 24 109 25 33 1
40 -2 40 -19 0 -25 34 -33 37 -8 0 10 0 25 -1 33 -1 8 -3 26 -4 40 -1 16 -10
26 -27 31 -17 5 -6 7 36 8 66 1 123 -14 125 -32 1 -7 2 -18 3 -24 0 -7 4 -13
9 -13 4 0 12 0 18 0 5 0 7 5 4 10 -3 6 -2 10 4 10 5 0 12 -8 14 -17 4 -17 5
-17 6 0 1 15 7 17 35 12 28 -6 35 -4 39 12 4 16 5 16 6 1 0 -10 7 -18 15 -18
7 0 19 -7 26 -15 11 -13 16 -13 42 1 17 9 41 13 53 10 14 -4 25 -1 28 7 4 9 6
9 6 0 1 -18 36 -16 51 2 7 8 24 15 37 15 14 0 33 10 43 22 18 22 18 24 0 40
-28 26 -69 34 -76 14 -4 -11 -13 -14 -25 -11 -12 4 -19 1 -19 -7 -1 -8 -6 -6
-15 6 -8 11 -15 14 -15 8 0 -7 -5 -12 -11 -12 -5 0 -7 5 -4 10 3 6 -1 10 -9
10 -10 0 -13 -6 -10 -15 4 -8 1 -15 -5 -15 -7 0 -17 14 -23 31 l-10 30 -20
-21 c-10 -11 -17 -24 -13 -29 3 -5 -4 -7 -15 -4 -20 5 -19 6 4 28 14 13 22 25
20 28 -3 3 3 10 14 16 15 8 22 8 25 -2 4 -8 8 -9 14 -2 4 6 25 23 46 38 31 24
38 26 43 13 3 -9 10 -14 14 -11 5 3 12 0 16 -6 5 -8 9 -7 15 2 6 11 12 10 27
-4 35 -32 52 -12 52 58 l0 64 -57 11 c-32 6 -85 18 -119 26 -33 7 -70 14 -82
14 -44 0 -118 -25 -139 -47 -12 -13 -31 -23 -41 -23 -11 0 -25 -7 -32 -15 -7
-8 -22 -15 -34 -15 -31 0 -176 -50 -176 -61 0 -17 -75 -46 -112 -43 -30 2 -37
-1 -42 -19 -5 -21 -51 -58 -88 -73 -14 -5 -18 -1 -18 16 0 19 -4 21 -24 16
-14 -3 -27 -2 -31 4 -3 6 -15 6 -29 0 -21 -8 -23 -6 -18 13 5 21 4 21 -14 6
-19 -17 -79 -35 -101 -30 -7 1 -13 -2 -13 -7 0 -9 -25 -20 -55 -26 -5 -1 -26
-6 -46 -10 -29 -6 -41 -4 -58 10 -34 30 -26 64 31 134 15 19 28 40 28 47 0 7
6 13 14 13 8 0 17 12 21 27 3 15 20 43 36 64 16 20 29 40 29 44 0 3 11 21 25
39 14 18 23 35 20 38 -3 3 7 19 22 37 21 23 36 31 61 31 27 0 33 3 28 15 -4
10 3 20 19 27 14 6 25 18 25 27 0 9 7 25 15 35 8 11 15 29 15 40 0 12 7 30 15
40 8 11 15 34 15 51 0 17 7 40 15 51 30 43 37 242 11 293 -8 14 -17 47 -21 73
-6 40 -4 48 13 57 16 9 23 8 29 -3 4 -8 33 -40 63 -73 51 -53 195 -249 207
-280 8 -20 31 -16 38 7 6 19 -7 67 -39 142 -9 21 -16 59 -16 86 0 44 -4 53
-39 88 -22 21 -38 41 -36 45 3 4 9 39 15 79 10 71 10 73 -15 96 -28 26 -36 84
-10 84 37 0 22 83 -21 115 -15 11 -17 16 -6 26 6 7 12 21 12 30 0 9 7 22 15
29 8 7 12 17 8 24 -12 19 -3 129 13 153 7 12 14 37 14 56 0 44 29 127 44 127
12 0 65 46 67 58 10 53 -6 85 -17 35 -10 -47 -13 -54 -23 -49 -12 8 -13 143
-1 151 17 10 11 25 -9 25 -24 0 -31 32 -16 80 14 50 12 139 -4 149 -8 5 -10
14 -6 21 11 18 7 99 -6 132 -9 22 -8 33 5 52 16 25 13 81 -5 92 -5 3 -9 20 -9
39 0 19 -5 37 -10 40 -6 4 -8 11 -4 16 3 5 2 15 -3 22 -5 7 -15 37 -22 67 -7
30 -19 69 -26 85 -39 92 -49 111 -68 126 -13 11 -21 29 -21 53 -1 25 -8 41
-24 52 -12 8 -22 21 -22 29 0 23 -132 149 -238 227 -29 21 -50 43 -48 47 3 4
-7 8 -22 8 -28 0 -71 13 -137 43 -22 10 -56 22 -75 25 -19 4 -39 10 -45 13
-18 11 -349 4 -380 -8 -36 -14 -126 -23 -124 -13 3 18 -2 27 -9 16 -4 -7 -32
-14 -62 -16 -30 -3 -68 -10 -83 -16 -16 -6 -45 -11 -66 -11 -21 0 -44 -6 -50
-13 -6 -8 -27 -14 -46 -15 -19 -1 -47 -9 -61 -19 -35 -23 -48 -26 -113 -28
-37 -1 -57 -6 -66 -18 -7 -9 -26 -20 -43 -23 -17 -3 -33 -12 -36 -20 -3 -8
-12 -14 -21 -14 -8 0 -15 -6 -15 -13 0 -25 -150 -127 -187 -127 -7 0 -18 -9
-25 -20 -7 -11 -21 -20 -31 -20 -10 0 -21 -8 -24 -17 -11 -31 -54 -82 -74 -88
-10 -4 -19 -11 -19 -16 0 -5 -21 -31 -46 -57 -25 -26 -54 -64 -65 -84 -11 -21
-26 -38 -34 -38 -7 0 -17 -9 -20 -20 -3 -11 -11 -20 -16 -20 -5 0 -9 -17 -9
-38 0 -21 -5 -43 -12 -50 -10 -10 -9 -18 4 -40 25 -44 29 -108 7 -127 -16 -15
-20 -58 -10 -117 2 -14 41 -8 41 5 0 8 11 24 25 37 20 19 22 26 13 43 -8 16
-7 23 6 32 9 7 16 17 16 22 0 5 9 18 20 28 11 10 17 21 15 25 -6 10 15 71 31
91 8 8 14 22 14 31 0 11 8 13 30 10 29 -4 42 11 18 21 -10 4 -10 6 0 6 6 1 12
11 12 24 0 16 3 18 9 8 7 -11 10 -9 16 9 7 21 8 22 17 6 7 -12 7 -21 -1 -29
-15 -15 -14 -30 1 -25 7 3 15 15 18 29 3 13 13 24 22 24 8 0 30 12 47 26 27
22 39 26 76 21 32 -3 52 0 70 12 19 12 30 14 44 6 15 -8 28 -5 58 12 21 12 39
26 41 30 2 4 13 1 25 -6 12 -8 37 -14 55 -14 37 -1 62 -17 62 -39 0 -8 14 -28
30 -45 29 -28 30 -31 13 -43 -17 -13 -16 -14 12 -25 17 -6 44 -14 60 -17 39
-6 76 -24 70 -33 -3 -5 2 -20 10 -36 7 -15 12 -31 9 -36 -3 -4 6 -20 20 -35
19 -20 26 -39 26 -66 0 -47 23 -47 28 0 3 26 7 30 24 25 17 -4 20 -2 15 12 -5
12 -3 16 5 13 7 -2 13 -16 13 -30 -1 -14 3 -24 6 -21 9 5 22 -13 27 -36 1 -8
4 -20 5 -26 5 -23 29 -43 43 -37 9 3 14 -2 14 -15 0 -12 4 -23 9 -27 6 -3 13
-25 16 -50 7 -41 29 -74 49 -73 14 1 156 -143 156 -158 0 -8 7 -14 15 -14 8 0
15 -6 15 -12 0 -7 16 -24 35 -37 19 -13 35 -32 35 -42 0 -10 9 -24 20 -31 21
-13 28 -62 10 -73 -5 -3 -10 -12 -10 -18 0 -8 3 -7 9 2 14 21 19 -17 8 -58 -5
-19 -6 -48 -3 -64 3 -16 1 -48 -6 -71 -6 -22 -11 -43 -11 -46 1 -3 4 -20 8
-39 6 -30 5 -33 -10 -27 -14 5 -16 3 -10 -11 5 -10 9 -43 10 -73 2 -52 10
-100 21 -142 4 -14 -1 -18 -23 -18 -27 0 -72 -20 -45 -20 6 0 12 -7 12 -16 0
-14 2 -14 16 -3 13 11 17 10 25 -4 5 -9 16 -14 24 -11 10 4 15 0 15 -14 0 -26
-18 -38 -33 -23 -6 6 -17 11 -25 11 -23 0 5 -28 31 -32 17 -2 23 -11 25 -35 2
-21 -1 -33 -9 -33 -8 0 -10 -12 -5 -39 8 -50 -1 -73 -24 -66 -23 7 -65 -34
-50 -49 15 -15 12 -25 -7 -20 -13 3 -24 -8 -40 -44 -13 -26 -23 -55 -23 -65 0
-12 -8 -17 -30 -17 -16 0 -30 -4 -30 -9 0 -5 -15 -15 -34 -21 -39 -13 -45 -22
-40 -67 2 -18 -1 -33 -6 -33 -6 0 -10 4 -10 9 0 10 -32 7 -95 -11 -22 -7 -48
-12 -57 -14 -32 -3 -33 -4 -20 -13 24 -14 -16 -44 -47 -36 -14 4 -72 8 -129 9
-93 1 -103 3 -98 19 2 9 0 15 -4 12 -5 -3 -10 1 -13 7 -3 10 -9 11 -26 1 -11
-7 -35 -13 -52 -13 -27 0 -30 -3 -25 -23 3 -12 3 -33 -1 -45 -5 -21 -6 -21
-18 -5 -7 9 -11 23 -8 30 3 8 -2 13 -12 13 -14 0 -16 -7 -13 -31 4 -25 1 -33
-14 -37 -10 -2 -18 -10 -18 -17 0 -14 -55 -65 -70 -65 -5 0 -10 -4 -10 -10 0
-5 -8 -10 -18 -10 -10 0 -22 -3 -26 -7 -7 -8 -48 -12 -131 -13 -51 -1 -165 20
-165 30 0 4 -19 17 -43 28 -36 17 -46 28 -56 63 -11 38 -11 44 7 61 10 10 36
21 57 24 21 3 45 10 52 16 8 6 13 7 13 0 0 -16 38 -21 65 -9 14 7 25 17 25 23
0 6 7 17 15 24 8 7 15 23 15 35 0 13 11 32 24 43 14 11 24 28 23 41 -1 22 -17
30 -17 9 0 -8 -15 -14 -35 -15 -20 -1 -33 3 -30 8 4 5 1 9 -4 9 -6 0 -11 -4
-11 -9 0 -12 -42 -19 -66 -11 -10 4 -25 3 -31 -2 -8 -6 -28 -7 -50 -2 -21 4
-42 8 -48 9 -5 0 -20 6 -32 13 -12 7 -32 13 -45 15 -17 3 -24 11 -26 34 -3 26
1 32 26 41 21 7 33 7 41 -1 8 -8 14 -8 22 0 18 18 131 4 208 -24 36 -14 95
-31 131 -39 35 -8 67 -19 71 -25 4 -6 16 -8 27 -5 12 4 34 0 51 -8 16 -9 37
-13 46 -10 18 7 45 55 45 79 0 10 9 15 29 15 23 0 30 6 35 26 8 30 -10 58 -31
49 -9 -3 -13 0 -11 7 7 19 -47 58 -80 58 -40 0 -54 -20 -48 -70 l5 -41 -92 6
c-74 4 -104 11 -152 35 -33 16 -78 32 -100 36 -41 7 -105 31 -105 38 0 24 23
56 40 56 22 0 44 42 37 71 -2 9 1 26 8 39 10 19 13 20 18 6 4 -10 18 -16 36
-16 47 0 47 19 0 26 -25 4 -52 18 -70 35 -24 24 -33 27 -71 22 -24 -3 -46 -11
-50 -17 -5 -8 -8 -7 -8 2 0 6 -6 12 -13 12 -7 0 -30 9 -51 20 -41 20 -56 19
-56 -7 0 -11 -7 -14 -25 -11 -13 3 -26 0 -28 -6 -2 -7 -13 -4 -30 7 -17 11
-28 13 -33 6 -4 -6 -12 -3 -21 10 -8 12 -25 21 -38 21 -32 0 -55 25 -55 60 0
16 -7 36 -16 45 -9 8 -13 21 -10 28 4 6 13 23 21 36 l14 25 5 -25 c3 -13 7
-51 8 -84 3 -48 6 -60 21 -63 16 -3 18 3 13 60 -3 34 -8 74 -11 88 -4 18 1 32
20 53 15 15 29 43 32 62 3 19 10 35 14 35 5 0 9 9 9 20 0 27 56 56 76 39 8 -6
14 -17 14 -23 0 -24 49 -59 82 -59 18 0 39 -4 46 -10 9 -7 11 -5 6 8 -4 10 -3
16 2 13 5 -3 20 10 34 29 14 19 33 44 43 54 9 10 17 23 17 27 0 5 7 23 16 40
8 18 13 36 9 42 -3 5 -3 15 1 21 11 18 11 98 -1 103 -5 3 -5 5 3 5 6 1 12 11
12 24 -1 26 -29 81 -30 56 0 -9 -7 -23 -16 -30 -14 -11 -19 -10 -35 10 -11 13
-19 20 -19 16 0 -5 -8 -1 -17 7 -10 9 -34 23 -53 32 -19 9 -57 31 -84 51 -26
19 -52 32 -57 29 -15 -9 -10 -128 7 -162 10 -21 13 -46 10 -77 -6 -50 1 -54
48 -30 26 14 30 14 42 -2 7 -10 14 -29 14 -43 0 -14 4 -41 10 -59 5 -19 8 -36
6 -38 -8 -8 -75 31 -69 40 3 5 0 8 -8 5 -8 -2 -18 -14 -24 -26 -11 -24 -52
-36 -93 -27 -20 4 -33 1 -42 -10 -7 -8 -19 -15 -27 -15 -8 0 -22 -14 -31 -30
-9 -17 -23 -28 -30 -25 -17 6 -137 -118 -159 -165 -4 -8 -27 -40 -52 -70 -25
-31 -55 -69 -66 -84 -11 -15 -37 -50 -57 -76 -21 -26 -38 -57 -38 -68 0 -11
-7 -25 -15 -32 -8 -7 -15 -18 -15 -24 0 -7 -20 -39 -45 -73 -25 -33 -48 -76
-51 -94 -4 -19 -21 -61 -38 -93 -22 -42 -27 -60 -18 -63 8 -3 4 -12 -13 -25
-14 -11 -24 -25 -22 -32 2 -6 -7 -24 -19 -39 -13 -16 -24 -41 -24 -55 0 -15
-9 -38 -19 -51 -25 -33 -54 -21 -93 40 -19 29 -38 47 -46 44 -7 -2 -32 2 -55
11 -23 8 -61 20 -85 26 -26 6 -49 19 -58 32 -14 22 -13 36 6 81 5 11 18 42 29
69 12 27 21 55 21 62 0 8 4 14 8 14 12 0 28 55 52 173 11 54 23 103 26 109 4
6 13 45 21 87 8 42 19 96 24 121 6 25 11 56 12 70 1 14 10 31 20 38 10 8 16
19 15 25 -4 17 51 135 85 181 33 46 93 122 99 124 5 2 8 9 8 16 0 7 13 25 29
40 16 16 32 39 35 52 4 13 28 52 55 88 27 35 64 92 82 126 18 34 45 76 61 92
15 17 28 38 28 47 0 9 16 34 35 54 19 20 35 45 35 55 0 10 13 44 30 77 16 33
30 65 30 71 0 7 7 15 16 18 9 4 14 9 11 13 -4 3 3 17 13 31 11 13 20 31 20 38
0 8 14 26 30 41 17 14 30 32 30 38 0 7 7 18 15 25 8 7 15 20 15 29 0 9 14 36
32 60 24 33 32 56 35 99 2 32 7 79 10 105 3 30 1 53 -6 60 -6 6 -11 19 -11 28
0 10 -7 16 -17 15 -10 0 -19 8 -21 19 -2 11 -10 27 -18 36 -8 9 -11 19 -7 22
3 4 -4 18 -16 31 -18 19 -20 28 -12 42 5 11 13 36 16 57 3 21 13 41 21 44 7 3
14 11 14 19 0 8 5 14 10 14 6 0 10 7 10 15 0 10 10 15 33 15 34 1 67 19 67 39
0 6 9 11 20 11 18 0 110 103 110 123 0 5 9 20 20 34 11 14 24 40 29 58 11 40
-5 137 -25 148 -8 4 -14 18 -14 30 0 12 -7 40 -15 62 -9 27 -12 61 -8 105 4
47 1 79 -11 115 -22 64 -78 175 -88 175 -4 0 -8 11 -8 24 0 27 -20 51 -48 61
-26 8 -48 51 -35 67 15 19 0 62 -25 73 -12 5 -22 14 -23 20 0 5 -4 2 -8 -8 -6
-16 -11 -12 -37 25 -17 24 -30 48 -28 53 2 6 -9 19 -24 30 -20 15 -49 22 -110
26 -50 3 -87 10 -91 18 -5 7 -26 11 -54 10 -32 -2 -52 2 -65 14 -13 12 -37 17
-83 17 -36 0 -73 6 -84 13 -31 20 -89 13 -157 -20 -45 -21 -75 -29 -103 -27
-50 4 -116 -6 -110 -16 2 -4 -9 -18 -25 -30 -20 -15 -28 -29 -25 -40 3 -9 -6
-38 -20 -64 -14 -26 -23 -51 -21 -54 2 -4 -9 -26 -25 -50 -16 -23 -29 -46 -29
-50 0 -5 -13 -26 -29 -48 -15 -21 -36 -61 -46 -87 -10 -26 -22 -50 -26 -53 -5
-3 -9 -14 -9 -25 0 -10 -9 -27 -20 -36 -11 -10 -20 -22 -20 -29 0 -6 -9 -19
-20 -29 -11 -10 -29 -38 -41 -64 -12 -25 -31 -56 -42 -68 -11 -12 -20 -32 -21
-45 -1 -14 -7 -22 -16 -20 -32 7 -80 -9 -80 -27 0 -16 -37 -60 -43 -50 -27 46
-29 52 -15 60 7 5 16 9 21 9 4 0 7 11 7 24 0 14 5 28 10 31 6 3 10 17 10 29 0
13 10 38 23 57 13 19 26 42 30 52 3 9 10 17 14 17 4 0 9 15 10 33 2 17 23 73
49 124 46 91 46 92 39 165 -4 40 -9 89 -12 108 -3 19 -7 89 -8 155 -2 103 -5
126 -24 160 -13 22 -28 45 -35 50 -17 14 -76 137 -76 159 0 19 -183 206 -202
206 -16 0 -97 40 -104 51 -3 5 -16 9 -29 9 -14 0 -29 9 -35 20 -9 17 -17 20
-44 15 -39 -8 -150 27 -154 48 -2 10 -10 13 -23 10 -12 -4 -33 3 -50 16 -24
18 -33 20 -44 11 -10 -8 -33 -10 -67 -6 -122 15 -182 15 -199 0 -15 -13 -86
-29 -169 -38 -47 -5 -105 -29 -127 -52 -12 -13 -42 -29 -67 -36 -40 -10 -46
-16 -46 -38 0 -25 -30 -60 -50 -60 -6 0 -10 -5 -10 -11 0 -6 -14 -29 -31 -50
-29 -37 -54 -106 -64 -174 -2 -16 -9 -68 -15 -115 -6 -47 -16 -107 -21 -135
-9 -47 -24 -186 -36 -337 -4 -52 -9 -67 -23 -71 -9 -2 -29 -21 -44 -40 l-28
-36 0 -193 c-1 -156 2 -200 15 -230 9 -21 20 -38 25 -38 12 0 22 -48 15 -68
-4 -9 -15 -12 -34 -8 -16 3 -29 1 -29 -4 0 -6 -7 -10 -16 -10 -13 0 -15 7 -9
38 l6 38 -58 -7 c-32 -4 -83 -8 -113 -8 -31 -1 -60 -5 -65 -10 -14 -14 -75 17
-75 38 -1 10 -5 7 -13 -9 -14 -29 -36 -37 -48 -18 -6 9 -9 8 -10 -7 0 -13 -4
-8 -10 13 -8 28 -14 32 -44 32 -18 0 -36 4 -39 9 -7 11 -106 12 -106 1 0 -13
-73 -4 -98 11 -29 18 -30 76 -2 112 13 16 20 40 20 68 0 44 34 109 56 109 7 0
15 16 18 35 4 19 11 35 15 35 5 0 28 19 52 43 l44 42 79 -2 c70 -2 81 1 97 20
22 26 49 113 49 155 0 38 13 74 35 95 23 23 23 204 1 271 -9 26 -16 60 -16 76
0 18 -10 39 -25 54 -14 14 -25 37 -25 51 0 15 -9 54 -20 88 -11 34 -22 79 -25
100 -4 21 -10 35 -15 32 -5 -3 -16 8 -26 24 -11 18 -23 27 -34 24 -9 -3 -24 2
-32 11 -9 8 -18 13 -21 9 -12 -11 -36 67 -30 100 3 23 0 37 -11 46 -9 7 -16
20 -16 28 0 7 -7 16 -15 19 -8 4 -15 12 -15 20 0 8 -4 14 -10 14 -5 0 -10 6
-10 13 0 8 -9 22 -20 32 -11 10 -20 22 -20 27 0 5 -13 38 -30 73 -16 35 -30
68 -30 73 0 14 -82 102 -96 102 -28 0 -88 40 -97 64 -2 5 -13 4 -24 -3 -14 -7
-24 -8 -28 -1 -3 5 -19 10 -34 10 -16 0 -37 10 -51 25 -13 14 -29 25 -35 25
-6 0 -25 15 -41 33 -44 50 -122 91 -166 88 -29 -1 -38 2 -43 19 -3 11 -9 20
-13 20 -78 5 -127 13 -172 31 -30 11 -71 25 -90 31 -19 6 -42 13 -50 16 -8 2
-30 4 -47 3 -18 -2 -38 1 -45 5 -15 9 -76 13 -98 7z m-193 -1113 c3 -11 13
-20 23 -20 21 0 35 -41 17 -52 -7 -4 -20 -5 -31 -2 -13 4 -17 2 -14 -7 9 -26
47 -22 60 5 6 14 15 26 20 26 5 0 7 -4 4 -8 -3 -5 2 -21 10 -36 19 -38 18 -56
-4 -56 -11 0 -26 -8 -35 -18 -13 -15 -14 -21 -4 -32 10 -10 9 -12 -5 -7 -17 6
-30 -18 -32 -58 -1 -13 -9 -21 -23 -23 -14 -2 -22 -10 -20 -20 4 -33 -14 -112
-25 -109 -7 1 -14 -7 -16 -17 -3 -14 0 -17 12 -13 14 6 21 -4 17 -25 0 -5 6
-8 14 -8 8 0 15 -4 15 -10 0 -5 -7 -10 -15 -10 -21 0 -19 -13 5 -28 16 -10 18
-16 10 -38 -15 -38 -13 -46 10 -34 16 8 20 8 20 -4 0 -15 21 -26 51 -26 10 0
19 -5 19 -10 0 -6 8 -14 18 -17 35 -14 57 -59 22 -48 -11 3 -20 3 -20 -1 0
-13 33 -44 46 -44 15 0 33 -30 28 -45 -2 -5 7 -18 21 -27 21 -16 25 -16 39 -3
16 16 62 20 68 6 2 -5 19 -11 38 -13 32 -3 35 0 38 25 3 25 7 27 46 27 23 0
47 -5 54 -12 9 -9 17 -7 35 10 13 12 33 22 45 22 12 0 22 5 22 11 0 6 18 28
40 49 36 34 41 36 54 21 9 -10 13 -32 11 -61 -2 -26 2 -57 11 -74 14 -30 8
-45 -21 -46 -5 0 -2 -7 9 -15 14 -10 17 -21 12 -41 -5 -17 -2 -32 8 -43 9 -9
17 -37 20 -61 2 -25 7 -53 11 -62 6 -15 2 -18 -19 -18 -14 0 -26 -4 -26 -10 0
-5 -8 -10 -19 -10 -10 0 -24 -6 -30 -14 -11 -13 -15 -12 -31 4 -12 12 -32 19
-52 19 -18 -1 -44 3 -58 9 -14 5 -49 13 -77 17 -29 4 -53 12 -53 17 0 7 -5 6
-14 -1 -8 -7 -16 -8 -19 -4 -7 12 -2 101 6 109 4 4 7 18 7 31 0 29 -29 31 -53
2 -13 -14 -24 -18 -40 -13 -27 9 -37 9 -60 -1 -12 -5 -17 -3 -15 5 2 6 -7 19
-19 27 -15 10 -23 11 -23 4 0 -6 -7 -11 -15 -11 -8 0 -14 5 -12 11 3 14 -109
42 -135 33 -14 -4 -21 0 -25 15 -8 30 -20 26 -28 -9 -9 -40 -25 -38 -25 3 0
24 -6 35 -25 44 -20 9 -28 9 -37 -1 -15 -16 -84 1 -112 26 -11 10 -23 18 -27
18 -4 0 -10 10 -14 23 -12 43 -28 65 -41 60 -8 -3 -14 0 -14 6 0 6 5 11 11 11
6 0 9 9 6 20 -5 18 -1 22 19 19 10 -1 23 24 18 33 -3 4 -13 8 -23 8 -14 0 -20
10 -24 38 -2 20 0 42 4 48 5 6 10 20 12 32 2 12 6 25 10 28 4 4 7 16 7 27 0
13 5 17 15 13 21 -8 19 24 -2 39 -15 11 -15 15 6 49 13 20 23 52 24 72 1 21 5
33 12 30 8 -2 10 11 9 41 -2 31 1 46 12 50 7 3 14 11 14 19 0 8 5 14 10 14 6
0 10 -4 10 -10 0 -5 5 -10 11 -10 7 0 9 12 5 34 -6 31 -5 34 14 29 13 -3 20 0
21 8 0 8 4 4 9 -8 18 -44 91 -23 82 23 -3 17 3 26 24 38 38 20 45 20 51 -4z
m-607 -300 c-8 -5 -10 -10 -4 -10 18 0 35 -49 25 -69 -9 -16 -1 -44 13 -42 3
1 7 -2 9 -6 1 -5 -15 -12 -36 -17 -30 -8 -40 -7 -48 5 -6 10 -9 10 -9 2 0 -7
-7 -13 -15 -13 -8 0 -15 -9 -15 -20 0 -11 -6 -20 -14 -20 -8 0 -19 -14 -25
-31 -9 -27 -13 -30 -26 -19 -12 10 -15 10 -16 -1 0 -9 -2 -10 -5 -2 -3 6 4 31
14 55 11 24 23 59 27 78 8 39 44 80 90 104 33 17 59 22 35 6z m-1560 -1105 c0
-20 -5 -25 -25 -25 -14 0 -25 -4 -25 -9 0 -12 26 -21 61 -21 16 0 29 -4 29
-10 0 -5 -6 -10 -14 -10 -20 0 -45 -32 -28 -37 6 -3 12 -10 12 -16 0 -7 11
-25 24 -42 22 -27 24 -28 40 -12 18 18 41 24 32 8 -4 -5 0 -12 6 -14 7 -3 1
-6 -14 -6 -31 -1 -39 -27 -11 -33 12 -2 17 -15 18 -47 1 -30 8 -49 21 -59 18
-14 18 -14 -2 -8 -15 5 -24 0 -33 -16 -11 -22 -11 -22 -8 5 3 17 0 27 -8 27
-8 0 -10 -9 -7 -25 2 -15 0 -25 -7 -25 -16 0 -14 -19 4 -36 13 -14 15 -14 15
1 0 15 2 15 15 1 8 -8 15 -30 15 -48 -1 -30 -2 -31 -14 -15 -14 18 -14 18 -18
0 -3 -16 -7 -15 -32 10 -22 22 -31 25 -42 16 -11 -9 -18 -6 -33 12 -16 20 -21
21 -35 10 -9 -7 -16 -20 -16 -27 0 -10 -6 -11 -24 -4 -15 5 -27 5 -33 -1 -7
-7 -13 4 -17 33 -6 35 -9 40 -17 26 -12 -22 -65 -24 -73 -3 -4 10 -20 15 -53
15 -59 0 -97 18 -101 48 -3 17 2 22 17 22 12 0 24 0 29 0 4 0 7 -4 7 -10 0 -5
4 -10 9 -10 5 0 11 15 13 35 2 19 -1 35 -6 35 -5 0 -7 -10 -4 -21 5 -16 2 -20
-8 -17 -8 3 -13 11 -11 17 1 7 -5 20 -15 29 -16 16 -15 17 18 20 49 4 82 22
68 38 -6 7 -7 19 -3 25 5 8 2 10 -8 6 -26 -9 -37 12 -22 41 8 17 10 28 4 30
-6 2 -7 8 -4 13 3 6 17 -3 30 -18 13 -15 24 -23 24 -16 0 6 14 14 30 18 17 4
30 12 30 18 0 7 7 3 15 -7 15 -19 15 -19 15 2 0 13 6 22 15 22 8 0 15 5 15 11
0 18 32 38 62 39 17 0 31 8 38 20 15 29 40 25 40 -5z m5230 -134 c0 -11 4 -23
10 -26 5 -3 9 -21 7 -38 -1 -20 2 -31 9 -30 18 3 47 -34 41 -52 -9 -22 -24
-18 -31 8 l-6 22 -15 -23 c-9 -12 -20 -20 -25 -17 -13 8 -69 16 -122 18 -49 2
-62 12 -30 24 9 4 20 12 25 19 4 7 32 16 62 19 44 6 55 11 55 26 0 10 -4 21
-10 24 -6 4 -5 13 3 25 15 25 27 25 27 1z m-2473 -533 c18 -18 33 -37 33 -44
0 -6 17 -29 38 -51 20 -21 64 -73 96 -114 33 -42 74 -84 93 -94 49 -27 53 -58
15 -127 -21 -38 -27 -58 -19 -61 7 -2 9 -8 5 -12 -4 -4 -14 -2 -22 4 -11 10
-20 9 -38 -1 -13 -7 -26 -17 -30 -23 -5 -6 -8 -3 -8 6 0 9 -6 19 -14 22 -8 3
-18 36 -25 84 -6 44 -24 106 -41 142 -17 35 -30 69 -30 76 0 15 -65 85 -79 85
-14 0 -14 -21 -1 -55 5 -14 11 -40 12 -58 1 -18 9 -43 18 -57 30 -44 53 -315
28 -332 -10 -8 -10 -11 0 -15 6 -2 10 -8 7 -13 -3 -4 2 -13 10 -20 8 -7 15
-23 15 -36 0 -31 31 -144 39 -144 4 0 7 -24 7 -53 1 -29 7 -63 13 -75 15 -29
5 -62 -18 -62 -10 0 -34 11 -54 24 -19 13 -48 27 -63 30 -33 8 -74 39 -74 55
0 6 -6 11 -14 11 -12 0 -48 25 -109 76 -11 9 -26 13 -34 10 -9 -4 -21 -2 -27
2 -6 5 -23 12 -38 16 -23 5 -30 2 -42 -23 -24 -46 -73 -81 -113 -81 -71 0
-168 -22 -181 -41 -7 -11 -20 -19 -29 -19 -9 0 -33 -17 -52 -38 -42 -44 -118
-91 -158 -96 -15 -2 -66 -16 -113 -30 -47 -14 -95 -26 -106 -26 -12 0 -27 -6
-34 -14 -6 -8 -18 -12 -26 -9 -11 4 -7 13 17 40 17 20 35 46 41 59 6 13 15 24
19 24 4 0 11 10 15 23 9 30 209 229 309 308 93 74 188 126 184 102 -4 -22 2
-25 15 -8 12 17 16 18 32 5 15 -13 16 -13 9 -1 -6 11 -4 13 10 8 25 -10 45 10
45 46 0 28 1 29 35 24 32 -5 37 -3 45 19 5 13 18 27 27 30 10 3 28 10 39 16
23 11 64 -4 64 -22 0 -6 5 -10 10 -10 6 0 10 11 10 25 0 20 5 25 24 25 27 0
36 16 36 69 0 25 7 42 21 55 16 13 20 26 17 52 -2 19 0 34 5 34 6 0 7 22 3 53
-4 28 -7 61 -7 72 0 60 24 130 47 139 9 3 12 10 9 16 -4 6 5 10 21 10 18 0 40
-12 61 -32z m1408 -739 c-4 -5 1 -9 9 -9 9 0 16 6 16 13 0 9 3 8 9 -2 5 -7 27
-14 50 -15 26 0 41 -5 41 -13 0 -7 4 -13 8 -13 4 0 8 -14 7 -30 0 -26 -5 -32
-33 -40 -45 -12 -62 -4 -62 31 0 22 -5 29 -20 29 -11 0 -19 -6 -17 -12 1 -9
-10 -13 -34 -13 -20 0 -42 -5 -50 -11 -9 -8 -22 -9 -38 -3 -20 8 -22 11 -10
27 37 48 54 62 81 62 15 0 28 5 28 11 0 5 5 7 10 4 6 -4 8 -11 5 -16z m-2830
-385 c8 -19 15 -54 16 -77 3 -97 8 -102 132 -142 62 -21 135 -48 164 -61 28
-13 59 -24 67 -24 8 0 17 -4 20 -9 6 -9 124 -68 188 -95 21 -8 50 -26 64 -40
15 -13 33 -22 42 -19 9 4 13 1 10 -7 -5 -16 -345 -17 -396 -1 -18 5 -41 7 -50
5 -13 -5 -14 -4 -3 4 11 8 10 12 -7 21 -30 16 -33 14 -22 -15 13 -34 13 -34
-10 -34 -18 0 -82 51 -129 103 -8 9 -27 17 -42 17 -15 0 -32 7 -39 15 -9 10
-17 12 -23 6 -17 -17 -37 -1 -31 24 4 17 0 26 -14 34 -12 6 -24 21 -28 33 -3
13 -13 31 -22 41 -17 19 -18 13 32 154 28 81 46 114 58 107 5 -3 15 -21 23
-40z m2493 -73 c8 -11 20 -21 27 -21 7 0 27 -18 43 -41 17 -22 44 -51 61 -63
17 -13 28 -26 24 -29 -3 -4 3 -10 13 -14 10 -3 37 -24 58 -45 35 -34 45 -39
77 -35 20 2 47 11 60 21 13 9 38 16 56 16 17 0 35 5 38 10 3 6 17 8 30 6 16
-3 34 5 56 25 18 16 40 29 50 29 9 0 20 7 23 16 3 8 10 12 16 9 6 -3 24 8 41
25 36 35 89 52 89 28 0 -8 9 -23 20 -33 11 -10 20 -26 20 -35 0 -9 9 -25 20
-35 11 -10 20 -25 20 -33 0 -26 24 -86 42 -106 19 -20 31 -99 26 -161 -3 -37
-5 -40 -32 -40 -20 -1 -31 -7 -36 -21 -16 -43 -82 -69 -118 -46 -13 8 -60 18
-106 22 -80 8 -129 26 -139 53 -6 17 4 78 12 73 17 -11 32 14 37 60 5 43 3 55
-20 88 -14 21 -26 32 -26 23 0 -16 -63 -87 -78 -87 -5 0 -24 -14 -43 -31 -29
-26 -39 -29 -69 -23 -59 11 -121 4 -152 -18 -23 -15 -46 -21 -101 -22 l-72 -1
-1 35 c-1 45 -25 96 -45 93 -8 -2 -19 7 -24 20 -6 14 -18 22 -33 21 -15 0 -22
5 -22 18 0 10 -4 18 -10 18 -5 0 -13 12 -16 28 -4 15 -11 30 -17 33 -5 4 -5
14 2 27 6 11 11 38 11 59 0 24 9 52 24 74 24 34 25 35 87 33 52 -1 65 -5 77
-23z m5958 -226 c13 -20 24 -25 59 -25 25 0 50 -6 58 -15 13 -13 17 -12 30 8
14 21 15 21 22 -24 5 -32 2 -56 -9 -83 -9 -21 -16 -49 -16 -61 0 -13 -14 -54
-31 -92 -18 -37 -34 -86 -36 -107 -3 -26 -16 -53 -38 -79 -19 -22 -37 -52 -40
-68 -7 -33 -59 -87 -91 -95 -11 -3 -29 -23 -40 -47 -15 -34 -27 -45 -62 -57
-39 -13 -45 -13 -77 4 -20 11 -38 30 -41 42 -3 13 -12 28 -20 35 -10 8 -11 16
-4 29 6 11 6 21 2 24 -13 8 -2 63 14 77 8 6 14 23 14 36 0 25 -27 82 -45 95
-6 5 -5 8 3 8 6 0 12 7 12 15 0 8 8 15 19 15 18 0 24 -11 41 -70 7 -22 8 -23
9 -4 1 15 10 23 31 28 24 4 30 11 30 31 0 15 5 24 13 23 6 -2 11 4 9 13 -4 24
24 42 55 36 36 -7 63 8 63 35 0 12 13 33 29 47 22 20 30 35 29 59 -1 18 -4 32
-8 32 -13 0 -30 51 -30 90 0 71 17 88 46 45z m-4773 -101 c19 -7 25 -74 7 -74
-5 0 -10 -7 -10 -15 0 -45 -95 -42 -132 4 -13 16 -33 34 -45 40 -13 7 -23 21
-23 33 0 19 4 20 48 15 26 -3 63 -2 82 3 19 4 40 6 45 4 6 -2 18 -7 28 -10z
m2947 -1437 c20 -17 47 -39 60 -48 18 -12 23 -24 22 -52 -2 -66 -87 -220 -135
-246 -13 -7 -46 -35 -73 -63 -44 -46 -51 -49 -83 -43 -52 9 -85 47 -77 90 4
18 15 44 26 58 11 14 20 31 20 37 0 7 15 35 33 62 17 28 32 53 33 57 0 3 13
33 28 66 57 124 85 139 146 82z m-6388 -619 c2 -19 8 -22 36 -20 50 5 90 -7
97 -30 5 -15 12 -18 31 -14 18 5 34 -1 59 -20 33 -24 74 -27 60 -4 -3 6 5 10
19 10 13 0 27 6 29 13 4 8 12 4 25 -12 23 -28 49 -23 54 10 2 17 11 22 46 25
24 2 42 0 42 -6 0 -6 -4 -10 -10 -10 -5 0 -10 -7 -10 -15 0 -21 27 -19 57 5
17 13 33 17 54 13 20 -4 35 0 47 11 14 12 35 15 91 13 49 -2 75 2 78 9 3 9 14
10 34 4 17 -5 52 -6 79 -3 34 4 54 1 69 -9 15 -10 39 -14 79 -11 43 3 74 -2
113 -16 30 -12 68 -21 85 -21 16 0 39 -7 50 -15 10 -8 38 -15 61 -15 32 0 45
-5 53 -20 9 -18 20 -20 78 -19 37 0 79 -1 95 -4 15 -2 30 0 33 4 8 14 24 10
24 -5 0 -15 35 -16 57 -3 6 4 14 1 16 -5 4 -10 8 -9 16 2 10 13 13 13 26 -4
12 -16 17 -17 30 -6 9 7 50 14 98 16 45 2 98 8 118 15 33 10 43 9 92 -16 31
-15 60 -24 65 -21 6 3 13 -1 16 -10 3 -8 10 -13 15 -10 5 3 14 -1 21 -9 7 -8
16 -13 20 -10 7 4 17 -16 25 -55 2 -8 9 -16 16 -19 8 -2 7 -6 -2 -12 -18 -11
-8 -19 27 -23 23 -2 30 -9 32 -30 2 -16 10 -26 20 -26 20 -1 54 -25 46 -33
-13 -13 52 -77 83 -83 45 -8 54 -24 50 -80 -4 -48 -5 -49 -35 -46 -21 2 -38
-4 -58 -23 -16 -15 -54 -39 -84 -55 -30 -15 -68 -35 -85 -44 -16 -9 -37 -16
-45 -16 -8 0 -27 -7 -42 -14 -25 -13 -28 -13 -29 2 0 11 -4 8 -10 -8 -8 -23
-84 -80 -105 -80 -5 0 -20 -13 -34 -30 -14 -16 -33 -30 -42 -30 -10 0 -18 -7
-18 -15 0 -13 -55 -35 -87 -35 -7 0 -13 -4 -13 -8 0 -5 -10 -18 -21 -31 -15
-16 -28 -21 -45 -17 -12 3 -25 2 -28 -3 -3 -5 -14 -7 -25 -4 -10 2 -25 -3 -35
-12 -15 -15 -20 -15 -71 4 -31 12 -65 21 -77 21 -12 0 -36 15 -53 33 -17 17
-40 39 -51 47 -10 8 -34 27 -52 43 -24 19 -45 27 -73 27 -25 0 -42 5 -45 14
-4 9 -27 17 -62 22 -30 4 -81 19 -111 34 -31 15 -78 30 -104 34 -27 3 -58 13
-70 21 -12 8 -31 15 -44 15 -12 0 -25 5 -28 10 -3 6 -15 10 -25 10 -10 0 -31
5 -47 11 -15 6 -45 12 -65 13 -23 1 -47 11 -61 24 -13 12 -36 22 -53 22 -16 0
-49 7 -74 16 -25 9 -62 16 -82 16 -21 1 -38 4 -38 9 0 5 -21 8 -47 9 -27 0
-59 1 -73 1 -36 2 -103 -5 -115 -13 -5 -3 -46 -9 -90 -13 -44 -4 -96 -14 -114
-23 -19 -9 -49 -15 -67 -13 -21 1 -38 -4 -50 -17 -11 -10 -40 -27 -65 -37 -37
-13 -48 -23 -52 -44 -3 -15 -17 -38 -31 -52 -25 -25 -25 -25 -3 -25 13 1 26
-7 31 -21 8 -16 18 -21 45 -21 41 1 71 -10 71 -24 0 -6 -19 -7 -50 -3 -42 6
-51 4 -57 -11 -4 -11 0 -22 13 -31 13 -9 18 -23 16 -43 -4 -33 -10 -31 103
-30 47 1 67 -4 87 -19 14 -12 31 -21 38 -21 11 0 40 -24 40 -33 0 -2 -12 -4
-27 -5 -16 0 -41 -8 -58 -16 -16 -9 -40 -16 -52 -16 -13 0 -23 -5 -23 -11 0
-6 9 -8 20 -4 11 3 20 4 20 1 0 -17 -44 -46 -70 -46 -25 0 -32 -6 -48 -44 -11
-24 -25 -47 -31 -50 -6 -4 -8 -12 -5 -18 4 -5 8 -30 9 -55 4 -49 12 -64 24
-45 6 9 12 7 26 -8 10 -11 24 -20 31 -20 7 0 24 -12 38 -26 25 -28 59 -36 89
-22 12 6 17 5 17 -4 0 -7 10 -18 22 -23 13 -6 27 -19 33 -30 5 -12 20 -32 33
-45 12 -13 22 -28 22 -33 0 -5 6 -7 14 -4 8 3 22 -3 32 -14 9 -10 25 -19 36
-19 10 0 18 -4 18 -9 0 -5 13 -12 30 -16 16 -4 32 -11 35 -16 4 -5 19 -9 34
-9 16 0 40 -9 55 -21 14 -11 32 -19 39 -16 6 2 18 -3 26 -10 8 -9 22 -12 35
-8 12 4 58 9 103 11 58 3 92 10 116 24 26 15 53 20 128 21 97 1 124 9 147 41
7 10 19 18 27 18 19 0 27 16 31 58 1 19 7 38 12 41 6 3 12 20 14 36 3 26 7 30
33 28 17 0 39 -3 50 -5 13 -2 23 6 33 25 7 15 17 27 21 27 9 0 24 38 22 53 -1
4 10 7 23 7 25 0 36 16 36 55 0 12 6 27 13 33 16 13 161 5 166 -9 2 -6 16 2
32 17 22 21 37 27 69 26 50 -2 96 -34 104 -73 5 -28 29 -39 41 -19 7 12 35 2
35 -13 0 -18 112 -240 132 -261 10 -11 20 -28 24 -38 3 -10 15 -18 28 -18 26
0 91 -32 120 -59 21 -20 59 -23 84 -7 6 4 21 2 33 -4 16 -9 24 -8 39 5 13 12
27 15 54 10 24 -5 36 -4 36 4 0 7 6 11 13 10 6 -1 24 3 38 9 15 6 36 8 48 5
14 -3 29 4 48 24 48 49 59 56 82 44 13 -7 22 -8 26 -1 10 17 25 11 25 -9 0
-11 5 -23 10 -26 6 -3 10 -1 10 6 0 16 47 59 65 59 20 0 37 -70 41 -170 2 -47
7 -106 12 -132 5 -26 6 -67 2 -90 -5 -23 -6 -47 -3 -54 2 -6 -5 -29 -16 -50
-12 -21 -21 -47 -21 -57 0 -11 -9 -21 -20 -24 -13 -3 -20 -14 -20 -28 0 -29
-35 -107 -43 -98 -11 10 -36 -29 -37 -54 0 -24 -14 -31 -25 -13 -4 6 -25 -9
-50 -35 -37 -38 -49 -45 -83 -45 -41 0 -73 -22 -52 -35 8 -5 4 -12 -10 -22
-14 -10 -19 -21 -15 -34 4 -10 2 -19 -3 -19 -5 0 -12 9 -15 20 -4 17 -11 19
-39 13 -18 -3 -45 -14 -60 -24 -14 -11 -35 -19 -45 -19 -11 0 -26 -11 -33 -25
-20 -38 -91 -25 -85 15 2 9 -5 31 -14 49 -15 29 -19 31 -30 17 -8 -9 -20 -16
-27 -16 -8 0 -14 -4 -14 -9 0 -14 -164 -111 -188 -111 -10 0 -30 8 -43 18 -13
10 -38 25 -56 32 -17 8 -30 17 -27 21 6 10 -40 17 -163 25 -100 6 -114 5 -140
-13 -24 -17 -33 -18 -63 -7 -20 6 -45 8 -61 4 -14 -4 -38 -5 -53 -3 -35 7 -28
-12 19 -51 19 -16 35 -35 35 -41 0 -21 -25 -65 -37 -65 -6 0 -21 -16 -33 -35
-30 -48 -68 -73 -126 -81 -31 -4 -54 -13 -62 -25 -7 -11 -24 -19 -38 -19 -13
0 -24 -4 -24 -10 0 -18 -24 -11 -45 14 -16 18 -25 21 -42 15 -13 -5 -23 -13
-23 -19 0 -6 -26 -10 -61 -10 -33 0 -58 -4 -55 -8 3 -5 -1 -9 -9 -9 -8 0 -17
7 -19 14 -9 21 -26 5 -26 -23 0 -20 -4 -25 -22 -23 -13 2 -32 -2 -44 -8 -11
-7 -31 -9 -43 -6 -16 4 -27 -1 -38 -17 -12 -17 -17 -19 -24 -9 -6 10 -9 8 -9
-7 0 -12 -7 -27 -15 -34 -8 -7 -15 -19 -15 -27 0 -11 -7 -14 -25 -11 -24 5
-25 3 -20 -26 5 -27 2 -35 -24 -54 -18 -13 -28 -28 -25 -36 7 -19 -26 -83 -35
-68 -8 13 -67 -4 -94 -27 -9 -7 -25 -10 -36 -6 -11 3 -23 1 -27 -6 -4 -8 -14
7 -26 37 -13 31 -16 50 -9 52 8 3 8 9 0 23 -5 11 -15 17 -21 13 -7 -4 -6 -9 2
-14 7 -4 9 -13 5 -20 -6 -9 -12 -7 -25 10 -16 21 -20 22 -54 10 -20 -6 -36
-16 -36 -21 0 -6 -7 -6 -19 0 -14 8 -20 7 -25 -4 -4 -10 1 -15 16 -15 17 0 19
-3 10 -12 -16 -16 -68 3 -64 22 2 8 4 27 4 42 1 21 6 28 22 28 19 1 17 4 -12
28 -18 15 -32 33 -32 40 0 6 -4 12 -10 12 -5 0 -10 11 -10 24 0 30 -36 112
-42 95 -2 -7 -11 -10 -20 -7 -20 8 -81 128 -65 128 7 0 -1 12 -17 26 -16 14
-35 23 -42 20 -9 -3 -14 2 -14 14 0 19 -25 28 -32 12 -1 -4 -14 -2 -28 4 l-24
13 22 8 c20 8 19 11 -28 51 -50 43 -76 56 -47 24 19 -21 11 -38 -10 -21 -7 6
-13 24 -13 40 0 27 -3 29 -40 29 -22 0 -41 5 -41 10 -1 6 -3 15 -4 20 -1 6 -3
14 -4 18 0 5 -11 8 -23 8 -18 -1 -22 5 -24 38 -4 55 -22 93 -46 99 -11 3 -17
10 -13 16 3 6 -6 22 -20 35 -18 17 -22 26 -13 29 9 3 7 11 -9 26 -13 12 -23
32 -23 45 0 13 -7 26 -15 29 -8 4 -17 27 -21 57 -5 41 -12 54 -30 62 -26 12
-34 44 -9 34 9 -3 15 0 15 10 0 8 -4 12 -10 9 -5 -3 -11 -1 -11 4 -1 6 -2 15
-3 19 0 5 -9 17 -19 27 -12 12 -17 28 -15 47 3 19 0 28 -9 28 -7 0 -13 5 -13
11 0 6 -7 17 -15 25 -9 10 -12 25 -8 44 3 16 2 37 -2 47 -14 32 8 173 27 173
4 0 8 23 8 50 0 28 6 65 13 83 8 18 12 49 9 70 -3 24 0 37 7 37 7 0 10 4 7 9
-4 5 -1 11 6 13 14 5 27 108 17 135 -3 10 -1 29 6 43 8 14 13 46 13 70 0 143
2 160 23 181 11 11 18 27 15 34 -3 8 4 25 15 38 10 14 19 30 19 36 0 6 11 13
25 17 18 4 25 13 25 31 0 18 8 27 30 34 33 12 36 19 18 37 -9 9 -7 12 10 12
13 0 22 6 22 15 0 8 6 15 13 15 8 0 7 4 -3 10 -13 8 -13 10 1 10 10 0 20 11
23 26 4 14 46 65 94 113 48 48 110 113 137 144 28 32 57 56 65 55 24 -3 58 11
64 27 3 8 12 15 21 15 11 0 15 11 15 47 0 35 3 44 11 36 6 -6 18 -9 26 -6 11
4 11 8 3 13 -8 5 -3 18 17 41 16 19 42 55 59 81 16 27 37 48 46 48 9 0 20 5
23 10 11 18 34 10 37 -12z m5398 -228 c5 -8 12 -11 16 -7 12 12 44 -62 44
-104 0 -46 -19 -71 -53 -69 -58 5 -71 -5 -42 -34 21 -21 19 -55 -7 -75 -18
-15 -21 -28 -21 -80 0 -34 3 -64 6 -68 4 -3 25 -9 49 -13 44 -8 63 1 53 28 -2
6 -3 12 -1 12 3 0 11 3 19 6 8 3 17 -2 21 -11 3 -9 2 -13 -3 -10 -5 3 -12 1
-16 -5 -3 -5 1 -10 9 -10 9 0 16 -5 16 -11 0 -6 -7 -9 -15 -5 -9 3 -15 0 -15
-10 0 -8 -7 -14 -17 -12 -12 2 -20 -7 -26 -30 -6 -20 -15 -31 -23 -28 -7 3
-21 -9 -32 -25 -11 -17 -21 -30 -23 -28 -7 4 -84 -39 -106 -60 -12 -12 -29
-21 -38 -21 -9 0 -18 -7 -21 -15 -4 -8 -13 -15 -21 -15 -8 0 -28 -8 -44 -17
-24 -14 -32 -15 -53 -4 -26 14 -76 8 -76 -9 0 -16 -46 -12 -60 5 -7 8 -17 15
-23 15 -6 0 -18 7 -28 16 -17 16 -43 24 -151 49 -31 7 -62 16 -69 21 -7 4 -29
7 -50 6 -22 -2 -41 3 -49 13 -7 8 -22 15 -34 15 -11 1 -32 7 -46 15 -14 8 -39
14 -56 15 -40 0 -51 24 -23 53 18 19 30 22 105 22 85 0 85 0 82 25 -2 19 -10
26 -31 28 -23 3 -27 7 -21 20 5 9 8 48 9 87 0 65 1 69 25 76 14 3 35 4 48 2
19 -4 22 -1 23 23 1 57 11 119 18 124 5 3 11 12 14 20 4 11 6 10 7 -5 1 -11 2
-28 1 -37 -1 -10 4 -18 13 -18 9 0 16 9 16 20 0 22 25 28 33 8 3 -7 6 0 6 16
1 22 -2 26 -12 18 -10 -8 -16 -6 -25 9 -11 17 -9 19 10 19 29 -1 56 -21 51
-37 -3 -7 3 -13 12 -13 12 0 15 6 10 20 -5 15 0 21 19 26 14 3 29 3 35 0 12
-8 30 24 24 42 -3 6 0 12 6 12 7 0 15 -10 20 -22 6 -18 17 -22 57 -24 27 -1
66 1 86 6 31 6 38 5 43 -10 3 -9 2 -25 -1 -35 -7 -16 -3 -17 25 -12 29 6 32 5
27 -10 -4 -10 -4 -14 0 -10 4 4 12 3 18 -2 6 -5 27 -12 46 -15 30 -6 33 -5 19
6 -11 9 -15 23 -11 46 4 29 8 32 38 32 23 0 34 5 34 15 0 8 11 17 25 21 14 3
25 10 25 14 0 21 67 21 80 0z m-7218 -72 c17 -14 42 -103 33 -118 -3 -5 1 -25
9 -45 8 -19 11 -35 7 -35 -5 0 -5 -19 -1 -42 10 -52 -1 -68 -46 -68 -55 0 -81
17 -82 54 -1 18 -6 46 -12 62 -6 15 -11 50 -12 76 0 26 -4 48 -9 48 -17 0 -9
29 11 40 11 6 20 8 20 5 0 -4 12 3 28 14 32 24 34 25 54 9z m9043 -579 c7 -11
107 -59 123 -59 5 0 19 -13 31 -29 13 -16 41 -37 64 -46 23 -9 55 -28 73 -43
62 -53 74 -62 86 -62 6 0 8 -3 5 -7 -12 -11 13 -31 33 -26 11 3 20 0 20 -6 0
-6 11 -11 25 -11 25 0 29 -8 25 -44 -2 -18 -1 -18 15 -2 13 13 20 14 31 5 8
-7 17 -9 20 -6 4 3 15 -3 27 -14 11 -10 33 -19 47 -19 17 0 41 -13 65 -36 40
-38 73 -54 107 -54 32 0 84 -45 107 -93 13 -27 25 -82 32 -143 21 -191 22
-223 9 -255 -10 -22 -14 -105 -14 -289 -1 -143 -5 -262 -9 -266 -4 -4 -2 -13
4 -21 9 -10 7 -19 -5 -38 -9 -13 -17 -46 -18 -73 -1 -32 -6 -48 -13 -45 -7 2
-12 -2 -13 -9 -4 -41 -17 -76 -36 -98 -27 -30 -59 -110 -44 -110 20 0 2 -34
-22 -40 -21 -5 -25 -12 -25 -43 0 -29 -4 -37 -17 -37 -10 0 -18 8 -18 18 -1
16 -1 16 -11 0 -8 -14 -4 -24 16 -44 14 -14 23 -30 20 -35 -4 -5 -1 -9 5 -9
21 0 49 -44 38 -58 -6 -7 -8 -16 -4 -19 4 -4 11 -1 15 6 7 11 10 10 14 -5 4
-16 2 -149 -3 -149 -1 0 -2 -16 -4 -36 l-3 -36 56 -11 c36 -8 57 -8 59 -2 5
14 52 -20 52 -37 0 -22 39 -73 56 -73 8 0 14 -4 14 -10 0 -5 -4 -10 -9 -10 -5
0 -12 -17 -16 -37 -4 -21 -11 -44 -17 -50 -6 -7 -8 -19 -5 -28 4 -8 2 -17 -3
-20 -5 -3 -9 -38 -9 -78 1 -112 0 -114 -21 -120 -21 -5 -28 -41 -10 -52 17
-10 11 -25 -10 -25 -10 0 -23 7 -28 16 -7 13 -11 9 -16 -19 -4 -19 -18 -46
-32 -60 -14 -15 -23 -31 -19 -37 3 -5 2 -10 -3 -10 -6 0 -8 -9 -5 -20 5 -17 0
-20 -29 -20 -19 0 -39 -5 -45 -11 -15 -15 -73 -1 -73 17 0 16 -9 18 -30 4 -13
-8 -11 -11 8 -16 25 -7 30 -29 8 -37 -8 -3 -23 -3 -33 -1 -11 3 -25 -1 -32 -9
-10 -13 -8 -17 9 -22 15 -5 20 -13 17 -26 -3 -10 -1 -19 4 -19 5 0 9 -7 9 -15
0 -8 9 -20 20 -27 11 -7 20 -20 20 -29 0 -8 14 -31 31 -50 17 -19 38 -44 46
-56 9 -13 24 -23 34 -23 11 0 19 -7 19 -15 0 -10 -10 -15 -33 -15 -25 0 -37
-6 -47 -24 -14 -28 -7 -61 12 -50 8 5 9 2 5 -9 -7 -19 13 -23 30 -6 6 6 34 9
65 7 39 -3 56 0 65 12 6 8 15 11 20 7 4 -5 1 -14 -8 -20 -9 -7 -18 -23 -22
-37 -3 -14 -18 -32 -32 -40 -25 -16 -25 -16 -5 -33 19 -16 20 -16 20 4 0 15 5
19 15 15 8 -3 14 0 12 6 -1 7 8 13 21 14 15 1 21 -3 18 -11 -3 -8 2 -11 15 -8
15 4 18 2 13 -11 -3 -9 -10 -13 -15 -10 -5 3 -9 -1 -9 -9 0 -16 -27 -30 -41
-21 -5 3 -9 -1 -9 -9 0 -18 -38 -61 -67 -76 -25 -13 -31 -41 -9 -41 13 0 25
-20 26 -45 1 -5 13 -17 28 -25 22 -11 24 -15 10 -18 -16 -3 -23 -20 -19 -44 0
-3 -13 -12 -29 -20 -26 -11 -30 -18 -30 -50 0 -33 -5 -41 -40 -63 -22 -14 -40
-30 -40 -36 0 -5 -4 -7 -10 -4 -5 3 -10 2 -10 -2 0 -12 -88 -43 -120 -43 -22
-1 -23 -2 -7 -11 9 -5 17 -19 17 -30 0 -11 7 -22 16 -26 12 -4 13 -8 3 -13
-16 -11 10 -39 30 -32 10 3 12 -2 7 -21 -4 -16 -1 -27 7 -30 18 -7 41 8 33 21
-3 5 0 15 8 21 14 12 33 -4 55 -46 6 -13 18 -23 26 -23 8 0 18 -8 24 -17 8
-14 12 -15 22 -6 16 16 39 -1 39 -29 0 -11 5 -16 10 -13 6 4 17 2 24 -4 7 -6
34 -13 60 -15 25 -3 56 -8 69 -11 17 -5 19 -4 7 4 -13 9 -13 11 2 11 9 0 20
-12 26 -28 11 -31 -1 -72 -20 -72 -7 0 -4 -6 7 -12 11 -7 26 -18 33 -25 11
-11 7 -13 -24 -13 l-37 0 7 -54 c7 -61 1 -87 -19 -80 -7 3 -15 -2 -18 -10 -4
-9 -15 -16 -26 -16 -11 0 -23 -5 -27 -11 -10 -16 -26 5 -18 24 3 10 17 17 31
17 15 0 23 5 20 13 -9 27 -63 0 -78 -41 -6 -15 -15 -22 -23 -19 -8 3 -17 1
-20 -6 -5 -9 -7 -9 -12 1 -9 20 -26 14 -19 -8 4 -11 2 -20 -4 -20 -6 0 -11 15
-11 33 0 31 -29 64 -44 50 -10 -10 -7 -43 5 -43 5 0 8 -4 4 -9 -3 -5 -1 -12 5
-16 5 -3 10 -22 10 -41 0 -19 6 -43 13 -55 10 -17 9 -22 -5 -33 -16 -12 -16
-14 3 -29 10 -9 19 -26 19 -37 0 -11 7 -23 15 -26 10 -4 13 -13 10 -24 -3 -10
-1 -21 5 -25 5 -3 10 -1 10 6 0 7 3 9 7 6 4 -4 8 -31 10 -60 2 -28 8 -54 13
-55 30 -10 1 -19 -64 -21 -85 -2 -95 5 -144 91 -15 27 -30 48 -33 48 -4 0 -13
20 -20 45 -13 44 -17 47 -79 60 -32 7 -51 19 -48 33 4 25 -49 130 -72 142 -12
6 -20 16 -18 23 4 21 -34 87 -51 87 -9 0 -29 12 -44 25 -24 21 -27 30 -21 60
6 34 24 59 24 34 0 -10 3 -10 12 -1 9 9 8 16 -4 29 -9 10 -22 36 -29 58 -7 22
-17 46 -22 52 -5 7 -10 27 -12 45 -7 82 -19 134 -31 141 -8 4 -14 15 -14 23 0
8 5 12 10 9 14 -8 13 8 -1 22 -8 8 -6 16 10 29 30 26 26 34 -14 34 -47 0 -56
26 -53 148 2 69 0 96 -9 99 -7 3 -13 9 -13 15 0 5 -7 16 -15 24 -8 9 -17 27
-20 42 -12 56 -28 102 -37 102 -15 0 -26 44 -16 63 13 26 78 20 78 -8 0 -6 8
-19 18 -28 9 -8 31 -42 47 -74 17 -32 35 -61 41 -65 7 -4 15 -24 18 -44 5 -23
12 -34 20 -31 8 3 17 -11 24 -39 7 -27 18 -44 27 -44 8 0 15 5 15 11 0 5 4 8
9 5 15 -10 34 23 28 50 -3 18 1 29 14 37 11 7 19 17 19 23 0 6 12 9 30 6 17
-2 30 -10 30 -17 0 -8 7 -21 16 -30 15 -15 18 -15 35 1 23 20 25 36 4 28 -12
-5 -15 2 -15 34 0 23 7 47 15 56 20 19 20 19 -13 54 -22 24 -34 29 -56 25 -26
-5 -101 12 -120 28 -4 4 4 18 19 31 l27 23 -39 8 c-21 5 -49 9 -63 11 -52 5
-69 16 -80 56 -11 42 -48 89 -71 91 -10 0 -11 2 -1 6 16 6 15 31 -3 49 -8 9
-15 24 -15 35 0 11 -7 27 -15 35 -9 10 -13 24 -9 40 5 18 2 24 -10 24 -9 0
-16 7 -16 16 0 11 5 14 16 10 58 -22 83 -15 49 14 -8 7 -14 18 -14 24 1 6 -1
23 -5 39 -5 17 -4 33 4 42 11 14 9 39 -7 81 -6 17 -5 17 17 1 29 -20 70 -22
71 -4 0 6 5 2 11 -10 6 -12 18 -24 27 -27 9 -3 23 -11 32 -17 14 -10 20 -9 33
4 9 8 16 20 16 26 0 6 4 11 10 11 5 0 7 6 4 14 -3 8 -29 22 -57 31 -28 9 -56
23 -62 30 -13 17 -74 25 -98 13 -13 -7 -19 -4 -26 14 -5 13 -6 29 -4 36 3 7
-3 12 -15 12 -27 0 -82 32 -82 48 0 7 -13 26 -30 42 -35 34 -35 39 -15 116 19
72 27 81 61 65 31 -14 40 -9 29 16 -5 10 -7 22 -6 27 3 14 -33 36 -59 35 -87
-4 -100 0 -100 27 0 22 -3 24 -14 15 -10 -8 -16 -9 -21 -2 -4 7 -12 7 -24 -1
-19 -12 -38 3 -155 120 -18 17 -40 32 -49 32 -9 0 -17 1 -18 3 0 1 -3 22 -6
47 -3 25 -10 50 -15 57 -5 7 -7 17 -3 23 3 5 2 10 -2 10 -14 0 -63 50 -63 64
0 26 30 25 57 -2 17 -17 28 -22 31 -14 2 7 9 12 16 12 14 0 86 -68 86 -81 0
-5 5 -9 11 -9 7 0 9 11 6 28 -5 24 -2 30 24 39 24 9 29 9 29 -4 0 -13 8 -14
42 -9 23 4 46 12 50 19 8 14 -9 37 -28 37 -8 0 -16 11 -20 25 -4 16 -14 25
-28 26 -20 1 -20 2 -1 6 11 3 27 11 35 19 26 22 93 47 128 47 28 0 33 3 30 20
-2 11 -12 25 -23 31 -27 15 -34 26 -28 43 3 8 0 13 -8 11 -7 -2 -15 7 -17 19
-4 29 -31 37 -53 17 -12 -11 -27 -14 -44 -10 -31 8 -33 36 -2 36 21 1 21 1 3
15 -10 7 -15 19 -11 25 4 6 4 18 1 27 -5 12 -9 13 -20 4 -11 -9 -16 -6 -24 19
-7 20 -18 30 -31 30 -22 0 -54 27 -46 40 3 4 -4 10 -15 13 -19 5 -20 11 -14
99 3 51 7 101 9 111 2 9 -2 17 -7 17 -6 0 -5 6 2 15 13 15 8 19 -22 16 -10 -1
-18 4 -18 12 0 9 -9 12 -30 9 -25 -4 -31 -10 -36 -41 -4 -20 -15 -42 -25 -48
-10 -8 -20 -33 -24 -64 -6 -46 -5 -53 19 -78 14 -15 26 -32 26 -39 0 -7 7 -12
15 -12 9 0 15 -9 15 -25 0 -14 6 -28 14 -31 18 -7 27 -29 20 -48 -4 -10 -13
-12 -32 -7 -47 13 -108 -17 -97 -46 2 -7 -2 -13 -9 -13 -8 0 -13 7 -12 16 0 9
-5 19 -12 21 -9 4 -11 -2 -7 -20 5 -19 2 -28 -13 -36 -12 -6 -24 -20 -27 -31
-5 -15 -12 -19 -25 -15 -28 9 -32 -10 -10 -47 11 -18 22 -40 26 -48 3 -8 9
-22 14 -31 5 -9 12 -33 15 -53 9 -46 -5 -47 -74 -7 -27 16 -52 27 -55 24 -3
-4 -6 1 -6 10 0 10 -15 23 -34 31 -38 16 -45 25 -52 64 -3 15 -9 31 -15 36 -5
6 -9 20 -9 33 0 17 -6 23 -23 23 -29 0 -47 18 -47 46 0 11 -11 33 -24 47 -13
14 -27 41 -31 59 -4 18 -13 44 -20 58 -17 32 -32 77 -40 118 -4 17 -10 32 -14
32 -4 0 -14 11 -21 25 -11 20 -11 28 2 47 20 30 28 88 16 108 -7 11 -5 28 6
54 16 37 17 38 58 32 24 -3 55 -8 71 -10 15 -2 38 -11 51 -20 37 -24 171 -10
256 26 69 30 106 32 124 7 8 -12 13 -34 10 -48 -2 -14 0 -33 6 -41 9 -13 12
-13 21 3 5 9 16 17 22 17 7 0 20 9 30 20 9 11 14 20 11 20 -4 0 -2 6 4 13 21
26 14 193 -9 223 -5 6 -7 18 -3 27 7 18 -120 152 -135 143 -5 -4 -17 9 -27 29
-10 22 -23 35 -36 35 -10 0 -17 4 -14 8 2 4 -16 14 -42 20 -26 7 -67 19 -92
27 -25 9 -52 15 -61 15 -19 0 -62 78 -52 93 3 6 6 25 5 44 -1 23 3 33 13 33 8
0 15 5 15 10 0 9 35 65 50 80 3 3 10 14 16 25 7 12 24 21 43 23 18 2 31 9 31
17 0 7 11 26 24 42 13 15 31 43 40 61 11 22 24 32 39 32 12 0 31 9 41 21 12
15 26 20 47 17 19 -3 29 0 29 8 0 7 18 15 39 19 36 6 57 26 52 49 -1 5 6 6 14
2 9 -3 22 -3 28 1 7 4 15 8 20 9 4 1 8 2 10 4 1 1 24 3 51 6 37 2 55 10 70 27
28 31 148 58 161 36z m-2200 -281 c24 -4 90 -133 98 -193 3 -23 13 -54 21 -70
9 -17 16 -36 16 -44 0 -8 6 -22 13 -30 8 -9 22 -42 32 -75 12 -40 20 -54 26
-45 12 19 11 113 -1 125 -7 7 -4 27 8 59 22 63 30 75 48 75 9 0 12 -5 8 -11
-5 -9 7 -10 47 -4 30 4 65 7 78 6 13 0 29 3 35 8 6 5 30 7 53 4 34 -4 42 -10
46 -32 3 -14 9 -38 13 -53 3 -15 3 -36 -1 -45 -4 -10 -9 -40 -11 -68 -2 -27
-9 -64 -14 -81 -6 -17 -8 -37 -5 -45 3 -9 -11 -24 -39 -42 -53 -33 -145 -40
-175 -13 -9 9 -23 16 -29 16 -7 0 -12 8 -12 19 0 21 -23 45 -33 34 -4 -3 -7
-23 -7 -43 0 -45 -48 -100 -116 -132 -47 -22 -78 -20 -137 6 -57 25 -66 25
-122 6 -44 -15 -61 -17 -80 -8 -14 6 -25 15 -25 20 0 5 -16 18 -35 29 -24 15
-38 32 -47 60 -8 27 -14 36 -20 27 -12 -19 3 -80 23 -98 11 -8 22 -29 25 -46
5 -26 2 -32 -23 -44 -37 -17 -81 -13 -115 11 -39 28 -156 27 -181 -1 -9 -11
-25 -20 -36 -20 -10 0 -24 -7 -31 -15 -7 -8 -21 -15 -31 -15 -11 0 -19 -6 -19
-12 0 -9 -4 -8 -11 2 -8 11 -12 12 -16 3 -2 -7 -13 -13 -23 -13 -9 0 -23 -7
-30 -15 -14 -16 -33 -14 -84 11 -16 8 -35 14 -43 14 -7 0 -13 5 -13 11 0 6 -7
8 -17 5 -9 -4 -20 -1 -24 6 -7 10 -12 11 -29 1 -11 -7 -24 -13 -29 -13 -11 0
-43 102 -39 122 2 9 -7 12 -31 10 -19 -1 -45 5 -58 14 -14 9 -33 14 -43 11
-14 -3 -20 5 -30 37 -6 22 -16 49 -21 59 -5 10 -7 22 -3 28 8 13 -14 39 -30
33 -7 -3 -12 6 -14 22 -1 15 -7 33 -13 40 -6 7 -8 17 -5 23 3 5 1 32 -6 61 -9
39 -9 59 0 83 8 23 9 43 2 66 -9 31 -6 38 23 72 17 20 37 38 43 38 7 1 14 8
18 16 3 8 12 15 20 15 8 0 16 5 18 11 2 7 19 4 48 -10 25 -11 59 -23 75 -27
17 -3 24 -9 18 -11 -31 -11 -9 -23 42 -23 42 0 55 -3 55 -15 0 -8 7 -15 15
-15 8 0 15 5 15 10 0 6 5 10 10 10 6 0 10 -6 10 -14 0 -17 27 -30 57 -27 11 1
24 -3 28 -8 3 -6 19 -11 35 -11 34 0 80 -19 96 -39 6 -8 16 -11 22 -7 6 3 14
1 18 -5 4 -8 9 -7 15 2 8 12 11 11 19 -1 6 -10 5 -17 -5 -23 -12 -6 -12 -12
-2 -27 17 -28 87 -28 112 0 11 12 31 20 49 20 17 0 48 11 68 25 24 16 51 25
76 25 50 0 102 26 102 51 0 12 7 19 18 19 11 0 29 9 42 20 13 11 27 20 31 20
4 0 22 20 39 44 24 35 37 45 63 48 17 2 37 -2 42 -9 6 -6 19 -13 30 -15z
m-2573 -47 c34 -38 37 -83 11 -182 l-17 -66 -50 -16 c-28 -9 -81 -19 -117 -22
-57 -5 -68 -3 -73 12 -5 11 -2 19 6 22 7 2 34 26 61 52 46 48 47 51 47 111 0
43 -5 67 -17 80 -15 17 -15 19 0 36 14 15 26 17 69 12 40 -5 57 -14 80 -39z
m-1751 -43 c73 -45 139 -112 139 -142 0 -35 -10 -56 -27 -56 -8 0 -27 -8 -41
-18 -50 -35 -117 -60 -177 -67 -69 -8 -245 -6 -260 3 -5 4 -25 7 -44 8 -20 0
-37 8 -43 17 -5 10 -18 17 -28 17 -11 0 -20 4 -20 9 0 6 -20 31 -45 58 -24 26
-45 57 -45 68 0 21 59 75 82 75 7 0 13 -12 14 -29 3 -79 79 -150 189 -176 44
-10 54 -9 88 8 21 11 58 38 81 61 39 38 44 47 55 119 7 42 16 77 21 77 4 0 32
-15 61 -32z m-2046 -461 c-3 -45 0 -56 17 -68 11 -8 27 -19 35 -24 13 -10 12
-16 -3 -49 -19 -38 -58 -63 -135 -84 -35 -9 -35 -9 -51 34 -15 42 -14 46 8 95
13 28 24 57 24 65 0 8 6 14 13 14 8 0 19 11 26 24 12 21 42 43 63 45 3 1 5
-23 3 -52z m206 -84 c4 -32 8 -79 8 -106 1 -35 8 -57 30 -88 16 -22 33 -53 36
-69 4 -17 11 -32 16 -35 5 -4 9 -26 9 -49 0 -36 -4 -45 -22 -51 -39 -13 -73
-10 -69 6 16 51 11 96 -12 131 -14 20 -23 38 -21 40 2 3 -10 20 -27 39 -30 33
-31 36 -27 121 3 75 6 90 27 112 32 34 43 23 52 -51z m4440 -92 c22 -17 23
-22 13 -60 -6 -22 -9 -43 -6 -46 8 -8 32 -76 36 -100 1 -11 12 -48 24 -82 12
-34 25 -80 28 -102 4 -23 10 -41 13 -41 7 0 10 -13 14 -60 2 -27 19 -50 36
-50 6 0 11 -4 11 -10 0 -5 10 -10 22 -10 24 0 68 -36 68 -57 0 -7 4 -13 8 -13
5 0 14 -12 21 -27 7 -14 28 -47 47 -72 36 -48 108 -154 134 -199 8 -15 21 -32
28 -40 22 -24 14 -59 -19 -83 l-31 -22 31 -15 c17 -8 31 -20 31 -27 0 -7 7
-15 15 -19 8 -3 15 -14 15 -26 0 -11 9 -25 20 -32 11 -7 20 -22 20 -33 0 -11
10 -25 23 -30 15 -7 23 -20 25 -42 2 -18 7 -33 12 -33 4 0 11 -11 14 -25 4
-14 17 -31 30 -36 21 -10 22 -14 11 -36 -23 -45 -83 -70 -100 -43 -3 6 -15 10
-27 10 -11 0 -22 8 -25 20 -3 11 -20 29 -38 40 -20 13 -35 31 -38 49 -4 18
-14 32 -27 36 -18 6 -20 12 -15 37 7 28 5 29 -20 26 -38 -4 -54 21 -35 59 8
15 16 32 19 37 2 5 -1 6 -7 2 -5 -3 -12 -1 -14 6 -3 8 -11 7 -28 -5 -46 -32
-64 -23 -119 58 -28 42 -51 78 -51 82 0 8 -92 117 -103 122 -5 1 -33 27 -64
57 -30 30 -63 54 -74 54 -11 0 -24 10 -30 23 -24 52 -43 81 -46 70 -2 -6 -12
-9 -22 -6 -13 3 -16 12 -13 33 2 15 -1 31 -7 34 -10 7 -16 -24 -12 -66 1 -10
-3 -26 -9 -38 -13 -24 8 -70 42 -94 l22 -16 -21 0 c-19 0 -22 -5 -20 -42 2
-42 1 -43 -29 -42 -27 1 -30 -1 -26 -22 2 -13 11 -24 18 -24 8 0 18 -10 23
-22 9 -24 45 -58 60 -58 4 0 15 -8 24 -18 10 -10 51 -36 92 -57 41 -21 75 -42
75 -46 0 -5 6 -9 13 -9 17 0 97 -70 97 -86 0 -7 8 -10 20 -7 24 6 90 -31 149
-85 24 -22 49 -38 56 -36 6 3 21 -3 33 -13 12 -10 33 -26 47 -36 14 -10 23
-22 20 -27 -3 -5 2 -10 11 -12 15 -3 14 -6 -3 -27 -19 -23 -20 -24 -56 -6 -20
9 -37 23 -37 31 0 16 -41 28 -75 22 -22 -5 -25 -2 -25 26 0 17 -4 26 -8 20
-22 -32 -72 -24 -72 11 0 50 -29 33 -63 -34 -19 -38 -15 -51 13 -44 23 6 28
-15 5 -23 -8 -4 -15 -17 -15 -30 l0 -23 -25 23 c-18 17 -25 34 -25 60 0 31 -3
36 -24 36 -26 0 -48 -21 -44 -41 2 -9 -7 -15 -22 -16 -14 0 -29 -1 -33 -2 -12
-1 19 -31 33 -31 21 0 70 -31 70 -44 0 -8 7 -17 16 -20 11 -4 15 -14 12 -30
-4 -22 -2 -24 30 -23 19 1 30 3 23 5 -17 6 -13 30 6 34 9 2 22 19 28 38 11 33
15 35 59 38 32 2 51 -2 62 -12 8 -9 11 -16 5 -16 -6 0 -11 -7 -11 -15 0 -8 4
-15 9 -15 5 0 11 7 15 15 3 8 17 15 31 15 l26 0 -20 -27 c-10 -16 -22 -50 -25
-77 -9 -72 -18 -79 -72 -56 l-44 19 0 -24 c0 -15 -7 -26 -20 -30 -11 -3 -20
-10 -20 -15 0 -13 28 -20 34 -7 2 7 4 -4 4 -23 0 -19 -2 -29 -5 -22 -7 19 -47
14 -61 -8 -11 -18 -10 -20 20 -22 45 -2 51 -1 71 7 14 6 17 2 17 -19 0 -21 4
-25 23 -23 12 1 24 4 27 7 3 3 16 10 29 16 20 8 29 6 53 -16 36 -33 30 -65
-11 -55 -24 5 -22 2 14 -29 22 -20 46 -35 52 -36 7 0 12 -10 10 -22 -2 -25 19
-34 43 -18 11 7 12 12 3 21 -12 12 -7 39 7 39 4 0 10 -9 13 -20 4 -14 10 -18
23 -13 14 5 16 2 12 -14 -6 -21 16 -47 57 -68 11 -6 21 -16 21 -23 1 -7 2 -16
3 -22 0 -5 8 -10 16 -10 9 0 21 -11 27 -25 6 -14 19 -25 28 -25 9 0 36 -12 61
-28 42 -26 62 -36 119 -60 50 -21 59 -21 69 -4 9 15 10 15 11 -3 0 -33 26 -61
84 -89 29 -14 59 -33 66 -41 7 -8 23 -15 36 -15 13 0 24 -4 24 -8 0 -4 26 -13
58 -20 31 -7 68 -18 82 -25 80 -42 350 -54 350 -16 0 6 -5 7 -12 3 -7 -5 -9
-2 -5 9 3 9 1 18 -6 21 -7 2 -2 5 11 5 12 1 22 -3 22 -9 0 -5 7 -10 16 -10 13
0 14 -3 5 -13 -6 -8 -8 -17 -5 -20 10 -10 66 26 116 73 42 41 69 61 135 98 13
7 23 17 23 22 0 17 81 92 108 99 16 5 26 14 26 24 -1 10 6 17 16 17 10 0 21 8
23 18 4 14 6 14 12 -5 4 -13 15 -23 25 -23 28 0 35 -78 10 -115 -14 -21 -32
-94 -27 -109 8 -19 -15 -37 -33 -26 -8 5 -18 6 -22 4 -12 -8 -10 -48 4 -62 9
-9 9 -12 0 -12 -8 0 -12 -25 -12 -84 0 -89 -19 -156 -45 -156 -24 0 -29 -22
-9 -38 11 -8 15 -16 8 -18 -13 -5 -6 -54 7 -54 5 0 9 14 9 31 0 21 4 29 13 25
6 -3 20 -9 30 -12 9 -4 18 -10 18 -15 3 -19 5 -25 18 -49 23 -41 39 -114 30
-138 -5 -12 -7 -45 -5 -72 1 -28 -1 -53 -6 -57 -27 -16 -45 -66 -40 -109 6
-59 -37 -213 -60 -214 -4 0 -29 -23 -55 -52 -26 -29 -60 -64 -74 -78 -34 -33
-42 -56 -27 -83 20 -37 16 -70 -14 -119 -25 -40 -27 -51 -18 -69 12 -21 10
-21 -32 -17 -27 3 -47 0 -53 -8 -16 -20 -100 -27 -115 -9 -7 8 -22 15 -35 15
-48 0 -83 29 -97 78 l-14 47 -82 3 c-65 2 -82 0 -82 -11 0 -8 -10 -26 -21 -41
-22 -28 -20 -42 5 -33 8 3 16 16 18 28 2 12 14 26 27 31 23 8 24 8 17 -44 -4
-36 -3 -48 3 -38 17 25 22 5 8 -29 l-14 -32 -17 25 c-25 39 -36 32 -36 -23 0
-28 -4 -53 -10 -56 -6 -3 -10 3 -10 14 0 29 -14 26 -39 -6 -19 -25 -22 -26
-34 -12 -19 24 -47 31 -53 14 -9 -22 -31 -18 -44 6 -11 20 -12 20 -31 3 -18
-16 -19 -16 -25 15 -5 23 -11 30 -22 26 -8 -3 -26 4 -39 17 -16 15 -26 19 -31
12 -4 -6 -17 -15 -30 -19 -15 -4 -21 -12 -18 -21 3 -8 1 -14 -4 -14 -6 0 -10
-5 -10 -12 0 -9 3 -9 12 0 7 7 16 12 20 12 12 0 10 -38 -2 -45 -12 -7 -13 -35
-2 -35 5 0 15 11 22 25 18 34 30 32 30 -5 0 -16 -4 -30 -10 -30 -5 0 -10 -4
-10 -10 0 -5 12 -10 26 -10 l27 0 -27 -25 c-14 -13 -26 -27 -26 -32 0 -4 5 -2
12 5 17 17 28 15 28 -4 0 -9 8 -14 18 -13 30 3 42 -1 42 -12 0 -5 -4 -8 -9 -5
-5 3 -11 -3 -14 -14 -3 -11 -10 -20 -17 -20 -6 0 -9 8 -6 18 5 14 0 17 -24 17
-17 0 -30 -4 -30 -8 0 -5 -4 -6 -10 -2 -5 3 -6 13 -3 21 4 12 0 15 -17 12 -13
-1 -25 3 -27 10 -3 8 3 11 18 10 12 -2 24 2 26 9 2 7 -8 13 -24 15 -19 2 -27
8 -25 19 1 9 -5 22 -13 29 -8 7 -15 25 -15 41 0 15 -5 31 -10 34 -6 4 -8 15
-5 26 5 14 2 17 -8 13 -16 -6 -47 36 -47 64 0 13 -11 22 -32 28 -18 6 -34 17
-36 27 -3 13 4 17 32 17 20 0 36 4 36 9 0 5 -6 8 -12 7 -14 -1 -18 5 -18 31 0
13 3 14 12 5 7 -7 25 -12 40 -12 21 0 28 5 28 19 0 22 -58 71 -83 71 -10 0
-17 5 -17 10 0 6 -5 10 -10 10 -11 0 -24 9 -59 40 -19 18 -84 50 -99 50 -6 0
-14 9 -17 20 -3 11 -14 20 -22 20 -43 0 -193 197 -193 254 0 9 -11 22 -25 28
-18 8 -22 14 -13 19 7 4 10 11 6 14 -3 4 -15 1 -27 -6 -17 -11 -23 -10 -43 8
-13 11 -32 24 -44 27 -11 3 -27 17 -34 31 -7 14 -20 27 -29 30 -9 3 -40 28
-70 55 -30 27 -68 55 -85 62 -48 19 -146 111 -146 136 0 7 -4 11 -9 7 -6 -3
-15 5 -22 17 -6 13 -19 31 -28 41 -14 17 -41 60 -87 141 -9 16 -25 38 -35 49
-10 12 -19 25 -19 30 0 11 -47 57 -58 57 -4 0 -60 52 -125 115 -65 63 -121
115 -125 115 -4 0 -18 18 -32 40 -13 22 -28 40 -32 40 -4 0 -8 7 -8 15 0 8 -3
15 -7 14 -22 -3 -52 17 -83 57 -19 24 -42 47 -52 49 -9 3 -19 12 -22 20 -9 24
-33 17 -40 -11 -5 -17 0 -34 12 -52 32 -46 70 -175 58 -201 -7 -16 -6 -28 2
-42 10 -16 10 -23 -2 -34 -8 -8 -19 -15 -24 -15 -6 0 -12 -7 -16 -15 -4 -10 1
-15 15 -15 11 0 19 -6 18 -12 -2 -13 -1 -18 20 -78 21 -58 23 -74 8 -94 -13
-17 -14 -17 -31 -1 -22 23 -33 11 -17 -19 9 -16 11 -37 5 -67 -4 -24 -7 -64
-5 -89 3 -41 2 -43 -14 -30 -15 12 -19 12 -30 -3 -7 -9 -21 -17 -31 -17 -18
-1 -18 -1 -1 -14 12 -9 17 -27 17 -64 0 -36 4 -52 15 -55 11 -4 10 -4 -2 -3
-12 1 -19 11 -21 33 -2 17 -9 36 -15 42 -10 8 -13 -2 -13 -43 0 -43 -5 -59
-26 -85 -31 -36 -45 -91 -30 -117 8 -14 5 -23 -13 -40 -12 -11 -30 -24 -39
-27 -9 -4 -16 -11 -16 -16 0 -5 -13 -14 -30 -20 -16 -5 -30 -16 -30 -24 0 -7
-16 -32 -36 -56 -29 -33 -39 -39 -50 -30 -11 9 -14 6 -14 -15 0 -15 -4 -25
-10 -21 -5 3 -7 12 -3 20 3 8 1 15 -5 15 -14 0 -24 -62 -11 -71 8 -5 8 -8 -1
-14 -6 -4 -9 -13 -6 -20 3 -8 0 -15 -6 -17 -24 -8 -26 -280 -3 -318 4 -6 -5
-14 -19 -20 -24 -9 -25 -12 -20 -63 5 -41 2 -56 -10 -66 -13 -11 -17 -11 -20
0 -2 8 -7 21 -9 29 -3 8 -6 0 -6 -17 -1 -18 -4 -33 -8 -34 -5 0 -18 -2 -30 -5
-27 -5 -31 12 -5 19 11 3 8 5 -9 6 -32 1 -53 -21 -46 -49 3 -13 0 -20 -9 -20
-8 0 -14 -6 -14 -14 0 -13 -49 -56 -64 -56 -3 0 -6 11 -6 24 0 18 -6 25 -22
28 l-23 3 25 26 c37 39 52 67 39 75 -6 3 -8 12 -5 19 8 22 -19 25 -33 3 -7
-11 -18 -17 -26 -14 -12 4 -48 -17 -83 -51 -38 -37 -92 11 -97 84 0 6 -13 30
-28 53 -22 34 -26 49 -21 81 5 30 2 44 -10 58 -11 12 -18 37 -18 70 -1 29 -5
54 -10 57 -4 3 -8 14 -8 25 0 10 -4 19 -10 19 -5 0 -10 19 -10 43 0 24 -3 47
-7 51 -5 4 -13 29 -18 54 -10 45 -7 98 10 170 8 32 7 33 -21 27 l-29 -6 25 21
c19 17 24 30 23 61 -2 32 1 39 17 39 11 0 24 9 30 19 12 23 14 94 3 105 -4 4
-8 41 -9 82 -2 62 1 76 15 84 17 8 39 81 47 155 3 29 31 115 40 125 3 2 9 -2
13 -9 7 -11 15 -9 40 10 29 21 32 21 49 6 10 -10 22 -14 27 -10 4 5 5 -5 1
-22 -5 -25 -4 -27 5 -12 6 10 9 28 6 39 -5 16 -2 19 14 15 12 -3 19 0 19 9 0
8 9 23 20 34 11 11 20 25 20 30 0 6 4 10 8 10 8 0 24 -33 52 -107 7 -18 16
-33 21 -33 5 0 9 -18 9 -39 0 -22 5 -52 11 -68 7 -15 13 -38 15 -49 1 -12 10
-36 19 -54 9 -17 18 -60 21 -95 3 -35 11 -77 19 -92 8 -15 15 -37 15 -48 1
-11 11 -51 24 -90 l24 -70 7 55 c7 59 5 91 -8 101 -4 3 -9 32 -12 65 -5 67 -8
85 -17 99 -3 6 -9 32 -13 59 -3 27 -12 61 -17 75 -17 39 -19 52 -19 105 1 27
-3 54 -8 60 -13 16 -61 176 -61 201 0 13 3 36 6 53 5 27 10 31 35 29 23 -2 29
-7 29 -24 0 -13 5 -23 10 -23 6 0 10 -11 10 -24 0 -15 12 -34 30 -49 17 -14
30 -33 30 -42 0 -25 24 -12 30 16 4 14 14 25 25 25 11 1 26 2 33 3 19 2 16 81
-3 81 -13 0 -15 7 -9 38 4 20 14 43 23 50 15 11 14 13 -1 26 -10 7 -18 18 -18
24 0 5 -7 12 -15 16 -12 4 -15 -3 -15 -34 0 -22 -4 -40 -10 -40 -5 0 -10 18
-10 40 0 34 -3 40 -21 40 -14 0 -19 5 -16 15 4 8 2 17 -3 20 -18 11 -10 45 15
73 29 31 31 45 10 62 -19 15 -21 96 -2 103 9 3 9 8 -2 21 -12 14 -12 18 1 29
16 13 32 64 43 137 7 42 38 122 70 182 8 14 15 33 15 42 0 8 13 30 28 48 16
18 46 70 68 115 21 45 47 85 57 88 23 8 35 34 47 94 5 28 18 59 28 69 10 10
22 38 26 60 3 23 11 42 16 42 6 0 10 13 10 29 0 16 6 36 13 43 8 7 19 23 25
35 8 14 18 20 31 16 23 -6 90 56 109 100 6 15 18 27 27 27 8 0 15 5 15 10 0 6
6 10 14 10 14 0 28 30 30 64 1 27 75 76 103 70 15 -4 25 0 32 14 6 12 21 24
33 28 12 3 28 13 36 20 7 8 21 14 31 14 19 0 44 24 55 54 4 11 12 16 21 12 12
-4 15 4 17 37 0 23 0 49 0 57 -3 22 19 100 30 106 4 3 7 -31 6 -75 -2 -53 2
-85 10 -93 9 -9 12 -7 13 13 0 22 1 22 8 4 9 -23 9 -29 -7 -68 -9 -21 -9 -34
0 -50 11 -21 11 -21 19 -2 9 23 12 8 9 -38 -2 -27 42 -92 54 -80 3 4 6 1 6 -5
0 -6 -4 -13 -9 -17 -26 -15 78 -165 114 -165 12 0 16 3 8 8 -11 7 -29 77 -25
100 2 6 -3 12 -10 12 -13 0 -48 68 -48 94 0 7 -7 19 -15 26 -11 9 -13 16 -5
24 14 14 13 26 -4 26 -9 0 -12 7 -9 23 4 18 3 19 -6 7 -9 -13 -11 -12 -12 5
-1 13 -4 10 -9 -10 l-7 -30 -8 33 c-4 17 -11 32 -15 32 -5 0 -6 9 -3 21 4 16
8 18 14 7 7 -11 11 -10 19 2 12 19 12 27 0 35 -5 3 -10 1 -10 -4 0 -6 -4 -11
-10 -11 -11 0 -13 39 -4 64 3 9 10 16 16 16 5 0 6 -6 2 -12 -4 -7 1 -6 11 3
12 12 18 36 20 85 4 113 26 177 70 202 27 15 29 15 56 -7z m1794 -261 c8 -13
-21 -66 -40 -74 -9 -3 -25 -6 -35 -6 -10 0 -25 -6 -32 -12 -25 -24 -122 -22
-188 4 -33 12 -60 26 -60 30 0 5 -9 8 -20 8 -22 0 -27 22 -7 38 7 6 62 9 140
8 71 -2 145 1 165 5 55 10 70 10 77 -1z m280 -19 c3 -10 2 -29 -3 -42 -16 -43
-9 -220 11 -256 14 -27 16 -47 11 -113 -5 -59 -3 -84 6 -95 10 -12 12 -53 6
-183 -7 -183 -13 -225 -29 -215 -7 4 -8 -5 -4 -27 4 -18 7 -51 7 -73 0 -22 3
-37 7 -33 11 11 32 97 33 134 0 17 4 32 10 32 5 0 12 12 16 28 10 45 26 82 36
82 5 0 7 -3 5 -7 -2 -5 -1 -35 3 -68 6 -51 4 -69 -16 -119 -29 -73 -49 -180
-38 -204 5 -9 9 -71 11 -137 1 -66 2 -127 3 -135 2 -43 -14 -111 -25 -106 -7
2 -15 2 -18 0 -5 -5 -93 -14 -141 -15 -20 0 -48 -23 -40 -32 3 -3 2 -16 -2
-29 -7 -22 -7 -22 -15 -3 -7 20 -8 20 -8 -1 -1 -29 -47 -120 -64 -127 -26 -10
-37 75 -16 115 6 12 8 38 4 64 -11 78 -25 54 -41 -74 -4 -27 -16 -53 -35 -73
-16 -17 -29 -34 -29 -38 0 -3 -8 -11 -18 -18 -13 -8 -18 -20 -15 -40 3 -20 -1
-36 -13 -47 -16 -17 -18 -16 -40 9 -32 38 -38 76 -20 130 9 25 16 52 16 60 0
8 11 48 25 90 23 68 24 78 11 109 -8 18 -19 37 -25 40 -6 4 -8 18 -5 33 4 16
2 28 -7 33 -7 5 -13 24 -12 44 1 26 -4 37 -18 41 -21 7 -27 59 -9 70 15 9 12
25 -4 25 -14 0 -68 49 -103 94 -29 38 -71 216 -79 333 -7 87 -6 93 20 138 23
38 26 53 21 86 -8 45 16 95 40 85 8 -3 17 -1 20 4 10 17 25 11 56 -19 24 -24
29 -38 29 -75 0 -34 3 -44 13 -40 27 10 28 6 97 -301 7 -27 14 -72 16 -100 2
-27 9 -54 15 -60 17 -15 8 316 -8 333 -11 11 -13 11 -13 -2 0 -8 -4 -17 -8
-20 -5 -3 -9 26 -9 65 0 38 4 69 8 69 5 0 9 -6 9 -12 0 -9 4 -8 10 2 8 12 10
12 11 -5 l0 -20 9 20 c5 11 9 35 9 53 1 41 33 86 49 70 10 -10 10 -35 -3 -156
-3 -30 -1 -41 7 -36 7 5 9 -1 5 -18 -4 -14 -4 -28 0 -32 3 -3 8 -23 10 -43 2
-21 9 -41 16 -46 7 -5 3 -6 -10 -2 -27 7 -25 13 -28 -92 -2 -70 0 -84 16 -99
15 -13 22 -15 31 -6 15 15 26 105 19 151 -3 20 -5 95 -3 166 1 72 2 153 2 180
0 66 9 103 20 86 6 -11 10 -9 19 8 7 11 8 21 4 21 -4 0 -7 55 -5 122 4 137 15
165 60 153 21 -5 24 -3 19 16 -8 29 8 65 40 94 34 29 50 31 58 6z m-740 -185
c12 -8 49 -16 81 -17 39 -2 66 -9 79 -20 11 -10 24 -17 30 -16 5 1 16 -11 25
-28 8 -16 19 -33 24 -37 15 -11 -23 -41 -45 -35 -15 4 -19 2 -15 -8 10 -26
-138 -50 -166 -27 -11 8 -17 9 -26 0 -8 -8 -18 -5 -38 11 -14 11 -44 26 -64
31 -21 6 -49 19 -61 29 -23 18 -23 20 -6 38 9 11 17 34 17 51 0 19 7 35 18 42
22 14 119 4 147 -14z m-2695 -921 c0 -62 -20 -120 -44 -131 -12 -5 -22 -19
-24 -32 -2 -12 -8 -20 -13 -17 -15 10 -49 -14 -43 -30 6 -15 -7 -21 -20 -8
-15 16 -53 9 -89 -15 -35 -23 -42 -25 -79 -15 -36 10 -45 9 -67 -8 -15 -11
-40 -20 -56 -20 -65 -1 -198 12 -213 20 -9 5 -31 6 -48 4 -20 -3 -46 3 -70 15
-29 15 -51 19 -85 15 -41 -5 -47 -3 -52 16 -5 20 -10 21 -61 16 -51 -5 -56 -3
-56 15 0 21 -20 29 -21 8 0 -7 -5 -2 -10 11 -6 14 -15 21 -24 17 -8 -3 -21 4
-30 17 -18 26 -19 37 -2 37 7 0 20 8 29 18 30 31 44 40 79 47 19 4 44 16 57
28 25 24 53 25 167 9 44 -7 109 -10 145 -8 41 3 77 -1 98 -10 26 -11 57 -12
150 -4 131 10 232 27 247 41 5 5 37 9 72 9 l63 0 0 -45z m2154 -54 c20 -22 64
-97 73 -123 3 -10 9 -18 14 -18 5 0 9 -4 9 -9 0 -5 15 -35 33 -68 18 -32 34
-75 35 -96 l3 -37 -40 27 c-22 16 -40 34 -41 41 0 18 -27 15 -39 -5 -9 -16
-10 -16 -11 -2 0 9 7 19 15 23 8 3 15 10 15 16 0 5 -7 10 -15 10 -8 0 -15 6
-15 13 0 24 -37 49 -59 42 -21 -6 -51 13 -51 33 0 6 -5 12 -12 14 -25 9 -11
75 23 117 19 22 37 41 40 41 3 0 14 -9 23 -19z m-3359 -117 c44 -5 70 -38 54
-67 -6 -10 -4 -17 6 -21 8 -3 15 -18 16 -33 0 -15 3 -22 6 -15 2 7 22 12 44
12 32 0 39 -3 39 -20 0 -14 7 -20 24 -20 20 0 24 -6 30 -48 6 -49 35 -92 60
-92 8 0 29 -14 47 -30 17 -17 38 -29 45 -26 7 3 15 2 18 -2 2 -4 52 -7 110 -7
113 0 120 -3 92 -48 -8 -12 -17 -44 -21 -72 -4 -27 -10 -43 -13 -35 -15 43
-58 55 -47 13 5 -23 4 -26 -6 -16 -20 20 -62 -23 -48 -49 14 -26 9 -30 -45
-30 -46 -1 -46 -1 -26 -20 11 -10 20 -21 20 -24 0 -10 -44 9 -64 28 -24 22
-59 33 -81 24 -14 -5 -14 -8 0 -29 14 -22 14 -25 -5 -42 -19 -17 -20 -17 -26
0 -6 14 -15 16 -56 11 -59 -8 -127 10 -137 36 -7 18 -8 18 -25 -1 -11 -12 -27
-21 -38 -21 -14 0 -18 8 -18 34 0 19 -4 38 -10 41 -5 3 -10 1 -10 -4 0 -18
-38 -12 -52 7 -16 23 -45 34 -53 22 -9 -15 -45 8 -39 24 3 8 0 17 -7 22 -8 4
-10 3 -5 -4 4 -7 2 -12 -3 -12 -6 0 -11 5 -11 11 0 17 -40 49 -62 49 -16 0
-24 22 -19 53 1 4 -7 10 -16 14 -31 10 -73 56 -73 77 0 17 2 18 10 6 15 -24
13 36 -2 61 -11 17 -10 22 10 37 19 15 22 24 17 48 -6 26 -5 27 8 12 8 -10 22
-18 33 -18 13 0 15 3 7 11 -12 12 -7 39 8 39 5 0 9 -6 9 -14 0 -14 21 -26 46
-26 11 0 13 6 9 21 -6 19 -4 20 24 14 27 -6 32 -3 41 20 7 17 15 25 24 22 10
-4 17 4 21 24 7 29 8 30 26 13 18 -16 19 -16 19 8 0 13 2 27 5 29 6 7 45 8 90
3z m4040 -61 l6 -27 24 30 c21 25 24 26 25 9 0 -51 -13 -95 -32 -101 -10 -3
-23 -17 -28 -30 -8 -21 -13 -22 -35 -14 -36 14 -35 14 -31 -27 3 -45 22 -54
36 -18 12 32 32 23 24 -10 -3 -14 -1 -38 4 -55 12 -33 15 -31 -53 -35 -48 -3
-82 12 -66 28 8 8 4 20 -14 43 -17 22 -21 35 -14 40 6 3 15 1 19 -6 10 -17 30
-4 30 20 0 10 5 22 10 25 6 4 8 11 5 16 -4 5 -1 9 4 9 6 0 10 3 9 8 -3 15 33
83 42 77 5 -3 12 0 16 6 4 8 3 9 -4 5 -8 -5 -12 0 -12 13 0 30 27 26 35 -6z
m420 -440 c16 3 34 -2 48 -13 19 -16 20 -21 8 -42 -7 -14 -11 -33 -9 -44 2
-14 -4 -20 -22 -22 -14 -2 -30 -8 -36 -13 -7 -6 -22 -4 -40 6 -16 8 -34 15
-41 15 -6 0 -13 10 -15 23 -2 12 -7 20 -12 19 -10 -4 -26 17 -26 36 0 6 9 12
19 12 11 0 23 5 26 11 11 17 49 28 62 17 7 -6 24 -8 38 -5z m630 -76 c-28 -7
-40 -7 -43 2 -2 6 -13 11 -25 11 -22 -1 -22 -1 -3 -15 11 -8 27 -15 35 -15 9
0 22 -4 30 -9 12 -8 12 -12 2 -25 -11 -13 -11 -16 3 -16 13 0 16 -11 16 -52
-1 -31 -7 -61 -15 -72 -19 -25 -19 -36 -1 -36 17 0 29 -27 15 -36 -14 -8 -59
4 -59 17 0 6 -5 7 -10 4 -6 -3 -14 4 -19 17 -6 14 -10 17 -11 8 -1 -10 -4 -9
-10 5 -13 31 -11 55 4 55 9 0 13 -8 10 -22 -2 -13 -2 -18 2 -11 3 7 12 9 20 6
11 -4 14 5 14 42 0 40 -2 46 -14 35 -8 -6 -12 -18 -9 -26 3 -9 -2 -14 -17 -14
-15 0 -20 5 -17 14 3 8 -1 20 -9 26 -11 10 -14 9 -14 -8 0 -27 -15 -35 -40
-22 -24 13 -26 30 -4 30 17 0 16 21 -1 23 -6 0 -15 6 -21 11 -17 16 3 66 26
66 10 0 21 8 24 18 5 16 13 17 93 8 85 -10 87 -10 48 -19z m2667 -699 c12 -10
30 -18 41 -18 33 0 84 -30 96 -56 16 -35 14 -51 -9 -74 -25 -25 -40 -26 -40
-2 0 13 -2 14 -9 3 -6 -9 -34 -14 -90 -16 l-82 -2 4 66 c7 99 16 134 40 153
21 17 22 16 25 -10 2 -14 13 -34 24 -44z m30 -323 c-4 -44 -2 -47 17 -42 16 4
21 0 21 -14 0 -10 5 -19 11 -19 5 0 3 -10 -5 -22 -12 -17 -14 -35 -10 -70 l6
-47 -42 -11 c-24 -6 -53 -9 -66 -6 -22 6 -23 10 -20 69 5 69 35 150 63 166 15
9 15 12 4 20 -16 10 -5 34 12 28 8 -2 11 -22 9 -52z m-74 -376 c9 -1 45 -1 78
0 l61 3 6 -64 c3 -46 -1 -81 -16 -132 -18 -64 -19 -70 -4 -81 9 -7 14 -15 10
-18 -3 -4 -12 -2 -20 4 -14 12 -13 12 -17 -36 -4 -52 -37 -88 -65 -71 -5 4
-21 2 -35 -4 -18 -6 -29 -6 -38 3 -7 7 -37 13 -67 15 -82 4 -95 14 -87 71 3
26 13 72 22 102 9 30 17 81 18 114 1 51 4 60 21 63 17 4 18 2 6 -12 -8 -9 -11
-19 -7 -23 3 -4 12 8 18 25 11 27 17 32 46 32 27 0 35 5 40 23 5 18 7 19 10 5
2 -10 11 -19 20 -19z m-3187 -431 c11 0 18 -10 21 -29 6 -38 -9 -49 -18 -13
-6 24 -8 25 -19 11 -7 -10 -19 -17 -28 -17 -19 0 -24 -19 -30 -115 -3 -38 -6
-77 -8 -85 -5 -19 41 -27 52 -8 5 7 9 30 9 51 0 26 4 37 15 37 9 0 18 7 21 15
4 8 10 13 14 10 14 -9 114 17 135 34 35 30 74 51 95 51 17 0 20 -6 20 -40 0
-22 -4 -40 -10 -40 -5 0 -10 -15 -10 -32 0 -18 -7 -69 -17 -113 -16 -78 -42
-125 -70 -125 -7 0 -13 -4 -13 -9 0 -11 -70 -54 -87 -54 -7 0 -13 -4 -13 -8 0
-10 -117 -99 -131 -99 -5 0 -26 -16 -46 -35 -20 -19 -40 -35 -45 -35 -10 0
-58 -33 -103 -70 -17 -14 -49 -34 -73 -45 -23 -11 -42 -26 -42 -32 0 -7 -5
-13 -12 -13 -6 0 -25 -11 -42 -24 -35 -26 -102 -53 -112 -44 -3 4 -1 15 5 26
6 12 11 48 11 81 0 32 4 61 10 63 5 2 11 31 14 64 4 68 10 84 32 84 8 0 14 6
14 13 0 21 83 102 104 102 14 0 22 8 24 22 2 13 15 32 30 43 15 11 32 24 39
30 7 5 17 10 24 10 6 0 29 10 51 22 38 21 40 22 50 5 9 -18 10 -18 24 0 26 35
9 120 -38 185 -18 25 11 72 46 76 20 3 26 9 26 27 0 24 23 37 50 27 8 -2 22
-4 31 -4z m3085 -1244 c13 -14 24 -29 24 -33 0 -5 9 -11 20 -14 18 -5 20 -11
15 -80 -3 -41 -9 -87 -15 -102 -13 -34 -13 -48 0 -40 6 4 7 12 4 18 -4 7 -5
10 -1 7 3 -3 6 -8 7 -12 1 -4 5 -21 10 -38 8 -28 7 -29 -11 -19 -12 6 -27 8
-35 5 -17 -6 -19 -37 -3 -33 6 1 14 -4 16 -12 4 -9 0 -11 -16 -6 -17 5 -21 2
-21 -14 0 -12 -4 -21 -10 -21 -5 0 -10 -8 -10 -17 0 -16 -2 -16 -11 -3 -8 12
-9 9 -5 -13 4 -17 1 -36 -9 -50 -8 -13 -13 -26 -10 -29 3 -3 -2 -11 -10 -18
-13 -11 -22 -10 -51 3 -26 13 -40 14 -54 7 -34 -18 -54 -11 -101 37 -44 44
-45 47 -33 73 8 15 23 35 34 45 11 10 20 22 20 27 0 5 7 16 15 24 8 9 15 29
15 45 0 16 5 29 10 29 6 0 10 6 10 14 0 7 6 19 14 26 8 6 13 17 10 24 -3 8 9
34 26 60 17 25 29 50 26 55 -8 13 27 49 65 65 43 19 38 20 65 -10z"/>
<path d="M10383 7414 c-17 -8 -46 -16 -63 -19 -17 -3 -42 -12 -55 -21 -14 -9
-25 -11 -29 -5 -7 11 -32 0 -82 -36 -17 -12 -34 -19 -38 -16 -12 12 -76 -29
-76 -49 0 -11 -7 -18 -20 -18 -26 0 -40 -27 -26 -55 10 -22 10 -22 21 -2 15
30 28 30 42 2 12 -28 -3 -35 -25 -13 -9 9 -12 8 -12 -5 0 -9 5 -17 10 -17 6 0
10 -4 10 -10 0 -14 -28 -12 -33 3 -2 6 -5 -13 -7 -43 -8 -158 -3 -174 53 -183
113 -18 174 -30 188 -37 18 -10 62 -6 129 10 25 6 52 12 60 14 8 1 26 8 40 16
l24 13 -22 8 c-31 12 -29 39 3 39 23 0 31 -13 26 -42 0 -5 4 -8 10 -8 6 0 8 7
5 16 -3 8 -3 27 0 40 6 23 7 23 20 7 12 -17 13 -16 14 10 0 20 5 27 19 27 11
0 28 11 39 25 11 14 25 25 31 25 6 0 17 12 23 26 11 23 9 28 -18 50 -60 52
-119 68 -259 74 -11 1 -27 10 -37 20 -18 19 -17 20 19 36 21 9 59 18 84 19 26
2 56 8 68 14 16 9 21 9 19 0 -2 -6 3 -14 10 -16 15 -6 16 12 1 39 -11 20 -9
21 19 15 21 -4 32 -2 36 8 7 19 -18 37 -56 41 -18 1 -33 3 -33 4 0 9 -108 3
-132 -6z"/>
<path d="M10447 4913 c-2 -2 -2 -14 0 -28 4 -20 8 -22 23 -12 15 9 23 7 40 -8
11 -10 29 -23 39 -29 10 -6 28 -17 39 -23 17 -11 23 -10 37 3 15 15 16 14 13
-11 -2 -15 2 -30 7 -31 6 -2 11 10 11 27 1 16 10 36 20 44 19 14 19 14 0 15
-10 0 -28 11 -40 25 -18 21 -31 25 -103 28 -45 3 -84 3 -86 0z"/>
<path d="M10453 3936 c3 -7 9 -34 12 -60 4 -25 11 -46 15 -46 5 0 16 -7 24
-16 12 -11 13 -20 6 -34 -7 -13 -6 -19 6 -24 8 -3 20 -19 26 -36 5 -17 19 -35
29 -40 14 -8 17 -18 13 -39 -4 -21 -1 -30 11 -35 11 -4 15 -13 11 -28 -3 -13
-3 -17 0 -10 9 20 24 14 25 -10 0 -13 3 -17 6 -10 3 8 0 32 -6 55 -7 23 -13
51 -15 62 -8 42 -26 75 -41 75 -19 0 -9 60 13 76 20 14 5 37 -19 31 -10 -3
-17 0 -16 7 1 6 -8 11 -19 11 -30 1 -51 20 -58 55 -3 17 -11 30 -17 30 -6 0
-9 -6 -6 -14z"/>
<path d="M7116 3165 c-9 -26 -8 -28 19 -23 14 3 29 0 34 -6 11 -14 -5 -60 -18
-51 -5 3 -12 1 -16 -5 -3 -5 3 -11 14 -11 12 -1 27 -2 34 -3 6 -1 14 -4 17 -8
10 -13 50 4 50 21 0 10 3 12 8 4 4 -6 25 -13 47 -14 35 -3 40 -1 40 17 0 24
27 54 49 54 9 0 16 6 16 13 0 11 -26 14 -117 14 -65 0 -130 3 -144 7 -20 6
-28 3 -33 -9z"/>
<path d="M9494 11321 c7 -10 -41 -24 -54 -16 -16 10 -78 -6 -101 -26 -13 -11
-26 -16 -33 -10 -37 28 -102 13 -113 -28 -4 -18 1 -29 25 -50 24 -21 28 -29
19 -42 -8 -13 -5 -25 12 -53 13 -20 27 -36 31 -36 19 0 70 -65 64 -82 -3 -11
0 -18 8 -18 7 0 24 -21 37 -46 35 -65 92 -96 187 -102 64 -4 74 -2 74 12 0 9
7 16 15 16 8 0 15 -4 15 -10 0 -5 9 -2 19 7 11 9 17 21 15 28 -7 16 41 39 67
32 15 -4 46 6 92 30 38 20 84 37 102 37 41 2 52 11 36 30 -9 11 -9 16 -1 21
16 10 -44 65 -108 100 -29 16 -52 32 -52 37 0 4 -11 8 -25 8 -14 0 -33 4 -43
9 -44 24 -112 35 -112 19 0 -5 -5 -6 -10 -3 -6 4 -8 10 -5 15 3 5 -4 15 -16
23 -15 11 -19 21 -14 36 8 26 22 27 28 4 4 -14 5 -12 6 5 1 16 -5 22 -21 23
-13 1 -30 2 -40 3 -9 1 -20 4 -24 9 -4 4 -18 7 -31 7 -12 0 -23 5 -23 10 0 6
-7 10 -16 10 -8 0 -13 -4 -10 -9z m90 -237 c16 -16 19 -30 16 -76 -1 -15 6
-43 16 -63 21 -44 12 -53 -49 -50 -33 2 -47 9 -69 36 -23 28 -27 39 -22 69 8
42 25 68 56 85 31 17 34 17 52 -1z"/>
<path d="M843 9631 c-7 -11 -29 -20 -59 -25 -26 -3 -53 -11 -60 -17 -7 -5 -40
-10 -73 -10 -59 -1 -61 -2 -55 -24 3 -12 1 -26 -4 -29 -11 -7 -5 -44 12 -65
12 -16 15 -30 21 -98 2 -28 8 -60 13 -70 5 -10 15 -49 21 -88 15 -95 28 -139
50 -167 18 -21 21 -22 62 -10 80 24 144 34 184 29 l41 -4 -6 53 c-3 29 -13 61
-22 71 -9 10 -19 37 -23 61 -4 23 -11 42 -17 42 -5 0 -6 9 -3 21 12 38 -5 149
-26 167 -14 12 -18 25 -14 47 7 39 -7 127 -20 132 -6 2 -15 -5 -22 -16z m18
-170 c7 -128 24 -237 39 -257 7 -7 10 -20 7 -28 -7 -18 -70 -36 -112 -33 -24
2 -30 7 -31 27 0 14 -3 32 -6 40 -3 8 -10 33 -16 55 -29 105 -21 135 33 135
19 0 35 5 35 10 0 13 -16 13 -60 0 -61 -18 -68 33 -8 59 18 8 44 23 58 33 24
19 25 19 42 -2 10 -12 18 -30 19 -39z"/>
<path d="M11810 8618 c0 -14 5 -18 15 -14 10 4 15 -1 15 -14 0 -25 85 -110
109 -110 44 0 51 10 51 70 l0 59 -47 7 c-27 3 -52 10 -58 14 -5 5 -27 8 -47 8
-31 0 -38 -4 -38 -20z"/>
<path d="M895 7821 c-3 -12 -12 -18 -20 -15 -21 8 -75 -24 -75 -45 0 -37 55
-42 71 -7 15 33 53 42 78 17 10 -10 39 -26 65 -36 25 -10 46 -22 46 -26 0 -5
9 -9 20 -9 11 0 20 7 20 15 0 8 6 15 13 15 6 0 1 9 -13 20 -14 10 -27 17 -29
14 -3 -2 -10 9 -17 26 -16 37 -60 57 -88 40 -13 -8 -21 -9 -29 -1 -17 17 -35
13 -42 -8z"/>
<path d="M287 5157 c-7 -18 2 -87 14 -109 5 -9 9 -28 9 -42 0 -14 4 -27 9 -30
9 -6 16 -43 30 -159 5 -38 11 -71 15 -74 11 -12 95 29 218 105 138 85 205 134
231 168 l17 22 -73 16 c-39 8 -108 20 -152 26 -107 15 -222 47 -287 81 -23 12
-25 11 -31 -4z"/>
<path d="M1157 4692 c-12 -13 -17 -36 -17 -80 0 -34 -6 -72 -12 -83 -11 -18
-10 -23 16 -44 19 -15 26 -27 20 -36 -5 -8 -9 -42 -9 -76 -1 -34 -7 -68 -14
-76 -9 -12 -8 -18 4 -31 15 -14 19 -13 52 19 42 41 45 70 14 137 -11 24 -20
60 -20 79 1 19 -1 54 -4 79 -3 25 -2 50 2 55 4 6 2 25 -4 43 -11 32 -12 32
-28 14z"/>
</g>
</svg>
