<?xml version="1.0" standalone="no"?>
<!DOCTYPE svg PUBLIC "-//W3C//DTD SVG 20010904//EN"
 "http://www.w3.org/TR/2001/REC-SVG-20010904/DTD/svg10.dtd">
<svg version="1.0" xmlns="http://www.w3.org/2000/svg"
 width="1200.000000pt" height="900.000000pt" viewBox="0 0 1200.000000 900.000000"
 preserveAspectRatio="xMidYMid meet">
<metadata>
Created by potrace 1.15, written by Peter Selinger 2001-2017
</metadata>
<g transform="translate(0.000000,900.000000) scale(0.100000,-0.100000)"
fill="#000000" stroke="none">
<path d="M105 8935 c4 -38 7 -79 7 -90 -1 -11 5 -58 13 -105 8 -47 15 -91 15
-97 0 -24 -36 -13 -53 16 -19 33 -22 45 -7 36 20 -12 22 26 2 65 -10 22 -17
42 -14 45 18 18 8 35 -19 35 -19 0 -28 -4 -24 -11 4 -6 13 -8 20 -5 10 4 12
-4 8 -30 -4 -22 -2 -34 6 -34 6 0 11 -4 11 -10 0 -5 -16 -10 -35 -10 l-36 0 1
-395 1 -396 22 6 c22 5 22 5 0 -6 -25 -13 -30 -34 -10 -42 8 -4 9 -6 0 -6 -9
-1 -12 -60 -13 -226 l-1 -225 71 6 c59 6 70 4 70 -8 0 -16 -46 -28 -107 -28
-26 0 -33 -4 -33 -20 0 -11 7 -20 15 -20 12 0 14 -7 9 -27 -4 -16 -11 -36 -15
-45 -5 -9 -9 -219 -9 -467 0 -350 3 -450 13 -454 9 -4 9 -6 0 -6 -7 -1 -13 -8
-13 -17 0 -14 7 -15 47 -8 27 5 92 8 145 6 92 -2 97 -1 116 23 21 26 42 33 42
14 0 -6 9 -9 20 -6 11 3 23 1 26 -4 3 -5 9 -7 14 -4 10 6 164 17 225 15 25 0
60 9 90 25 80 40 115 31 50 -14 -19 -13 -46 -33 -59 -45 l-25 -21 107 -5 c250
-10 272 -8 342 29 41 22 65 30 68 23 2 -8 29 -12 70 -12 l67 -1 -50 -32 c-64
-40 -109 -75 -143 -108 -15 -15 -49 -34 -77 -44 -27 -9 -59 -21 -70 -26 -20
-8 -456 -131 -650 -184 -55 -15 -122 -33 -150 -41 -89 -26 -109 -31 -157 -44
l-48 -13 0 -1477 0 -1478 32 -20 c18 -11 56 -22 85 -24 62 -5 74 -13 47 -32
-18 -14 -17 -17 35 -70 53 -53 56 -55 74 -38 11 9 23 26 28 37 25 57 148 231
206 292 20 21 71 34 59 15 -3 -5 11 -24 30 -43 20 -19 32 -26 29 -16 -6 13 -2
17 17 17 13 0 32 6 43 14 11 7 34 16 51 20 38 8 144 95 144 118 0 9 9 20 20
23 11 4 18 11 15 16 -4 5 1 9 9 9 9 0 16 6 16 13 0 7 9 31 21 52 32 61 30 154
-4 202 -25 35 -26 39 -11 61 14 22 14 25 -10 47 -27 25 -33 49 -16 60 5 3 10
1 10 -5 0 -6 14 -1 32 11 17 13 26 25 20 27 -18 6 -14 22 6 23 12 0 10 3 -8
11 -24 11 -23 12 20 18 96 13 132 47 107 100 -11 21 -18 25 -51 22 -21 -2 -44
2 -52 9 -18 15 -18 50 1 75 16 21 20 48 6 39 -19 -11 -69 -111 -74 -148 -4
-29 -1 -41 13 -55 18 -16 18 -17 -4 -18 -14 -1 -26 7 -34 24 -15 31 -16 66 -2
57 6 -3 10 1 10 9 0 10 -6 13 -15 10 -10 -4 -15 0 -15 14 0 17 -166 354 -190
387 -30 40 -78 305 -56 305 17 -1 46 -26 46 -40 0 -10 3 -10 14 -1 11 9 25 9
53 2 l38 -10 0 -59 c0 -35 7 -73 17 -93 9 -19 19 -42 22 -51 3 -11 28 -22 80
-33 49 -11 76 -22 76 -31 0 -40 47 -84 90 -84 14 0 -2 49 -21 66 -25 23 -24
75 2 108 21 26 20 56 -1 56 -6 0 -8 5 -5 10 4 6 -5 10 -20 10 -28 0 -73 34
-57 44 5 3 40 2 78 -3 53 -6 74 -5 89 5 11 8 30 14 43 14 22 0 24 -3 18 -30
-4 -25 -2 -30 13 -30 24 0 18 -31 -10 -56 -10 -9 -19 -23 -19 -29 0 -7 -8 -16
-17 -20 -16 -6 -16 -8 4 -24 14 -12 32 -17 48 -14 15 3 25 1 25 -6 0 -20 27
-12 33 10 3 11 15 23 26 26 12 3 24 17 28 32 3 14 14 38 24 53 24 33 26 56 4
38 -19 -16 -19 0 0 26 8 10 15 31 15 45 0 28 28 117 41 135 5 6 4 15 -2 21 -8
8 -7 17 1 33 6 12 9 28 6 36 -3 7 5 26 18 41 13 16 31 44 40 63 34 70 41 80
67 89 14 5 60 43 101 85 63 65 78 86 93 137 10 33 22 62 27 65 4 3 8 17 8 31
0 16 5 23 13 20 8 -3 19 16 31 54 10 33 22 59 27 59 5 0 9 5 9 11 0 6 9 22 20
36 11 14 20 32 20 40 0 28 40 101 68 124 15 13 28 29 29 34 1 6 12 11 23 13
17 3 21 9 16 26 -7 30 40 66 88 66 18 0 36 6 39 13 2 7 28 19 56 26 28 7 51
17 51 23 0 5 8 7 19 3 10 -3 31 -1 46 5 19 7 31 7 40 0 7 -5 27 -9 46 -7 19 2
46 -2 61 -10 15 -7 29 -12 31 -11 2 2 32 -11 68 -28 67 -32 92 -42 199 -79 71
-24 80 -37 34 -45 -26 -5 -27 -6 -7 -12 30 -8 256 1 263 11 3 5 25 9 50 9 34
0 40 -2 25 -9 -15 -6 -10 -8 20 -7 22 1 45 -1 51 -4 6 -4 28 -1 50 6 52 18 95
10 133 -24 20 -19 37 -27 51 -23 11 3 27 0 35 -7 12 -10 15 -9 15 4 0 28 41
18 89 -22 25 -21 68 -49 96 -62 27 -14 55 -32 62 -40 7 -8 13 -11 13 -6 0 13
34 -33 57 -79 19 -38 26 -52 50 -115 13 -33 -6 -154 -28 -175 -8 -9 -29 -17
-45 -18 -16 -1 -31 -4 -34 -7 -12 -12 -51 -30 -65 -30 -8 0 -15 -9 -15 -20 0
-20 -37 -81 -52 -88 -4 -2 1 -21 12 -43 11 -21 18 -40 15 -40 -13 -3 -21 -6
-38 -14 -27 -11 -2 -24 40 -20 31 2 34 0 29 -19 -3 -11 -6 -31 -6 -43 0 -20
-5 -23 -39 -23 -22 0 -41 -5 -43 -12 -4 -10 -22 -10 -82 -1 -93 13 -148 2
-191 -38 -28 -26 -33 -27 -66 -16 -19 7 -47 20 -62 30 -14 9 -30 17 -34 17 -4
0 -21 7 -38 16 -16 8 -42 16 -57 17 -15 1 -28 6 -28 10 0 4 -6 7 -12 6 -26 -5
-203 43 -211 57 -5 9 -24 14 -50 14 -24 0 -52 7 -64 15 -35 24 -205 37 -311
23 -74 -10 -130 -27 -89 -28 9 0 17 -5 17 -10 0 -6 -6 -10 -12 -9 -25 3 -59
-14 -54 -27 3 -7 0 -15 -7 -17 -7 -2 -9 -7 -6 -11 9 -9 40 4 34 14 -3 5 -1 11
5 15 5 3 10 1 10 -4 0 -6 11 -11 25 -11 30 0 33 -16 5 -25 -11 -3 -20 -11 -20
-16 0 -5 -5 -9 -11 -9 -6 0 -19 -10 -30 -22 -12 -15 -18 -18 -19 -9 0 11 -4
11 -18 -2 -10 -10 -27 -17 -37 -17 -26 0 -122 -50 -147 -77 -16 -17 -19 -29
-14 -57 4 -22 13 -36 21 -36 8 0 15 -5 15 -11 0 -5 16 -17 35 -25 22 -9 33
-19 29 -26 -5 -8 -2 -9 12 -2 38 18 107 10 162 -19 32 -17 61 -25 73 -22 13 4
19 2 19 -9 0 -8 9 -18 20 -21 27 -8 16 -25 -17 -25 -25 0 -25 -1 -9 -24 15
-24 15 -25 -7 -28 -35 -6 48 -28 105 -28 43 0 72 -14 47 -22 -6 -2 13 -16 43
-31 74 -38 134 -36 263 7 21 7 57 56 69 94 4 12 15 22 24 22 10 0 26 6 37 14
11 7 36 18 55 25 19 6 48 22 63 35 47 40 128 45 193 11 36 -18 79 -81 98 -145
10 -30 21 -64 26 -75 5 -11 11 -36 13 -55 7 -59 29 -118 51 -139 25 -23 150
-49 281 -58 50 -3 95 -10 101 -15 6 -4 18 -6 27 -2 8 3 18 0 22 -6 6 -9 9 -9
15 0 4 6 7 -12 6 -42 -1 -29 -5 -56 -9 -59 -5 -3 -10 -12 -11 -20 -2 -8 -13
-34 -24 -59 -12 -25 -22 -54 -23 -65 0 -12 -3 -15 -6 -7 -4 10 -9 7 -17 -9
-18 -37 -49 -48 -100 -35 -59 15 -68 25 -131 131 -30 51 -61 95 -70 98 -8 4
-15 13 -15 22 0 8 -4 15 -10 15 -11 0 -12 -72 -1 -110 9 -30 -8 -90 -24 -90
-7 0 -20 -9 -29 -19 -10 -11 -42 -32 -71 -46 -54 -28 -67 -28 -155 -9 -36 7
-60 8 -232 4 -56 -1 -105 3 -117 9 -70 38 50 -97 125 -139 37 -22 54 -38 54
-52 0 -11 13 -33 30 -48 16 -15 30 -30 30 -33 0 -2 -27 -7 -61 -11 -66 -6 -99
-19 -80 -30 6 -4 11 -12 11 -17 0 -6 -5 -7 -11 -4 -6 4 -13 -2 -16 -14 -4 -17
-8 -19 -20 -9 -11 9 -16 9 -23 -2 -4 -7 -6 -19 -3 -27 4 -9 -4 -13 -27 -13
-18 0 -29 -4 -25 -10 3 -5 -1 -10 -9 -10 -32 0 -15 -18 23 -25 22 -4 45 -13
52 -21 6 -8 26 -14 43 -14 18 0 36 -4 42 -8 27 -25 108 -44 155 -38 37 5 55 3
71 -9 17 -11 19 -15 6 -15 -9 0 -18 -7 -22 -15 -6 -17 -36 -21 -36 -5 0 7 -6
7 -18 1 -22 -12 -96 -3 -131 15 -13 7 -28 11 -33 8 -5 -3 -40 -6 -78 -6 -39 0
-70 -4 -70 -9 0 -5 -7 -9 -15 -9 -8 0 -15 -4 -15 -10 0 -5 -14 -10 -31 -10
-27 0 -30 -2 -19 -15 10 -12 8 -16 -15 -25 -57 -22 -75 -72 -39 -113 17 -20
34 -25 95 -31 40 -3 76 -10 79 -14 18 -25 64 -42 115 -42 30 0 55 -4 55 -10 0
-5 -9 -10 -20 -10 -11 0 -19 -6 -17 -12 1 -9 -8 -12 -25 -10 -19 2 -28 -2 -28
-12 0 -17 -49 -48 -105 -67 -22 -7 -47 -18 -55 -24 -19 -13 -96 -50 -135 -64
-39 -14 -85 -13 -160 4 -33 8 -90 19 -127 26 -38 7 -68 16 -68 21 0 4 -5 8
-11 8 -7 0 -33 13 -58 28 -25 16 -73 39 -106 52 -33 13 -68 30 -77 38 -9 7
-31 22 -50 31 -21 12 -37 30 -44 52 -6 18 -22 40 -35 48 -13 8 -40 30 -60 47
-23 20 -53 35 -79 39 -24 4 -38 10 -31 14 6 4 -15 16 -46 26 -47 16 -85 19
-223 20 -125 0 -171 -3 -183 -13 -9 -8 -20 -12 -24 -9 -4 3 -13 -1 -20 -8 -9
-10 -6 -20 13 -46 13 -18 28 -35 32 -38 26 -18 29 -45 8 -75 -32 -46 -43 -56
-60 -56 -10 0 -16 -9 -16 -22 -1 -99 -32 -234 -60 -258 -3 -3 -17 -27 -31 -55
-19 -36 -23 -57 -18 -77 4 -15 3 -28 -2 -30 -10 -4 67 -128 79 -128 5 0 62
-64 128 -141 65 -78 124 -147 129 -153 110 -122 245 -276 245 -281 0 -18 216
-255 233 -255 14 0 36 -32 37 -53 0 -10 4 -15 10 -12 5 3 10 2 10 -2 0 -5 18
-30 40 -56 21 -27 49 -69 62 -94 13 -25 28 -48 35 -50 7 -3 13 -12 13 -20 0
-9 14 -31 30 -50 28 -32 32 -53 9 -53 -5 0 -26 16 -47 35 -21 19 -60 43 -86
54 -25 11 -49 27 -52 35 -3 8 -21 24 -40 35 -19 11 -34 26 -34 33 0 7 -10 18
-22 23 -12 6 -26 18 -32 28 -18 31 -70 81 -97 96 -15 7 -32 24 -38 37 -5 13
-27 30 -47 39 -19 8 -38 23 -40 32 -5 18 -36 40 -99 71 -49 24 -215 134 -215
142 0 5 6 11 12 13 7 3 2 6 -12 6 -14 1 -50 17 -80 36 -30 19 -58 35 -62 35
-5 0 -48 24 -96 54 -48 29 -114 67 -148 84 -34 17 -74 41 -90 54 -16 13 -63
37 -104 52 -99 38 -234 96 -240 104 -9 12 -184 99 -225 112 -22 7 -76 28 -119
48 -44 19 -103 37 -133 41 l-53 8 0 -141 0 -141 105 -33 c117 -38 152 -60 47
-30 -145 41 -157 43 -147 28 3 -5 14 -10 23 -10 9 0 24 -5 32 -10 13 -9 13
-11 0 -20 -8 -5 -24 -7 -35 -3 -17 5 -18 4 -6 -11 17 -20 40 -21 47 -1 7 16
59 21 68 6 3 -4 -3 -16 -14 -26 -10 -9 -16 -23 -14 -30 5 -13 -11 -29 -31 -30
-5 -1 -22 7 -37 17 -14 10 -29 18 -32 18 -3 0 -6 -58 -6 -129 l0 -129 35 -16
c19 -9 37 -21 40 -26 8 -13 45 -13 45 0 0 6 -6 10 -12 10 -10 0 -10 2 0 9 9 5
0 11 -30 16 -34 7 -38 9 -19 13 30 5 97 -16 113 -36 10 -11 7 -18 -12 -33
l-25 -19 25 -20 c14 -11 38 -23 54 -27 24 -5 26 -7 11 -16 -16 -8 -16 -10 3
-21 71 -41 93 -62 89 -83 -2 -13 1 -23 7 -24 15 -1 -56 -21 -74 -20 -8 0 -37
5 -65 9 -48 9 -48 9 -12 11 41 1 44 6 21 36 -12 17 -17 18 -35 7 -11 -7 -23
-11 -27 -8 -5 3 -21 -6 -38 -19 l-29 -23 28 5 c27 5 27 4 17 -23 -9 -24 -8
-31 6 -41 10 -7 22 -13 27 -13 4 0 5 -5 2 -10 -5 -8 -11 -7 -21 1 -15 12 -44
6 -44 -11 0 -5 11 -10 24 -10 14 0 28 -5 31 -10 4 -6 10 -8 15 -5 10 6 22 -23
14 -36 -3 -5 3 -9 13 -9 17 -1 17 -2 -1 -15 -22 -17 -40 -20 -32 -6 3 5 -5 12
-19 15 -15 4 -25 13 -25 24 1 16 1 16 11 0 9 -16 39 -15 39 1 0 10 -46 31 -68
31 -13 0 -17 9 -17 35 0 19 4 35 8 35 5 0 5 5 2 10 -10 16 -23 12 -30 -11 -4
-12 -12 -18 -21 -15 -9 4 -14 -2 -14 -15 0 -14 5 -19 14 -16 10 4 13 1 9 -9
-3 -7 -11 -14 -19 -14 -8 0 -14 -5 -14 -11 0 -6 8 -8 19 -4 11 3 22 1 26 -5 4
-6 -4 -10 -19 -10 -35 0 -34 -28 1 -36 42 -9 50 -12 32 -13 -17 -1 -33 -27
-21 -34 4 -2 19 -7 35 -11 25 -6 39 -26 17 -26 -5 0 -10 5 -10 11 0 7 -11 9
-30 6 -22 -5 -30 -3 -30 8 0 8 -4 15 -10 15 -5 0 -10 -20 -10 -45 0 -28 4 -45
12 -45 9 0 9 -3 0 -12 -9 -9 -12 -139 -12 -525 l0 -513 1876 0 1875 0 -6 133
c-6 130 -8 153 -22 227 -3 19 -7 53 -8 74 0 22 -6 41 -12 43 -6 2 -9 12 -6 21
8 30 -35 251 -56 290 -60 110 -154 437 -201 697 -12 66 -30 156 -40 200 -19
77 -25 122 -22 157 1 10 17 21 39 29 121 39 179 92 167 154 -5 28 -11 35 -30
35 -12 0 -26 -5 -29 -10 -4 -6 -10 -8 -15 -5 -5 3 -11 1 -15 -5 -10 -15 -35
-12 -35 5 0 8 8 15 18 15 31 0 72 24 72 43 0 10 -19 28 -50 45 -38 21 -48 31
-44 46 5 15 2 17 -23 12 -16 -3 -38 0 -52 8 -24 13 -24 13 15 21 36 7 37 8 14
15 -14 4 -37 5 -51 3 -34 -6 -38 1 -43 78 -5 69 16 138 43 139 21 0 85 23 92
33 11 16 84 29 149 28 133 -2 301 -31 362 -62 21 -11 159 -31 165 -25 3 3 -15
18 -39 35 -23 17 -47 34 -53 39 -5 4 -25 17 -42 27 -29 17 -43 35 -28 35 8 0
99 -52 115 -65 34 -29 179 -95 240 -109 89 -21 186 -20 260 3 66 21 100 44
100 70 0 23 -50 73 -128 127 -120 85 -133 104 -67 104 24 0 42 9 65 31 34 34
70 99 70 124 0 34 -84 85 -140 85 -16 0 -30 5 -30 10 0 7 -6 7 -19 1 -13 -8
-22 -7 -29 2 -15 17 8 65 49 104 30 27 45 32 119 42 47 6 155 11 240 12 157 2
183 5 159 20 -24 15 0 22 111 35 118 13 173 35 178 70 2 11 -6 28 -16 37 -26
23 -145 64 -227 77 -65 10 -137 39 -150 59 -10 18 19 51 81 92 l61 39 86 -20
c51 -12 98 -18 114 -14 32 8 65 33 58 44 -3 4 6 15 20 24 14 9 25 22 25 29 0
7 -34 43 -75 80 -69 63 -74 70 -63 90 23 40 37 91 29 102 -12 16 -13 103 -1
110 6 4 37 -2 68 -13 31 -11 84 -27 117 -37 85 -24 139 -58 159 -99 9 -19 16
-37 16 -41 0 -17 73 -116 95 -131 33 -21 181 -40 199 -25 7 6 29 11 47 11 85
-1 104 4 107 28 2 14 -4 30 -15 39 -17 14 -17 14 0 9 15 -5 18 -1 15 22 -2 21
-9 28 -30 30 -26 3 -41 22 -17 22 6 0 8 7 5 16 -5 13 0 15 36 9 35 -6 41 -5
31 6 -7 7 -13 23 -13 35 0 13 -8 29 -18 36 -10 7 -21 21 -25 30 -4 10 -12 15
-21 12 -8 -3 -24 4 -35 15 -12 12 -32 21 -45 21 -14 0 -36 4 -50 10 -17 6 -26
6 -26 0 0 -6 -12 -8 -27 -5 -15 2 -30 0 -33 -6 -11 -17 -89 2 -126 32 -20 16
-53 31 -73 34 -51 9 -181 55 -181 66 0 4 -7 6 -15 3 -8 -4 -15 -2 -15 4 0 6
-9 8 -20 5 -11 -3 -20 -1 -20 4 0 5 -6 10 -12 10 -22 1 -118 50 -111 57 3 3
-1 6 -10 6 -10 0 -27 6 -39 13 -54 31 -78 65 -38 54 11 -3 18 -1 14 4 -3 5
-15 10 -27 10 -18 1 -19 2 -4 6 18 5 18 5 0 19 -34 26 17 4 72 -32 28 -18 85
-50 127 -73 75 -39 78 -40 95 -22 69 70 113 81 158 38 17 -16 33 -25 95 -52 3
-2 15 -6 28 -10 12 -4 22 -14 22 -21 0 -8 10 -14 24 -14 14 0 28 -4 31 -10 8
-13 45 -13 45 -1 0 13 88 -17 123 -41 25 -18 28 -18 43 -4 25 26 37 19 30 -18
-4 -18 -2 -44 2 -57 l9 -24 7 23 c10 29 39 28 111 -4 108 -47 228 -40 231 14
1 13 9 29 19 36 15 10 16 18 8 42 -6 17 -16 27 -24 25 -36 -11 -103 -12 -129
-1 -29 12 -46 37 -34 49 4 3 9 0 11 -7 11 -31 34 -42 76 -36 63 9 69 12 65 36
-2 18 -9 22 -28 20 -14 -2 -41 4 -60 12 -23 9 -42 11 -57 5 -16 -6 -23 -5 -23
4 0 9 -3 8 -9 -1 -7 -11 -10 -10 -15 3 -10 27 -8 28 36 21 42 -7 42 -7 23 14
-18 20 -18 20 2 20 12 0 23 -7 27 -15 4 -11 21 -15 58 -16 71 -1 122 -20 126
-47 2 -13 -5 -25 -19 -33 l-23 -12 26 -13 c14 -7 31 -28 37 -46 31 -84 45
-103 103 -132 42 -21 75 -29 125 -32 38 -1 57 -1 43 2 -93 20 -201 66 -186 81
3 3 11 1 18 -4 7 -6 28 -15 46 -21 28 -10 34 -9 39 5 5 14 8 13 14 -5 5 -12
15 -22 23 -22 10 0 13 6 10 15 -4 8 -1 15 5 15 7 0 14 -7 17 -15 8 -19 54 -20
54 -1 0 8 -6 16 -13 19 -6 2 -18 22 -26 43 -8 22 -19 43 -25 47 -8 6 -7 10 2
14 18 7 15 34 -3 27 -9 -4 -15 0 -15 10 0 9 5 16 11 16 5 0 7 5 3 11 -5 8 -9
8 -14 -1 -6 -10 -9 -9 -15 0 -4 7 -3 15 2 19 6 3 13 13 16 21 4 12 6 11 6 -2
1 -10 5 -18 10 -18 16 0 24 21 12 33 -16 16 -14 37 3 37 35 0 166 -104 166
-132 0 -15 62 -98 91 -122 30 -26 93 -35 133 -20 29 11 17 20 -20 16 -35 -4
-84 13 -84 30 0 4 11 8 25 8 20 0 25 5 25 25 0 31 13 32 28 3 8 -18 11 -19 11
-5 1 9 8 17 16 17 16 0 21 37 7 55 -11 15 -42 15 -42 -1 0 -8 -10 -3 -27 12
-19 17 -27 34 -25 50 2 13 0 29 -5 36 -4 7 -9 21 -10 32 -3 16 2 18 34 13 39
-6 85 14 64 28 -6 3 -11 4 -11 0 0 -3 -9 -1 -20 5 -14 7 -32 8 -54 1 -29 -7
-34 -6 -29 6 5 12 -7 14 -68 12 -60 -1 -85 3 -131 24 l-57 26 -17 -32 c-9 -18
-19 -45 -23 -62 -5 -22 -13 -31 -31 -33 -20 -2 -22 -1 -10 7 13 9 13 11 -2 11
-9 0 -18 5 -20 12 -2 6 -32 13 -71 15 -65 5 -66 4 -73 -22 -6 -23 -10 -26 -33
-20 -14 4 -28 10 -31 15 -3 5 -12 8 -20 8 -43 -3 -62 3 -57 16 11 27 -51 34
-180 22 -24 -2 -43 1 -43 5 0 5 -5 9 -11 9 -5 0 -8 -4 -5 -9 7 -11 -22 -23
-35 -16 -5 3 -17 1 -28 -4 -15 -9 -20 -7 -24 10 -7 25 -27 16 -27 -11 0 -17
-26 -40 -44 -40 -3 0 -6 12 -6 26 0 25 -2 26 -40 21 -33 -4 -43 -1 -55 16 -13
19 -17 20 -25 7 -8 -13 -13 -11 -35 12 -15 17 -21 29 -14 33 6 4 13 4 16 1 3
-3 11 -2 17 4 7 5 27 5 51 0 41 -9 59 -5 50 11 -4 5 3 9 15 9 12 0 19 -4 16
-9 -8 -13 12 -18 64 -19 25 0 52 -2 60 -5 37 -13 70 -17 70 -8 0 5 -4 13 -10
16 -6 3 -10 19 -10 36 0 23 4 29 21 29 15 0 25 -12 37 -41 15 -36 20 -40 46
-35 16 4 42 6 58 6 17 0 27 4 23 10 -14 22 40 32 98 18 l55 -14 6 30 c12 70
31 141 39 147 5 4 7 17 5 30 -4 29 -95 68 -178 77 -79 8 -98 33 -61 81 l19 25
58 -21 c84 -29 154 -47 160 -40 12 11 -8 87 -22 87 -18 0 -18 17 1 27 12 7 11
13 -6 40 l-20 32 -70 -6 -70 -6 7 114 c3 63 9 144 13 180 5 44 3 75 -6 95 -15
36 -16 57 -3 49 6 -3 10 2 10 11 0 16 1 16 14 -2 24 -31 48 -7 61 61 10 47 9
63 -2 86 -8 16 -19 29 -24 29 -5 0 -12 12 -15 27 -4 15 -16 36 -26 48 -19 20
-19 20 -12 0 7 -18 6 -18 -9 -6 -12 10 -14 18 -7 31 6 10 10 29 10 42 0 16 3
19 9 10 6 -10 10 -4 15 18 3 18 3 36 0 41 -3 5 0 9 5 9 6 0 10 10 8 23 -2 20
3 23 76 31 58 7 88 6 114 -3 30 -11 37 -11 54 5 17 15 23 16 41 5 19 -12 20
-11 15 11 -5 20 4 29 65 68 39 25 75 55 81 68 6 12 16 22 24 22 7 0 13 6 13
14 0 10 14 14 49 14 46 0 49 -2 38 -19 -9 -15 -8 -21 4 -31 18 -15 78 -107
104 -158 9 -19 28 -44 41 -56 18 -15 27 -37 35 -84 5 -35 14 -69 19 -75 5 -6
9 -27 8 -46 -1 -42 21 -139 32 -139 4 0 8 39 9 86 1 48 4 90 6 95 3 4 -2 12
-11 17 -15 8 -15 10 0 15 19 8 21 43 3 54 -21 12 -28 53 -10 53 12 0 15 8 10
39 -6 48 5 65 55 86 70 28 156 -7 191 -78 16 -34 16 -40 2 -73 -8 -20 -15 -50
-15 -66 0 -16 -7 -45 -15 -65 -22 -52 -19 -61 18 -65 31 -3 32 -4 29 -44 -2
-23 1 -45 7 -49 7 -4 11 11 11 45 0 28 4 49 9 46 12 -8 21 30 9 42 -10 10 5
117 23 162 14 37 51 51 86 33 65 -33 103 -100 103 -185 0 -16 5 -28 10 -28 6
0 10 -20 10 -45 0 -26 7 -59 15 -75 10 -20 13 -43 9 -74 -4 -25 -3 -53 1 -63
6 -16 8 -16 16 6 7 17 13 21 22 13 6 -5 27 -13 45 -17 18 -4 32 -13 32 -21 0
-16 -4 -17 -65 -33 -61 -16 -97 -87 -109 -213 -12 -125 -16 -139 -37 -133 -11
4 -26 0 -34 -9 -22 -21 -18 -29 10 -24 19 4 25 1 25 -13 0 -24 -2 -23 -48 0
-20 11 -55 23 -76 28 -43 9 -71 40 -56 63 6 9 32 16 78 18 l69 4 -37 37 c-21
20 -43 46 -50 59 -14 28 -6 56 15 48 18 -7 20 17 3 36 -7 7 -15 20 -16 28 -22
91 -43 154 -54 161 -10 7 -10 9 0 9 6 0 12 9 12 20 0 11 -5 20 -11 20 -6 0 -8
7 -5 16 3 8 2 13 -3 10 -5 -3 -12 -22 -15 -41 -5 -27 -14 -38 -34 -45 -39 -14
-55 -25 -60 -39 -3 -8 4 -11 19 -9 18 2 24 -3 31 -27 10 -38 4 -55 -22 -55
-15 0 -20 -7 -20 -28 0 -34 16 -52 47 -52 27 0 41 -26 24 -43 -8 -8 -11 -8
-11 0 0 7 -9 10 -20 8 -31 -6 -40 -14 -40 -36 0 -16 5 -19 20 -14 21 7 24 2
34 -53 5 -31 4 -33 -21 -30 -21 2 -28 -2 -31 -17 -2 -11 -8 -29 -13 -41 -6
-11 -9 -24 -7 -30 2 -5 -1 -9 -7 -9 -5 0 -9 4 -7 9 1 4 -12 6 -30 4 -48 -8
-117 26 -130 64 -8 22 -13 26 -18 17 -15 -29 -32 -148 -34 -244 -1 -55 -6
-109 -10 -121 -9 -25 29 -74 84 -109 66 -42 199 -70 214 -46 7 10 -27 21 -69
21 -16 0 -47 9 -67 18 l-36 17 106 -3 c75 -3 110 -9 117 -18 13 -18 92 -29
141 -19 28 5 34 9 23 16 -8 5 -22 6 -32 3 -26 -8 -121 16 -109 28 5 5 44 10
88 12 43 2 87 4 96 5 24 2 26 28 6 106 -10 39 -18 93 -18 121 0 48 2 52 27 57
46 9 54 0 52 -59 -2 -41 2 -59 17 -75 31 -34 93 -61 155 -66 52 -5 60 -3 83
20 21 21 26 36 26 75 0 35 4 52 15 56 8 3 15 1 15 -5 0 -6 5 -7 10 -4 13 8 69
-28 95 -61 11 -14 28 -34 38 -46 9 -12 17 -25 17 -30 0 -5 5 -6 11 -3 6 4 13
-2 16 -14 3 -14 13 -21 29 -21 13 0 24 -4 24 -8 0 -12 67 -42 93 -42 12 0 43
7 70 15 26 8 54 12 61 9 8 -3 21 5 30 18 20 29 22 150 3 167 -8 6 -16 8 -19 6
-17 -17 7 80 34 139 30 67 30 70 15 100 -9 17 -19 58 -22 91 -8 72 -7 76 3
140 l8 50 109 -3 c60 -1 113 -6 118 -11 14 -14 -34 -101 -74 -133 -22 -17 -39
-35 -39 -40 0 -5 11 -26 24 -47 l24 -38 -24 -19 c-20 -15 -26 -31 -31 -79 -6
-61 -26 -94 -66 -108 -21 -8 -23 -27 -2 -27 9 0 21 -11 27 -25 13 -29 41 -39
96 -34 l37 4 -5 -42 c-4 -35 -11 -46 -45 -69 -22 -14 -44 -33 -48 -40 -4 -8
-14 -14 -22 -14 -9 0 -13 -11 -13 -31 1 -35 29 -59 70 -59 18 0 28 -5 28 -15
0 -9 11 -20 25 -25 35 -13 34 -50 0 -50 -22 0 -25 -3 -19 -25 5 -22 2 -28 -24
-37 -22 -9 -30 -18 -29 -32 3 -32 -64 -44 -100 -18 -35 24 -65 34 -79 24 -14
-9 -26 -72 -14 -72 5 0 15 -10 21 -22 11 -21 11 -22 -5 -9 -9 8 -19 11 -22 8
-11 -11 8 -29 51 -47 45 -19 51 -19 235 10 92 15 165 7 202 -20 22 -17 32 -18
48 -10 33 18 59 4 57 -31 -2 -36 -31 -39 -71 -8 -27 21 -38 11 -11 -11 20 -16
19 -46 -1 -54 -8 -3 -32 1 -52 10 -48 20 -91 11 -119 -24 -26 -35 -21 -75 13
-91 13 -6 24 -14 23 -18 0 -5 -36 -25 -81 -47 -73 -35 -80 -40 -75 -63 3 -14
-2 -42 -10 -62 -24 -57 -54 -250 -48 -306 13 -119 13 -319 -1 -455 -19 -184
-38 -259 -71 -286 -23 -18 -25 -23 -15 -55 17 -53 8 -131 -18 -167 -21 -28
-22 -35 -12 -70 17 -55 15 -61 -13 -74 -18 -8 -25 -19 -25 -39 0 -59 -20 -63
-274 -64 l-98 0 -20 -50 c-23 -60 -34 -73 -48 -59 -11 11 11 77 30 89 38 24
-41 29 -144 9 -42 -7 -66 -36 -66 -76 0 -74 175 -163 398 -203 165 -30 197
-34 276 -37 l79 -3 37 74 c24 46 62 98 103 140 l65 66 -20 75 c-16 62 -18 100
-15 220 5 167 22 227 85 294 49 52 143 112 187 120 24 5 39 15 45 29 15 35 40
218 40 293 1 41 6 76 14 86 12 17 15 17 54 -2 52 -25 69 -25 82 0 14 26 36 25
85 -5 22 -13 47 -25 55 -25 8 0 22 -4 30 -10 12 -7 12 -12 -4 -29 -11 -12 -25
-21 -31 -21 -14 0 -30 -36 -40 -88 -4 -18 -13 -39 -22 -47 -8 -8 -10 -15 -4
-15 6 0 11 -5 11 -11 0 -5 -4 -8 -9 -4 -5 3 -12 1 -15 -4 -4 -5 -2 -12 4 -16
6 -4 5 -13 -2 -25 -15 -23 1 -77 21 -72 7 1 25 -7 41 -18 38 -27 40 -26 40 16
0 36 16 43 30 13 24 -50 28 -54 76 -62 27 -4 82 -15 121 -23 40 -9 128 -24
195 -35 68 -10 143 -23 168 -28 25 -6 62 -10 82 -11 20 0 58 -10 85 -21 26
-12 61 -21 77 -21 16 1 42 -6 57 -14 15 -8 41 -14 57 -14 15 0 32 -4 38 -8 17
-15 90 -32 139 -32 36 0 56 -6 82 -26 23 -17 41 -24 57 -20 23 6 50 -9 96 -51
16 -15 31 -20 46 -17 26 7 64 -3 64 -16 0 -5 23 -47 51 -94 l52 -86 -16 -43
c-8 -23 -18 -55 -22 -71 l-6 -29 36 31 c36 32 51 37 78 26 13 -5 13 -11 -4
-47 -10 -23 -19 -55 -19 -71 0 -36 32 -130 71 -210 32 -64 35 -82 18 -88 -7
-2 -1 -16 15 -32 14 -16 26 -39 26 -51 0 -30 27 -92 51 -118 10 -11 19 -27 19
-34 0 -7 9 -27 20 -45 35 -58 31 -63 -86 -86 -122 -25 -190 -53 -266 -111 -80
-60 -153 -164 -168 -240 -17 -83 -36 -126 -59 -129 -12 -2 -21 -8 -21 -14 0
-19 -70 0 -195 51 -205 84 -290 100 -147 28 152 -77 184 -99 107 -72 -267 92
-617 225 -709 269 -78 38 -100 37 -64 -1 15 -16 18 -24 8 -22 -19 5 -159 80
-233 125 -34 21 -62 32 -70 27 -6 -4 -20 -6 -30 -5 -11 2 -21 -6 -27 -22 -11
-29 -24 -32 -60 -11 -31 18 -63 19 -58 3 3 -7 23 -16 45 -21 31 -6 42 -13 47
-32 3 -13 14 -26 24 -28 9 -3 1 -5 -19 -6 -20 0 -56 -10 -80 -21 l-44 -21 60
6 c89 9 112 15 126 31 14 17 39 18 39 2 0 -7 -16 -37 -36 -66 -20 -29 -35 -55
-32 -57 7 -7 83 64 80 75 -1 6 9 10 22 10 40 0 44 -60 17 -223 -6 -32 -8 -64
-5 -71 3 -8 -14 -33 -38 -57 l-43 -42 37 6 c24 3 38 1 41 -6 6 -17 -4 -47 -15
-47 -5 0 -7 -13 -3 -29 4 -21 2 -30 -10 -35 -9 -3 -13 -11 -10 -17 4 -6 13 -8
20 -5 10 4 10 -1 -1 -22 -17 -33 -18 -52 -3 -52 7 0 9 -9 5 -24 -4 -15 -1 -26
7 -29 6 -2 18 -25 26 -51 7 -25 17 -46 22 -46 16 0 10 -48 -6 -52 -14 -3 -14
-6 1 -26 11 -16 21 -21 36 -16 18 5 20 3 13 -12 -5 -11 -8 -34 -7 -51 1 -23
-4 -33 -14 -33 -11 0 -14 -8 -12 -28 2 -21 9 -28 31 -30 16 -2 35 2 43 9 24
20 26 4 4 -35 -38 -69 -47 -66 228 -66 l247 0 26 32 26 32 39 -32 39 -32 149
0 150 0 -49 31 c-27 17 -58 35 -69 40 -12 5 -37 19 -57 32 -19 12 -50 31 -67
42 -37 22 -37 31 2 59 22 17 46 21 136 24 107 4 108 4 112 -19 2 -20 10 -25
40 -27 l38 -3 -7 -90 -6 -89 50 0 50 0 18 80 c10 44 24 85 32 92 8 7 30 8 61
3 26 -4 65 -9 87 -12 22 -3 45 -9 50 -13 6 -4 27 -7 48 -5 24 1 41 -3 46 -12
5 -9 38 -19 84 -25 42 -6 75 -14 72 -17 -2 -4 5 -18 16 -31 10 -14 19 -20 19
-14 0 15 38 25 46 12 3 -5 12 -7 19 -4 20 7 25 -3 15 -30 l-10 -24 328 1 c194
1 307 5 277 9 -62 10 -217 50 -227 59 -4 3 17 4 47 3 30 -2 55 -8 55 -13 0 -5
8 -8 18 -7 37 4 182 -30 182 -43 0 -5 22 -9 50 -9 l49 0 -2 273 -2 272 -38 9
c-26 7 -36 14 -32 23 2 8 1 12 -4 9 -4 -3 -16 3 -26 14 -10 11 -26 20 -35 20
-9 0 -22 11 -28 25 -6 14 -18 25 -26 25 -7 0 -16 9 -19 20 -5 19 -2 20 44 14
27 -4 49 -4 49 0 0 3 -26 19 -57 36 -69 35 -133 89 -116 96 7 3 9 12 6 21 -6
16 3 16 95 -3 20 -4 32 -2 32 4 0 6 28 0 62 -14 104 -40 98 -48 98 135 0 144
-2 160 -17 164 -17 4 -17 5 0 6 16 1 17 104 17 2021 0 1340 -3 2020 -10 2020
-5 0 -10 7 -10 15 0 8 5 15 10 15 7 0 10 179 10 516 l0 516 -27 -5 c-28 -5
-93 18 -93 34 0 13 22 23 29 13 3 -5 13 -9 22 -10 11 -1 19 15 28 58 7 34 18
61 27 65 11 4 12 9 3 19 -6 8 -8 14 -3 14 11 0 17 111 9 158 -3 18 -12 32 -20
32 -13 0 -105 84 -105 96 0 13 -30 34 -50 34 -15 0 -22 -8 -26 -30 -4 -16 -12
-30 -19 -30 -8 0 -13 -17 -13 -52 0 -29 -14 -110 -32 -179 -27 -109 -35 -128
-56 -138 -37 -16 -39 4 -14 101 32 120 90 380 90 404 0 20 -87 124 -103 124
-5 0 -17 10 -27 22 -17 21 -18 21 -23 2 -3 -10 -8 -37 -12 -59 -3 -22 -10 -44
-15 -49 -6 -6 -10 -19 -10 -29 0 -32 -34 -117 -45 -113 -12 4 -12 7 15 136 34
158 36 191 11 215 -12 11 -38 37 -58 58 -34 35 -38 37 -50 21 -7 -10 -13 -30
-13 -45 0 -15 -5 -31 -11 -34 -6 -4 -8 -12 -6 -19 2 -6 -2 -27 -9 -46 l-13
-35 5 40 c3 22 8 47 11 55 3 8 6 32 8 52 2 20 6 45 9 55 9 27 -105 148 -122
131 -9 -9 -12 -6 -12 12 -1 28 -21 60 -39 60 -6 0 -10 4 -9 8 2 5 -53 65 -120
133 -68 68 -130 136 -138 152 -8 15 -20 27 -27 28 -31 2 -51 9 -66 23 -13 14
-13 20 -3 37 10 16 10 22 -3 35 -24 25 -11 30 62 23 37 -3 73 -2 79 3 6 4 18
6 27 2 11 -4 16 1 19 18 3 21 8 23 60 23 64 0 77 -8 60 -35 -8 -14 -8 -21 -1
-26 7 -4 9 -26 5 -58 -4 -41 -3 -47 6 -29 6 12 20 23 32 25 11 2 22 11 24 22
2 10 16 31 31 45 37 36 44 58 21 64 -10 3 -23 0 -28 -5 -7 -7 -14 -3 -21 11
-12 21 -51 30 -51 12 0 -13 -89 -4 -107 10 -8 8 -29 9 -61 4 -66 -10 -123 -11
-148 -2 -16 6 -23 2 -32 -18 -20 -44 -50 -32 -129 50 -69 71 -93 88 -93 65 0
-5 -6 -10 -13 -10 -8 0 -18 -16 -23 -36 -8 -32 -13 -37 -43 -41 -19 -2 -38 -9
-42 -15 -10 -15 -48 -18 -43 -3 3 6 -4 19 -14 29 -19 17 -19 19 -1 104 17 84
86 437 129 667 11 61 26 139 33 175 l13 65 95 -1 c52 -1 135 -5 184 -8 50 -4
135 -8 190 -9 55 -1 103 -6 107 -12 5 -6 8 -4 8 5 0 8 11 28 25 44 14 16 25
31 25 33 0 2 -371 3 -824 3 -638 -1 -826 -3 -829 -13 -4 -9 -6 -9 -6 1 -1 9
-28 12 -98 12 -54 0 -93 -4 -87 -8 26 -16 26 -52 1 -82 -26 -31 -38 -31 -30 0
3 10 11 16 18 14 11 -5 11 1 0 33 l-13 38 -4232 3 c-2327 1 -4229 -1 -4227 -5
3 -5 12 -76 21 -158 9 -83 19 -160 22 -172 4 -22 1 -23 -51 -23 -49 0 -55 2
-59 23 -10 50 -36 274 -36 305 0 17 -4 32 -10 32 -13 0 -13 14 10 -185 11 -96
15 -172 10 -175 -5 -3 -29 -4 -53 -2 -42 4 -46 6 -51 35 -11 61 -36 268 -36
298 0 29 -1 29 -55 29 l-55 0 3 -37 c7 -67 29 -237 37 -280 7 -38 5 -43 -11
-43 -11 0 -19 3 -20 8 0 4 -2 16 -5 27 -2 11 -10 72 -19 135 -20 155 -26 192
-31 187 -2 -2 5 -77 17 -167 11 -90 19 -174 16 -187 -2 -13 0 -26 4 -29 12 -7
11 -55 -1 -74 -9 -13 -11 -13 -20 0 -6 10 -10 11 -10 3 0 -23 -25 -14 -42 15
-15 23 -18 24 -18 7 -1 -17 -3 -16 -16 8 -19 36 -11 47 33 47 47 0 37 10 -11
12 -43 1 -37 -16 -67 206 -12 89 -25 162 -29 162 -6 0 -3 -36 20 -220 6 -47
13 -100 15 -117 l4 -33 -54 0 c-30 0 -56 4 -60 9 -3 6 -12 54 -21 108 -8 54
-20 133 -26 176 l-12 77 -58 0 c-55 0 -58 -1 -53 -22 2 -13 9 -61 15 -108 6
-47 13 -96 15 -110 17 -116 17 -130 1 -130 -15 0 -17 5 -35 125 -33 213 -62
326 -46 180z m10097 -33 c-14 -4 -17 -32 -3 -32 5 0 12 6 14 13 15 36 4 -61
-28 -233 -8 -47 -17 -101 -20 -120 -7 -49 -34 -195 -47 -253 -8 -38 -13 -45
-23 -37 -10 9 -16 6 -25 -10 -13 -24 -6 -40 17 -40 18 0 16 -33 -16 -215 -21
-120 -20 -125 37 -131 39 -4 152 -107 152 -137 0 -7 -12 -23 -26 -36 -14 -13
-32 -37 -39 -52 -26 -49 -140 -52 -184 -5 -20 21 -22 32 -18 100 4 61 9 82 26
100 26 28 27 40 1 26 -29 -16 -50 -63 -50 -115 0 -38 -4 -47 -22 -54 -14 -5
-31 -5 -43 2 -13 7 -20 7 -23 -1 -3 -9 -9 -9 -23 -2 -13 7 -19 7 -19 0 0 -5
-15 -10 -32 -9 -28 0 -30 2 -13 9 18 8 17 9 -7 9 -15 1 -30 -3 -33 -9 -8 -14
-55 -13 -55 1 0 6 -6 9 -14 6 -8 -3 -17 -1 -20 6 -3 9 -7 9 -13 1 -9 -12 -75
-15 -68 -3 3 4 -2 9 -10 13 -8 3 -15 0 -16 -7 0 -9 -2 -9 -6 1 -2 6 -12 12
-22 12 -9 0 -23 -6 -30 -12 -9 -8 -11 -8 -8 -2 4 7 0 14 -8 18 -9 3 -15 0 -15
-9 0 -8 -6 -15 -14 -15 -8 0 -16 17 -20 43 l-7 42 -14 -32 c-9 -21 -22 -33
-35 -34 -11 -1 -26 -2 -32 -3 -7 0 -14 -16 -16 -34 -5 -47 -27 -70 -66 -66
-17 2 -44 5 -61 7 -22 3 -31 9 -33 26 -2 13 -12 37 -23 55 -14 24 -19 50 -19
113 0 45 -4 83 -10 85 -6 2 6 104 30 253 51 324 51 325 59 321 3 -2 7 19 7 47
1 29 5 68 9 87 3 19 9 61 12 93 3 31 10 57 16 57 5 0 7 -14 4 -35 -3 -19 -2
-35 4 -35 5 0 9 9 9 19 0 11 10 27 23 36 18 13 19 17 8 25 -12 7 -10 10 10 15
13 3 35 7 49 9 41 4 51 15 48 52 -1 25 -6 34 -18 32 -8 -2 -15 -9 -15 -16 0
-13 -7 -15 -30 -6 -25 10 -17 21 20 27 21 3 46 0 64 -9 28 -14 50 -14 84 1 12
5 23 2 33 -11 15 -18 15 -18 11 3 -3 13 2 28 10 35 14 11 15 4 9 -67 -4 -44
-13 -120 -21 -170 -7 -49 -16 -119 -20 -155 -4 -36 -10 -81 -15 -100 -5 -19
-11 -62 -15 -95 -3 -33 -10 -78 -15 -100 -5 -22 -9 -56 -9 -75 0 -19 16 44 35
140 78 398 101 500 115 500 4 0 10 10 12 23 l4 22 8 -22 c4 -13 10 -21 14 -19
7 5 -28 -266 -49 -375 -17 -93 -16 -97 33 -104 23 -3 83 -7 132 -9 50 -2 127
-7 172 -11 98 -9 92 -16 119 140 9 55 21 118 26 140 5 22 11 56 14 75 2 19 12
71 21 115 9 44 17 87 18 95 1 8 7 28 14 43 6 16 11 37 11 48 0 19 1 20 17 3
13 -13 14 -19 5 -22z m329 -29 c17 -17 -3 -172 -22 -184 -8 -5 -54 -7 -104 -5
l-90 3 1 40 c0 21 6 67 14 102 l13 63 88 -4 c52 -2 93 -8 100 -15z m-276 -129
c-8 -49 -20 -109 -25 -134 -6 -25 -12 -62 -15 -84 -3 -21 -14 -87 -26 -147
-11 -60 -18 -113 -15 -118 7 -10 98 -23 210 -29 21 -2 27 -6 22 -17 -3 -8 0
-15 6 -15 7 0 8 -11 3 -32 -4 -18 -9 -51 -12 -73 -3 -22 -9 -44 -13 -50 -4 -5
-7 -25 -5 -42 2 -40 -12 -43 -26 -5 -29 71 -39 92 -49 92 -20 0 -10 -71 15
-108 14 -20 25 -42 25 -49 0 -6 7 -19 16 -28 24 -24 11 -28 -16 -5 -12 11 -39
22 -59 26 -54 9 -63 13 -58 27 2 6 18 11 35 11 29 -2 30 -1 20 27 -11 33 -30
48 -36 30 -5 -16 -32 5 -32 25 0 8 -4 14 -10 14 -5 0 -10 -21 -10 -47 l0 -48
-56 -27 -57 -27 7 52 c7 52 26 157 71 382 13 66 33 172 45 235 11 63 25 133
31 155 9 38 17 80 18 99 1 5 3 7 6 4 3 -3 -1 -45 -10 -94z m-4844 -483 c-2
-52 -8 -99 -14 -105 -5 -7 -25 -10 -43 -8 -31 4 -32 5 -23 34 5 19 4 38 -2 50
-6 11 -9 40 -8 66 3 43 5 47 34 53 60 13 60 13 56 -90z m2736 24 c-5 -82 -9
-91 -29 -79 -7 5 -28 10 -47 11 -54 3 -58 22 -5 27 15 2 30 8 32 14 3 10 -56
35 -110 46 -22 5 -28 12 -28 31 0 25 0 25 96 25 l96 0 -5 -75z m-3179 -62 c3
-112 6 -107 -70 -118 -37 -6 -46 -4 -52 10 -4 12 0 18 14 22 24 6 25 22 5 49
-9 11 -14 42 -15 76 l0 58 33 -4 c18 -3 40 0 48 5 28 17 34 1 37 -98z m-1258
27 c-14 -4 -20 -9 -15 -10 17 -4 39 -6 70 -9 30 -3 30 -3 -10 -16 -25 -8 -32
-14 -20 -15 11 -1 14 -4 8 -7 -19 -7 15 -53 40 -53 20 0 20 0 1 14 -22 17 -8
41 18 31 21 -8 30 -55 11 -62 -12 -5 -12 -8 1 -22 13 -14 23 -48 25 -88 1 -7
8 -13 16 -13 17 0 20 32 5 61 -10 17 -7 19 22 19 35 0 79 -35 55 -43 -9 -3 -9
-9 0 -28 6 -13 14 -33 18 -44 5 -15 8 -16 14 -6 19 30 26 -3 29 -125 2 -71 6
-132 8 -136 3 -5 -2 -8 -11 -8 -11 0 -15 -5 -12 -14 4 -10 -2 -16 -16 -19 -22
-3 -22 -4 3 -15 22 -9 15 -11 -45 -12 -101 -2 -50 -16 148 -39 157 -19 235
-39 102 -27 -164 14 -328 19 -322 9 6 -9 87 -22 242 -38 91 -9 249 -26 292
-31 24 -3 46 -10 49 -16 7 -11 -15 -10 -206 12 -75 9 -105 9 -108 1 -2 -7 -11
-6 -26 4 -14 10 -62 17 -129 22 l-107 6 0 -25 c0 -30 5 -31 205 -47 141 -12
158 -12 167 3 5 7 11 5 20 -6 9 -12 39 -20 105 -27 51 -5 102 -15 113 -21 12
-7 24 -9 27 -6 7 7 -33 130 -69 211 -30 65 -82 155 -113 193 -80 98 -107 134
-95 127 78 -48 238 -319 290 -492 10 -32 18 -43 34 -44 12 0 48 -4 81 -9 47
-6 78 -3 140 12 139 33 175 48 185 74 7 19 17 24 42 24 31 0 68 15 58 22 -18
14 -62 26 -75 22 -12 -5 -15 3 -15 44 l0 50 58 7 c32 3 63 10 68 13 5 4 7 83
4 194 -3 104 -2 201 1 217 5 23 3 28 -9 24 -18 -8 -43 23 -35 44 5 13 2 13
-15 4 -34 -18 -42 -13 -42 25 0 31 2 34 15 20 8 -8 15 -19 15 -25 0 -13 3 -13
24 -5 9 3 16 14 16 23 0 28 17 46 32 34 13 -10 26 -13 86 -14 32 -1 33 -2 30
-40 -1 -22 3 -44 10 -51 9 -9 12 -9 12 0 0 7 10 10 23 8 22 -3 22 -4 19 -150
-3 -108 0 -146 9 -146 9 0 9 -3 0 -14 -9 -10 -21 -12 -49 -5 -22 5 -41 4 -46
-1 -7 -7 -3 -10 10 -11 28 -1 65 -8 99 -18 l30 -9 -30 -2 c-16 -1 -34 -1 -40
0 -23 4 -97 1 -103 -5 -29 -29 184 -59 302 -42 40 6 74 27 43 27 -9 0 -17 4
-17 9 0 12 102 1 120 -13 8 -7 47 -13 85 -14 39 -1 87 -5 108 -8 23 -4 37 -2
37 5 0 6 -19 11 -45 11 -32 0 -45 4 -45 14 0 14 -29 26 -67 26 -12 0 -23 3
-26 8 -2 4 -3 2 -1 -4 1 -6 -2 -17 -6 -24 -7 -11 -12 -7 -21 13 -12 27 -24 34
-31 19 -1 -5 -22 -6 -45 -4 -24 2 -40 8 -37 13 3 5 15 7 27 4 13 -4 33 -2 46
3 15 5 49 4 90 -4 40 -8 68 -9 72 -3 3 5 23 19 45 30 41 22 98 25 164 9 31 -7
28 -8 -28 -9 -54 -1 -61 -3 -50 -15 8 -7 31 -16 51 -20 20 -3 53 -9 72 -12 19
-3 35 -2 35 3 0 5 29 7 65 5 74 -5 87 9 23 24 -40 8 -43 11 -40 39 2 17 5 31
7 33 2 2 25 6 51 10 58 9 61 16 63 157 1 50 5 108 9 130 l7 40 75 1 c41 1 81
3 89 5 11 3 14 -25 16 -151 2 -99 6 -155 13 -158 6 -2 9 -9 6 -17 -6 -15 -45
-8 -56 10 -4 6 -28 13 -54 13 -25 1 -50 4 -54 7 -11 7 -44 -21 -37 -32 4 -5
43 -13 88 -16 88 -7 110 -17 102 -47 -5 -21 -3 -22 65 -24 21 -1 27 3 26 21 0
17 7 22 40 28 l41 8 -45 10 c-67 16 -79 33 -27 40 22 3 45 3 49 1 5 -3 40 -8
78 -10 64 -4 70 -3 70 15 0 23 16 37 23 19 3 -10 9 -11 26 0 11 6 23 12 25 12
9 0 13 -39 4 -48 -20 -20 4 -32 59 -32 46 0 56 3 60 19 3 14 16 20 45 23 22 2
42 0 44 -4 8 -12 52 -10 60 3 4 7 21 9 41 6 27 -5 34 -3 29 8 -3 9 0 12 10 8
7 -3 15 0 15 6 1 6 3 16 4 21 1 6 3 13 4 18 1 4 6 -1 12 -10 5 -10 19 -18 31
-18 20 0 21 -1 3 -20 -10 -11 -29 -20 -43 -20 -13 0 -36 -7 -50 -15 -15 -8
-101 -37 -192 -66 -226 -70 -249 -76 -380 -110 -63 -16 -153 -41 -200 -55 -47
-14 -123 -36 -170 -49 -47 -12 -141 -39 -208 -59 -68 -20 -132 -36 -143 -36
-10 0 -19 -5 -19 -10 0 -6 -6 -10 -12 -8 -7 1 -35 -4 -61 -11 -46 -13 -49 -13
-63 8 -21 30 -33 39 -74 59 -19 9 -39 27 -44 39 -11 23 -75 49 -100 40 -9 -3
-19 0 -23 8 -9 15 -49 21 -180 30 -71 5 -95 -3 -70 -23 13 -10 57 -18 147 -27
30 -3 78 -8 105 -12 l50 -7 -40 -9 c-22 -5 -62 -11 -89 -14 -36 -4 -50 -10
-53 -24 -3 -10 -10 -19 -15 -19 -12 0 -32 -20 -47 -48 -13 -25 -41 -30 -41 -7
0 21 -32 35 -79 35 -29 0 -41 -4 -41 -15 0 -7 -8 -18 -17 -24 -13 -7 3 -9 55
-8 50 1 75 -2 81 -11 4 -7 0 -36 -10 -65 -10 -29 -18 -62 -19 -74 0 -15 -9
-24 -32 -31 -62 -19 -88 -23 -88 -12 0 5 -4 10 -10 10 -5 0 -7 -6 -4 -13 3 -9
-10 -18 -38 -26 -30 -9 -43 -10 -46 -2 -4 13 -42 15 -42 2 0 -5 6 -12 13 -14
7 -4 6 -6 -5 -6 -9 -1 -18 3 -20 9 -2 6 -25 4 -60 -6 -44 -13 -55 -20 -51 -33
5 -13 3 -14 -8 -3 -16 15 -53 16 -43 1 4 -7 -2 -10 -17 -8 -13 2 -28 1 -34 -2
-5 -4 -27 -9 -47 -13 -20 -4 -60 -14 -90 -23 -48 -15 -51 -17 -28 -24 16 -5 9
-6 -20 -3 -49 6 -199 -25 -283 -57 -26 -11 -57 -19 -68 -19 -26 0 -47 -21 -41
-40 5 -13 3 -13 -12 -1 -14 12 -16 12 -11 -2 4 -8 2 -18 -4 -22 -7 -3 -11 2
-11 14 0 12 -7 21 -15 21 -8 0 -15 -7 -15 -16 0 -14 -3 -14 -15 -4 -13 11 -14
10 -9 -4 5 -12 0 -16 -19 -16 -14 0 -29 -4 -32 -10 -3 -5 -14 -10 -23 -10 -9
0 -30 -7 -47 -16 -16 -9 -37 -17 -45 -19 -29 -5 -60 -17 -60 -24 0 -4 -6 -8
-12 -8 -47 -3 -123 -17 -180 -33 -38 -10 -68 -16 -68 -12 0 3 -5 1 -12 -6 -7
-7 -29 -12 -49 -12 -20 0 -56 -9 -80 -19 -24 -10 -66 -22 -93 -26 -42 -6 -48
-4 -43 9 7 18 -10 21 -33 6 -10 -6 -11 -10 -2 -10 24 0 11 -19 -20 -29 -38
-12 -109 -11 -102 1 3 4 0 8 -5 8 -6 0 -11 -5 -11 -11 0 -7 -11 -9 -28 -6 -34
7 -64 -8 -43 -22 18 -12 3 -20 -54 -28 -32 -4 -49 -2 -54 6 -5 8 -15 9 -32 2
-13 -5 -18 -10 -11 -10 7 -1 11 -5 8 -10 -4 -5 -20 -3 -37 6 -21 11 -33 12
-38 5 -8 -13 -54 -14 -163 -6 -64 5 -78 9 -83 25 -8 26 -39 24 -57 -3 -14 -21
-22 -22 -179 -24 -166 -2 -229 -8 -229 -24 0 -4 -21 -9 -47 -9 -27 -1 -56 -2
-65 -2 -10 0 -18 -7 -18 -14 0 -17 -54 -33 -137 -42 -42 -4 -63 -2 -63 5 0 23
-33 42 -74 42 -40 0 -45 4 -104 74 -69 82 -76 102 -34 92 15 -3 59 -8 97 -12
64 -5 68 -4 51 10 -18 15 -18 16 9 28 l28 13 -24 6 c-13 4 -61 7 -106 8 -112
1 -123 21 -20 36 52 8 59 24 46 102 -41 248 -51 319 -68 458 -24 192 -24 215
-2 216 11 0 9 3 -6 9 -31 13 -29 28 5 33 16 2 9 5 -20 6 -27 0 -48 -3 -48 -9
0 -5 6 -7 14 -4 9 3 16 -4 20 -22 4 -14 6 -27 4 -29 -2 -1 -32 -5 -66 -9 -58
-5 -64 -4 -69 14 -3 11 -11 20 -18 20 -20 0 -31 68 -51 292 -7 80 -24 72 186
88 80 6 192 15 250 20 58 5 148 12 200 15 52 4 104 8 115 10 11 2 103 9 205
15 102 6 199 13 215 15 17 2 98 9 180 16 83 6 152 14 155 16 5 6 -340 -6 -350
-12 -3 -1 -70 -6 -150 -10 -80 -3 -181 -11 -225 -16 -44 -5 -107 -8 -140 -8
l-60 2 75 8 c41 4 111 10 155 14 254 19 363 26 575 40 129 8 303 19 385 25
288 19 377 21 390 10 7 -6 23 -9 36 -8 21 3 24 0 21 -29 -3 -29 0 -33 22 -33
21 0 25 -5 29 -37 2 -26 4 -18 5 24 1 34 5 69 8 78 6 14 0 16 -42 15 -64 -2
-76 1 -39 10 42 10 247 10 215 0z m698 -39 c10 -6 12 -22 7 -65 -8 -60 -15
-70 -55 -72 -14 -1 -49 -4 -78 -7 -77 -9 -82 -5 -82 68 l0 64 53 5 c28 3 66 8
82 9 55 7 60 7 73 -2z m-3278 -146 c-32 -11 -33 -13 -13 -19 12 -4 33 -4 47 0
16 4 26 2 26 -5 0 -6 -10 -11 -22 -11 -21 0 -120 -7 -598 -45 -186 -15 -267
-18 -259 -11 2 2 96 11 209 20 256 21 288 25 295 37 4 5 -10 9 -31 9 -24 0
-34 4 -29 9 11 11 220 28 335 28 71 0 73 0 40 -12z m-412 -29 c-16 -8 -78 -17
-155 -21 -70 -4 -144 -9 -163 -10 -19 -2 -73 -4 -120 -6 -47 -1 -91 -7 -98
-12 -7 -6 -12 -6 -12 0 0 6 -21 7 -57 1 -31 -5 -66 -7 -77 -5 -13 3 -7 5 14 7
33 2 33 3 10 10 -23 7 -22 8 10 8 67 1 213 11 319 21 134 14 177 17 276 19 74
2 78 1 53 -12z m4052 -5 c0 -4 -46 -13 -102 -20 -106 -14 -177 -36 -83 -27 28
3 80 8 118 12 l67 6 0 -92 0 -93 -69 7 c-69 7 -185 -7 -206 -24 -12 -10 -82
-6 -92 4 -9 9 -9 166 -1 189 6 13 19 17 55 18 26 0 104 8 173 18 123 17 140
17 140 2z m2900 -188 c0 -10 -9 -51 -20 -92 -11 -40 -22 -95 -26 -122 -6 -45
-5 -49 19 -58 25 -10 43 -28 35 -36 -2 -2 -16 2 -30 9 -26 14 -26 13 -39 -33
-17 -60 -26 -67 -74 -61 -34 4 -40 9 -41 30 0 14 -4 43 -8 65 -7 38 5 119 19
133 3 3 15 1 25 -6 25 -16 30 -15 30 3 0 8 -8 19 -17 24 -49 28 -49 27 12 86
81 78 115 95 115 58z m-516 -74 c-30 -32 -28 -47 5 -29 19 10 21 8 21 -19 0
-16 -5 -33 -11 -37 -6 -3 -8 -17 -5 -30 5 -17 2 -24 -9 -24 -19 0 -20 -16 0
-24 20 -7 7 -38 -14 -31 -12 4 -23 -10 -43 -55 -14 -33 -31 -60 -37 -60 -6 0
-24 14 -41 30 -32 31 -34 62 -6 73 7 3 26 27 41 54 16 26 33 51 38 54 5 4 7
13 5 20 -3 9 -10 7 -26 -9 -45 -45 -20 1 28 52 28 29 50 59 50 67 0 8 6 21 13
28 10 10 13 8 15 -9 2 -14 -7 -33 -24 -51z m-164 -16 c0 -27 -14 -129 -26
-186 -5 -24 -10 -28 -29 -23 -20 5 -25 -1 -41 -44 -22 -58 -36 -64 -46 -18 -4
18 -13 48 -19 66 -9 29 -7 36 20 71 17 21 31 41 31 45 0 9 -33 -5 -54 -23 -18
-15 -18 -15 -8 6 7 12 24 31 39 42 16 11 33 25 40 30 7 7 13 6 16 -3 5 -13 40
-16 45 -3 5 16 1 28 -8 22 -14 -9 -12 19 2 33 21 21 38 14 38 -15z m3343 -123
c6 -22 -8 -37 -16 -18 -4 10 -6 10 -6 1 -1 -15 36 -36 48 -28 5 3 13 20 17 38
4 17 9 26 11 20 3 -7 14 -13 24 -13 11 0 31 -12 44 -26 14 -15 25 -24 25 -21
0 3 14 1 30 -4 19 -7 30 -18 30 -30 0 -13 7 -19 21 -19 16 0 19 -4 14 -20 -5
-14 -2 -20 10 -20 47 0 185 -96 171 -119 -9 -13 -56 -15 -56 -1 0 5 -10 14
-21 21 -17 9 -24 8 -31 -2 -7 -11 -8 -11 -7 1 3 22 -23 71 -35 67 -16 -5 -19
-56 -5 -73 6 -8 9 -18 5 -21 -4 -4 -11 -2 -15 5 -4 8 -16 14 -25 16 -22 3 -36
24 -36 54 0 13 -5 32 -11 43 -10 19 -10 19 -38 -1 -29 -20 -38 -52 -56 -191
-5 -42 -4 -46 20 -57 21 -10 26 -18 23 -40 -4 -37 -82 -78 -121 -63 -22 9 -27
8 -27 -4 0 -10 10 -15 31 -15 24 0 30 -4 27 -17 -3 -15 -14 -18 -59 -19 -31 0
-60 -4 -66 -7 -6 -4 -13 0 -17 8 -3 9 3 19 14 25 47 25 15 49 -60 46 -34 -1
-40 2 -40 19 0 11 4 25 8 31 9 15 65 32 130 40 28 4 52 8 52 11 0 2 -12 15
-26 28 -21 20 -26 31 -22 57 3 18 2 42 -2 53 l-7 20 -6 -20 c-3 -11 -8 -32
-11 -47 -6 -25 -10 -28 -46 -26 -30 1 -40 5 -40 18 0 30 30 78 53 85 17 5 18
8 7 12 -17 7 -40 29 -40 38 0 3 5 3 10 0 11 -7 15 26 12 85 -2 24 0 31 7 21 7
-11 10 -8 16 10 7 25 52 69 71 69 7 0 14 -9 17 -20z m-1223 -43 c0 -12 -21
-49 -46 -82 -48 -64 -63 -100 -47 -116 7 -7 13 1 17 23 4 20 27 57 61 94 49
55 59 62 101 67 50 5 74 1 74 -14 0 -5 -16 -34 -36 -64 -20 -29 -34 -60 -31
-67 3 -8 9 -4 15 12 17 41 85 111 109 113 18 1 21 6 16 25 -5 20 -2 22 18 18
32 -8 144 -26 194 -32 l40 -5 -27 16 c-16 9 -28 18 -28 21 0 6 156 -1 300 -13
41 -3 86 -7 100 -7 37 -3 36 -30 -3 -94 -43 -71 -50 -93 -38 -123 9 -22 10
-21 10 12 1 23 8 43 21 54 11 10 20 23 20 28 0 18 50 77 65 77 8 0 19 -9 25
-20 6 -11 19 -20 30 -20 10 0 22 -4 25 -10 3 -5 15 -10 26 -10 15 0 19 -7 19
-35 0 -24 4 -35 13 -33 16 4 19 -6 11 -37 -8 -33 -27 -37 -123 -26 -86 9 -134
5 -109 -10 7 -5 24 -9 38 -9 14 0 38 -7 54 -15 18 -10 41 -13 58 -10 23 6 28
3 28 -13 0 -22 -17 -31 -58 -33 -27 -1 -27 -1 3 -8 29 -7 30 -8 27 -63 l-2
-57 37 -6 c57 -10 63 -13 57 -30 -4 -10 -20 -15 -50 -15 -24 0 -44 -4 -44 -9
0 -5 -13 -14 -30 -20 -31 -10 -38 -29 -18 -49 9 -9 8 -12 -7 -12 -10 0 -26 -7
-36 -16 -10 -9 -33 -23 -51 -32 -23 -12 -34 -25 -36 -44 -3 -25 0 -28 27 -28
18 0 34 7 40 18 10 15 12 15 23 2 8 -10 47 -21 108 -29 67 -9 111 -21 148 -41
48 -26 70 -22 40 8 -16 16 8 24 63 20 l44 -3 14 -72 c16 -77 11 -99 -15 -67
-15 19 -15 19 -10 -1 14 -63 15 -75 10 -89 -10 -25 -24 -19 -25 12 0 15 -5 36
-10 47 -8 16 -8 15 -4 -8 l6 -28 -43 22 c-24 12 -50 27 -58 34 -23 20 -104 27
-152 15 -106 -28 -127 -36 -190 -67 l-68 -33 -37 23 c-52 32 -108 57 -127 57
-26 0 -43 41 -55 129 -6 46 -19 98 -29 115 -19 33 -119 99 -134 90 -5 -3 -15
0 -23 6 -10 8 -36 10 -76 7 l-61 -6 8 67 c5 37 9 90 9 117 0 39 3 49 15 46 8
-2 23 -3 32 -3 10 0 20 -3 23 -9 11 -17 35 -9 35 11 0 10 11 54 25 97 34 108
30 137 -5 34 -16 -46 -33 -88 -39 -94 -7 -7 -33 -3 -83 11 -94 27 -241 62
-262 62 -10 0 -14 -4 -11 -10 3 -5 16 -10 27 -10 12 0 30 -8 41 -17 11 -11 37
-19 61 -19 22 -1 57 -6 76 -11 30 -7 35 -13 38 -42 2 -18 -1 -38 -7 -45 -6 -7
-16 -48 -21 -92 -14 -103 -18 -114 -39 -114 -10 0 -24 -6 -30 -14 -6 -8 -21
-16 -32 -19 -23 -6 -39 24 -39 74 0 22 5 29 20 29 23 0 27 18 6 26 -7 3 -16
22 -20 42 -9 56 -67 154 -104 179 -18 12 -58 27 -87 34 -51 11 -57 11 -105
-14 -81 -42 -145 -102 -159 -148 -14 -48 -26 -44 -35 12 -21 129 -121 228
-216 213 -22 -4 -47 -12 -57 -19 -13 -10 -21 -10 -35 -1 -14 8 -23 8 -38 -2
-12 -7 -20 -8 -20 -2 0 15 -90 -81 -107 -114 -30 -58 -25 -265 6 -258 7 1 15
-7 18 -18 3 -11 12 -20 20 -20 8 0 12 -4 8 -10 -3 -5 -12 -7 -20 -4 -13 5 -13
2 0 -22 20 -38 19 -51 -5 -64 -11 -6 -19 -16 -17 -22 1 -6 -4 -13 -10 -15 -7
-3 -13 0 -13 6 0 6 -5 11 -10 11 -7 0 -8 -13 -4 -35 6 -35 -8 -50 -20 -20 -9
24 -24 17 -31 -13 -4 -20 3 -44 25 -86 17 -32 29 -60 27 -63 -7 -6 -62 49 -70
70 -3 9 -13 17 -22 17 -8 0 -15 8 -15 18 0 27 -9 32 -36 20 -27 -13 -31 -30
-9 -48 8 -7 15 -19 15 -26 0 -8 10 -14 23 -14 18 0 23 -5 23 -22 -1 -18 4 -22
20 -21 18 2 21 -2 16 -19 -3 -13 1 -24 12 -30 9 -5 16 -18 16 -28 0 -24 20
-37 31 -19 4 7 12 10 16 5 4 -5 2 -11 -4 -13 -18 -6 -16 -38 2 -53 8 -7 15
-17 15 -22 0 -5 23 -39 51 -76 27 -37 46 -68 40 -70 -19 -6 -92 83 -158 193
-36 61 -70 112 -74 115 -4 3 -14 17 -21 31 -21 40 -106 131 -117 125 -13 -8
15 -62 41 -80 19 -13 20 -17 7 -33 -8 -10 -23 -25 -34 -34 -11 -9 -31 -27 -45
-39 -23 -20 -25 -20 -31 -3 -4 14 -7 11 -13 -12 -4 -17 -12 -36 -18 -42 -14
-18 -58 -17 -58 1 0 21 67 89 80 81 19 -12 15 66 -6 108 -17 32 -17 32 -52 7
l-28 -20 -64 27 c-36 15 -66 31 -68 35 -2 5 -10 8 -17 8 -7 0 -18 13 -23 29
-13 37 4 98 28 106 24 8 52 75 54 132 2 44 5 48 28 51 34 4 51 25 43 52 -5 16
-12 19 -27 14 -19 -6 -20 -3 -14 22 9 35 15 42 24 28 4 -5 26 -10 49 -10 38 1
43 -2 43 -21 0 -18 6 -23 24 -23 27 0 39 21 31 53 -7 27 36 56 82 55 35 -1 53
8 53 26 0 8 8 17 18 20 9 3 28 13 42 21 14 8 26 10 28 5 2 -6 13 -10 25 -10
24 0 52 34 42 51 -4 5 -1 23 7 39 12 27 18 30 58 30 25 0 61 -4 79 -10 27 -8
38 -6 51 5 9 8 23 15 32 15 22 0 47 32 59 74 11 42 20 45 34 14 6 -13 17 -21
25 -19 8 2 60 5 115 7 55 1 113 7 128 13 15 6 78 15 140 20 142 11 168 11 161
0 -3 -5 2 -9 10 -9 9 0 13 6 10 14 -6 15 34 48 48 40 4 -3 8 -15 8 -27z m1768
-19 c9 -9 12 -9 12 0 0 7 10 12 23 12 28 -1 97 -64 97 -90 0 -23 -29 -41 -56
-35 -10 2 -36 7 -57 10 -31 5 -40 12 -52 42 -20 48 -19 73 3 73 10 0 23 -5 30
-12z m-5092 -198 c3 -8 5 -58 3 -110 -7 -276 -5 -321 10 -315 8 3 36 8 61 11
l45 5 -69 -35 c-75 -39 -82 -43 -74 -51 3 -3 27 6 54 20 93 47 147 43 88 -8
-25 -21 -59 -83 -55 -100 1 -5 8 -78 16 -164 9 -85 18 -159 21 -164 3 -5 1 -9
-5 -9 -13 0 -18 21 -27 102 -3 37 -10 66 -14 63 -4 -2 -13 23 -20 58 -15 71
-60 127 -103 127 -27 0 -63 40 -93 103 -16 33 -16 38 0 70 9 19 16 42 16 52 0
9 5 13 10 10 6 -4 10 8 10 30 0 24 9 48 26 70 21 28 24 37 14 55 -8 15 -8 30
-1 53 6 18 9 49 7 70 -2 21 0 40 5 43 4 2 6 11 3 18 -5 13 30 33 49 28 4 -1 6
1 6 6 -1 4 0 12 1 17 2 6 5 -1 7 -15 2 -14 6 -32 9 -40z m-226 30 c0 -5 8 -10
18 -10 10 0 18 -8 19 -17 3 -37 11 -58 22 -55 21 4 25 -30 6 -44 -26 -19 -74
-17 -115 4 -40 22 -46 34 -25 55 8 9 15 20 15 26 0 14 37 51 50 51 6 0 10 -4
10 -10z m598 -152 c-3 -51 -8 -101 -12 -110 -7 -15 -3 -18 19 -18 29 0 143
-37 159 -51 5 -5 4 -14 -3 -23 -7 -8 -8 -17 -3 -20 11 -6 25 9 35 37 4 9 11
17 18 17 7 0 8 -7 4 -17 -14 -33 -16 -85 -4 -99 6 -7 13 -53 16 -101 2 -49 9
-98 15 -110 13 -26 45 -30 62 -9 6 8 29 24 51 35 36 19 40 20 46 4 8 -24 15
-7 28 62 7 38 18 66 31 77 11 9 20 28 20 42 0 23 3 25 33 20 l32 -5 -32 15
c-52 24 -42 44 22 48 46 2 55 0 55 -13 0 -17 27 -29 68 -29 12 0 25 -7 28 -15
4 -8 15 -15 26 -15 31 0 58 -19 58 -42 0 -15 3 -18 13 -10 6 5 26 12 42 15 88
16 100 22 103 50 3 22 8 27 32 27 20 0 31 -6 35 -21 8 -25 -9 -39 -77 -64 -27
-9 -48 -19 -46 -21 2 -1 41 5 86 15 69 15 84 16 94 4 8 -10 8 -20 -2 -41 -11
-24 -13 -25 -19 -8 -7 17 -9 17 -29 -9 -12 -15 -22 -34 -22 -41 0 -19 -15 -18
-34 2 -9 8 -16 11 -16 5 0 -5 5 -13 10 -16 23 -14 9 -27 -24 -21 l-34 7 11
-30 c12 -33 -4 -64 -29 -54 -10 4 -12 0 -8 -12 4 -9 1 -27 -6 -41 -11 -19 -11
-27 -2 -36 7 -7 12 -17 12 -22 -1 -6 -14 5 -31 24 -26 30 -27 35 -12 41 14 5
14 6 -5 11 -12 4 -20 2 -16 -3 3 -5 -1 -9 -9 -9 -10 0 -13 8 -10 28 4 25 3 25
-8 7 -6 -11 -24 -33 -39 -50 -14 -16 -41 -66 -59 -110 -18 -44 -50 -102 -71
-130 -59 -79 -63 -91 -61 -187 1 -51 -3 -89 -9 -93 -6 -4 -10 7 -10 27 0 47
-10 78 -25 78 -19 0 -27 -43 -10 -53 19 -10 20 -61 2 -76 -20 -16 -26 -4 -20
34 5 32 4 34 -30 40 -19 4 -67 2 -105 -4 -109 -17 -142 -15 -143 9 -1 11 -2
23 -3 28 -7 39 -58 44 -82 7 -23 -35 -69 -33 -122 5 -50 36 -61 56 -69 121 -3
27 -9 51 -12 54 -4 2 -4 32 0 67 3 35 4 77 2 93 -3 17 2 55 11 85 19 63 19 63
7 56 -18 -11 -41 6 -50 37 -19 63 -59 165 -75 189 -15 23 -14 26 29 79 25 30
54 63 65 74 17 18 20 34 20 118 0 63 -4 97 -11 97 -6 0 -9 6 -7 13 3 6 24 15
49 18 24 3 48 7 52 7 5 1 7 -40 5 -90z m-1059 -147 c-60 -82 -81 -117 -86
-143 -5 -25 -9 -29 -29 -24 -21 6 -24 3 -24 -19 0 -19 -5 -25 -22 -25 -13 0
-29 4 -37 9 -14 9 -60 -5 -72 -23 -4 -5 -11 -6 -17 -2 -24 14 -21 -14 3 -30
18 -12 24 -22 20 -35 -5 -15 -3 -18 12 -12 10 3 15 3 11 -2 -4 -4 -3 -16 2
-26 16 -28 -5 -31 -28 -4 -12 14 -22 28 -22 30 0 3 -5 11 -10 18 -6 7 -20 25
-31 40 -16 21 -27 27 -44 23 -31 -8 -48 16 -43 58 2 19 0 32 -4 30 -11 -7 -42
25 -34 34 4 3 11 1 15 -6 4 -7 15 -10 24 -6 13 5 16 15 12 43 -4 26 0 43 14
60 l19 24 7 -81 c4 -45 11 -82 16 -82 14 0 69 56 62 63 -3 4 4 7 16 7 12 0 20
4 16 9 -6 11 85 40 100 32 6 -3 0 -7 -12 -9 -13 -2 -23 -8 -23 -13 0 -12 4
-12 44 8 19 9 33 20 30 25 -3 4 2 5 11 1 10 -3 20 -2 24 3 7 11 71 43 85 44 5
0 2 -9 -5 -19z m6051 -256 c-14 -58 -11 -74 6 -43 8 15 24 33 36 39 20 11 21
10 15 -30 -3 -23 -1 -39 4 -35 5 3 9 12 9 20 0 36 50 3 68 -47 6 -15 26 -34
47 -43 32 -16 36 -21 30 -44 -12 -50 -20 -52 -135 -36 -149 20 -237 36 -251
44 -13 8 -10 17 20 65 14 22 25 30 45 28 14 -1 27 4 27 10 1 7 2 18 3 26 1 17
26 28 26 11 0 -6 5 -8 10 -5 6 3 10 21 10 39 0 33 18 62 32 48 4 -4 3 -25 -2
-47z m-429 -3 c21 -64 34 -76 84 -77 25 -1 45 2 45 7 0 4 -4 8 -10 8 -5 0 -10
5 -10 11 0 6 9 8 20 4 11 -4 20 -2 20 4 0 6 8 11 19 11 23 0 33 -31 15 -48 -7
-7 -11 -18 -8 -26 3 -8 -5 -21 -18 -30 -12 -9 -18 -16 -13 -16 5 0 -6 -11 -25
-23 l-34 -24 -32 21 c-17 12 -40 26 -50 32 -16 9 -17 15 -7 37 13 28 3 37 -43
37 -13 0 -24 5 -24 10 0 6 -9 10 -20 10 -23 0 -25 6 -7 24 6 7 25 27 40 45 32
37 41 34 58 -17z m-1353 -49 c9 -10 50 -34 89 -53 89 -43 90 -46 81 -189 -3
-47 -9 -67 -23 -77 -16 -12 -23 -9 -57 28 -21 23 -38 38 -38 34 0 -4 -10 0
-22 8 -32 22 -38 20 -38 -13 0 -17 6 -31 16 -35 10 -4 13 -13 9 -26 -4 -11 -2
-20 4 -20 6 0 18 -14 26 -30 14 -28 14 -32 0 -46 -22 -23 -51 -13 -47 15 1 13
-2 29 -8 36 -6 7 -8 20 -4 29 4 10 1 16 -9 16 -10 0 -13 6 -10 21 5 16 2 20
-13 18 -34 -6 -44 10 -44 71 0 32 4 61 9 64 5 4 22 -5 38 -18 41 -34 85 -38
98 -8 5 12 13 22 17 22 16 0 7 26 -17 48 -21 20 -31 23 -65 17 -30 -5 -40 -3
-42 7 -2 23 -5 32 -13 51 -5 12 -2 22 11 32 25 19 31 18 52 -2z m-5552 -99
c39 -19 80 -34 91 -34 19 0 42 18 41 30 -1 3 2 15 6 28 11 33 26 26 26 -12 0
-37 14 -56 24 -31 5 13 9 12 26 -5 32 -32 24 -75 -16 -91 -13 -4 -24 -16 -24
-25 0 -15 4 -14 25 6 23 22 27 22 41 8 13 -13 14 -24 4 -76 -12 -61 -10 -158
8 -307 5 -38 6 -74 2 -78 -4 -5 -27 -13 -50 -18 -80 -18 -94 33 -30 113 25 31
40 100 40 191 0 86 -1 88 -22 85 -20 -3 -23 -8 -20 -38 2 -33 2 -34 -13 -16
-13 18 -15 18 -15 3 0 -10 7 -20 15 -23 15 -6 21 -34 8 -34 -15 1 -72 101 -66
116 5 14 3 14 -16 3 -25 -16 -26 -27 -5 -57 21 -31 1 -37 -55 -17 -59 20 -68
19 -87 -11 -15 -22 -15 -27 -3 -34 18 -12 22 -90 4 -90 -17 0 -25 23 -14 41
16 25 11 45 -6 23 -8 -10 -15 -26 -15 -35 0 -9 -9 -19 -20 -22 -11 -3 -19 -9
-18 -14 5 -14 -11 -15 -42 -4 -21 7 -28 15 -24 25 4 10 1 16 -9 16 -28 0 -26
40 4 95 16 29 29 56 29 59 0 14 -26 4 -52 -21 -23 -22 -31 -24 -41 -14 -10 10
1 24 52 72 36 33 82 69 103 81 38 22 51 48 23 48 -8 0 -15 4 -15 8 0 17 -121
42 -204 42 -47 0 -88 5 -91 10 -3 6 -16 10 -28 10 -19 1 -20 2 -5 11 9 5 68
10 130 10 88 1 127 -4 178 -20 35 -11 66 -19 68 -17 1 2 -17 14 -42 26 -26 12
-46 24 -46 26 0 12 82 -12 146 -42z m891 -106 c14 -15 23 -44 28 -83 4 -33 16
-91 26 -130 12 -43 21 -112 24 -178 2 -64 8 -114 15 -122 17 -21 -11 -30 -41
-15 -19 11 -21 10 -16 -4 5 -12 -5 -22 -41 -39 -26 -12 -49 -23 -51 -24 -2 -1
2 -9 9 -18 7 -8 9 -15 4 -15 -5 0 0 -7 10 -15 18 -14 16 -15 -32 -15 -58 0
-66 -9 -24 -27 32 -13 104 -37 115 -38 4 0 7 -4 7 -10 0 -6 -21 -9 -50 -7 -53
4 -69 -11 -22 -22 47 -10 77 -44 78 -87 0 -34 -2 -39 -22 -39 -13 0 -38 9 -56
20 -19 11 -51 20 -74 20 l-41 0 -5 50 c-6 56 -15 72 -28 50 -5 -8 -14 -15 -20
-15 -6 0 -15 -7 -20 -15 -7 -11 -10 -12 -10 -2 0 10 -13 13 -50 10 -28 -1 -50
-1 -50 2 0 7 135 90 146 90 6 0 30 18 54 39 41 37 44 42 32 62 -19 30 -4 41
70 48 l63 7 -54 7 c-89 13 -121 43 -80 75 24 21 40 102 18 102 -8 0 -4 8 9 20
29 27 28 38 -2 33 -20 -4 -25 0 -30 25 -4 16 0 60 8 98 8 38 17 85 20 105 6
37 33 79 52 79 6 0 20 -10 31 -22z m6423 -16 c0 -10 -5 -23 -11 -29 -6 -6 -9
-23 -7 -38 2 -22 11 -31 37 -40 21 -7 38 -21 46 -40 7 -17 36 -52 64 -79 28
-27 51 -52 51 -57 0 -23 -50 -19 -50 5 -1 17 -59 81 -66 73 -4 -4 5 -25 20
-47 14 -22 26 -46 26 -55 0 -17 -26 -20 -36 -4 -5 8 -10 6 -16 -5 -5 -9 -17
-16 -26 -16 -13 0 -21 18 -35 81 -10 45 -27 95 -38 113 -22 35 -24 24 -8 -39
6 -25 9 -52 5 -61 -5 -14 -8 -14 -23 2 -13 12 -18 37 -21 88 -2 50 0 67 7 56
5 -8 12 -12 14 -10 10 13 37 80 37 92 0 8 3 18 7 21 12 13 23 7 23 -11z
m-2450 -139 c29 -60 52 -94 65 -97 11 -3 40 -35 64 -71 37 -54 51 -67 85 -77
53 -15 66 -26 44 -39 -10 -6 -18 -19 -18 -29 0 -16 -7 -20 -34 -20 -29 0 -41
8 -75 48 -46 52 -52 46 -18 -19 27 -52 82 -109 105 -109 37 0 46 -15 31 -49
-8 -17 -18 -31 -24 -31 -5 0 -30 14 -54 30 -24 16 -48 27 -53 24 -26 -16 -103
76 -129 155 -7 19 -18 42 -26 49 -7 7 -13 21 -12 30 0 14 2 13 9 -3 8 -18 9
-18 9 5 1 14 -4 41 -9 60 -6 19 -17 75 -26 124 -26 149 -1 156 66 19z m-1475
-263 c3 -19 11 -43 16 -53 15 -27 7 -32 -61 -39 -21 -3 -24 1 -22 19 2 17 -3
24 -25 29 -50 10 -60 17 -35 21 28 5 29 33 1 40 -20 5 -20 6 3 19 73 42 82 44
100 21 10 -12 20 -38 23 -57z m531 -166 c-9 -87 -16 -164 -16 -171 0 -17 -25
-17 -40 1 -6 8 -21 16 -33 18 -16 2 -22 11 -24 33 -1 16 1 32 5 35 11 8 47 62
65 97 10 18 17 50 17 72 0 48 33 128 38 93 2 -12 -4 -92 -12 -178z m-1419 162
c12 -1 25 -4 29 -8 4 -5 18 -8 31 -8 13 0 23 -4 23 -10 0 -18 66 -11 90 10 25
22 30 23 46 12 15 -10 39 -57 25 -48 -6 4 -16 -4 -23 -18 -6 -14 -15 -26 -20
-26 -4 0 -8 -6 -8 -14 0 -7 -11 -21 -25 -30 -24 -16 -28 -15 -88 13 -34 17
-73 42 -87 56 -14 14 -33 33 -42 43 -26 24 -23 45 5 36 12 -4 32 -8 44 -8z
m-1046 -73 c8 -9 13 -24 11 -33 -4 -23 18 -30 61 -20 25 5 44 3 63 -6 34 -18
54 -18 54 0 0 8 5 18 11 22 22 13 30 -14 23 -75 -6 -56 -9 -61 -30 -61 -24 0
-32 14 -14 25 6 3 10 19 10 35 0 28 -1 28 -35 19 -35 -10 -75 1 -75 21 0 6 -5
10 -11 10 -6 0 -9 -6 -6 -14 8 -21 -51 -30 -78 -12 -15 10 -22 25 -23 52 -2
55 13 70 39 37z m1349 -18 c0 -8 6 -15 13 -18 17 -5 -9 -77 -34 -95 -25 -17
-25 -42 0 -35 26 7 33 -9 18 -40 -16 -35 -75 -45 -222 -36 -22 1 -55 -1 -72
-5 -41 -9 -61 1 -36 19 14 10 15 17 7 25 -13 13 -54 5 -54 -11 0 -5 -11 -9
-25 -9 -17 0 -28 -7 -34 -22 -10 -28 -4 -48 15 -48 8 0 14 -5 14 -11 0 -5 5
-7 11 -3 7 4 9 -2 7 -17 -2 -14 -11 -25 -22 -27 -46 -9 -48 -27 -8 -89 55 -84
62 -122 51 -282 -9 -142 -89 -598 -110 -626 -4 -5 -12 -36 -19 -67 -11 -48
-15 -55 -27 -43 -16 16 -11 144 6 154 13 8 23 242 11 261 -6 10 -12 11 -22 2
-8 -6 -19 -7 -28 -2 -11 7 -11 12 3 33 11 18 13 27 5 35 -14 14 7 66 22 57 6
-4 8 -11 5 -16 -4 -5 -2 -9 3 -9 13 0 24 63 17 92 -3 13 -2 35 3 48 7 18 5 37
-6 65 -16 43 -42 78 -42 57 0 -7 -5 -12 -11 -12 -5 0 -7 5 -4 10 4 6 8 26 9
44 3 28 0 33 -15 29 -13 -4 -19 0 -19 12 0 9 -11 31 -24 48 -13 18 -27 42 -30
54 -4 12 -20 33 -37 47 -24 21 -29 32 -29 70 0 46 16 96 32 96 5 0 25 -7 45
-15 47 -20 63 -19 63 3 0 11 22 38 50 62 27 23 47 47 44 51 -3 5 0 9 5 9 6 0
11 5 11 10 0 6 -6 10 -14 10 -7 0 -16 9 -19 20 -5 19 -2 20 48 14 52 -6 54 -6
52 17 0 13 -6 27 -11 31 -6 4 -7 10 -3 15 5 4 11 3 15 -2 4 -6 24 -21 44 -35
35 -23 48 -40 30 -40 -4 0 -13 -9 -20 -20 -11 -18 -10 -20 13 -20 20 0 25 5
25 25 0 27 -1 27 93 28 32 0 62 -4 65 -10 4 -5 17 -12 29 -15 29 -8 78 52 69
85 -8 32 15 79 31 65 7 -6 13 -16 13 -23z m4153 -48 c3 -7 -4 -24 -14 -38 -10
-13 -19 -31 -19 -41 0 -9 -6 -18 -12 -21 -10 -3 -10 -8 -2 -17 7 -6 9 -20 7
-31 -4 -16 -15 -19 -58 -19 -65 0 -78 19 -34 50 l29 22 -22 30 c-13 20 -16 29
-7 26 7 -2 32 8 54 23 44 31 70 36 78 16z m-4856 -20 c11 -11 12 -19 5 -33 -6
-11 -20 -40 -31 -66 -11 -26 -35 -63 -53 -83 -31 -36 -36 -56 -26 -125 3 -22
0 -25 -24 -22 -16 1 -28 -2 -28 -8 0 -6 -4 -9 -9 -5 -5 3 -13 1 -16 -5 -4 -7
-16 -2 -30 12 -13 13 -37 23 -52 23 -21 0 -28 5 -28 20 0 29 48 32 75 5 26
-26 42 -17 34 18 -9 38 -14 44 -27 34 -15 -12 -57 3 -57 21 0 24 21 36 45 27
36 -14 49 10 42 74 -7 65 7 95 53 118 40 20 104 18 127 -5z m1963 -442 c18
-20 21 -28 12 -37 -7 -7 -12 -29 -12 -50 0 -22 -9 -56 -20 -78 -16 -31 -24
-37 -42 -33 -43 11 -48 22 -48 104 0 72 2 79 20 79 13 0 20 7 20 20 0 29 41
26 70 -5z m1262 -72 c1 -21 2 -51 1 -67 l-1 -28 62 6 c94 11 123 -9 70 -47
-30 -22 -136 -40 -145 -24 -4 5 -12 6 -18 3 -6 -4 -26 1 -44 12 -17 10 -39 17
-49 15 -10 -3 -19 4 -22 15 -4 11 -24 25 -46 32 -34 11 -40 17 -40 41 0 25 5
29 38 35 20 3 69 14 107 24 39 10 73 19 78 19 4 1 8 -16 9 -36z m846 18 c9 -5
25 -12 34 -15 15 -4 16 -10 8 -31 -5 -14 -11 -52 -13 -85 -4 -61 -27 -100 -59
-100 -7 0 -24 -9 -38 -20 -14 -11 -33 -20 -42 -20 -10 0 -27 -9 -38 -20 -22
-22 -55 -26 -66 -9 -3 6 -16 8 -28 4 -11 -3 -28 -7 -36 -9 -8 -2 -44 -14 -79
-26 -35 -11 -76 -20 -90 -19 -40 4 -94 -11 -114 -32 -21 -22 -60 -25 -76 -5
-9 11 -5 16 19 26 32 13 55 44 45 60 -9 14 -39 12 -95 -6 -36 -12 -53 -13 -68
-5 -11 6 -34 8 -51 5 -41 -9 -42 14 -1 44 17 13 30 29 30 37 0 9 6 12 15 9 9
-4 29 -1 46 6 26 11 42 10 103 -5 l72 -18 90 33 c94 36 115 47 179 95 60 45
155 89 193 89 19 0 32 5 32 13 0 15 5 16 28 4z m-1344 -57 c3 -9 6 -46 7 -82
0 -37 4 -89 8 -115 10 -58 3 -63 -67 -50 -44 8 -47 11 -46 38 1 17 15 66 32
110 17 44 33 88 36 98 7 21 22 22 30 1z m1670 -70 c3 -9 6 -53 6 -100 0 -69
-3 -82 -14 -78 -26 10 -48 -62 -43 -134 6 -82 -9 -67 -22 20 -5 37 -12 72 -16
78 -3 5 -23 10 -43 10 -37 1 -37 1 -13 14 14 8 30 12 35 10 6 -2 16 0 21 4 12
8 45 100 45 124 0 25 18 68 29 68 5 0 12 -7 15 -16z m-4512 -24 c47 0 59 -23
53 -98 -3 -37 -8 -143 -10 -236 -3 -94 -9 -174 -13 -178 -5 -5 -85 -11 -180
-15 l-171 -6 -7 -53 c-3 -30 -3 -62 1 -71 5 -10 7 -24 6 -32 -1 -8 1 -17 6
-20 5 -3 22 -24 39 -45 16 -22 71 -81 121 -131 l93 -92 -28 -12 c-25 -12 -29
-11 -47 16 -11 15 -38 44 -59 63 -22 19 -63 56 -90 81 -28 25 -59 49 -68 52
-10 4 -18 11 -18 17 0 5 -6 10 -13 10 -8 0 -20 12 -28 28 -8 15 -16 29 -19 32
-3 3 -13 21 -22 40 -49 101 -59 131 -53 150 8 25 21 26 34 3 6 -10 11 -15 11
-11 0 4 -9 22 -20 41 -17 29 -19 39 -9 59 8 20 8 32 -3 54 -8 16 -14 49 -14
73 1 36 5 44 21 47 11 1 74 10 140 18 66 9 144 20 172 24 29 5 55 7 58 4 3 -3
5 -18 5 -34 0 -22 5 -28 21 -28 21 0 22 3 16 93 -3 50 -10 104 -16 119 -8 23
-7 29 7 38 9 5 26 8 37 5 11 -3 32 -5 47 -5z m4593 -212 c5 -18 8 -41 7 -51
-1 -11 3 -17 10 -15 7 3 14 19 15 37 1 19 6 38 12 44 14 14 33 -37 29 -80 -1
-17 1 -35 5 -39 4 -4 7 -26 7 -49 0 -48 25 -81 37 -49 4 10 2 19 -5 22 -17 5
-15 33 4 60 9 13 13 26 10 29 -3 3 -1 12 5 20 9 10 7 13 -9 13 -21 0 -38 32
-27 50 18 29 49 -19 54 -81 0 -9 14 -22 30 -28 31 -13 57 -56 40 -67 -5 -3
-16 0 -24 6 -17 15 -36 5 -28 -15 3 -8 16 -15 29 -15 20 0 24 -5 24 -29 0 -40
-9 -61 -27 -61 -12 0 -13 -3 -4 -14 8 -10 8 -33 -1 -90 -10 -63 -15 -76 -30
-76 -11 0 -16 -5 -13 -11 4 -6 13 -8 20 -5 7 2 16 -2 19 -10 11 -29 26 -3 26
44 0 58 24 152 42 163 7 5 19 2 28 -6 8 -7 27 -16 41 -20 32 -8 54 -45 45 -78
-4 -16 -1 -27 7 -30 14 -4 13 -123 -2 -141 -12 -15 -31 -163 -24 -183 5 -13 2
-13 -15 -4 -30 16 -30 16 -37 -36 -6 -45 -33 -123 -42 -123 -17 0 -35 35 -31
60 2 16 1 27 -4 24 -4 -3 -8 1 -8 9 0 8 -7 17 -14 20 -12 5 -13 13 -6 36 5 17
7 31 4 31 -3 0 0 9 6 21 8 15 8 24 0 33 -9 11 -9 68 0 111 1 6 1 19 0 30 -1
11 -8 -16 -16 -59 -14 -87 -23 -101 -72 -110 -29 -5 -35 -2 -52 27 -11 17 -20
26 -20 20 0 -8 -14 -13 -34 -13 -41 0 -52 -12 -31 -33 17 -17 20 -31 6 -22 -5
3 -13 1 -16 -5 -7 -12 31 -50 49 -50 5 0 20 -12 33 -27 l22 -28 -1 42 c-1 48
20 76 54 71 25 -3 26 -17 13 -115 -5 -38 -9 -43 -31 -43 -14 0 -22 -4 -19 -10
3 -5 17 -10 30 -10 25 0 36 -17 30 -47 -3 -10 -6 -34 -9 -53 -10 -73 -21 -95
-50 -98 -40 -5 -58 14 -50 54 11 60 0 74 -63 74 -67 0 -119 -23 -144 -64 -19
-31 -34 -37 -34 -14 0 30 -117 18 -143 -14 -9 -11 -36 -33 -60 -48 -35 -23
-49 -27 -73 -20 -61 18 -178 -115 -196 -222 l-6 -38 -124 0 -124 0 -23 53
c-13 28 -33 84 -45 122 -13 39 -25 77 -27 85 -4 10 -16 3 -44 -28 -37 -40 -72
-53 -84 -33 -4 5 0 12 6 14 10 4 10 6 0 6 -7 1 -17 -10 -22 -23 -8 -21 -17
-25 -57 -28 -44 -3 -48 -5 -45 -26 3 -21 0 -23 -20 -17 -13 4 -31 9 -41 11
-25 8 -41 41 -23 51 8 4 23 25 35 46 l21 37 -25 0 c-33 0 -33 27 0 40 24 9 25
13 25 95 0 85 0 86 -27 91 -25 5 -73 60 -73 83 0 5 15 12 33 17 48 14 43 44
-11 68 -35 16 -41 23 -36 40 4 12 10 22 14 24 5 2 34 21 65 43 31 21 65 39 75
39 11 0 20 4 20 10 0 5 6 7 14 4 15 -6 26 23 26 68 0 21 -8 30 -45 48 -36 17
-42 24 -32 34 7 7 19 15 27 18 10 3 15 18 15 44 0 21 5 39 10 39 24 1 75 41
84 67 10 29 29 36 49 16 8 -8 7 -20 -3 -46 -8 -19 -15 -47 -15 -62 0 -16 -5
-30 -11 -32 -15 -5 0 -38 18 -38 16 0 73 -56 73 -71 0 -5 7 -9 15 -9 8 0 22
-11 30 -24 20 -30 39 -38 65 -28 20 7 20 9 -10 35 -16 15 -30 34 -30 42 0 19
5 19 35 -1 23 -15 25 -15 25 1 0 20 33 12 64 -16 11 -11 25 -19 30 -19 6 0 3
-5 -6 -11 -11 -6 -15 -16 -11 -27 5 -15 3 -14 -17 3 -19 17 -22 17 -17 3 3 -9
1 -19 -6 -22 -7 -2 -5 -5 5 -5 9 -1 15 -8 13 -18 -1 -10 0 -12 2 -5 7 18 20
14 26 -8 8 -30 103 -27 177 4 59 26 73 53 50 95 -8 16 -7 29 5 57 8 20 12 40
9 45 -5 8 19 64 51 119 14 24 13 25 -11 28 -29 4 -84 -15 -84 -29 0 -5 -7 -9
-15 -9 -10 0 -15 10 -16 28 0 15 -4 36 -9 47 -7 18 -9 16 -15 -12 -7 -31 -25
-47 -25 -22 0 18 -42 109 -50 109 -17 0 -19 -33 -4 -71 21 -50 13 -59 -21 -23
-21 22 -25 36 -23 68 4 50 29 66 109 66 57 0 301 -51 322 -68 7 -5 31 -12 54
-16 86 -13 123 -48 63 -59 -16 -4 -40 -18 -52 -32 -12 -14 -28 -25 -35 -25
-16 0 -85 -66 -102 -98 -13 -25 -7 -57 15 -83 8 -9 13 -31 12 -49 -4 -50 24
-61 144 -56 l96 4 7 -34 c6 -36 33 -46 53 -21 16 20 20 76 5 88 -7 6 -13 19
-13 28 0 13 2 13 9 2 16 -25 32 26 36 112 2 45 4 83 5 85 1 10 41 -43 43 -59
2 -11 8 -24 14 -27 5 -4 13 -22 16 -41 4 -19 12 -40 17 -46 13 -16 60 -7 60
12 0 27 -31 82 -50 88 -20 6 -39 88 -45 189 -2 34 -6 73 -10 87 -4 15 -2 30 4
33 5 4 8 12 6 19 -2 7 -6 31 -9 55 -7 49 8 57 19 10z m-2192 -250 c58 -55 31
-158 -48 -185 -22 -7 -46 -20 -54 -27 -10 -11 -20 -12 -42 -4 -16 6 -45 8 -64
6 -31 -4 -35 -1 -35 19 0 13 7 26 15 29 8 4 15 18 15 33 0 18 8 30 25 38 22
10 25 9 25 -6 0 -54 46 -25 54 34 7 47 26 65 66 65 12 0 18 5 15 10 -11 17 3
11 28 -12z m-2370 -125 c4 -2 7 -31 7 -64 l0 -59 -99 0 c-117 0 -130 8 -110
65 10 27 10 38 1 47 -26 26 -10 30 91 23 56 -4 105 -9 110 -12z m4773 -580
c10 -50 13 -53 39 -53 21 0 25 -5 24 -22 -5 -52 1 -66 29 -74 15 -4 30 -7 35
-6 10 3 9 -36 -2 -43 -5 -3 -17 -27 -26 -54 -16 -50 -75 -121 -100 -121 -7 0
-25 -13 -38 -30 -42 -49 -52 -39 -47 48 1 30 46 128 72 159 6 7 8 20 4 28 -3
8 -2 15 3 15 10 0 31 45 31 67 0 14 -3 14 -22 -3 -52 -45 -56 -46 -52 -17 1
16 6 44 10 63 8 35 11 48 13 63 3 18 21 4 27 -20z m-428 -170 c-2 -10 -13 -22
-25 -29 -12 -6 -32 -23 -43 -37 -12 -15 -30 -27 -40 -27 -14 0 -23 -13 -34
-47 -8 -27 -24 -68 -36 -92 l-22 -43 -48 6 c-30 4 -58 2 -74 -6 -46 -20 -51 2
-18 73 56 118 195 216 310 218 27 1 33 -3 30 -16z m662 -51 c2 -2 -2 -8 -10
-13 -12 -9 -11 -10 4 -5 12 4 27 -1 43 -15 30 -29 29 -39 -2 -39 -18 0 -23 4
-19 15 4 8 1 15 -5 15 -6 0 -11 -7 -11 -15 0 -9 -9 -15 -22 -16 -13 0 -32 -4
-43 -9 -19 -8 -19 -8 3 -17 13 -5 24 -13 24 -18 0 -6 4 -9 9 -8 16 5 59 -44
59 -66 0 -12 4 -19 10 -16 6 3 17 -1 26 -9 14 -15 13 -16 -7 -16 -39 0 -152
22 -187 37 -53 22 -52 31 7 128 10 17 16 34 13 38 -2 5 1 19 8 31 11 21 15 22
53 12 23 -5 44 -12 47 -14z m-307 -447 c72 -7 82 -16 82 -72 0 -47 0 -48 32
-48 17 0 35 -3 39 -7 12 -12 72 -9 94 4 15 10 22 9 38 -5 11 -10 26 -15 36
-11 12 5 18 -1 22 -25 4 -19 11 -28 18 -24 7 4 8 2 1 -5 -6 -6 -62 -14 -128
-17 -98 -5 -118 -4 -123 9 -9 22 -32 27 -49 9 -15 -14 -14 -17 2 -36 13 -14
15 -21 6 -24 -7 -3 -13 -18 -13 -35 0 -19 -4 -28 -12 -25 -7 2 -12 12 -10 22
2 9 -1 14 -6 11 -18 -11 -31 19 -33 77 -2 43 -7 61 -19 67 -22 12 -30 4 -30
-32 0 -25 -3 -28 -24 -22 -43 10 -42 -14 5 -96 49 -84 40 -94 -101 -131 -49
-13 -240 -19 -240 -8 0 10 32 22 53 20 21 -3 22 9 2 35 -20 26 -19 34 4 34 11
0 23 5 27 12 5 8 -2 9 -23 5 -45 -9 -76 2 -70 24 3 13 0 19 -10 19 -12 0 -13
3 -3 15 7 9 35 15 73 17 54 3 62 6 62 23 0 25 27 31 45 10 17 -21 61 -17 108
11 2 1 -7 18 -18 37 -18 29 -20 45 -14 84 13 92 17 96 77 89 28 -4 74 -9 100
-11z m-10293 -304 c0 -10 7 -24 15 -31 8 -7 15 -17 15 -22 0 -5 17 -35 38 -66
35 -52 41 -74 33 -125 -1 -10 -61 1 -78 15 -6 5 -23 11 -38 14 -38 7 -88 45
-75 58 7 7 3 14 -12 23 -13 7 -17 12 -10 13 7 0 12 13 12 32 0 23 10 40 40 70
45 42 60 47 60 19z m3800 7 c0 -5 6 -8 13 -6 14 3 17 -9 9 -32 -9 -26 -55 -70
-73 -70 -17 0 -133 35 -150 46 -16 10 19 30 91 52 70 21 110 25 110 10z m-235
-199 c144 -29 137 -27 124 -52 -20 -38 -109 -119 -125 -113 -8 3 -14 1 -14 -4
0 -6 5 -10 10 -10 17 0 11 -49 -12 -93 -11 -23 -23 -37 -25 -32 -1 6 -23 9
-48 7 -59 -5 -87 2 -124 34 -21 18 -31 35 -31 54 0 29 12 37 93 54 15 4 27 10
27 15 0 5 -9 7 -20 4 -15 -4 -19 -1 -15 9 3 8 -5 26 -18 40 -18 19 -23 34 -19
57 2 18 10 31 18 31 8 0 14 7 14 15 0 16 3 16 165 -16z m-1442 -824 c61 -61
257 -360 257 -390 0 -7 18 -31 40 -55 22 -24 40 -47 40 -51 0 -5 11 -32 24
-61 14 -29 27 -65 31 -80 4 -15 13 -32 21 -39 19 -15 18 -33 -1 -25 -16 6 -20
-5 -8 -18 4 -4 8 -13 9 -19 0 -7 2 -20 2 -29 1 -10 9 -18 17 -18 10 0 15 -10
15 -30 0 -27 2 -30 25 -24 29 7 32 -3 8 -23 -17 -13 -17 -14 2 -11 17 3 20 10
18 58 -1 30 0 49 3 42 3 -7 16 -24 28 -36 87 -94 116 -136 116 -169 0 -22 -7
-41 -21 -53 -12 -10 -30 -32 -41 -48 -17 -23 -18 -30 -7 -37 9 -5 9 -9 2 -9
-15 0 7 -50 22 -50 6 0 27 11 48 25 l37 25 -4 -30 c-3 -26 0 -30 23 -31 25 -2
25 -2 -3 -6 -16 -3 -40 -12 -53 -20 -12 -8 -23 -11 -23 -7 0 5 -5 2 -11 -6 -9
-12 -10 -11 -6 7 3 13 1 26 -4 29 -5 3 -9 0 -9 -5 0 -6 -6 -11 -14 -11 -8 0
-18 19 -25 45 -8 31 -15 43 -25 39 -9 -3 -16 5 -20 22 -4 15 -15 39 -25 53
-10 14 -42 71 -71 126 -30 55 -72 132 -95 170 -70 116 -105 193 -116 253 -6
31 -17 64 -25 73 -7 8 -15 24 -17 35 -1 11 -13 33 -25 48 -12 16 -19 32 -16
37 3 5 -4 18 -15 30 -10 11 -30 43 -42 70 -13 27 -27 49 -30 49 -4 0 -16 19
-28 43 -12 23 -33 57 -46 76 -25 34 -34 81 -15 81 5 0 29 -20 53 -45z m-2183
-269 c0 -3 -4 -16 -10 -30 -12 -33 4 -43 18 -11 l11 25 45 -23 c33 -16 43 -27
40 -39 -6 -19 12 -25 18 -7 3 8 15 6 40 -4 33 -14 35 -18 29 -45 -3 -17 -18
-44 -33 -61 l-28 -31 -47 26 c-27 15 -57 35 -69 45 -11 11 -24 19 -28 19 -4 0
-12 5 -19 10 -7 6 -21 17 -31 24 -19 13 -19 15 -2 41 10 15 15 29 12 32 -7 7
25 32 42 33 6 0 12 -2 12 -4z m313 -174 c-2 -7 5 -12 15 -13 10 0 12 -3 4 -6
-6 -2 -10 -9 -6 -14 3 -5 -3 -9 -13 -9 -15 0 -15 -2 -4 -9 11 -7 7 -10 -14
-13 -40 -4 -45 -28 -7 -28 25 0 29 -3 25 -20 -4 -15 -11 -19 -32 -15 -19 3
-18 2 7 -7 42 -14 41 -24 -2 -22 -38 2 -86 23 -53 24 10 0 16 4 13 9 -3 5 -14
7 -24 5 -10 -3 -29 7 -46 25 -17 17 -25 31 -18 31 6 0 19 15 28 33 9 17 22 35
28 39 18 12 101 3 99 -10z m578 -320 c71 -47 150 -132 144 -153 -3 -10 -1 -20
5 -24 5 -3 10 -1 10 5 0 17 25 6 26 -11 1 -8 2 -20 3 -27 0 -7 6 -10 12 -7 6
4 9 0 7 -11 -2 -13 3 -19 16 -19 11 0 21 -6 23 -12 3 -7 -2 -13 -11 -13 -9 0
-16 -4 -16 -10 0 -5 13 -7 30 -3 23 4 30 2 30 -10 0 -8 -6 -18 -12 -20 -7 -3
-3 -6 9 -6 32 -1 37 -18 8 -25 -21 -5 -32 1 -63 34 -21 22 -34 42 -28 44 6 3
-23 38 -64 78 -91 88 -118 127 -99 139 15 9 6 13 -24 9 -10 -1 -28 9 -42 22
-39 37 -12 53 36 20z m10404 -488 c13 -9 29 -13 36 -9 6 4 15 1 20 -6 7 -11
11 -12 17 -1 7 11 11 11 19 0 23 -27 18 -56 -15 -93 -19 -20 -32 -38 -30 -40
1 -2 17 -5 33 -8 17 -3 38 -8 48 -12 10 -4 17 -3 17 5 0 6 5 8 11 4 8 -4 7 -9
-2 -16 -11 -7 -11 -11 -1 -15 6 -2 12 -16 12 -29 0 -14 4 -22 10 -19 6 3 10
16 10 27 l0 22 20 -22 c12 -12 25 -22 30 -22 6 0 10 -5 10 -11 0 -8 -5 -8 -15
1 -19 15 -47 6 -39 -14 3 -8 24 -27 47 -43 23 -15 44 -31 45 -35 2 -5 12 -8
21 -8 22 0 67 -37 57 -47 -3 -4 -42 12 -86 35 -80 41 -103 39 -55 -7 28 -26
32 -41 10 -41 -8 0 -15 6 -15 14 0 8 -7 16 -15 20 -9 3 -15 0 -15 -10 0 -11
-6 -14 -22 -8 -49 15 -64 22 -77 38 -7 9 -27 16 -44 16 -34 0 -117 36 -117 51
0 5 -12 9 -27 9 -25 0 -26 1 -8 20 16 18 16 20 1 26 -9 3 -16 10 -16 16 0 5 3
7 8 5 4 -3 27 -1 52 3 30 5 36 8 18 9 -21 1 -29 7 -34 28 l-7 27 -10 -25 c-6
-15 -11 -19 -14 -11 -4 10 -9 8 -19 -5 -12 -16 -13 -14 -14 24 0 37 -3 43 -25
49 -24 6 -35 24 -15 24 6 0 23 13 39 29 15 15 44 34 64 40 20 7 39 17 42 22 8
12 12 12 40 -7z m-8628 -66 c-8 -22 -17 -64 -11 -50 10 22 34 -7 34 -40 0 -29
-27 -88 -41 -88 -3 0 -18 -11 -32 -24 -14 -13 -32 -26 -39 -29 -10 -4 -9 -9 5
-20 40 -33 -1 -29 -43 4 -24 19 -25 20 -6 34 21 16 16 32 -6 19 -17 -11 -40
-14 -36 -5 9 20 97 90 122 97 24 6 26 8 12 16 -17 10 -22 38 -7 38 5 0 14 14
20 30 5 17 15 30 22 30 6 0 9 -6 6 -12z m608 -238 c4 -7 24 -8 52 -4 34 5 44
4 39 -5 -4 -7 -16 -9 -27 -6 -10 4 -19 2 -19 -3 0 -17 -38 -52 -57 -52 -19 0
-43 -17 -43 -32 0 -4 14 -8 30 -8 61 0 23 -67 -79 -139 -26 -19 -34 -21 -47
-10 -14 12 -14 14 2 26 10 7 19 22 21 34 4 26 63 180 76 197 11 15 43 16 52 2z
m6705 -60 c0 -5 18 -10 40 -10 22 0 40 -4 40 -10 0 -5 18 -15 40 -21 22 -7 40
-16 40 -21 0 -5 9 -4 20 2 10 6 51 13 90 16 59 4 70 2 70 -11 0 -13 29 -21 65
-16 6 1 1 -6 -9 -14 -11 -8 -23 -15 -28 -15 -4 0 -5 -7 -1 -16 4 -11 -1 -22
-12 -30 -21 -15 -36 -18 -34 -6 4 22 -3 30 -22 25 -21 -6 -21 -7 -3 -21 12 -9
14 -13 4 -10 -8 3 -20 15 -26 27 -8 16 -13 19 -17 9 -3 -8 -8 -4 -15 12 -9 25
-9 25 -17 -9 -7 -32 -9 -33 -46 -28 -21 3 -42 1 -45 -4 -7 -12 -54 -12 -54 0
0 4 -32 12 -71 15 -54 6 -74 4 -80 -5 -6 -11 -13 -8 -32 9 -25 24 -53 29 -59
10 -3 -7 -12 -9 -22 -5 -13 5 -16 13 -10 29 9 30 24 39 45 27 25 -13 28 -12
39 17 12 30 30 23 30 -12 0 -13 4 -24 8 -24 16 0 32 25 32 50 0 25 16 50 32
50 4 0 8 -4 8 -10z"/>
<path d="M3240 8180 l-35 -7 40 -3 40 -2 -40 -8 c-57 -11 -220 -22 -212 -14 3
3 21 10 39 14 32 8 31 8 -12 8 -25 0 -67 -3 -95 -8 -42 -6 -44 -8 -16 -9 77
-3 11 -14 -151 -27 -360 -27 -435 -27 -183 1 l130 14 -150 -5 c-82 -3 -166 -7
-185 -9 -56 -7 -850 -64 -910 -66 -30 -1 -61 -4 -67 -7 -17 -6 -17 -22 0 -22
8 0 14 -7 14 -15 0 -8 -7 -15 -15 -15 -11 0 -13 -8 -8 -31 3 -17 6 -42 6 -55
0 -22 4 -24 45 -24 39 0 44 2 33 14 -7 8 -25 12 -40 10 -16 -2 -28 1 -28 6 0
6 26 10 57 10 31 0 54 -3 51 -6 -3 -3 4 -16 16 -29 24 -25 50 -27 216 -11 56
5 60 4 30 -5 -63 -20 -66 -23 -27 -28 21 -3 38 -10 37 -16 0 -5 9 -10 20 -9
64 2 80 5 80 15 0 7 -11 9 -28 6 -15 -3 -33 -2 -40 2 -12 7 50 16 348 46 159
17 257 40 125 30 -121 -10 -368 -34 -410 -41 -27 -4 -37 -3 -30 3 6 6 62 16
125 22 63 7 156 16 205 21 50 5 115 12 147 15 l56 6 -2 42 c-2 23 -1 47 1 54
5 13 63 20 241 29 108 5 122 4 122 -10 0 -19 25 -22 36 -4 5 8 2 9 -10 5 -9
-4 -15 -3 -12 2 3 4 45 11 93 15 48 3 105 9 128 13 31 4 37 3 29 -6 -6 -7 -36
-14 -65 -15 -30 -2 -64 -4 -76 -5 -13 0 -23 -6 -23 -12 0 -5 4 -8 8 -5 5 3 28
6 53 6 82 3 129 12 129 25 0 7 19 16 43 20 34 6 38 8 22 15 -22 8 7 14 137 25
37 4 70 11 73 16 4 5 -7 6 -25 3 -18 -4 -30 -2 -30 4 0 6 21 13 48 15 47 3 47
3 -8 4 -30 0 -71 -3 -90 -7z"/>
<path d="M6289 8141 c-27 -13 -35 -24 -42 -56 -4 -22 -8 -51 -7 -64 0 -13 -5
-30 -11 -37 -18 -21 -6 -37 31 -40 19 -2 45 -6 58 -9 23 -6 28 8 23 64 -2 17
2 22 13 18 12 -5 13 -2 6 19 -6 14 -10 47 -10 73 0 54 -7 57 -61 32z"/>
<path d="M3795 7943 c0 -24 -4 -28 -33 -31 -27 -3 -35 1 -39 17 -6 24 -42 30
-97 16 -30 -8 -40 -7 -44 3 -2 6 -9 9 -15 5 -13 -8 -14 -9 -172 -17 -60 -3
-131 -9 -156 -12 l-46 -5 8 -42 c4 -23 10 -79 14 -123 l7 -82 -99 -7 c-99 -7
-126 -14 -124 -31 2 -12 -88 -22 -230 -26 l-114 -3 -3 92 -3 92 28 4 28 4 -27
2 c-30 1 -39 20 -10 22 9 1 20 1 25 0 4 0 7 4 7 10 0 7 -10 9 -25 7 -14 -3
-25 -1 -25 3 0 5 6 9 13 9 6 0 -1 7 -17 15 -17 9 -37 14 -45 12 -10 -3 -7 -5
7 -6 30 -1 41 -30 17 -47 -27 -20 -46 -17 -52 7 -5 18 -10 19 -47 12 -22 -4
-58 -8 -78 -7 -21 0 -38 -2 -38 -6 0 -3 -42 -6 -93 -7 -104 -2 -102 2 10 22
l78 13 -125 -3 -125 -4 104 14 c57 8 109 17 115 19 15 8 -193 -4 -279 -14 -38
-5 -95 -10 -125 -10 -50 0 -53 -1 -38 -16 13 -14 25 -14 86 -5 39 6 86 10 104
10 18 -1 -4 -7 -50 -13 -94 -13 -110 -32 -24 -29 31 1 46 -1 32 -3 -43 -8 -54
-14 -44 -24 5 -5 47 -3 99 5 112 18 158 17 90 0 -27 -7 -76 -14 -107 -14 -32
-1 -58 -5 -58 -11 0 -9 14 -14 33 -11 4 0 7 -5 7 -11 0 -7 38 -53 85 -102 47
-49 85 -93 85 -97 0 -5 -35 27 -77 71 l-78 80 -40 -15 c-39 -14 -39 -16 0 -19
18 -1 20 -9 23 -90 2 -65 -1 -92 -10 -98 -10 -6 -10 -8 0 -8 6 0 12 -4 12 -10
0 -5 -10 -10 -23 -10 -12 0 -28 -9 -35 -20 -7 -11 -22 -20 -33 -20 -14 0 -19
-5 -16 -14 4 -10 -2 -16 -16 -18 -12 -2 -20 -7 -17 -12 3 -5 -11 -15 -30 -21
l-35 -12 35 -11 35 -10 -47 -1 c-51 -1 -79 -21 -29 -21 16 0 33 -5 36 -10 4
-7 -11 -10 -46 -8 -31 2 -53 -1 -56 -8 -4 -11 60 -34 95 -34 11 0 24 -5 28
-12 5 -8 -1 -9 -22 -6 -36 8 -106 -4 -111 -17 -2 -6 11 -16 28 -22 39 -15 31
-29 -17 -31 -20 -1 -43 -7 -52 -14 -8 -7 -17 -12 -19 -10 -1 1 -9 2 -15 2 -16
-1 21 -30 38 -30 21 0 109 -43 97 -47 -7 -3 -13 -9 -13 -15 0 -6 6 -8 14 -5 8
3 20 -1 26 -8 10 -12 7 -14 -17 -13 -38 2 -82 -8 -99 -23 -12 -10 -8 -15 27
-30 36 -17 67 -19 275 -17 143 1 237 5 241 11 3 6 1 7 -5 3 -7 -4 -12 -2 -12
3 0 6 -8 10 -17 9 -10 -2 -45 1 -78 6 -49 7 -56 10 -35 17 14 4 44 7 67 8 23
1 43 6 45 11 5 16 159 -9 182 -29 11 -9 16 -10 12 -3 -9 16 -5 15 30 -3 16 -8
23 -15 17 -15 -7 0 -13 -7 -13 -15 0 -8 -4 -15 -10 -15 -5 0 -10 -5 -10 -11 0
-7 10 -9 28 -4 34 8 46 20 36 36 -4 7 -8 24 -9 38 -1 14 -16 64 -33 110 -18
46 -30 86 -28 88 6 7 63 -116 75 -164 l12 -43 87 6 c48 4 84 4 81 0 -6 -6 -57
-14 -121 -18 -41 -2 -51 -17 -18 -25 20 -5 29 -43 10 -43 -5 0 -10 -8 -10 -18
0 -21 110 -85 132 -77 7 2 31 7 53 9 46 5 174 24 420 61 94 14 184 25 201 25
34 0 84 33 84 56 0 17 -2 16 254 59 242 40 274 54 180 80 -152 42 -179 51
-177 60 1 6 12 12 24 15 21 5 20 7 -15 38 -35 30 -43 33 -97 31 -32 -1 -62 0
-65 4 -4 3 -9 26 -11 50 -7 61 7 72 119 86 124 17 136 20 141 39 4 15 5 15 6
0 0 -10 4 -18 9 -18 4 0 94 -9 201 -20 167 -17 197 -18 220 -6 l26 14 -25 6
c-38 8 -129 18 -195 22 -33 2 -84 8 -114 14 -30 5 -74 10 -98 10 l-43 0 -1 98
c-1 53 -4 176 -8 272 -5 146 -9 175 -21 178 -11 2 -16 -5 -15 -25z m-257 -282
c15 -9 29 -149 33 -308 1 -63 -2 -88 -13 -99 -11 -11 -48 -16 -138 -20 -68 -2
-153 -9 -189 -14 -36 -6 -86 -13 -109 -17 -32 -4 -46 -2 -53 8 -8 13 -3 320 7
385 l4 30 187 18 c103 9 190 19 192 22 8 7 65 4 79 -5z"/>
<path d="M9284 4686 c-6 -7 -10 -27 -9 -44 2 -18 -1 -32 -6 -32 -5 0 -9 8 -9
17 0 9 -3 14 -6 11 -3 -3 -2 -22 2 -42 5 -29 10 -35 24 -31 24 8 38 -15 17
-27 -9 -5 -14 -15 -11 -22 8 -21 42 -26 72 -10 33 17 49 18 55 2 4 -10 6 -10
6 0 1 6 8 12 16 12 9 0 -3 18 -30 45 -24 25 -58 66 -75 90 -17 25 -32 45 -33
45 -1 -1 -7 -7 -13 -14z"/>
<path d="M10062 4493 c-23 -8 -39 -19 -36 -24 3 -5 33 -22 66 -38 42 -19 57
-31 47 -36 -7 -5 -14 -4 -17 3 -7 21 -32 13 -32 -10 0 -39 14 -51 49 -43 26 5
31 4 31 -12 0 -11 15 -25 36 -36 37 -18 58 -14 84 17 17 22 -4 48 -34 40 -24
-6 -60 25 -48 42 4 5 23 17 42 25 l35 14 -60 7 c-49 5 -62 4 -72 -10 -7 -8
-16 -12 -20 -8 -5 4 6 19 22 32 29 24 29 25 11 39 -24 18 -47 17 -104 -2z"/>
<path d="M9237 4205 c-20 -14 -37 -32 -37 -40 0 -8 -11 -17 -25 -21 -26 -6
-52 -40 -41 -52 4 -3 15 -7 26 -9 22 -3 87 -38 106 -58 10 -10 22 -11 54 -3
22 6 39 16 37 22 -2 6 -32 26 -68 44 -88 46 -98 65 -38 74 18 3 36 -1 44 -8
14 -14 26 -9 20 9 -2 7 -6 24 -9 40 -8 34 -21 34 -69 2z"/>
<path d="M11695 8970 c3 -20 -1 -60 -9 -90 -7 -30 -21 -91 -31 -135 -9 -44
-21 -87 -25 -95 -4 -8 -10 -33 -13 -55 -5 -38 -9 -54 -23 -92 -4 -10 -8 -34
-11 -53 -7 -60 -56 -245 -67 -252 -8 -5 -7 -11 1 -19 9 -9 19 -10 37 -1 13 6
33 8 44 5 17 -4 19 -11 15 -44 -6 -43 -5 -44 30 -28 19 9 28 29 51 122 35 141
44 181 55 237 5 25 13 65 19 90 6 25 18 81 27 125 44 221 54 286 49 299 -4 11
-23 15 -70 15 -53 0 -64 -3 -65 -17 0 -14 -2 -13 -10 3 -7 15 -8 12 -4 -15z"/>
<path d="M10771 8836 c-6 -8 -16 -40 -22 -72 -6 -33 -22 -111 -35 -174 -13
-63 -26 -133 -30 -155 l-6 -40 74 0 c40 1 78 3 83 5 6 2 25 0 43 -4 22 -5 38
-4 45 3 15 15 38 14 51 -3 7 -10 36 -16 85 -18 l74 -3 28 115 c15 63 28 117
29 120 1 3 5 -5 10 -17 6 -15 4 -34 -6 -59 -8 -20 -15 -53 -14 -73 3 -65 1
-78 -10 -61 -8 13 -10 13 -10 -2 0 -23 44 -34 76 -19 16 7 24 19 24 36 0 14
-4 25 -8 25 -17 0 -4 129 24 240 8 30 14 63 14 74 0 18 -3 17 -29 -8 -44 -42
-65 -32 -71 34 l-5 55 -100 0 c-82 0 -100 -3 -101 -15 -3 -42 -3 -43 -19 -30
-11 9 -12 16 -4 26 19 24 1 30 -89 32 -66 2 -93 -2 -101 -12z"/>
<path d="M11420 8511 c-5 -11 -10 -29 -10 -40 0 -11 -7 -27 -16 -35 -17 -17
-56 -145 -48 -158 3 -4 15 -8 27 -8 13 0 32 -7 44 -15 21 -15 23 -14 38 37 16
55 45 192 45 217 0 10 -3 11 -13 3 -10 -9 -19 -7 -35 4 -19 13 -22 13 -32 -5z"/>
<path d="M6755 4971 c-4 -25 -19 -84 -35 -131 -15 -47 -30 -114 -33 -148 -5
-55 -2 -67 15 -84 18 -18 19 -24 8 -68 -16 -67 -8 -87 40 -95 51 -9 81 7 79
43 0 15 3 46 7 70 6 39 5 42 -15 42 -18 0 -21 4 -16 20 5 15 2 20 -12 20 -11
0 -28 7 -39 15 -19 14 -19 14 1 16 11 1 27 1 35 0 11 -1 20 20 33 78 18 81 16
119 -9 156 -8 11 -14 38 -14 61 0 33 -4 43 -20 47 -16 4 -20 -2 -25 -42z"/>
<path d="M2725 3885 c-22 -13 -47 -28 -55 -31 -8 -4 -33 -19 -55 -33 -22 -14
-48 -30 -57 -36 -9 -5 -41 -27 -71 -47 -29 -20 -65 -40 -80 -43 -14 -4 -33
-15 -43 -26 -9 -10 -23 -19 -31 -19 -7 0 -13 -4 -13 -10 0 -5 -7 -10 -15 -10
-8 0 -15 -6 -15 -13 0 -7 -18 -21 -40 -31 -21 -9 -50 -30 -63 -46 -14 -16 -27
-27 -29 -25 -8 8 -50 -85 -44 -100 3 -9 19 -23 36 -33 33 -19 31 -11 34 -172
2 -137 28 -155 129 -95 45 26 65 62 58 108 -3 21 -2 21 42 2 48 -20 63 -19 86
6 17 18 27 21 68 16 47 -6 48 -6 18 8 -29 14 -29 14 -5 15 26 0 66 20 42 20
-7 0 -11 4 -8 9 7 11 -27 21 -74 21 -38 0 -62 11 -59 26 2 10 -15 59 -32 88
-12 20 -2 34 78 108 23 22 45 48 48 58 3 10 15 20 26 23 12 3 18 10 15 15 -3
5 6 20 19 32 14 13 25 29 25 37 0 7 4 13 9 13 5 0 12 8 15 18 3 10 24 37 46
61 22 23 40 45 40 48 0 3 11 14 25 25 14 11 25 24 25 29 0 18 -55 8 -95 -16z"/>
<path d="M8735 452 c-80 -112 -84 -168 -16 -221 66 -53 161 -87 174 -63 3 4
-17 77 -44 162 -27 85 -49 160 -49 167 0 28 -27 10 -65 -45z"/>
<path d="M8620 120 c-130 -10 -200 -46 -200 -104 0 -14 30 -16 255 -16 l255 0
0 30 c0 16 -5 40 -11 54 -10 22 -18 24 -93 28 -44 3 -88 7 -96 10 -8 3 -58 2
-110 -2z"/>
</g>
</svg>
