<?xml version="1.0" standalone="no"?>
<!DOCTYPE svg PUBLIC "-//W3C//DTD SVG 20010904//EN"
 "http://www.w3.org/TR/2001/REC-SVG-20010904/DTD/svg10.dtd">
<svg version="1.0" xmlns="http://www.w3.org/2000/svg"
 width="1280.000000pt" height="960.000000pt" viewBox="0 0 1280.000000 960.000000"
 preserveAspectRatio="xMidYMid meet">
<metadata>
Created by potrace 1.15, written by Peter Selinger 2001-2017
</metadata>
<g transform="translate(0.000000,960.000000) scale(0.100000,-0.100000)"
fill="#000000" stroke="none">
<path d="M0 9555 c0 -38 3 -45 20 -45 16 0 20 -7 20 -30 0 -24 4 -30 23 -30
16 0 18 3 8 9 -10 7 -11 13 -2 30 7 11 8 21 4 21 -4 0 -16 14 -25 30 -10 18
-13 30 -6 30 15 0 48 -40 50 -62 5 -52 9 -82 28 -178 25 -130 90 -540 90 -569
0 -20 -5 -21 -105 -21 l-105 0 0 -41 0 -41 126 5 c69 3 131 10 136 15 7 7 5
50 -6 129 -9 65 -26 181 -36 258 -28 197 -40 339 -29 343 12 5 11 32 -1 32
-14 0 -13 37 1 42 9 3 9 10 0 27 -15 27 -7 39 13 21 23 -18 49 11 40 45 l-6
25 -119 0 -119 0 0 -45z"/>
<path d="M955 9590 c4 -6 11 -8 16 -5 5 4 9 -3 9 -14 0 -10 5 -21 11 -23 13
-4 39 -73 39 -102 0 -47 24 -148 37 -162 10 -9 14 -28 11 -53 -2 -22 0 -37 4
-35 5 3 8 20 8 38 0 33 24 68 32 47 2 -8 15 -7 42 0 25 7 91 9 178 5 97 -4
138 -3 138 5 0 13 68 3 87 -13 22 -18 2 -30 -39 -23 -49 9 -237 9 -245 1 -14
-14 13 -17 168 -23 292 -10 353 -17 298 -33 -15 -4 -69 -6 -121 -4 -59 2 -108
-2 -131 -10 -39 -13 -39 -26 -1 -26 12 0 24 -6 27 -12 3 -10 11 -10 35 -1 18
6 42 8 54 5 20 -6 18 -7 -12 -12 -26 -4 -34 -10 -32 -23 2 -9 -2 -17 -8 -17
-6 0 -9 4 -5 10 3 6 -38 8 -112 5 -168 -7 -235 -15 -230 -29 2 -6 15 -10 28
-8 13 1 31 2 39 2 8 -1 25 -1 37 -1 14 -1 25 -10 32 -28 9 -26 9 -26 10 -2 1
18 4 21 14 12 8 -6 17 -7 21 -3 4 4 18 7 31 7 18 1 22 -4 19 -19 -2 -11 1 -23
7 -26 10 -7 15 -35 23 -120 2 -19 9 -36 16 -38 9 -3 11 1 7 11 -3 9 0 31 8 49
8 18 14 27 15 19 0 -8 2 -12 5 -9 3 2 -2 18 -10 35 -16 32 -10 77 6 51 7 -10
9 -9 9 4 0 9 -5 19 -10 21 -6 3 -5 4 2 3 9 -2 12 -18 11 -47 -2 -31 1 -40 7
-29 7 11 10 8 11 -15 0 -24 2 -26 8 -11 5 13 11 0 19 -46 14 -77 15 -117 1
-78 -8 23 -8 22 -4 -5 3 -16 12 -61 19 -100 8 -38 14 -105 13 -148 -2 -43 1
-70 5 -60 4 11 7 -5 7 -37 1 -30 4 -73 7 -95 4 -30 3 -36 -5 -25 -12 17 -13
11 -14 -100 0 -46 -1 -52 -4 -20 -2 25 -8 54 -13 65 -9 18 -41 215 -39 233 3
19 -2 32 -13 32 -8 0 -13 -14 -13 -38 0 -20 -3 -54 -8 -75 -4 -23 -3 -65 4
-100 8 -44 8 -62 0 -65 -6 -2 -11 -11 -11 -20 0 -15 -2 -15 -10 -2 -5 8 -10
38 -10 65 -1 28 -7 64 -15 80 l-13 30 -1 -44 c-1 -37 -3 -42 -16 -31 -8 7 -15
29 -16 49 0 26 -2 31 -8 17 -4 -10 -4 -41 0 -70 8 -63 -5 -82 -25 -35 -16 35
-21 25 -16 -29 2 -22 -15 -52 -30 -52 -4 0 -13 19 -20 43 -21 72 -23 74 -27
55 -3 -10 -8 -18 -13 -18 -9 0 -5 -103 5 -137 4 -13 3 -23 -2 -23 -5 0 -8 -15
-6 -32 l3 -33 -9 28 c-6 16 -7 35 -4 43 7 18 -25 67 -38 58 -6 -3 -9 -19 -7
-35 3 -16 1 -29 -4 -29 -4 0 -8 -16 -8 -36 0 -19 4 -33 9 -29 5 3 12 1 16 -5
3 -5 -1 -10 -10 -10 -14 0 -16 -10 -9 -80 5 -65 4 -80 -7 -80 -10 0 -10 -3 -3
-8 7 -4 15 -45 18 -92 3 -47 8 -98 10 -115 3 -16 5 -49 5 -73 1 -30 4 -41 13
-36 8 5 9 2 5 -10 -4 -10 -7 -24 -7 -32 0 -13 -46 -14 -329 -12 -181 2 -332 6
-336 9 -6 7 -13 36 -24 109 l-6 45 -262 3 -262 2 -8 42 c-5 23 -15 43 -23 45
-13 4 -13 3 0 -6 10 -7 11 -11 3 -11 -10 0 -13 -56 -13 -245 l0 -245 29 0 c15
0 86 9 157 20 71 11 145 20 164 20 28 0 32 3 20 11 -12 9 -12 10 3 5 10 -3 28
-1 39 5 14 8 23 8 31 0 16 -16 -24 -27 -148 -44 l-110 -15 90 -2 c50 -1 105
-7 124 -14 l35 -12 -60 -1 c-32 -1 -81 -4 -108 -8 -75 -11 -36 -25 69 -24 108
0 242 21 208 33 -12 4 -33 4 -47 0 -18 -4 -28 -2 -31 8 -4 10 -16 14 -33 11
l-27 -3 25 9 c14 5 66 15 117 21 l92 13 -15 29 c-17 33 -15 60 6 70 8 4 153 7
321 7 254 1 312 -2 335 -14 l29 -15 -35 -1 c-19 0 -44 -5 -55 -10 -16 -7 -14
-8 9 -4 26 6 28 5 16 -10 -12 -14 -12 -18 1 -26 10 -6 7 -9 -13 -9 -28 0 -46
-17 -32 -29 5 -5 52 -2 104 5 152 20 191 16 53 -6 -51 -8 -73 -16 -73 -26 0
-11 14 -13 73 -8 120 9 56 -13 -88 -31 -71 -9 -131 -17 -133 -19 -12 -12 68
-16 140 -6 45 6 101 13 123 16 39 5 40 4 15 -10 l-25 -15 30 -2 c17 -1 38 -2
48 -1 9 1 17 -5 17 -13 0 -18 12 -19 28 -3 16 16 256 13 1342 -18 288 -8 528
-18 531 -22 4 -4 14 -110 23 -237 9 -126 19 -258 22 -292 l6 -63 -48 5 c-27 2
-161 7 -299 10 l-250 7 -37 33 c-36 33 -172 105 -199 105 -8 0 -32 7 -54 15
-24 8 -79 14 -138 15 -96 0 -134 -11 -238 -67 -4 -2 -11 33 -15 79 -8 77 -11
83 -33 86 -13 2 -62 -8 -109 -23 -48 -15 -93 -29 -102 -31 -8 -2 -67 -20 -130
-40 -63 -20 -143 -41 -177 -47 -73 -14 -110 -39 -44 -30 59 8 51 -4 -16 -23
-41 -12 -58 -13 -61 -5 -4 11 -77 5 -97 -9 -16 -11 -165 -13 -165 -1 0 6 -33
8 -90 4 -67 -4 -90 -3 -90 6 0 7 -4 9 -10 6 -5 -3 -39 -8 -75 -11 -52 -3 -67
-1 -71 11 -4 11 -11 12 -24 5 -9 -5 -20 -7 -23 -4 -3 3 -22 1 -42 -5 -21 -5
-50 -8 -65 -5 -26 6 -28 10 -34 68 -14 129 -18 147 -32 142 -8 -3 -14 -1 -14
3 0 5 6 12 13 14 6 3 -2 6 -19 6 -23 1 -31 -4 -31 -16 0 -10 3 -23 8 -28 4 -6
4 -17 -1 -25 -8 -13 -10 -12 -10 2 0 9 -4 28 -9 41 -8 19 -15 23 -35 20 -15
-3 -27 -13 -29 -27 l-4 -21 -8 21 c-6 19 -11 21 -48 12 -23 -4 -49 -11 -57
-14 -8 -3 -34 -7 -58 -9 -23 -1 -50 -9 -59 -16 -9 -8 -25 -12 -36 -11 -16 3
-19 0 -14 -18 4 -14 -1 -25 -14 -33 -10 -6 -19 -15 -19 -20 0 -4 4 -5 10 -2 5
3 10 1 10 -5 0 -16 -21 -8 -34 13 -8 13 -7 20 4 27 10 6 11 10 3 10 -7 0 -13
7 -13 15 0 19 -23 19 -90 -1 -31 -9 -67 -13 -86 -9 l-34 6 0 -3396 0 -3395
2085 0 2085 0 0 73 c0 54 -5 80 -20 105 -11 17 -24 32 -30 32 -14 0 -12 13 5
35 8 11 43 57 78 102 95 125 241 313 351 452 54 68 120 157 146 198 41 65 129
154 213 217 16 11 35 33 43 47 12 25 10 34 -36 127 -45 89 -69 126 -140 210
-10 12 -16 22 -13 22 3 0 0 6 -6 13 -6 8 -8 17 -4 20 3 4 1 7 -6 7 -7 0 -9 5
-5 13 4 6 3 9 -1 4 -5 -4 -19 3 -32 15 -22 21 -22 22 -5 41 16 19 16 19 -5 7
-17 -11 -24 -11 -37 -1 -8 7 -12 19 -9 27 4 10 1 14 -10 12 -17 -3 -179 120
-172 132 2 4 -4 15 -15 25 -11 10 -20 13 -20 8 0 -6 7 -14 16 -17 9 -4 14 -9
10 -13 -9 -9 -47 28 -39 40 3 6 1 7 -6 3 -12 -8 -111 49 -111 63 0 11 172 -18
188 -31 7 -7 12 -22 9 -35 -3 -19 -1 -22 13 -18 22 7 38 -14 20 -25 -9 -6 -9
-9 1 -12 8 -3 11 -9 7 -13 -4 -4 -14 -2 -23 5 -8 7 -15 8 -15 2 0 -5 11 -17
24 -25 22 -15 25 -15 30 0 4 8 2 21 -3 27 -15 18 0 33 40 41 25 5 40 2 51 -8
8 -8 30 -18 49 -21 33 -7 45 -11 99 -34 24 -10 59 -16 178 -29 29 -3 80 0 115
7 67 13 133 37 125 46 -3 2 -24 -3 -46 -12 -23 -9 -47 -14 -54 -11 -8 3 -5 6
7 7 11 1 40 11 65 23 53 26 61 52 30 95 -12 16 -22 44 -22 63 -1 19 -3 28 -6
21 -3 -10 -15 -3 -39 20 -19 18 -37 33 -41 32 -11 -2 -52 27 -52 37 0 14 44
10 66 -6 18 -14 18 -14 -5 -10 -13 2 -20 1 -17 -3 4 -4 20 -8 34 -8 15 -1 27
-3 27 -4 0 -1 36 -8 80 -15 95 -16 207 -54 202 -69 -4 -11 53 -46 75 -46 6 0
26 -11 44 -25 19 -14 36 -25 39 -25 3 0 13 -6 21 -15 9 -8 19 -13 24 -10 4 3
29 -4 55 -15 62 -27 140 -26 184 1 42 26 35 34 -12 14 -20 -8 -51 -15 -69 -14
-29 1 -27 3 17 14 58 14 106 37 124 59 11 13 11 27 0 77 -12 52 -21 69 -61
108 -26 25 -48 51 -48 56 0 14 -72 75 -87 75 -9 0 -12 14 -10 42 2 45 -3 51
-60 77 -13 6 -23 19 -23 31 0 14 -4 19 -12 14 -7 -4 -2 9 10 30 27 45 28 58 5
54 -10 -1 -23 1 -29 5 -7 4 -28 0 -47 -8 -52 -22 -83 -17 -85 14 -1 13 -7 30
-12 36 -8 9 -5 14 9 18 25 6 36 -20 19 -41 -9 -11 -9 -13 -1 -9 6 4 13 1 15
-6 2 -10 11 -11 35 -5 29 8 31 10 23 38 -5 18 -5 30 1 30 5 0 9 -4 9 -8 0 -20
27 -43 43 -36 18 7 25 64 7 64 -6 0 -1 13 10 28 l21 29 -21 42 c-18 34 -25 39
-36 30 -8 -7 -18 -9 -22 -5 -4 4 1 12 11 17 10 6 17 22 17 39 0 17 5 30 10 30
6 0 10 5 10 11 0 5 -6 7 -12 3 -10 -6 -10 -4 0 8 7 8 10 22 7 30 -11 27 -22
193 -14 202 9 10 41 -12 34 -24 -2 -4 8 -5 23 -3 23 3 24 2 7 -6 -17 -8 -15
-10 14 -10 19 -1 31 2 28 6 -14 13 52 32 82 23 22 -6 33 -5 42 7 11 12 14 11
26 -9 14 -23 14 -23 10 -1 -6 27 21 60 45 55 9 -2 19 2 23 8 5 8 11 4 19 -11
11 -24 45 -36 121 -44 83 -8 148 -25 159 -41 10 -13 24 -16 66 -12 29 3 69 1
89 -4 31 -7 425 -29 516 -28 38 0 200 -27 243 -41 l33 -11 -41 -31 c-51 -40
-49 -61 8 -102 40 -27 51 -30 120 -30 43 0 91 3 109 7 32 7 32 7 13 -12 -11
-11 -26 -20 -34 -20 -7 0 -30 -7 -49 -15 -41 -17 -131 -12 -173 9 -34 18 -55
50 -48 73 5 16 4 16 -10 -1 -28 -34 -20 -60 24 -85 32 -19 191 -26 285 -13 71
10 90 8 66 -7 -11 -7 -11 -9 0 -13 10 -3 9 -10 -4 -28 -22 -32 -21 -40 3 -40
14 0 20 -7 20 -22 0 -33 23 -94 43 -116 17 -19 22 -48 11 -76 -7 -19 -30 -21
-37 -3 -3 6 -6 0 -6 -15 -1 -18 6 -31 19 -38 11 -6 20 -21 20 -33 0 -15 3 -18
8 -9 10 15 38 6 46 -14 3 -9 1 -24 -5 -36 -13 -25 12 -47 47 -40 16 3 24 0 24
-9 0 -11 2 -11 10 1 5 8 10 13 11 10 0 -3 2 -14 4 -25 2 -11 -1 -22 -7 -26 -5
-3 -8 -14 -6 -22 3 -15 6 -15 37 1 26 12 36 13 39 4 2 -7 16 -12 30 -12 38 0
72 -11 72 -22 0 -5 -9 -7 -20 -3 -15 5 -18 3 -14 -9 4 -12 20 -16 54 -16 33 0
50 -5 54 -15 3 -8 14 -15 24 -15 28 0 33 -10 16 -35 -9 -13 -28 -25 -47 -27
-18 -3 -39 -8 -48 -12 -12 -5 -20 1 -30 23 -8 17 -19 31 -26 31 -6 0 -14 6
-16 13 -3 6 -6 0 -6 -15 -1 -18 6 -31 19 -38 21 -11 28 -40 10 -40 -6 0 -8
-10 -4 -24 8 -33 -3 -51 -22 -35 -12 10 -18 9 -32 -5 -11 -11 -13 -19 -6 -24
6 -4 13 -15 17 -24 3 -10 13 -18 21 -18 19 0 33 23 18 28 -22 7 -12 22 13 22
22 0 25 -3 19 -24 -7 -30 12 -43 35 -22 14 12 20 13 30 3 9 -9 14 -9 21 3 5 8
12 11 16 7 4 -3 2 -13 -5 -20 -13 -16 -5 -47 13 -47 6 0 17 9 24 20 10 17 15
18 27 8 12 -11 12 -15 -2 -25 -25 -19 -6 -29 29 -15 37 14 46 9 28 -14 -11
-13 -11 -17 0 -24 7 -4 20 -6 29 -3 14 4 14 3 1 -5 -12 -9 -12 -14 5 -32 12
-13 25 -18 38 -14 18 6 19 3 13 -29 -5 -24 -3 -37 6 -40 10 -4 8 -9 -4 -17
-10 -6 -18 -18 -18 -25 0 -8 -7 -15 -16 -15 -12 0 -15 -9 -12 -37 3 -35 35
-83 50 -76 4 2 5 -4 1 -13 -4 -12 -2 -15 8 -12 8 3 20 -1 27 -8 21 -22 111
-44 205 -51 48 -3 90 -10 93 -15 3 -4 19 -8 35 -8 18 0 28 -4 24 -10 -3 -5 -1
-10 4 -10 6 0 11 5 11 11 0 6 17 26 37 45 32 31 37 42 38 81 0 30 5 49 17 57
9 7 24 32 34 57 10 24 32 67 51 95 43 66 89 88 182 86 123 -2 233 -55 341
-166 147 -149 150 -152 139 -163 -8 -8 -6 -14 9 -22 10 -6 22 -7 26 -4 7 7 8
3 11 -42 1 -24 -7 -37 -37 -64 -36 -31 -74 -88 -65 -97 2 -2 60 -28 128 -58
133 -57 285 -124 356 -157 23 -11 43 -26 43 -33 0 -8 -9 -74 -20 -148 -11 -73
-23 -152 -27 -176 l-6 -43 -16 24 c-9 13 -32 40 -51 59 -19 19 -71 75 -115
124 -44 48 -105 115 -135 148 -123 136 -146 156 -178 156 -33 0 -48 -17 -54
-62 -2 -14 -11 -33 -21 -42 -13 -14 -17 -36 -17 -106 0 -49 -4 -90 -9 -92 -5
-2 -7 -25 -4 -52 4 -36 8 -44 15 -32 10 17 28 13 28 -7 0 -7 -4 -6 -10 3 -8
12 -10 9 -10 -13 0 -16 4 -26 9 -23 4 3 11 -15 15 -41 9 -66 8 -71 -15 -94
-20 -20 -20 -21 -1 -26 30 -8 44 -47 24 -67 -9 -10 -12 -16 -7 -15 22 4 26 -2
11 -16 -8 -8 -17 -15 -20 -15 -9 0 -66 62 -66 71 0 5 -4 9 -10 9 -14 0 -12
-23 4 -55 8 -15 13 -45 12 -67 -2 -27 0 -36 6 -26 6 8 8 -2 4 -30 -4 -23 -2
-51 4 -62 7 -14 7 -21 -3 -27 -7 -4 -13 -28 -15 -53 -2 -43 -2 -60 1 -142 l2
-38 48 0 c32 0 46 4 45 13 -3 14 55 11 60 -4 2 -5 11 -9 19 -9 9 0 13 6 10 14
-5 12 7 14 66 11 94 -4 95 -4 77 -15 -10 -6 65 -10 221 -10 l235 0 1 292 c1
161 2 304 4 318 3 45 -14 125 -33 151 -18 24 -18 31 -7 85 7 32 15 134 18 225
5 136 9 170 23 185 9 11 21 37 27 59 9 35 17 43 58 59 94 39 184 36 288 -9 46
-20 153 -94 175 -122 76 -94 110 -165 110 -230 0 -20 7 -44 16 -54 14 -16 13
-19 -9 -40 -23 -23 -51 -102 -39 -114 3 -3 13 -5 23 -5 30 0 33 -21 9 -64 -22
-42 -22 -42 -5 -119 14 -64 20 -76 31 -66 8 6 11 15 8 20 -3 5 0 18 6 28 10
20 12 19 80 -15 38 -19 72 -40 76 -46 5 -8 2 -9 -9 -5 -10 3 -17 2 -17 -4 0
-6 -4 -8 -9 -4 -5 3 -12 1 -16 -5 -3 -5 -1 -10 5 -10 7 0 10 -6 7 -14 -4 -9 2
-12 19 -10 15 1 33 -6 46 -19 11 -12 18 -16 14 -10 -5 9 -2 11 8 7 9 -3 16
-11 16 -16 0 -6 13 -7 33 -3 17 4 36 8 42 9 5 0 16 12 22 26 13 25 13 25 10
-8 -2 -18 0 -35 5 -38 4 -3 8 5 9 18 0 13 3 17 6 10 3 -9 16 -11 40 -6 25 5
34 3 29 -4 -3 -6 -2 -13 4 -17 19 -12 10 -25 -16 -25 -16 0 -24 -5 -21 -12 2
-7 11 -12 21 -10 9 2 16 -2 16 -8 0 -5 7 -10 16 -10 12 0 15 -7 12 -30 -4 -25
-2 -29 12 -25 12 4 19 -1 24 -17 14 -54 -1 -80 -21 -36 -5 13 -12 17 -16 11
-10 -16 27 -53 54 -53 13 0 31 -5 39 -10 13 -9 13 -12 -2 -24 -10 -7 -15 -16
-11 -19 3 -4 1 -7 -5 -7 -7 0 -12 -7 -12 -15 0 -8 -4 -15 -10 -15 -5 0 -10 -7
-10 -15 0 -8 5 -15 10 -15 6 0 10 -4 10 -10 0 -5 -13 -10 -29 -10 -35 0 -62
-26 -37 -36 12 -5 13 -10 5 -25 -9 -19 8 -19 826 -19 l835 0 0 1668 0 1668
-33 36 c-57 62 -63 75 -14 28 32 -30 47 -39 47 -28 0 16 -180 201 -188 193 -4
-3 45 -61 82 -97 11 -10 15 -18 9 -18 -10 0 -341 326 -447 439 l-49 53 -74 -7
c-41 -4 -87 -11 -103 -15 -51 -15 -41 32 11 53 9 4 7 6 -6 6 -17 1 -18 3 -5
12 12 8 10 9 -7 4 -29 -8 -30 9 -1 29 18 13 19 16 5 16 -20 0 -21 8 -7 45 9
23 8 26 -5 21 -8 -3 -15 -1 -15 5 0 6 -6 7 -12 3 -10 -6 -10 -4 0 7 21 23 13
30 -15 12 -16 -9 -49 -34 -74 -55 -26 -21 -51 -38 -57 -38 -5 0 -38 -25 -73
-56 -56 -50 -64 -55 -70 -38 -4 11 -8 13 -8 6 -1 -7 4 -23 10 -34 9 -17 8 -28
-6 -55 -10 -18 -22 -33 -27 -33 -4 0 -8 -7 -8 -15 0 -8 -4 -15 -10 -15 -16 0
-11 67 6 85 12 12 15 26 10 58 -5 33 -1 60 19 112 14 39 29 77 35 87 6 11 5
18 -4 21 -7 3 -13 0 -13 -6 -2 -16 -46 -137 -59 -160 -8 -14 -14 2 -28 75 -19
98 -25 114 -92 225 -48 80 -50 85 -30 102 7 6 16 39 19 74 4 34 9 74 13 89 5
21 0 32 -21 52 -25 23 -27 30 -20 73 3 27 14 62 24 78 25 42 25 97 1 123 -11
12 -20 28 -20 37 0 30 20 14 42 -32 13 -28 31 -49 42 -51 11 -3 16 0 12 7 -4
6 -2 11 3 11 6 0 11 6 11 14 0 7 7 37 17 65 19 60 15 71 -53 149 -24 28 -44
55 -44 60 0 12 58 -2 74 -18 15 -15 46 -12 46 5 0 10 -10 15 -30 15 -34 0 -71
42 -76 85 -2 21 2 25 22 25 14 0 32 -7 41 -16 17 -16 68 -16 68 1 0 6 -17 21
-38 34 -20 13 -37 30 -37 38 0 7 -4 13 -10 13 -5 0 -10 7 -10 15 0 17 16 20
25 5 10 -16 28 -12 21 5 -9 23 19 18 53 -10 16 -14 31 -36 33 -48 2 -17 10
-22 33 -23 40 -1 74 -16 108 -48 15 -14 33 -26 38 -26 20 0 39 -28 32 -47 -3
-10 -3 -15 1 -11 9 7 102 -37 112 -53 4 -7 10 -7 18 0 15 13 43 -14 63 -57 8
-19 12 -22 12 -9 1 22 14 22 34 -1 19 -21 22 -37 6 -26 -7 4 -10 1 -7 -7 3 -8
17 -13 34 -12 16 1 21 -1 12 -4 -10 -2 -18 -6 -18 -7 0 -8 78 -86 86 -86 5 0
18 -11 28 -25 10 -14 23 -25 29 -25 5 0 25 -14 44 -30 18 -17 40 -30 48 -30 8
0 15 -7 15 -15 0 -8 7 -15 15 -15 8 0 15 -5 15 -11 0 -6 7 -9 15 -5 8 3 19 -3
25 -13 5 -11 24 -24 41 -30 23 -8 30 -15 25 -27 -5 -13 -2 -15 18 -10 15 4 28
0 36 -9 7 -8 20 -15 29 -15 19 -1 61 -34 61 -49 0 -15 9 -14 26 4 14 13 14 15
0 15 -9 0 -16 4 -16 10 0 12 -48 60 -60 60 -6 0 -10 5 -10 10 0 15 9 12 41
-11 16 -11 29 -18 29 -14 0 3 10 -4 23 -15 12 -12 30 -26 40 -31 14 -8 17 -6
17 12 0 12 -3 19 -7 16 -9 -10 -33 13 -33 31 0 13 3 12 20 -3 15 -14 20 -15
20 -4 -1 8 -21 29 -45 47 -25 18 -45 38 -45 45 0 8 3 8 8 1 4 -5 24 -20 45
-33 l37 -23 0 850 0 849 -82 26 c-46 15 -114 38 -153 51 -111 40 -117 38 -146
-44 l-15 -45 -55 0 c-30 1 -331 7 -669 15 -338 7 -704 14 -813 14 l-198 1 5
35 c3 19 19 160 36 312 17 153 33 283 36 291 4 11 42 13 212 11 114 -2 410 -6
657 -9 248 -3 615 -8 818 -12 275 -5 367 -3 367 5 0 9 -50 13 -175 14 -96 1
-188 2 -203 3 -15 1 -271 5 -568 9 -934 11 -1115 17 -1148 33 -30 15 -45 7
-46 -24 0 -8 -13 -11 -37 -8 -21 2 -233 4 -470 4 l-433 1 0 48 c0 26 4 83 9
127 6 44 13 120 17 169 l7 89 921 -6 c985 -7 2086 -26 2098 -36 4 -3 0 -44 -8
-91 -9 -47 -18 -105 -20 -130 -2 -25 -9 -67 -14 -93 -6 -26 -10 -55 -10 -63 0
-23 33 -13 36 11 1 11 5 46 9 78 4 36 12 60 21 64 11 4 14 39 13 192 -1 155
-3 177 -11 130 l-10 -56 -54 0 -53 1 3 54 c2 29 7 56 10 59 3 4 6 14 6 23 0
10 9 29 21 44 21 27 18 46 -7 46 -8 0 -12 5 -9 10 3 6 1 10 -4 10 -6 0 -11 -4
-11 -8 0 -4 -40 -8 -89 -8 l-89 -1 5 61 c2 33 11 104 19 156 9 52 19 119 23
148 4 28 11 56 17 61 5 4 26 6 46 4 36 -5 36 -6 31 -42 -3 -20 -12 -46 -19
-58 -18 -29 -18 -43 1 -43 8 0 15 4 15 10 0 5 6 7 14 4 8 -3 16 3 19 15 3 15
13 21 31 21 24 0 36 -14 19 -22 -5 -1 -6 -28 -3 -58 l5 -55 9 55 c9 66 37 160
47 160 4 0 9 9 12 20 3 13 0 20 -9 20 -8 0 -14 1 -14 3 0 1 7 40 15 85 12 68
14 205 15 703 l0 619 -280 0 c-270 0 -279 -1 -262 -18 9 -10 19 -16 22 -13 3
4 26 7 53 9 35 2 49 -2 53 -13 3 -8 11 -12 17 -8 5 3 7 1 3 -5 -3 -5 -24 -13
-45 -17 -37 -6 -39 -9 -38 -38 2 -27 7 -33 32 -38 l30 -6 -32 -2 c-31 -1 -62
27 -46 43 3 3 2 6 -4 6 -6 0 -8 12 -5 28 4 22 3 25 -9 16 -23 -19 -98 -28
-114 -14 -8 7 -15 9 -15 5 0 -4 -7 -2 -15 5 -11 9 -15 10 -15 1 0 -7 -7 -19
-15 -27 -13 -14 -15 -13 -15 3 0 10 -10 23 -22 28 -13 6 -24 20 -26 33 -3 22
-4 22 -180 21 -97 -1 -164 -4 -148 -8 40 -8 57 -38 33 -56 -10 -7 -14 -16 -8
-19 8 -5 8 -26 1 -46 -1 -3 -2 -8 -1 -12 0 -5 -91 -8 -203 -8 -198 0 -204 1
-209 21 -7 25 2 51 13 44 5 -3 3 9 -3 25 -9 25 -9 33 2 39 18 12 -10 20 -64
19 -37 0 -38 -1 -15 -11 14 -5 29 -9 34 -8 5 1 6 -8 2 -21 -3 -13 -6 -42 -6
-65 l0 -43 -105 0 c-63 0 -105 4 -105 10 0 6 4 10 8 10 5 0 7 22 5 50 -1 27 2
52 7 55 6 4 28 6 49 7 21 0 44 4 50 8 7 4 -41 8 -106 9 -64 1 -115 0 -112 -3
3 -3 20 -6 37 -8 38 -3 46 -21 38 -89 -2 -24 -5 -45 -5 -46 -1 -2 -50 -3 -109
-3 -97 0 -109 2 -109 18 0 9 5 20 11 24 7 5 5 8 -6 8 -20 0 -27 -27 -16 -59 5
-14 7 -30 4 -38 -3 -7 -1 -13 4 -13 6 0 10 6 10 14 0 16 63 23 152 18 l53 -4
-5 -79 c-4 -59 -2 -79 8 -79 6 0 12 9 12 19 0 11 4 23 10 26 5 3 7 19 3 35 -3
16 -2 41 1 55 6 24 8 25 96 25 106 0 111 -4 103 -98 -5 -56 -4 -62 14 -62 16
0 18 6 15 41 -3 23 1 59 8 80 l13 38 206 0 c139 1 201 -2 191 -9 -8 -5 -10
-10 -5 -10 6 0 9 -19 6 -46 -2 -28 1 -49 8 -54 24 -14 -1 -38 -52 -47 l-52
-10 66 -2 c53 -1 68 2 73 15 3 9 4 20 0 25 -5 9 -1 10 36 13 10 0 24 6 30 12
15 15 9 59 -7 60 -7 1 -20 2 -28 3 -45 4 41 51 92 51 15 0 16 -2 3 -10 -12 -8
-10 -10 11 -10 14 0 33 -6 43 -13 16 -12 16 -14 1 -42 l-17 -30 5 28 c3 20 1
25 -6 18 -6 -6 -11 -22 -13 -36 -2 -23 9 -31 39 -26 15 2 6 -28 -10 -33 -43
-12 -125 -10 -134 5 -7 12 -9 12 -9 -1 0 -12 -2 -12 -9 -2 -6 11 -10 10 -15
-4 -3 -9 -5 -19 -3 -21 2 -2 80 -6 173 -8 178 -6 288 -15 267 -22 -7 -3 -13
-9 -13 -14 0 -6 4 -7 10 -4 5 3 18 2 27 -4 12 -7 -210 -11 -697 -12 -393 0
-722 -1 -730 -1 -10 0 -15 -10 -16 -34 l-1 -34 115 0 c100 0 113 -2 108 -16
-3 -9 -6 -24 -6 -35 0 -11 -7 -19 -17 -19 -13 0 -14 -3 -6 -8 13 -8 17 -28 15
-79 l-2 -33 -115 0 c-70 0 -115 -4 -115 -10 0 -6 43 -10 110 -10 l110 0 0 -42
c0 -46 -26 -331 -35 -385 l-6 -33 -109 0 c-68 0 -111 -4 -116 -11 -4 -7 21
-10 82 -9 141 3 146 2 140 -17 -3 -10 -8 -54 -11 -98 -3 -43 -11 -86 -18 -93
-9 -12 -32 -13 -114 -8 -81 5 -103 4 -103 -6 0 -10 26 -12 111 -10 l112 3 -7
-48 c-4 -26 -9 -70 -12 -98 -3 -27 -11 -101 -20 -164 -13 -106 -13 -133 2
-118 3 3 12 59 20 124 7 65 19 159 26 208 l13 90 104 3 103 3 -5 -28 c-4 -15
-13 -93 -22 -173 -27 -249 -26 -245 -58 -242 -15 1 -27 -2 -27 -8 0 -5 11 -10
25 -10 16 0 25 -6 25 -15 0 -8 5 -15 10 -15 6 0 13 7 16 15 5 12 24 15 88 15
70 0 83 -3 94 -20 7 -12 23 -20 40 -20 21 0 24 2 12 10 -11 8 -7 9 15 4 26 -6
28 -5 17 8 -11 14 -4 16 68 13 44 -1 83 -5 87 -8 6 -7 -15 -188 -23 -197 -7
-6 -1796 0 -1806 7 -5 2 -9 -6 -9 -19 -1 -13 -3 -32 -5 -43 -3 -20 -9 -83 -18
-210 -3 -38 -10 -116 -16 -172 -20 -205 -30 -310 -36 -396 -6 -76 -9 -87 -23
-83 -14 5 -14 5 -1 -6 22 -19 14 -57 -11 -51 -10 3 -19 10 -19 16 0 13 -286
297 -299 297 -5 0 -13 5 -17 12 -5 7 -3 8 7 3 12 -8 12 -6 0 8 -13 17 -52 23
-64 11 -3 -3 5 -23 18 -43 13 -20 31 -67 40 -106 15 -58 24 -76 56 -105 33
-29 42 -46 53 -100 8 -36 17 -77 21 -93 6 -22 4 -26 -9 -21 -9 3 -16 3 -16 0
0 -4 12 -11 26 -16 44 -17 22 -35 -52 -40 -56 -5 -62 -7 -34 -11 29 -5 -20 -9
-105 -9 -3 0 -5 3 -5 6 0 4 12 8 28 9 28 2 92 31 92 41 0 5 -24 -1 -59 -14
-10 -4 -12 -1 -6 8 6 10 3 12 -16 6 -74 -21 -92 -14 -60 25 19 24 15 51 -17
113 -11 21 -11 27 -2 21 10 -6 11 -2 6 18 -3 14 -2 29 4 32 5 3 10 11 10 16 0
6 -4 8 -9 5 -14 -9 -22 24 -11 42 9 14 10 13 5 -5 -4 -14 -2 -23 5 -23 6 0 10
17 10 38 -1 20 1 56 3 80 2 23 1 45 -4 47 -4 3 -1 26 8 51 13 38 13 48 2 54
-11 7 -9 13 6 31 l20 22 -25 -8 -25 -7 24 25 c26 29 20 51 -12 41 -12 -3 -19
-3 -15 1 13 14 -13 47 -32 42 -11 -3 -26 3 -36 14 -9 10 -21 16 -26 13 -5 -4
-16 2 -23 13 -8 12 -27 20 -51 21 -21 2 -40 4 -41 6 -2 2 -5 21 -7 42 -3 21
-7 46 -11 55 -5 12 1 15 27 14 85 -5 160 -7 240 -6 l87 1 5 33 c3 17 7 92 9
165 3 115 2 132 -12 132 -13 0 -13 2 -2 9 11 7 10 11 -5 21 -13 8 -14 10 -3 7
9 -3 22 -1 30 4 8 5 -53 9 -158 9 -94 0 -174 3 -176 8 -3 4 -2 31 0 60 l6 52
98 0 99 0 1 -57 2 -58 10 58 10 58 101 -1 c56 -1 106 -1 111 -1 6 1 11 34 12
74 4 141 25 311 42 336 9 15 11 22 3 18 -8 -6 -12 -2 -12 12 0 20 6 21 100 21
l100 0 0 -32 c0 -18 -7 -105 -15 -193 -15 -166 -18 -221 -11 -214 3 2 12 79
21 169 8 91 18 189 21 218 l6 53 101 -3 102 -3 -3 -63 c-2 -35 -7 -88 -11
-118 -4 -30 -4 -54 0 -54 9 0 18 52 27 161 l7 74 115 6 115 5 -114 2 -114 2 7
93 c10 138 0 127 127 127 67 0 109 4 109 10 0 7 -40 10 -106 9 -58 0 -108 2
-111 5 -5 5 1 75 35 381 l7 60 108 3 c107 3 144 -10 66 -22 -47 -8 -46 -14 3
-25 33 -8 34 -7 47 32 8 28 9 43 2 50 -8 8 -11 7 -11 -1 0 -9 -30 -12 -105
-12 l-105 0 0 43 c0 23 4 47 8 54 4 6 32 13 62 16 l55 3 -59 2 c-48 2 -57 5
-52 18 3 9 6 22 6 30 0 11 20 14 94 14 84 0 94 -2 91 -17 -13 -63 -12 -103 1
-103 7 0 16 11 20 25 3 14 11 25 18 25 8 0 8 2 -1 8 -6 4 -9 19 -6 34 3 15 9
25 14 22 5 -3 9 0 9 5 0 23 19 9 38 -27 16 -32 19 -53 15 -142 -4 -117 13
-111 23 8 7 90 11 102 37 102 13 0 32 7 44 15 20 14 21 13 25 -31 2 -25 0 -48
-3 -50 -14 -8 -16 -43 -3 -48 12 -5 34 30 57 94 3 9 6 10 6 3 1 -20 59 -15 81
7 11 11 20 22 20 25 0 3 -21 5 -46 5 -30 0 -43 -4 -38 -11 4 -8 0 -8 -15 0
-19 11 -21 9 -21 -14 0 -14 -4 -25 -9 -25 -11 0 -18 59 -11 91 l6 24 8 -25 c7
-22 9 -19 18 27 9 49 13 54 51 72 38 17 128 81 114 81 -3 0 -23 -10 -44 -22
l-38 -23 28 34 c26 32 36 74 19 85 -12 7 -82 -13 -82 -24 0 -13 -77 -32 -98
-26 -13 4 -18 0 -19 -14 -3 -31 -27 -60 -42 -51 -9 6 -10 11 -2 15 19 12 12
24 -11 18 -14 -3 -19 -1 -14 6 4 7 -6 10 -29 9 -30 -2 -35 -5 -31 -21 3 -10
-1 -27 -7 -37 -12 -19 -42 -26 -50 -11 -2 4 -2 1 -1 -5 5 -19 -1 -17 -61 22
-30 19 -55 32 -55 29 0 -7 58 -56 82 -70 36 -20 -126 -33 -427 -35 -601 -3
-1131 -1 -1172 4 -27 3 -44 1 -47 -6 -3 -8 -7 -9 -13 -2 -5 6 -79 11 -180 12
l-173 1 0 -36 0 -37 90 3 90 3 0 -28 c0 -15 4 -35 9 -42 8 -12 11 -8 16 15 4
16 8 34 10 39 5 14 -6 -147 -11 -163 -3 -11 -28 -13 -109 -10 l-105 3 0 -32
c0 -31 2 -33 35 -33 46 0 48 27 3 33 -18 2 15 5 74 5 l107 2 -6 -112 c-3 -62
-8 -162 -12 -223 l-6 -110 -108 0 c-59 0 -107 -3 -107 -7 0 -4 46 -9 103 -10
l102 -3 3 -65 c2 -36 0 -84 -3 -107 l-6 -43 -105 0 c-68 0 -104 -4 -104 -11 0
-7 34 -9 103 -7 l102 3 -4 -120 c-2 -66 -6 -163 -10 -215 l-6 -95 -102 -3
c-62 -2 -103 -7 -103 -13 0 -6 34 -10 88 -9 48 1 93 1 101 1 11 -1 13 -22 9
-111 -2 -60 -1 -110 3 -110 4 0 11 51 15 113 l9 112 95 0 95 0 3 -37 c3 -31
-2 -42 -30 -67 -18 -17 -38 -31 -44 -31 -16 0 -64 -43 -64 -57 0 -6 -13 -21
-30 -33 -18 -13 -30 -30 -30 -44 0 -48 -33 -53 -228 -40 -72 6 -92 10 -95 23
-3 10 -5 8 -6 -6 -1 -21 -6 -23 -51 -23 -27 0 -50 4 -50 8 0 9 45 125 61 157
5 11 11 45 12 76 2 47 -3 63 -32 111 -39 65 -81 89 -154 90 -35 1 -52 -5 -77
-25 -17 -15 -35 -27 -38 -27 -13 0 -60 -86 -66 -122 -6 -35 -10 -38 -63 -53
-80 -23 -127 -72 -143 -148 l-11 -57 -209 0 -208 0 19 37 c10 21 19 49 19 63
0 14 4 30 9 36 5 5 5 34 1 64 -4 30 -4 82 0 115 16 123 -49 183 -183 173 -83
-7 -124 -28 -170 -88 -41 -54 -42 -69 -12 -170 8 -25 18 -67 23 -95 5 -28 13
-49 19 -48 17 4 38 -66 25 -79 -7 -7 -115 -8 -344 -2 l-333 9 -3 93 -3 92 -68
0 c-50 0 -72 4 -81 16 -33 39 -94 62 -164 62 -39 0 -82 -4 -97 -8 -31 -9 -38
0 -31 38 4 23 7 23 98 20 52 -2 94 0 94 5 0 4 -42 7 -94 7 -52 0 -97 3 -99 8
-3 4 -6 99 -8 212 l-4 205 100 6 100 5 -102 2 -103 2 -2 80 c-1 44 -2 90 -2
102 -1 17 6 24 29 29 30 7 30 7 3 8 -16 1 -29 8 -32 19 -2 9 -6 109 -8 222
l-3 205 100 6 100 5 -102 2 -103 2 0 95 0 95 63 1 c34 1 72 0 84 0 11 -1 24 3
28 9 6 9 10 9 16 -1 6 -10 9 -7 9 11 l0 25 -222 -2 c-123 -1 -445 -4 -715 -6
-271 -2 -495 -2 -497 1 -3 2 -22 6 -43 8 -27 2 -34 1 -23 -6 13 -8 13 -10 -2
-10 -9 0 -19 6 -21 13 -4 10 -6 10 -6 0 -1 -8 -14 -13 -32 -13 -18 0 -28 4
-24 10 4 7 -24 10 -84 8 -49 -1 -88 -5 -86 -8 2 -3 -5 -6 -15 -7 -11 -1 -19 4
-17 10 1 8 -12 11 -43 9 -25 -2 -46 -5 -47 -6 -2 -1 3 -17 10 -35 l12 -32 86
7 c106 8 100 14 114 -118 l7 -68 -107 0 c-82 0 -105 -3 -101 -12 3 -7 9 -21
12 -30 5 -13 17 -18 43 -17 l36 1 -32 9 c-49 14 -50 29 -1 30 48 1 142 -2 145
-4 1 -1 6 -74 12 -162 6 -88 14 -181 17 -207 l6 -48 -101 0 c-74 0 -101 -3
-101 -12 0 -10 26 -13 97 -13 l98 0 9 -93 c5 -51 6 -95 2 -99 -3 -4 -49 -6
-101 -4 -102 2 -107 -1 -80 -49 16 -28 20 -19 5 11 -10 18 -7 19 84 19 112 0
102 16 112 -185 4 -77 11 -151 15 -165 9 -25 4 137 -7 278 l-6 72 90 0 c78 0
91 -2 96 -17 2 -10 8 -87 11 -171 4 -84 12 -155 17 -158 9 -6 6 105 -8 279
l-5 68 88 -3 c86 -3 88 -4 91 -28 1 -14 6 -83 11 -153 9 -119 14 -147 25 -136
3 2 1 58 -3 124 -4 66 -4 130 0 142 5 13 4 25 -1 28 -27 17 -1 25 79 25 104 0
101 4 102 -113 0 -45 4 -102 9 -127 6 -30 7 4 4 98 l-6 143 94 -3 93 -3 7
-124 c4 -69 10 -130 13 -135 3 -6 2 51 -1 127 l-6 138 94 -3 93 -3 3 -84 c2
-46 7 -100 11 -120 8 -30 9 -21 12 54 1 50 2 105 0 123 l-2 33 93 -3 93 -3 3
-177 c1 -107 6 -178 12 -178 6 0 8 66 3 180 l-6 180 91 0 c50 0 93 -3 96 -8 2
-4 8 -101 12 -215 l7 -207 -59 -2 -59 -1 55 -6 55 -6 3 -46 c3 -41 -1 -51 -34
-88 -31 -34 -43 -41 -76 -41 -21 0 -38 5 -38 10 0 6 -6 5 -14 -2 -8 -7 -10
-14 -5 -16 14 -5 11 -52 -3 -52 -10 0 -10 -2 0 -9 22 -13 11 -54 -15 -56 -28
-2 -30 3 -32 94 -2 52 2 77 11 82 10 7 9 9 -4 9 -16 0 -18 -12 -18 -121 0 -77
4 -118 10 -114 6 3 10 12 10 20 0 15 19 24 38 18 13 -5 17 -53 5 -53 -5 0 -15
4 -23 10 -19 12 -40 -6 -40 -34 -1 -19 -4 -17 -30 13 -16 19 -26 39 -23 44 4
6 1 7 -6 3 -8 -5 -14 0 -18 13 -3 11 -9 18 -14 15 -5 -3 -19 6 -31 19 -28 29
-68 52 -87 48 -7 -1 -10 2 -7 7 6 10 -53 36 -62 27 -3 -3 0 -5 6 -5 7 0 12 -5
12 -11 0 -7 -7 -8 -17 -4 -10 4 -28 8 -40 8 -13 1 -23 5 -23 9 0 4 -9 8 -20 8
-11 0 -20 5 -20 11 0 5 -4 8 -9 4 -5 -3 -13 0 -17 6 -4 8 3 9 27 5 32 -7 33
-6 15 9 -11 8 -23 15 -28 15 -4 0 -8 12 -8 26 0 36 -17 64 -40 64 -20 0 -40
-27 -40 -55 0 -9 -12 -27 -27 -40 l-28 -24 25 -1 c15 0 20 -4 15 -9 -10 -10
-503 -2 -1260 18 -203 6 -489 13 -635 16 -146 3 -379 8 -517 11 -213 6 -253 5
-253 -7 0 -8 9 -93 20 -189 11 -96 20 -178 20 -182 0 -12 -264 3 -277 16 -6 6
-18 81 -26 166 -9 85 -25 241 -37 345 -42 391 -56 545 -48 545 4 0 8 9 8 21 0
12 4 17 11 14 5 -4 8 -19 5 -33 -3 -15 1 -40 9 -57 13 -27 14 -17 8 105 -3 74
-7 138 -9 141 -5 8 -7 209 -2 214 2 2 32 7 67 10 35 3 82 9 105 14 22 4 68 4
101 1 33 -3 71 -2 86 3 28 8 245 -6 256 -17 4 -4 10 -31 14 -59 l6 -52 2 63
c0 39 5 61 11 57 6 -3 10 0 10 7 0 8 3 9 8 3 4 -6 63 -12 137 -13 162 -3 349
-12 354 -18 2 -2 10 -64 17 -136 31 -326 44 -460 65 -705 l23 -263 182 0 c100
0 195 -3 212 -6 l30 -6 1 56 c0 30 -4 58 -9 61 -20 12 -9 27 15 23 32 -6 75
34 76 71 3 54 -3 156 -9 166 -4 6 -8 39 -9 74 -1 35 -7 69 -13 76 -6 7 -12 64
-15 126 -2 63 -9 136 -14 162 -9 51 -5 87 10 87 14 0 11 20 -6 36 -8 9 -15 25
-14 37 1 21 2 20 10 -3 7 -21 8 -20 4 10 -2 19 -6 49 -9 65 -5 27 -5 27 3 5
12 -35 13 -14 1 145 -29 393 -37 610 -27 743 l4 52 -664 0 c-372 0 -661 -4
-658 -9 9 -16 -22 -20 -50 -5 -15 8 -39 14 -54 14 -22 -1 -24 -2 -10 -13 25
-19 29 -54 9 -72 -39 -35 -90 21 -61 67 11 17 -7 18 -555 18 -380 0 -563 -3
-559 -10z m11023 -20 c19 -9 32 -22 32 -34 0 -12 -5 -16 -15 -12 -24 9 -43 -3
-38 -25 4 -15 0 -22 -16 -26 -11 -3 -21 -10 -21 -15 0 -5 -27 -8 -60 -7 -56 2
-60 4 -60 26 0 14 5 33 10 44 12 22 35 26 26 4 -3 -8 0 -15 7 -15 16 0 20 40
5 57 -5 7 -15 10 -21 6 -5 -3 -8 -2 -4 3 8 14 119 10 155 -6z m-9872 -186 c19
-15 19 -16 -1 -10 -20 6 -20 6 -1 -9 23 -17 51 -2 41 23 -5 13 -3 13 11 1 15
-12 16 -11 9 11 -7 22 -6 23 8 8 20 -20 12 -64 -9 -47 -10 8 -12 6 -9 -10 6
-31 14 -41 33 -40 15 1 15 2 0 6 -10 2 -18 9 -18 14 0 13 24 11 38 -3 9 -9 15
-9 25 1 10 10 8 11 -8 5 -17 -6 -18 -5 -7 7 11 12 15 11 26 -4 18 -24 20 -103
2 -88 -19 16 -28 0 -11 -19 15 -16 13 -19 -20 -38 l-35 -21 -1 27 -2 27 -4
-27 c-6 -42 -63 -35 -63 8 0 13 -5 24 -11 24 -7 0 -9 -10 -5 -25 7 -29 -1 -31
-32 -9 -15 11 -22 25 -22 50 0 19 -4 34 -10 34 -5 0 -10 7 -10 16 0 9 -9 28
-20 44 -16 23 -17 30 -6 39 11 9 15 7 19 -10 3 -11 15 -23 27 -26 12 -3 19
-11 16 -18 -3 -8 2 -11 15 -8 25 7 35 23 15 23 -9 0 -16 5 -16 11 0 5 5 7 12
3 7 -4 8 -3 4 5 -6 8 -12 9 -20 2 -9 -8 -18 -6 -32 4 -18 14 -17 15 11 13 27
-3 30 0 27 22 -1 16 1 20 6 12 5 -6 17 -19 28 -28z m10066 21 c5 -6 8 -5 8 2
0 9 18 12 60 11 33 -1 60 -5 60 -10 0 -4 7 -8 15 -8 8 0 15 5 15 10 0 6 14 10
31 10 20 0 28 -4 23 -12 -5 -8 -2 -9 9 -5 10 3 17 2 17 -3 0 -6 9 -10 20 -10
11 0 20 -4 20 -10 0 -5 -7 -10 -15 -10 -9 0 -12 -6 -8 -17 5 -16 4 -15 -9 1
-20 25 -65 15 -71 -17 -4 -19 -4 -18 -6 6 -1 28 -7 32 -30 18 -7 -5 -10 -14
-6 -21 4 -7 -1 -13 -14 -17 -28 -7 -16 -23 17 -23 45 0 58 -15 24 -29 -31 -13
-190 -12 -199 2 -2 4 -14 5 -24 2 -11 -4 -26 -1 -34 5 -10 8 -19 8 -34 0 -12
-6 -21 -7 -21 -2 0 15 44 29 70 22 27 -7 60 4 60 21 0 5 -11 7 -25 3 -20 -5
-27 -1 -36 20 -7 14 -16 23 -20 20 -5 -3 -9 7 -8 23 0 15 3 22 6 16 3 -10 8
-9 19 2 17 16 74 16 86 0z m-3358 -301 c3 -8 10 -12 16 -9 5 3 10 -1 10 -10 0
-9 -4 -13 -10 -10 -6 4 -8 -18 -4 -60 3 -45 2 -65 -5 -60 -6 3 -9 0 -6 -7 11
-31 -10 -39 -101 -36 l-89 3 4 90 c2 50 4 91 5 92 1 1 36 3 79 4 42 1 77 6 77
10 0 15 18 10 24 -7z m694 -84 c-3 -48 -8 -93 -12 -99 -5 -7 -43 -11 -102 -11
-90 0 -98 3 -96 31 8 79 11 119 11 141 l1 27 88 3 c48 2 93 1 101 -1 11 -3 13
-23 9 -91z m1954 83 c-5 -10 -12 -42 -15 -70 -4 -43 -3 -53 10 -53 11 0 14 8
11 35 -2 19 -1 35 3 35 4 0 10 10 12 23 3 12 2 -5 0 -38 -2 -33 -7 -73 -11
-90 l-6 -30 -7 25 -7 25 -1 -26 c-1 -26 -3 -27 -67 -28 -104 -1 -114 3 -114
54 0 26 6 50 16 59 8 9 13 16 11 16 -2 0 -2 15 2 33 7 32 7 32 76 38 39 3 76
6 83 7 9 1 10 -3 4 -15z m693 -65 c-3 -70 -7 -83 -25 -93 -11 -6 -18 -14 -14
-17 10 -10 -56 -19 -106 -15 l-45 4 3 44 c2 24 7 47 10 51 10 10 73 13 100 4
19 -6 22 -4 21 16 0 13 -3 18 -5 12 -3 -7 -14 -10 -24 -7 -26 7 -29 63 -4 63
11 0 14 -5 9 -17 -5 -14 -3 -15 6 -6 6 6 17 9 23 7 7 -3 21 4 31 15 11 11 21
20 22 20 1 1 1 -36 -2 -81z m-7026 -51 l2 -93 -91 -3 c-68 -2 -91 1 -94 11 -3
7 -7 50 -9 95 -6 95 -7 93 88 93 37 0 67 5 71 12 16 26 32 -26 33 -115z m3897
117 l35 -6 -6 -87 c-3 -47 -9 -89 -14 -94 -4 -4 -50 -6 -102 -5 l-94 3 3 80
c5 116 2 112 78 114 36 1 81 -1 100 -5z m259 -81 c-4 -49 -8 -94 -11 -101 -3
-9 -28 -12 -101 -10 l-98 3 3 85 c1 47 5 91 7 98 3 8 34 12 105 12 l101 0 -6
-87z m451 -5 c-3 -51 -11 -95 -17 -99 -17 -10 -187 -11 -193 0 -3 5 -3 50 1
100 l6 91 104 0 104 0 -5 -92z m228 84 c3 -5 2 -48 -1 -95 l-6 -87 -104 0
-105 0 7 88 c4 48 9 90 12 95 6 10 191 9 197 -1z m1291 -69 c-4 -43 -9 -86
-11 -95 -7 -25 -41 -31 -131 -21 l-78 8 3 30 c1 17 8 58 14 93 l12 62 99 0 99
0 -7 -77z m428 71 c35 -6 49 -28 30 -47 -4 -4 -5 -32 -4 -63 1 -32 -3 -61 -9
-70 -13 -15 -83 -19 -140 -8 -31 7 -32 8 -26 48 11 86 19 121 29 134 10 13 60
15 120 6z m263 -17 c12 -11 -5 -37 -30 -47 -14 -5 -41 -6 -60 -3 -24 4 -36 2
-36 -6 0 -6 19 -12 45 -12 25 -1 50 -3 55 -4 6 -1 15 -3 20 -4 6 0 8 -12 5
-26 -3 -14 -7 -37 -10 -51 l-6 -25 -100 2 -101 3 7 50 c7 54 16 66 55 66 19 0
21 3 12 12 -7 7 -12 22 -12 34 0 17 7 23 28 26 33 4 119 -6 128 -15z m-7452
-3 c12 -12 16 -37 16 -105 l0 -89 -89 0 -88 0 -7 31 c-3 17 -6 60 -6 95 l0 64
69 0 c39 0 73 5 76 10 8 13 11 13 29 -6z m4092 1 c-3 -8 -1 -15 3 -15 5 0 11
6 14 13 3 6 5 -19 5 -56 1 -38 -3 -80 -8 -93 -9 -23 -14 -24 -99 -24 -49 0
-93 4 -96 10 -3 5 -3 48 1 95 l7 85 89 0 c76 0 89 -2 84 -15z m-3882 -6 c2 -2
7 -46 11 -96 l8 -93 -97 0 -96 0 -2 78 c0 42 -2 84 -2 92 -1 11 13 16 49 20
59 6 122 6 129 -1z m210 3 c2 -4 6 -48 7 -97 l2 -90 -94 0 -94 0 -3 84 c-2 46
-1 90 2 98 4 9 29 13 90 13 47 0 87 -4 90 -8z m416 -4 c0 -7 3 -50 6 -95 l6
-83 -95 0 -95 0 -7 86 c-5 68 -4 88 6 95 23 14 179 11 179 -3z m210 -15 c0
-16 3 -59 7 -96 l6 -68 -99 3 -99 3 -3 93 -3 92 96 0 95 0 0 -27z m-1247 10
c3 -4 8 -47 12 -95 l7 -88 -90 0 c-105 0 -102 -3 -102 109 l0 78 84 2 c46 1
86 -2 89 -6z m8267 -54 c25 -6 54 -12 65 -13 18 -1 21 -7 17 -36 -1 -5 -20 -9
-42 -8 -21 1 -46 -4 -54 -11 -8 -7 -19 -10 -24 -7 -5 3 -16 -4 -26 -16 -15
-17 -20 -18 -27 -7 -6 10 -9 10 -9 2 0 -7 -6 -13 -12 -13 -9 0 -12 15 -9 51 4
68 30 80 121 58z m-3517 -126 c6 -9 -20 -419 -28 -440 -5 -16 -205 -19 -205
-3 0 28 21 321 26 358 5 39 8 42 35 42 39 0 37 16 -3 25 -25 5 -29 8 -16 13
27 11 185 14 191 5z m223 -120 c-11 -199 -25 -316 -39 -325 -6 -4 -54 -8 -106
-8 l-94 0 6 58 c4 31 11 129 18 217 6 88 12 166 15 173 2 8 32 12 105 12 l102
0 -7 -127z m228 118 c6 -10 -52 -24 -65 -15 -5 3 -9 -2 -9 -12 0 -12 6 -15 21
-11 39 10 49 -2 49 -57 -1 -73 -27 -336 -35 -344 -3 -3 -49 -8 -102 -10 l-96
-4 7 109 c8 131 26 323 31 341 5 14 190 18 199 3z m229 2 c5 -8 -4 -134 -24
-330 l-11 -111 -57 -7 c-69 -7 -140 -4 -147 6 -5 9 25 391 32 398 2 2 17 4 34
5 44 1 48 26 5 26 -19 0 -35 5 -35 10 0 12 196 14 203 3z m227 -27 c0 -43 -29
-363 -35 -393 -5 -20 -12 -22 -97 -25 -58 -2 -96 1 -103 8 -8 8 -5 69 11 225
12 118 22 215 23 217 0 1 46 2 101 2 l100 0 0 -34z m-4608 -61 c3 -44 9 -188
13 -320 4 -132 8 -244 9 -250 0 -6 -36 -10 -94 -10 l-95 0 -1 103 -1 102 46 2
46 1 -50 6 -50 6 -6 195 c-5 200 -3 215 34 206 9 -2 17 0 17 5 0 5 -11 9 -24
9 -14 0 -27 4 -31 9 -5 10 53 16 140 16 l40 0 7 -80z m202 77 c4 -7 14 -318
20 -617 l1 -40 -91 -3 -91 -3 -6 53 c-4 29 -7 77 -7 106 0 52 0 52 33 54 l32
1 -31 4 -31 4 -7 106 c-3 58 -6 157 -6 219 0 99 2 113 18 117 31 8 161 7 166
-1z m3056 -17 c0 -51 -21 -381 -26 -402 -4 -22 -9 -23 -99 -23 -51 0 -96 4
-99 9 -6 9 6 218 20 374 l6 67 99 0 c99 0 99 0 99 -25z m178 18 c-45 -5 -54
-33 -10 -33 51 0 52 -3 42 -165 -15 -229 -15 -232 -52 -239 -47 -9 -156 -7
-163 4 -5 9 7 239 21 378 l6 62 97 -2 c53 -1 79 -3 59 -5z m2462 -8 c0 -9 -7
-18 -16 -22 -12 -4 -13 -8 -3 -13 9 -6 8 -44 -5 -177 -10 -92 -20 -180 -23
-195 l-5 -28 -105 0 -104 0 6 43 c3 23 10 80 15 127 19 178 24 205 38 219 10
10 11 16 3 19 -6 2 -11 12 -11 23 0 18 8 19 105 19 88 0 105 -3 105 -15z m129
-7 c-7 -13 -17 -26 -23 -30 -8 -6 -7 -8 1 -8 6 0 15 5 18 10 3 6 26 10 51 10
53 0 51 17 24 -215 -11 -93 -20 -176 -20 -182 0 -10 -28 -13 -106 -13 l-106 0
6 38 c7 42 33 256 43 350 l6 62 59 0 c58 0 59 0 47 -22z m326 12 c3 -5 -3 -15
-15 -22 -24 -15 -26 -28 -5 -28 9 0 15 -9 15 -21 0 -29 -39 -351 -45 -366 -3
-8 -23 -13 -52 -13 -64 0 -124 11 -118 21 3 4 2 10 -3 13 -8 5 -6 22 19 181 6
39 12 95 14 126 2 66 10 82 36 74 14 -5 19 -2 19 13 0 10 3 22 7 25 10 11 121
8 128 -3z m59 -6 c5 -14 7 -14 22 1 12 12 32 15 83 13 73 -3 85 -17 31 -35
l-35 -12 33 -7 33 -7 -7 -61 c-4 -33 -14 -122 -23 -196 l-16 -135 -100 0 -100
0 1 25 c1 28 19 186 33 295 6 38 14 71 20 73 6 2 11 10 11 18 0 9 -4 12 -10 9
-12 -7 -12 -3 -4 19 8 20 20 20 28 0z m-7290 0 c25 -4 46 -10 46 -14 0 -5 -9
-6 -20 -3 -12 3 -20 0 -20 -6 0 -7 5 -9 10 -6 6 3 10 1 10 -4 0 -6 6 -10 12
-8 9 1 16 -47 25 -183 7 -102 10 -191 8 -198 -3 -9 -28 -12 -92 -10 l-88 3 -6
85 c-4 47 -10 142 -14 212 -6 117 -5 127 12 131 28 7 66 8 117 1z m257 -44 c4
-25 10 -123 14 -217 l7 -173 -90 0 c-78 0 -91 2 -96 18 -2 9 -8 96 -11 193
l-7 176 23 8 c13 4 31 6 39 6 13 -2 13 -1 0 8 -8 6 -26 11 -40 11 -19 0 -22 2
-11 9 8 6 49 9 90 8 l76 -2 6 -45z m211 -50 c3 -52 7 -149 8 -215 l2 -120 -90
-3 c-86 -3 -90 -2 -95 20 -3 13 -9 112 -13 221 l-7 198 94 -3 94 -3 7 -95z
m198 90 c0 -5 -7 -10 -15 -10 -12 0 -11 -4 5 -20 16 -16 20 -33 20 -88 0 -38
3 -124 7 -190 l6 -122 -96 0 -95 0 -6 83 c-3 45 -7 144 -10 220 l-4 137 94 0
c56 0 94 -4 94 -10z m6930 -3 c0 -7 -4 -19 -9 -27 -14 -20 -2 -33 16 -18 9 7
29 13 45 14 l29 2 -5 -66 c-3 -36 -10 -93 -16 -126 -5 -34 -11 -81 -14 -106
-3 -25 -9 -58 -14 -75 l-8 -30 -93 -3 -92 -3 6 48 c3 26 10 80 15 118 5 39 14
107 21 151 l11 81 38 -2 c30 -2 37 0 33 11 -3 8 -10 14 -17 13 -29 -3 -46 2
-46 15 0 10 14 14 50 14 32 1 50 -3 50 -11z m446 7 c17 -4 23 -16 27 -52 5
-42 -8 -92 -23 -92 -4 0 -7 -7 -7 -15 0 -10 10 -15 29 -15 16 0 28 5 28 13 0
8 4 7 10 -3 9 -13 10 -13 10 0 0 13 1 13 10 0 16 -24 12 -40 -7 -33 -15 6 -16
4 -5 -9 12 -15 10 -95 -4 -173 -12 -63 -7 -60 -110 -63 l-95 -2 6 57 c14 142
37 301 46 329 5 18 9 36 8 40 -1 5 -1 12 0 17 1 8 47 9 77 1z m-8196 -13 c0
-6 4 -65 9 -133 6 -68 13 -161 16 -207 l6 -83 -90 3 c-49 2 -91 6 -94 9 -6 6
-33 396 -29 410 5 13 182 14 182 1z m8064 -123 c-11 -65 -36 -262 -37 -295 0
-9 -21 -13 -69 -13 -50 0 -67 3 -62 12 8 13 7 79 -1 119 -4 18 0 32 11 44 16
16 24 87 13 125 -2 8 3 14 11 15 8 0 15 10 16 21 2 36 14 44 60 42 24 0 47 2
50 5 17 17 19 -8 8 -75z m-8924 45 c0 -16 3 -45 6 -65 l7 -38 -151 0 c-169 0
-162 -4 -162 88 l0 42 150 0 150 0 0 -27z m9275 -82 c0 -51 -5 -95 -13 -110
-8 -16 -12 -49 -10 -84 2 -45 0 -57 -12 -57 -13 0 -13 -1 0 -10 23 -15 -20
-13 -53 3 -32 14 -34 35 -13 152 36 199 35 196 70 193 l31 -3 0 -84z m-9275
-41 c-13 -8 -12 -10 3 -10 10 0 16 -4 13 -8 -2 -4 1 -81 7 -170 l12 -162 -146
0 c-144 0 -147 0 -152 23 -10 40 -30 307 -24 313 3 3 59 6 124 6 65 -1 127 3
138 8 27 12 43 12 25 0z m6453 -229 c8 -1 6 -47 -9 -173 l-6 -48 -98 0 c-55 0
-101 3 -103 8 -3 4 0 53 6 109 l10 102 61 3 c52 3 101 2 139 -1z m-5560 -68
c4 -38 7 -85 7 -105 l0 -38 -77 0 c-43 0 -84 4 -92 9 -9 6 -16 39 -20 105 l-6
96 91 0 91 0 6 -67z m200 0 c4 -38 7 -84 7 -104 l0 -35 -89 -3 -88 -2 -7 32
c-3 17 -6 65 -6 105 l0 74 89 0 88 0 6 -67z m201 51 c3 -9 6 -56 6 -105 l0
-89 -84 0 c-47 0 -87 4 -90 8 -3 5 -8 39 -12 77 -7 64 -6 69 17 86 20 15 21
17 5 16 -10 -1 -21 4 -23 11 -4 9 18 12 85 12 73 0 91 -3 96 -16z m204 -91 l3
-103 -89 0 -89 0 -7 38 c-3 20 -6 68 -6 105 l0 68 93 -3 92 -3 3 -102z m200 0
l3 -103 -91 0 -90 0 -1 38 c-1 20 -3 68 -4 105 l-3 68 91 -3 92 -3 3 -102z
m3419 5 c-4 -66 -11 -104 -19 -110 -7 -4 -53 -8 -102 -8 l-89 0 7 102 c4 56 9
105 12 110 3 4 48 8 101 8 l96 0 -6 -102z m214 91 c12 -8 12 -10 -1 -18 -8 -5
-18 -7 -22 -5 -4 3 -8 -2 -8 -10 0 -9 5 -16 10 -16 6 0 10 -8 10 -17 0 -14 2
-15 9 -4 5 8 7 -14 4 -55 -3 -38 -10 -72 -15 -75 -5 -3 -50 -7 -100 -8 l-91
-2 6 108 c4 59 7 109 7 110 1 8 179 0 191 -8z m225 -91 c-4 -55 -9 -105 -12
-110 -5 -8 -187 -12 -195 -4 -2 2 -3 36 -1 75 3 50 8 71 17 71 7 0 19 8 26 17
13 15 12 16 -8 11 -17 -5 -23 -2 -23 11 0 29 9 31 108 31 l94 0 -6 -102z m228
10 c-9 -131 -6 -128 -118 -128 -51 0 -95 2 -97 5 -5 5 9 182 16 203 3 8 33 12
105 12 l100 0 -6 -92z m226 77 c0 -9 -9 -15 -22 -15 -20 0 -21 -1 -3 -20 15
-16 17 -31 12 -85 -2 -37 -7 -68 -9 -70 -2 -2 -48 -7 -102 -11 l-98 -7 7 104
c4 57 9 107 12 112 2 4 49 7 104 7 81 0 99 -3 99 -15z m224 -12 c-3 -16 -8
-64 -12 -108 l-7 -80 -97 -2 c-54 -1 -100 3 -104 8 -3 5 -2 41 2 79 5 49 11
70 20 70 8 0 14 4 14 9 0 5 8 12 18 14 10 3 6 5 -10 6 -18 1 -28 7 -28 16 0
12 18 15 105 15 l105 0 -6 -27z m1491 -70 c-8 -124 -6 -120 -78 -126 -34 -3
-73 -4 -87 -2 -14 2 -32 4 -41 4 -13 1 -14 12 -2 104 7 56 12 103 13 105 0 1
45 2 101 2 l101 0 -7 -87z m212 75 c-2 -7 -17 -13 -33 -13 -20 -1 -30 -6 -32
-19 -3 -15 0 -18 21 -12 14 3 29 1 32 -4 4 -6 11 -8 16 -5 11 8 11 -57 -1
-110 -7 -33 -8 -29 -4 23 4 43 3 62 -6 62 -6 0 -9 -4 -5 -10 10 -16 -6 -60
-22 -60 -10 0 -13 -6 -8 -17 3 -10 7 -22 8 -28 2 -12 -153 -20 -163 -8 -4 4
-1 51 6 103 7 52 13 98 13 103 1 4 42 7 92 7 68 0 90 -3 86 -12z m253 -9 c0
-5 -5 -53 -12 -105 l-11 -94 -89 0 c-82 0 -88 1 -88 21 0 11 -4 17 -10 14 -6
-4 -10 5 -10 20 0 14 6 28 14 31 8 3 18 19 21 35 4 17 13 29 22 29 11 0 14 8
11 30 l-5 30 79 0 c48 0 78 -4 78 -11z m224 -46 c-4 -32 -10 -78 -13 -103 l-6
-45 -104 -3 -104 -3 6 28 c3 15 8 57 12 93 4 36 8 71 10 78 3 8 33 12 105 12
l100 0 -6 -57z m183 43 c-26 -11 -46 -32 -47 -46 0 -3 19 -4 42 -2 35 4 40 2
35 -13 -4 -9 -7 -32 -7 -51 0 -20 -4 -33 -9 -30 -5 3 -14 -1 -21 -9 -11 -13
-10 -18 6 -30 17 -13 8 -14 -80 -15 l-98 0 5 28 c3 15 8 56 12 92 10 96 3 90
102 89 79 -1 85 -2 60 -13z m279 1 c4 -6 -23 -197 -29 -203 -4 -4 -33 -3 -64
2 l-58 9 -3 50 c-2 37 1 52 13 61 10 8 12 14 6 19 -16 9 -14 17 10 47 20 24
27 26 73 22 27 -3 51 -6 52 -7z m174 -9 c0 -9 3 -9 12 0 7 7 19 12 28 12 12 0
15 -9 12 -40 -2 -22 -8 -40 -14 -40 -5 0 -6 -9 -3 -21 4 -12 4 -40 0 -64 l-6
-44 -94 2 c-51 1 -96 5 -99 8 -3 3 -1 28 5 55 6 27 12 63 13 79 1 17 3 38 4
48 2 14 13 17 72 17 48 0 70 -4 70 -12z m175 -15 c-3 -50 -5 -53 -22 -53 -17
-1 -17 -1 0 -11 21 -13 23 -72 2 -93 -13 -13 -13 -15 3 -19 9 -3 -6 -5 -35 -6
-28 0 -54 3 -57 7 -8 13 11 84 25 92 8 6 10 23 6 53 -7 50 -3 55 49 56 28 1
31 -2 29 -26z m-4121 -182 c4 -6 -18 -403 -23 -428 -1 -2 -46 -3 -102 -3
l-101 0 6 68 c3 37 8 110 11 162 3 52 8 121 11 153 l6 57 93 0 c52 0 96 -4 99
-9z m202 -6 c4 -8 1 -21 -5 -29 -9 -11 -8 -17 4 -29 8 -9 15 -31 14 -49 -1
-31 -1 -32 -10 -8 -5 16 -7 -13 -5 -80 3 -77 2 -92 -4 -55 -6 37 -7 21 -5 -60
3 -71 1 -97 -4 -75 l-8 35 -2 -37 -1 -38 -90 0 -90 0 0 28 c0 48 21 387 25
400 7 19 174 17 181 -3z m237 8 c2 -5 -4 -102 -12 -218 l-16 -210 -94 -3 c-52
-1 -97 1 -101 5 -12 14 18 355 32 365 7 4 9 8 3 8 -5 0 -3 5 5 10 13 8 12 10
-2 10 -18 0 -24 20 -11 33 9 10 191 9 196 0z m224 -50 c-4 -32 -11 -121 -17
-198 -16 -205 -3 -185 -121 -185 l-101 0 6 58 c3 31 11 127 17 212 6 85 13
158 16 163 2 4 49 7 105 7 l101 0 -6 -57z m223 43 c0 -8 -5 -18 -11 -21 -6 -4
-7 -19 -4 -36 4 -15 1 -90 -6 -166 -7 -76 -13 -153 -14 -170 l0 -33 -103 0
-103 0 5 53 c3 28 11 122 17 207 5 85 12 161 14 168 7 19 205 17 205 -2z
m1924 -2 c9 -3 16 -10 16 -16 0 -5 -4 -6 -10 -3 -5 3 -10 1 -10 -4 0 -6 -7
-11 -15 -11 -8 0 -15 -7 -15 -16 0 -8 3 -13 8 -10 4 2 14 -1 23 -7 14 -11 13
-29 -7 -191 -13 -98 -26 -181 -29 -184 -3 -3 -5 0 -5 7 0 8 -5 9 -17 2 -16 -8
-162 -5 -172 4 -9 9 50 419 62 427 14 9 148 11 171 2z m242 -61 c-23 -196 -50
-369 -60 -376 -6 -4 -31 -5 -56 -2 -25 3 -65 6 -88 7 l-44 2 7 56 c4 30 9 64
10 75 1 11 3 22 5 25 1 3 2 19 1 35 -1 26 1 27 9 10 7 -15 9 -6 8 35 -3 99 1
120 17 114 8 -4 15 -1 15 5 0 6 7 11 15 11 8 0 15 9 15 21 0 11 -4 17 -10 14
-11 -7 -14 8 -3 18 3 4 42 7 86 7 l79 0 -6 -57z m234 40 c-1 -10 -13 -108 -28
-218 l-27 -200 -104 -3 -103 -3 6 38 c3 21 13 91 22 157 8 65 19 129 24 141 5
13 6 25 3 29 -3 3 -2 21 1 41 l7 35 99 0 c89 0 100 -2 100 -17z m173 11 c41
-7 51 -24 13 -24 -14 0 -32 -7 -40 -16 -19 -19 -22 -41 -3 -27 6 5 23 7 37 4
22 -6 24 -12 24 -53 -1 -25 -4 -51 -8 -57 -4 -6 -7 -21 -6 -34 1 -12 1 -26 0
-32 -2 -5 -4 -21 -5 -35 0 -14 -4 -41 -8 -60 -4 -19 -8 -48 -10 -65 l-4 -30
-97 -3 -98 -3 6 38 c3 21 15 110 26 198 29 225 21 205 83 205 28 0 69 -3 90
-6z m283 -36 c-4 -18 -11 -71 -17 -118 -9 -81 -23 -178 -34 -247 l-6 -33 -65
0 c-42 0 -66 4 -69 13 -5 13 28 284 40 327 3 14 6 39 6 55 l0 31 76 3 76 2 -7
-33z m224 10 c0 -21 -38 -317 -48 -372 l-7 -39 -91 -5 c-54 -2 -94 0 -98 6 -5
9 2 77 25 232 5 36 12 85 15 110 11 98 3 91 109 88 82 -3 95 -5 95 -20z m-744
-460 c-3 -17 -9 -62 -13 -100 l-6 -68 -102 0 -102 0 4 28 c3 15 7 34 10 42 3
8 5 27 4 43 -2 15 0 41 4 57 l7 30 100 0 101 0 -7 -32z m186 22 c25 -7 35 -15
32 -24 -3 -8 -14 -12 -25 -9 -12 3 -19 0 -19 -8 0 -11 -2 -12 -9 -1 -6 10 -12
5 -21 -18 -7 -17 -10 -33 -6 -37 3 -3 6 1 6 9 0 9 11 18 25 20 19 4 25 1 25
-13 0 -11 -4 -19 -9 -19 -5 0 -6 -20 -3 -45 4 -39 2 -45 -14 -46 -37 -2 -70
-2 -119 1 -41 2 -46 3 -25 10 17 5 19 8 8 9 -10 1 -18 9 -17 19 0 10 3 12 6 5
2 -7 9 -13 14 -13 6 0 8 4 5 9 -3 5 6 12 20 15 14 4 24 12 21 19 -4 11 -9 13
-50 16 -11 1 -15 6 -11 13 4 6 7 27 6 46 -1 19 1 39 4 43 7 12 111 11 156 -1z
m266 -51 c-3 -28 -9 -54 -14 -58 -6 -3 -9 -24 -9 -46 l0 -40 -50 1 c-82 3
-108 6 -98 13 6 3 12 18 15 33 4 20 0 29 -16 36 -20 9 -21 7 -17 -36 3 -42 2
-44 -13 -30 -18 19 -21 44 -6 53 6 4 8 10 5 15 -3 5 4 14 15 20 16 9 20 8 20
-5 0 -10 10 -15 33 -14 29 0 30 1 10 9 -22 9 -23 28 -1 56 4 6 6 19 2 28 -5
14 3 16 61 16 l68 0 -5 -51z m-9013 -74 c94 -3 395 -10 670 -15 621 -12 918
-20 923 -24 3 -4 22 -389 19 -392 -1 -1 -159 2 -352 6 -192 5 -491 12 -662 16
-268 6 -313 9 -313 22 0 12 -8 13 -37 8 -52 -10 -164 -7 -205 5 -30 8 -674 29
-833 27 -38 -1 -93 -1 -120 0 l-51 2 -13 153 c-7 83 -15 165 -18 181 l-6 29
414 -7 c228 -3 491 -9 584 -11z m3299 -283 c3 -4 -24 -27 -60 -50 -35 -23 -64
-46 -64 -51 0 -5 -19 -4 -42 2 -27 7 -43 7 -45 1 -2 -6 -18 -8 -36 -6 -35 4
-132 -42 -177 -83 -14 -13 -44 -28 -68 -35 -24 -6 -51 -13 -60 -16 -9 -3 7 7
36 21 28 14 52 28 52 31 0 3 -6 2 -12 -2 -10 -6 -10 -4 0 7 36 39 -7 161 -50
138 -12 -7 -17 -17 -13 -28 4 -15 -2 -19 -32 -24 -21 -3 -46 -8 -55 -12 -25
-10 -23 16 2 43 11 12 20 25 20 31 0 5 14 6 34 1 22 -5 38 -4 45 3 9 9 17 8
31 -1 27 -17 30 -16 30 13 l0 25 229 0 c127 0 232 -4 235 -8z m1909 -147 c10
-24 34 -60 53 -78 l35 -34 -48 -39 c-26 -21 -50 -42 -53 -46 -3 -4 -11 6 -19
23 -7 16 -19 29 -27 29 -16 0 -18 -27 -4 -88 7 -30 7 -49 -1 -63 -15 -28 -18
-21 -24 47 -2 32 -5 61 -6 64 -1 3 -1 9 0 13 1 5 -3 5 -9 2 -6 -4 -9 -9 -6
-12 3 -3 -3 -18 -14 -33 -11 -16 -20 -42 -20 -60 0 -43 -18 -29 -26 21 -4 22
-9 38 -11 35 -3 -3 1 -44 8 -91 9 -60 9 -89 2 -96 -8 -8 -14 4 -22 41 -6 28
-11 58 -11 67 0 9 -2 14 -5 11 -3 -3 -7 -36 -9 -74 -3 -76 12 -126 46 -155 11
-11 18 -19 14 -19 -11 0 16 -25 42 -39 12 -7 20 -16 17 -22 -4 -5 -1 -9 6 -9
7 0 9 -3 6 -7 -4 -3 -17 -1 -30 5 -12 6 -42 17 -67 25 -25 8 -53 18 -63 22
-13 6 -16 3 -11 -9 3 -9 11 -16 18 -16 6 0 20 -8 31 -17 19 -15 18 -15 -15 -8
-19 3 -42 8 -50 10 -8 2 -18 4 -22 4 -4 1 -10 10 -13 21 -5 14 1 32 18 53 18
24 26 50 30 97 8 90 10 104 23 115 7 6 15 24 19 40 3 17 16 51 27 77 16 37 29
50 66 68 26 13 58 28 72 35 14 6 24 17 23 22 -1 6 7 9 20 6 18 -4 19 -3 7 6
-13 10 -13 11 0 11 8 0 4 6 -10 13 -17 9 -26 22 -28 45 -5 48 20 40 41 -13z
m-2546 -76 c26 -10 54 -18 78 -22 6 -1 42 6 82 16 60 16 82 17 138 8 93 -14
159 -50 163 -87 2 -19 0 -25 -6 -16 -5 8 -16 10 -27 6 -15 -6 -17 -4 -12 10 4
11 3 15 -4 11 -5 -4 -18 1 -27 12 -9 10 -30 19 -47 21 -16 1 -37 6 -45 9 -31
13 -80 11 -94 -3 -9 -9 -17 -10 -21 -4 -3 5 -10 10 -16 10 -16 0 -10 -37 13
-66 l22 -29 -30 27 c-22 20 -101 54 -105 45 -6 -15 -8 -77 -2 -74 4 3 9 -6 10
-20 0 -14 6 -28 11 -32 23 -14 64 -126 59 -163 -3 -20 0 -41 5 -46 7 -7 7 -23
0 -49 -9 -34 -11 -36 -17 -15 -6 17 -12 21 -27 16 -21 -6 -38 9 -38 35 0 11 4
9 14 -5 20 -27 33 -8 16 23 -19 33 -92 82 -84 55 4 -11 -1 -8 -15 8 -18 22
-25 47 -10 38 3 -2 13 3 22 10 9 8 20 11 26 8 12 -8 41 21 41 41 0 9 -3 13 -7
10 -12 -12 -31 63 -26 101 5 35 2 39 -41 71 -62 47 -62 64 1 40z m494 -306
c15 -41 76 -158 113 -217 18 -28 43 -68 55 -88 l23 -38 -41 0 c-23 0 -41 5
-41 10 0 6 -31 75 -69 153 -75 155 -85 182 -76 197 11 18 25 11 36 -17z m-147
-10 l-7 -28 24 21 c13 12 38 24 54 27 25 5 26 5 10 -4 -24 -12 -45 -53 -35
-69 5 -8 10 -6 15 7 5 14 10 8 20 -27 7 -25 26 -76 42 -115 17 -38 36 -95 43
-125 16 -72 33 -98 67 -102 22 -2 29 -9 33 -33 4 -25 10 -30 32 -30 19 0 33
-10 50 -35 14 -20 32 -35 43 -35 27 0 30 -40 10 -135 -24 -121 -30 -184 -22
-274 2 -27 -2 -31 -35 -39 -44 -10 -48 -19 -13 -35 33 -15 23 -42 -16 -42 -19
0 -29 -5 -29 -14 0 -9 7 -13 18 -11 15 3 18 -3 17 -27 -2 -23 -16 -45 -60 -87
-56 -54 -58 -55 -68 -33 -6 12 -14 22 -18 22 -5 0 -15 15 -23 33 -8 17 -27 46
-43 62 -39 40 -46 62 -25 75 14 9 11 10 -15 7 -32 -3 -39 5 -34 36 0 4 -4 7
-11 7 -6 0 -9 3 -5 6 5 6 -55 62 -99 92 -15 10 -16 12 -2 8 11 -3 19 2 23 15
9 26 -3 38 -16 19 -9 -13 -10 -13 -6 0 3 12 20 15 75 14 40 0 72 1 72 3 0 10
-71 32 -106 35 -59 3 -110 68 -54 68 29 0 34 19 7 31 -33 15 -78 121 -57 134
5 3 10 -1 10 -9 0 -9 4 -16 10 -16 5 0 7 7 4 15 -9 23 7 18 37 -11 54 -51 47
-18 -8 41 -68 73 -99 120 -108 163 -6 29 -35 47 -35 22 0 -5 -5 -10 -11 -10
-15 0 -99 -90 -99 -107 0 -20 -14 -16 -52 15 -35 27 -35 29 -21 56 8 16 35 56
60 90 l45 60 -34 29 c-19 17 -22 22 -8 13 47 -31 52 -30 85 5 36 40 114 99
130 99 15 0 60 49 69 75 6 15 9 16 15 6 12 -19 28 -6 41 34 14 42 23 47 14 8z
m-2286 -122 l133 -6 -45 -53 c-29 -34 -47 -66 -51 -90 -3 -20 -10 -44 -14 -52
-5 -9 -7 -36 -5 -60 2 -24 -1 -49 -5 -54 -16 -20 -22 -75 -11 -95 6 -12 7 -21
2 -21 -5 0 -7 -12 -4 -26 3 -19 1 -25 -7 -20 -6 4 -11 2 -11 -4 0 -6 -4 -8
-10 -5 -5 3 -10 2 -10 -4 0 -6 -8 -7 -17 -4 -12 5 -15 2 -10 -10 4 -11 -1 -22
-14 -30 -11 -6 -34 -34 -51 -62 -18 -27 -52 -71 -77 -97 -35 -37 -48 -45 -61
-38 -21 11 -31 4 -23 -18 4 -10 2 -14 -2 -9 -5 4 -19 0 -32 -8 -22 -15 -23
-14 -23 12 0 16 -5 87 -10 158 -19 245 -40 550 -40 578 l0 27 133 -1 c72 -1
192 -4 265 -8z m917 -130 c4 -60 4 -117 1 -128 -3 -10 -29 -29 -58 -42 -29
-14 -61 -31 -70 -39 -10 -8 -18 -11 -18 -7 0 5 -6 0 -14 -11 -27 -36 -33 -4
-20 109 5 54 4 71 -7 78 -10 6 -10 9 -1 9 22 0 12 47 -17 79 -16 17 -26 31
-23 31 3 0 -3 7 -14 15 -17 13 -6 14 107 15 l127 0 7 -109z m2005 67 c11 -18
20 -41 20 -52 0 -10 13 -42 29 -70 16 -29 36 -88 46 -136 16 -84 25 -110 25
-76 0 10 6 16 13 13 7 -2 11 -17 9 -37 -3 -22 5 -50 23 -82 16 -29 29 -70 30
-96 2 -26 8 -48 14 -50 5 -2 7 -10 4 -19 -4 -10 -2 -14 4 -10 11 7 28 -25 49
-93 8 -25 14 -45 14 -45 0 0 -22 0 -48 0 -36 0 -66 -9 -119 -37 -68 -36 -94
-41 -110 -23 -4 4 3 5 16 2 18 -4 21 -3 12 6 -14 14 -14 30 1 21 8 -5 8 -3 2
7 -5 8 -9 24 -9 37 -1 16 5 22 22 22 13 0 23 5 23 11 0 6 -7 9 -15 6 -7 -3
-24 2 -37 13 -18 15 -20 21 -11 31 10 9 8 18 -8 41 -17 23 -18 28 -5 28 8 0
18 -4 21 -10 7 -12 61 -12 90 -1 16 7 13 9 -20 15 -22 4 -52 8 -67 8 -35 1
-37 18 -3 18 31 0 33 16 2 22 -34 7 -47 -1 -47 -27 0 -12 -7 -28 -15 -35 -8
-7 -15 -19 -15 -26 0 -8 -5 -14 -10 -14 -6 0 -30 -41 -54 -90 -25 -50 -47 -84
-49 -78 -3 7 -6 3 -6 -9 -1 -26 -21 -42 -21 -17 0 10 -8 45 -17 78 -13 46 -18
55 -24 40 -5 -13 -7 -7 -7 21 0 22 2 32 5 23 2 -10 9 -18 14 -18 6 0 7 9 3 23
-9 26 -9 17 11 172 8 66 23 136 32 155 9 19 17 54 18 77 0 24 6 48 12 54 7 7
8 21 0 45 -6 19 -8 36 -5 39 12 12 58 -8 58 -24 0 -9 4 -21 10 -27 5 -5 19
-36 30 -69 l20 -60 -6 75 c-4 41 -10 77 -14 80 -8 5 -5 38 4 47 3 3 -4 19 -15
35 l-21 29 27 34 c14 19 30 35 36 35 5 0 18 -15 29 -32z m3419 -84 c5 -5 39
-90 76 -189 36 -99 72 -196 80 -215 13 -35 13 -35 -25 -63 -21 -15 -44 -27
-50 -27 -8 0 -10 -9 -6 -23 3 -14 -1 -32 -9 -43 -11 -15 -14 -16 -15 -4 0 13
-2 13 -9 1 -8 -12 -18 -10 -64 12 -30 15 -59 27 -65 27 -24 0 -34 106 -12 120
11 8 12 12 3 18 -8 5 -12 35 -10 90 1 53 -3 86 -11 94 -7 7 -12 21 -12 32 0
25 -40 78 -104 140 l-51 48 138 -4 c76 -3 142 -9 146 -14z m-2074 -555 c4 -18
2 -35 -5 -44 -9 -11 -5 -26 23 -72 27 -45 37 -76 45 -138 7 -50 7 -81 1 -83
-5 -2 -7 -8 -4 -12 3 -5 0 -18 -7 -29 -10 -17 -9 -23 7 -40 16 -19 17 -27 7
-74 -6 -28 -16 -94 -22 -145 -6 -51 -16 -102 -23 -113 -6 -10 -28 -22 -47 -25
-19 -3 -42 -8 -51 -10 -19 -5 -20 2 -22 122 -2 70 1 90 11 87 8 -3 12 4 12 21
0 14 -6 26 -12 26 -9 0 -9 3 -3 8 6 4 12 41 13 82 1 41 3 84 4 95 3 59 -3 77
-39 110 -21 19 -44 35 -50 35 -7 0 -30 16 -51 35 -22 19 -42 32 -46 28 -3 -3
-6 1 -6 10 0 8 -3 23 -6 32 -12 30 28 13 46 -20 9 -17 25 -30 36 -31 11 -1 32
-9 47 -19 27 -17 57 -15 57 5 0 5 -7 10 -15 10 -9 0 -18 7 -21 15 -4 8 -11 12
-18 9 -6 -3 -4 0 5 8 9 7 22 37 28 66 7 28 16 52 19 52 3 0 16 -10 29 -22 l23
-21 0 25 c0 61 23 72 35 17z m-1455 -249 c0 -13 52 -38 68 -33 8 3 10 -1 6
-11 -5 -12 -2 -15 10 -10 15 6 33 -7 160 -118 l31 -28 -31 0 c-38 0 -124 25
-189 55 -27 13 -75 30 -105 38 -45 11 -54 17 -52 33 2 10 11 25 20 32 14 11
14 12 -5 12 -13 0 -23 -8 -27 -23 -3 -14 -13 -23 -26 -23 -11 0 -20 3 -20 7 0
4 -3 14 -6 23 -4 11 2 19 20 26 14 5 26 14 26 20 0 6 26 10 60 10 33 0 60 -4
60 -10z m3315 -146 c37 -56 88 -104 111 -104 37 0 64 -34 64 -80 0 -22 -2 -40
-5 -40 -3 0 -32 11 -65 25 -33 14 -67 25 -77 25 -28 0 -41 13 -47 45 -2 17 -5
32 -5 35 -1 2 -18 -12 -38 -31 -21 -20 -56 -49 -78 -64 -22 -16 -52 -39 -66
-52 -24 -22 -59 -23 -59 -2 0 25 -21 3 -43 -45 -24 -53 -91 -116 -123 -116 -7
0 -15 -6 -18 -12 -6 -13 -2 36 5 61 2 9 -4 17 -16 19 -11 2 -23 9 -27 16 -5 7
-8 3 -8 -9 0 -15 -3 -17 -9 -7 -6 10 -10 8 -14 -9 -4 -13 -2 -28 3 -33 12 -12
-6 -46 -25 -46 -19 0 -19 29 0 99 17 67 25 74 58 62 24 -10 27 -8 33 17 3 15
11 43 16 62 11 34 11 34 20 10 5 -13 6 -41 3 -62 -4 -21 -4 -38 -1 -38 18 0
180 127 199 156 25 38 34 41 63 19 10 -8 24 -14 29 -14 6 -1 -1 8 -14 18 -22
16 -23 21 -10 34 8 8 25 29 38 46 24 32 47 42 37 16 -4 -13 -2 -14 14 -5 11 6
20 15 20 20 0 18 18 10 35 -16z m-3405 -192 c30 -2 59 -8 65 -13 5 -5 18 -9
29 -9 32 0 122 -48 149 -80 14 -16 34 -54 46 -83 16 -46 18 -61 9 -98 -11 -46
-27 -74 -29 -48 0 9 -3 8 -8 -4 -4 -10 -11 -19 -16 -19 -6 0 -23 -9 -38 -20
-16 -11 -31 -18 -34 -14 -3 3 2 8 11 12 9 3 14 10 11 15 -3 4 -41 -14 -84 -41
-60 -39 -87 -50 -117 -50 l-39 1 39 19 c45 23 109 70 103 76 -3 3 -23 -2 -45
-11 -46 -19 -83 -17 -90 4 -3 10 0 12 12 8 9 -4 16 -2 16 3 0 6 6 10 14 10 15
0 30 29 20 39 -4 3 -9 0 -11 -6 -3 -7 -11 -13 -19 -13 -8 0 -11 6 -8 15 4 8 1
15 -5 15 -7 0 -15 8 -18 18 -10 25 -63 102 -71 102 -9 0 -30 47 -35 75 -1 11
-8 30 -15 42 -23 42 33 83 88 65 8 -3 40 -7 70 -10z m3680 -41 c27 -27 50 -57
50 -68 0 -20 60 -120 115 -192 44 -57 65 -91 65 -103 0 -8 -3 -9 -8 -3 -8 12
-59 12 -84 1 -14 -6 -18 -19 -17 -55 1 -32 3 -39 7 -23 4 13 11 24 17 24 5 0
34 -44 62 -97 38 -71 53 -110 53 -138 0 -33 2 -37 14 -28 18 15 24 5 30 -53 3
-31 1 -46 -7 -46 -25 0 -35 16 -31 49 5 42 -6 35 -12 -8 -5 -28 -2 -33 30 -46
44 -19 50 -19 42 0 -3 8 -3 15 -1 15 5 0 79 -54 117 -85 24 -20 55 -35 70 -35
9 0 9 3 -2 10 -13 8 -13 10 2 10 9 0 20 -5 24 -11 4 -7 21 -9 44 -5 26 4 40 2
43 -7 4 -8 8 -9 14 -1 21 26 81 64 85 53 4 -12 80 30 94 52 4 8 3 9 -5 5 -6
-4 -19 -2 -27 5 -12 10 -12 14 -2 20 10 7 11 9 0 9 -9 0 -10 5 -2 19 12 24 13
31 1 31 -5 0 -11 -6 -14 -12 -2 -7 -2 1 1 17 3 17 6 37 7 47 2 21 24 48 40 48
7 0 22 16 34 35 19 33 41 46 41 25 0 -5 -4 -10 -10 -10 -5 0 -10 -6 -10 -14 0
-8 -9 -22 -21 -30 -13 -9 -18 -19 -14 -27 6 -8 4 -10 -5 -4 -10 6 -12 4 -7 -9
6 -14 3 -16 -13 -11 -19 6 -29 -8 -12 -18 4 -2 1 -2 -5 -1 -7 2 -13 -1 -13 -6
0 -13 12 -13 45 0 16 6 24 6 20 0 -3 -5 -7 -25 -9 -45 -2 -28 1 -35 13 -33 9
2 15 11 15 21 -1 9 2 15 6 12 5 -3 11 -1 15 5 9 14 17 12 44 -11 l25 -20 -34
-29 c-25 -21 -31 -32 -24 -42 18 -23 17 -93 -1 -108 -9 -8 -25 -30 -35 -49
-12 -24 -32 -42 -58 -54 -59 -26 -87 -59 -116 -138 -27 -74 -33 -109 -16 -109
6 0 10 13 10 28 0 20 5 28 18 29 10 1 19 -5 19 -12 0 -8 -4 -12 -8 -9 -4 2 -5
-11 -2 -31 4 -23 2 -35 -6 -35 -6 0 -11 -6 -11 -13 0 -8 -20 -36 -45 -63 -24
-27 -45 -52 -45 -56 0 -5 -6 -8 -14 -8 -8 0 -17 -7 -20 -16 -3 -8 -10 -12 -16
-9 -5 3 -10 1 -10 -6 0 -13 -38 -49 -52 -49 -4 0 -8 7 -8 16 0 9 -5 14 -12 12
-18 -6 -22 -28 -5 -28 8 0 17 -7 20 -14 4 -10 1 -13 -9 -9 -9 3 -14 -2 -16
-18 -2 -33 -3 -40 -16 -72 -7 -16 -12 -33 -12 -39 0 -6 -11 -8 -26 -5 -18 3
-22 1 -15 -6 14 -14 14 -50 0 -42 -6 4 -17 -1 -24 -11 -20 -27 -18 -40 3 -22
9 9 22 14 28 11 6 -2 14 6 17 17 4 17 10 20 34 14 42 -9 136 -53 145 -67 15
-23 9 -75 -9 -82 -16 -6 -15 -9 8 -29 14 -12 29 -29 32 -37 4 -10 6 -10 6 3 1
11 6 15 16 12 15 -6 15 -29 0 -66 -12 -29 -191 -36 -292 -12 -15 4 -23 0 -28
-15 -5 -17 -10 -19 -31 -11 -33 13 -34 13 -28 -5 4 -8 1 -15 -5 -15 -6 0 -11
5 -11 11 0 6 -9 8 -22 4 -21 -5 -21 -5 2 9 14 9 19 15 13 16 -7 0 -22 -9 -33
-20 -37 -37 -45 -26 -42 55 2 41 6 75 9 75 2 0 11 -7 20 -15 16 -17 33 -12 33
11 0 10 -12 14 -40 14 -38 0 -40 -2 -40 -30 0 -16 -5 -30 -10 -30 -28 0 -228
116 -313 182 -28 21 -94 108 -82 108 3 0 -9 15 -27 33 -18 18 -46 59 -63 91
l-30 58 -8 -59 c-4 -32 -8 -69 -10 -83 -1 -14 -6 -28 -12 -32 -7 -5 -6 -11 1
-15 13 -10 2 -190 -14 -220 -16 -30 -15 -63 2 -63 8 0 31 -18 51 -39 38 -39
113 -70 137 -55 7 5 8 2 3 -6 -6 -10 -4 -12 8 -7 8 3 33 -3 54 -14 21 -11 47
-21 58 -23 38 -8 61 -20 147 -79 61 -42 92 -58 105 -53 11 5 14 10 6 14 -6 4
-7 15 -2 30 6 17 16 22 44 22 28 0 35 4 35 20 0 11 5 20 11 20 6 0 8 -8 4 -19
-3 -11 -1 -22 5 -26 14 -9 12 -25 -4 -25 -9 0 -12 -9 -10 -27 2 -16 1 -20 -2
-10 -8 25 -23 21 -16 -5 5 -22 4 -22 -15 -5 -28 24 -42 21 -15 -3 12 -12 22
-25 22 -30 0 -20 4 -26 44 -67 23 -24 48 -43 57 -43 21 0 61 -48 53 -63 -5 -9
-4 -9 6 0 7 6 19 9 28 5 13 -5 12 -7 -4 -13 -18 -7 -18 -8 3 -8 52 -2 52 9 -3
65 -30 30 -54 59 -54 64 0 6 -7 10 -15 10 -8 0 -15 5 -15 11 0 6 14 9 33 7 25
-2 31 -7 29 -22 -2 -10 0 -16 5 -13 16 9 53 -12 47 -27 -3 -9 6 -23 25 -37 17
-12 28 -26 25 -31 -3 -4 0 -8 7 -8 7 0 9 -3 6 -7 -4 -4 6 -12 22 -19 27 -12
35 -33 18 -50 -8 -8 21 -44 34 -44 5 0 16 14 24 30 9 17 20 28 25 25 4 -3 17
6 28 20 11 14 25 25 32 25 6 0 46 12 88 26 42 15 93 28 112 31 35 4 184 40
210 50 8 4 18 7 22 7 3 1 10 4 14 9 4 4 18 7 31 7 13 0 43 8 66 19 67 29 81
34 97 37 25 3 68 22 74 33 3 5 21 13 39 16 45 10 147 54 164 71 13 13 35 19
57 15 5 -1 12 3 16 10 9 14 37 5 69 -22 24 -19 24 -20 5 -37 -10 -10 -28 -16
-39 -14 -16 3 -18 1 -7 -9 19 -21 15 -42 -8 -36 -12 3 -20 0 -20 -8 0 -14 -21
-25 -47 -25 -8 0 -28 -13 -43 -30 -17 -18 -38 -30 -53 -30 -13 0 -30 -6 -36
-14 -6 -7 -39 -25 -74 -40 -34 -15 -73 -33 -87 -40 -14 -8 -46 -17 -72 -20
-26 -4 -50 -11 -53 -17 -4 -5 -21 -9 -39 -9 -19 0 -47 -7 -62 -15 -16 -8 -37
-15 -46 -15 -9 0 -20 -5 -23 -10 -3 -5 -17 -10 -30 -10 -14 0 -48 -11 -77 -23
-29 -13 -59 -22 -66 -19 -24 8 -64 -8 -58 -23 3 -9 -7 -23 -25 -36 -20 -14
-28 -26 -24 -39 4 -12 -4 -25 -24 -41 -20 -16 -32 -36 -36 -60 -4 -21 -20 -52
-36 -70 -32 -36 -36 -44 -16 -34 6 4 3 0 -8 -9 -11 -8 -30 -25 -41 -37 -12
-12 -27 -19 -32 -15 -6 4 -9 -4 -8 -18 2 -14 -3 -27 -11 -30 -8 -3 -19 -19
-24 -36 -6 -16 -17 -30 -24 -30 -7 0 -15 -9 -18 -21 -5 -18 -8 -19 -27 -7 -16
10 -20 20 -16 41 4 17 2 26 -4 22 -6 -3 -10 -2 -10 4 0 5 16 19 34 31 21 12
33 27 30 34 -3 8 -1 17 5 21 21 12 11 26 -16 23 -17 -2 -27 -8 -25 -16 1 -8
-2 -11 -8 -7 -5 3 -24 -7 -42 -24 -82 -74 -104 -91 -120 -92 -10 -1 -24 -2
-30 -3 -7 -1 -13 6 -14 14 -2 31 -5 35 -14 20 -5 -8 -10 -10 -10 -3 0 14 98
103 114 103 6 0 24 16 39 35 19 24 23 35 14 35 -8 0 -20 -7 -28 -16 -8 -10
-21 -13 -38 -9 -32 8 -43 24 -36 53 5 21 2 22 -44 22 -39 0 -53 4 -60 18 -7
13 -6 23 2 32 7 8 -1 6 -17 -4 -20 -13 -31 -15 -39 -7 -6 6 -18 11 -27 11 -12
-1 -12 -2 3 -11 9 -5 17 -15 17 -21 0 -15 -50 -68 -63 -68 -6 0 -26 -12 -46
-27 -69 -53 -108 -65 -129 -40 -6 6 -15 38 -21 70 -10 53 -38 117 -51 117 -3
0 -12 -5 -20 -10 -12 -7 -12 -12 -2 -22 6 -6 12 -8 13 -2 0 5 7 -11 14 -36 13
-41 13 -46 -2 -58 -9 -6 -20 -12 -25 -12 -12 0 -26 64 -16 76 12 16 0 41 -23
47 -10 3 -19 11 -19 18 0 10 3 10 12 1 21 -21 34 -13 34 23 0 27 -3 32 -13 23
-10 -8 -17 -8 -25 0 -15 15 -62 16 -53 2 3 -5 2 -10 -4 -10 -5 0 -14 -23 -20
-50 -13 -62 -13 -63 -1 -55 6 4 10 -21 10 -68 0 -59 -3 -74 -15 -74 -8 0 -15
5 -15 11 0 19 -38 47 -44 33 -5 -14 -10 53 -7 103 2 19 7 39 12 44 5 6 9 20 9
33 0 13 5 23 10 23 6 0 10 -9 10 -19 0 -11 4 -22 9 -25 12 -8 23 66 11 78 -16
16 -12 26 10 26 13 0 20 7 20 20 0 31 1 33 21 61 16 24 17 28 4 39 -9 8 -15 8
-15 2 0 -6 6 -13 13 -15 6 -3 7 -6 1 -6 -12 -1 -81 101 -121 179 -15 31 -37
69 -49 85 -11 17 -26 45 -33 63 -8 17 -17 32 -21 32 -4 0 -13 15 -21 33 -7 17
-23 49 -36 69 -13 21 -23 50 -23 65 0 15 -10 37 -22 51 -20 20 -24 38 -28 125
-5 112 6 191 26 183 7 -3 15 0 18 7 3 8 5 6 5 -3 1 -14 58 -60 74 -60 4 0 -2
18 -13 39 -15 30 -19 55 -17 110 1 38 6 73 10 77 4 4 7 31 7 61 0 40 4 53 15
53 9 0 15 9 15 25 0 16 6 25 15 25 8 0 15 -4 15 -10 0 -5 -3 -10 -7 -10 -12 0
-14 -140 -4 -175 l9 -30 1 36 c1 54 27 109 51 109 11 0 20 7 20 16 0 9 5 12
12 8 7 -5 9 -2 5 9 -3 9 -1 17 4 19 13 4 -16 86 -40 113 -46 50 -160 264 -202
379 -16 43 -39 93 -52 110 -23 29 -44 83 -46 116 -1 8 -4 33 -7 56 -7 46 -16
40 151 85 104 28 113 33 108 61 -6 31 32 131 64 169 42 50 98 73 178 72 76 0
120 -18 182 -76 30 -28 35 -29 87 -23 33 5 63 3 75 -3 18 -10 19 -9 11 19 -15
52 -79 147 -128 192 -57 51 -64 61 -56 82 10 27 31 18 84 -33z m-2717 -46 l-6
-35 54 -1 c30 -1 64 0 77 1 17 1 22 -3 20 -21 -3 -26 23 -36 98 -38 37 -1 42
-4 47 -28 3 -16 0 -34 -6 -42 -9 -12 -9 -13 1 -7 9 5 12 -9 12 -58 0 -67 -7
-77 -39 -57 -10 7 -9 12 8 23 21 15 21 15 1 40 -12 16 -56 40 -114 63 -69 27
-104 48 -128 74 l-33 36 -7 -40 c-10 -56 -32 -162 -57 -278 -22 -105 -20 -123
20 -151 26 -18 17 -35 -16 -32 -13 2 -22 -1 -19 -5 3 -5 1 -9 -5 -9 -6 0 -8
-7 -5 -15 4 -9 1 -15 -7 -15 -8 0 -25 -3 -39 -6 l-25 -5 25 15 c29 18 23 20
-14 6 -16 -6 -24 -15 -20 -23 3 -8 -3 -17 -13 -21 -10 -4 -19 -2 -21 3 -2 6
-21 15 -42 21 -29 8 -37 14 -33 28 2 10 -3 24 -11 31 -24 20 -19 31 14 31 35
0 38 12 10 40 -22 22 -11 26 21 10 15 -8 24 -6 40 9 26 24 17 46 -12 31 -26
-14 -34 6 -20 56 6 20 8 41 5 46 -4 5 6 23 22 39 15 16 23 29 17 29 -6 0 -13
-5 -15 -11 -2 -6 -16 -9 -32 -7 l-28 3 42 30 c23 17 59 47 80 68 21 20 42 37
46 37 5 0 14 10 19 22 6 12 17 24 25 26 11 4 10 -1 -4 -17 -11 -11 -16 -24
-13 -28 10 -10 37 30 32 46 -3 7 2 19 11 25 9 7 18 33 21 59 3 26 9 44 14 42
4 -3 5 -21 2 -40z m-5886 -9 c4 -3 -1 -12 -9 -19 -9 -6 -18 -20 -20 -30 -1
-10 -7 -18 -11 -17 -4 0 -15 -6 -23 -15 -18 -18 -50 -20 -60 -4 -4 8 -9 7 -15
-2 -15 -25 -110 36 -123 79 -7 19 -3 20 124 17 72 -2 134 -6 137 -9z m6492
-217 c1 -42 -3 -68 -9 -64 -13 8 -24 -60 -12 -81 9 -16 10 -15 16 4 4 12 4 32
0 44 -6 20 -5 21 10 6 9 -9 19 -31 22 -48 5 -25 4 -29 -9 -24 -8 3 -18 1 -22
-5 -3 -6 -19 -11 -35 -11 -33 0 -70 40 -70 76 0 12 -5 24 -11 26 -18 6 -19 88
-2 88 8 0 12 4 8 9 -7 12 32 34 45 26 6 -3 10 -2 10 4 0 5 10 12 23 14 12 2
25 5 28 6 4 0 7 -31 8 -70z m-1991 32 c30 -16 190 -81 199 -81 5 0 27 -18 48
-41 22 -22 54 -47 72 -54 17 -7 42 -25 54 -39 13 -14 29 -26 38 -26 8 0 24 -8
35 -19 20 -18 79 -42 64 -26 -4 4 -1 14 7 21 7 8 22 24 32 36 10 13 26 29 36
37 16 12 17 12 10 -5 -4 -10 -22 -38 -40 -62 -18 -24 -33 -47 -33 -51 0 -13
91 -81 108 -81 10 0 13 -7 9 -21 -4 -16 2 -30 22 -48 15 -14 33 -41 39 -60 15
-44 15 -44 -8 -38 -25 7 -26 7 10 -53 33 -56 31 -65 -6 -21 -13 16 -37 34 -53
39 -26 9 -28 8 -23 -10 4 -15 1 -19 -9 -16 -8 3 -13 12 -13 21 1 13 -2 14 -17
6 -11 -5 -19 -14 -19 -19 0 -11 -29 -40 -40 -40 -4 0 -11 18 -15 40 -5 30 -11
40 -25 40 -11 0 -23 -7 -28 -16 -11 -20 -34 -10 -26 11 4 9 -1 14 -13 14 -51
2 -93 14 -93 28 0 12 -8 14 -36 9 -36 -7 -69 7 -58 26 3 5 -6 6 -23 3 -17 -4
-8 4 27 21 65 33 53 41 -30 20 -81 -21 -189 -21 -196 -1 -4 8 -14 15 -23 16
-13 0 -13 2 2 8 17 6 17 8 3 20 -9 7 -21 9 -28 5 -16 -10 -45 -7 -76 8 -17 9
-22 19 -20 37 3 22 -1 26 -22 26 -15 0 -24 -5 -22 -12 1 -7 -5 -13 -13 -13
-11 0 -15 11 -15 41 0 33 4 42 20 46 14 4 22 17 27 46 4 26 19 54 41 79 19 21
29 38 22 38 -7 0 0 11 16 25 16 14 24 25 17 25 -6 0 -37 -26 -68 -57 -31 -32
-55 -51 -52 -43 3 8 9 24 13 35 7 19 7 19 -12 3 -16 -14 -23 -15 -32 -6 -18
18 -15 48 5 55 10 4 27 16 38 28 38 40 135 66 173 46z m-682 -220 c5 -4 30
-14 57 -21 48 -13 72 -30 41 -30 -13 0 -14 -3 -4 -15 7 -8 23 -15 37 -15 13 0
32 -7 41 -16 15 -15 14 -16 -8 -9 -34 10 -31 10 -70 1 l-35 -8 35 -13 c21 -7
44 -9 57 -4 15 6 33 2 61 -14 34 -18 43 -30 61 -85 12 -35 29 -109 37 -165 8
-56 19 -113 24 -127 11 -32 37 -126 45 -163 4 -19 2 -26 -5 -22 -13 8 -13 -28
0 -41 7 -7 7 -19 1 -35 l-10 -24 -1 25 c-1 23 -2 24 -14 7 -8 -10 -17 -14 -19
-9 -5 7 -94 9 -122 2 -5 -1 -13 -1 -17 0 -5 1 -11 4 -15 5 -55 16 -73 28 -62
41 8 9 8 18 1 27 -5 6 -13 35 -17 62 -4 28 -13 65 -21 83 -7 18 -13 57 -12 87
1 52 -20 105 -42 105 -6 0 -10 6 -10 14 0 8 -16 24 -35 36 -19 12 -32 27 -29
32 4 7 2 8 -5 4 -6 -4 -14 -1 -17 8 -3 8 -11 13 -18 10 -6 -2 -19 8 -27 23
-20 34 -33 87 -21 79 15 -9 22 34 9 57 -25 43 -51 62 -89 66 -18 2 -5 20 25
35 35 17 176 23 193 7z m-4110 -116 c-3 -9 -15 -19 -27 -24 -13 -4 -18 -11
-12 -14 5 -3 25 9 43 28 19 19 37 35 41 35 4 0 30 -37 58 -82 47 -76 49 -83
34 -100 -12 -13 -20 -15 -35 -7 -10 6 -22 17 -25 25 -3 8 -11 14 -18 14 -22 0
-122 98 -134 131 -5 16 -6 27 -2 24 5 -2 14 2 20 9 10 12 9 14 -6 12 -10 -2
-23 4 -29 12 -8 11 -15 12 -32 3 -29 -15 -37 -14 -21 5 8 10 23 14 41 12 19
-3 34 2 45 14 17 19 18 18 41 -31 13 -28 22 -58 18 -66z m-702 -221 c3 -8 12
-11 23 -7 16 6 17 5 3 -12 -9 -11 -10 -16 -2 -11 6 4 12 2 12 -3 0 -6 7 -11
15 -11 23 0 18 -44 -6 -66 -16 -14 -23 -15 -26 -6 -10 27 -38 11 -35 -19 1 -4
-7 -9 -18 -12 -13 -3 -26 5 -42 26 -13 16 -29 36 -36 43 -16 17 1 54 24 54 8
0 12 -4 9 -10 -3 -5 -1 -10 4 -10 6 0 11 9 11 20 0 11 7 20 15 20 8 0 15 4 15
8 0 14 29 10 34 -4z m1454 -42 c9 -17 37 -155 46 -224 4 -35 3 -38 -22 -39
l-27 -2 28 -4 c20 -3 27 -9 23 -19 -3 -8 -1 -14 5 -14 6 0 8 -9 4 -21 -4 -13
-3 -19 3 -15 5 3 14 -15 20 -42 42 -198 51 -245 58 -302 3 -36 7 -77 7 -92 0
-16 3 -28 7 -28 4 0 6 -9 5 -21 -2 -23 -22 -40 -40 -33 -7 3 -19 -12 -29 -36
-18 -46 -20 -53 -7 -46 5 3 11 -3 14 -14 4 -17 9 -19 32 -10 42 16 64 12 69
-12 3 -13 12 -57 20 -98 8 -41 18 -85 21 -96 5 -16 1 -23 -17 -29 -33 -10 -40
-12 -65 -13 -14 -1 -23 -9 -23 -18 0 -8 -5 -12 -11 -8 -6 3 -9 15 -6 25 3 11
1 17 -4 14 -8 -6 -39 45 -39 65 0 7 8 9 20 5 15 -5 18 -3 14 9 -5 12 -11 13
-24 6 -31 -17 -36 -12 -65 58 -16 37 -37 86 -48 110 -16 34 -17 45 -7 57 7 8
19 15 26 15 8 0 14 5 14 10 0 23 32 8 44 -21 13 -31 13 -31 21 -8 16 51 15 59
-1 52 -14 -5 -15 -3 -5 15 7 12 8 22 2 22 -15 0 -22 30 -11 49 6 13 5 24 -5
37 -9 13 -10 23 -3 31 8 10 5 13 -10 13 -16 0 -22 10 -30 48 -24 112 -33 177
-28 198 4 13 6 27 5 30 0 4 5 11 13 16 10 8 10 9 -2 5 -8 -2 -14 -11 -12 -18
3 -11 1 -11 -9 -2 -10 10 -9 15 1 28 8 10 9 15 1 15 -6 0 -11 5 -11 11 0 5 4
8 8 5 5 -3 9 1 9 9 0 8 -4 12 -9 9 -4 -3 -8 0 -8 6 0 6 -5 8 -10 5 -13 -8 -10
57 3 66 5 4 0 10 -11 13 -14 5 -23 19 -28 49 l-7 42 -19 -43 c-26 -59 -32 -48
-9 14 16 42 18 58 9 97 -11 54 -6 79 16 71 8 -3 22 -2 30 3 27 15 56 13 64 -5z
m-403 -99 c58 -67 105 -134 105 -150 0 -8 -4 -11 -10 -8 -26 16 -6 -15 30 -46
22 -19 40 -38 40 -43 0 -5 -6 -3 -14 3 -9 7 -6 -3 6 -29 11 -22 27 -40 35 -40
12 0 12 -2 1 -13 -24 -24 -57 -27 -69 -6 -5 11 -7 24 -4 29 3 6 1 10 -5 10 -6
0 -14 8 -17 18 -4 9 -17 31 -31 49 -13 18 -21 37 -17 43 3 5 0 10 -9 10 -8 0
-37 45 -71 110 -53 105 -55 110 -33 110 15 0 37 -16 63 -47z m3409 -63 l54
-21 7 -61 7 -60 45 6 44 6 -2 -53 c-4 -88 -8 -93 -37 -51 -29 43 -43 60 -96
117 -21 23 -45 56 -52 74 -8 17 -18 34 -24 38 -10 6 -14 25 -5 25 2 0 29 -9
59 -20z m-3126 -388 c28 -54 52 -102 52 -105 0 -5 -81 -39 -85 -35 -1 2 -25
50 -54 106 -50 99 -59 141 -26 128 9 -3 18 1 21 9 11 28 39 -3 92 -103z m5888
46 l142 -63 16 -75 c11 -48 25 -85 41 -103 l25 -28 44 38 c24 21 56 45 72 53
16 8 36 19 44 25 28 21 129 50 139 40 5 -6 18 -37 30 -70 23 -62 63 -137 88
-167 12 -14 20 -15 41 -6 15 6 57 12 93 14 36 1 107 12 157 24 51 12 98 20
104 18 7 -3 -41 -40 -107 -84 -131 -87 -187 -146 -243 -256 -41 -82 -88 -197
-97 -237 -4 -19 -18 -37 -35 -48 -28 -16 -28 -17 -9 -32 19 -15 20 -21 9 -106
-6 -49 -13 -91 -14 -93 -2 -2 -27 8 -56 22 -50 24 -78 26 -65 5 10 -15 -3 -43
-26 -57 -19 -12 -20 -11 -14 8 6 19 4 21 -17 15 -12 -4 -24 -12 -26 -16 -6
-15 -32 -10 -32 5 0 9 -7 12 -21 9 -12 -3 -25 0 -29 7 -4 7 -13 9 -20 5 -9 -6
-9 -10 1 -17 10 -7 8 -8 -6 -3 -11 4 -28 7 -37 7 -22 -1 -24 35 -3 62 12 15
28 19 79 20 36 0 62 5 59 10 -3 4 2 4 12 -1 14 -8 23 -4 46 21 l27 31 -32 27
c-41 34 -158 210 -159 240 -1 13 2 33 7 45 6 18 4 22 -8 17 -9 -3 -16 -1 -16
5 0 6 5 11 11 11 8 0 7 6 -2 16 -12 15 -10 16 18 10 27 -6 34 -3 52 22 12 17
21 34 21 39 0 4 -26 36 -57 70 -34 35 -67 83 -78 112 l-21 51 -32 -31 -32 -31
27 -47 c14 -25 37 -58 51 -73 23 -25 24 -27 3 -21 -11 3 -18 10 -15 15 4 6 -5
2 -20 -7 -14 -10 -26 -25 -26 -35 0 -14 -9 -17 -45 -16 -37 1 -49 -4 -70 -26
-14 -16 -30 -28 -35 -28 -5 0 -10 -10 -12 -22 -3 -15 -8 -3 -15 32 -21 101
-23 121 -13 115 6 -3 7 1 4 9 -3 9 -10 13 -15 10 -6 -3 -7 6 -4 23 5 19 4 24
-3 15 -10 -14 -25 61 -25 126 0 18 -4 27 -8 21 -4 -7 -7 9 -7 34 0 26 3 45 8
42 13 -8 62 45 56 61 -3 9 -6 21 -6 28 0 7 -11 18 -25 24 -14 7 -25 20 -25 31
0 11 -5 23 -11 26 -7 5 -5 15 5 31 20 30 21 83 1 90 -15 6 -21 24 -7 24 4 0
71 -28 148 -62z m-7317 -208 c9 0 29 -6 44 -12 22 -11 26 -19 24 -48 -4 -47
-42 -130 -60 -130 -8 0 -17 -9 -20 -21 -4 -15 -12 -20 -29 -17 -22 3 -23 7
-20 68 3 92 29 203 40 172 2 -7 11 -12 21 -12z m8576 -242 c19 -40 35 -78 35
-84 0 -7 7 -14 15 -18 11 -4 15 -21 15 -63 0 -32 -4 -63 -8 -69 -10 -16 -58
-30 -113 -33 -9 -1 -19 -10 -22 -21 -3 -12 -14 -20 -25 -20 -15 0 -19 5 -15
20 8 30 -4 24 -23 -11 -13 -27 -20 -30 -45 -25 -19 4 -28 2 -26 -6 1 -7 -6
-14 -17 -16 -11 -2 -16 0 -12 7 4 6 0 11 -9 11 -9 0 -14 -4 -10 -9 6 -11 -20
-21 -72 -27 -20 -3 -40 -7 -46 -11 -6 -3 -27 -9 -47 -13 -33 -6 -37 -5 -33 11
3 11 9 16 14 13 5 -3 6 2 3 10 -8 21 70 166 119 221 44 51 242 189 257 180 5
-3 12 0 16 6 5 8 3 9 -6 4 -9 -5 -11 -4 -6 3 14 23 26 11 61 -60z m1175 -185
c2 -2 -1 -7 -8 -12 -22 -13 -10 -64 21 -94 21 -20 27 -31 19 -39 -6 -6 -8 -18
-4 -27 5 -14 3 -13 -12 2 -10 9 -23 14 -29 10 -7 -4 -6 1 2 11 12 15 12 17 0
14 -8 -2 -17 -7 -20 -12 -4 -5 -10 1 -13 12 -4 11 -18 28 -32 37 -58 38 -133
75 -152 75 -12 0 -24 5 -27 10 -3 6 -25 11 -48 11 -25 1 -32 4 -19 6 13 3 21
10 19 17 -4 9 11 11 57 9 33 -1 70 -5 82 -8 11 -2 29 1 39 9 16 11 26 10 69
-7 28 -11 53 -22 56 -24z m-2945 -25 c-5 -26 -4 -30 5 -18 10 13 11 13 7 0 -2
-8 -11 -14 -21 -12 -17 3 -19 -2 -10 -35 4 -13 10 -21 14 -18 4 2 15 -4 25
-15 29 -32 53 -24 45 15 -1 5 7 2 18 -8 10 -9 21 -16 23 -15 2 2 3 1 2 -1 -2
-2 2 -10 7 -16 7 -9 7 -21 0 -40 -8 -22 -13 -25 -25 -15 -12 10 -20 6 -44 -20
-18 -20 -34 -30 -42 -25 -8 5 -10 4 -5 -3 4 -7 1 -12 -8 -12 -10 0 -13 6 -10
15 4 8 1 15 -5 15 -6 0 -10 3 -10 8 3 19 -2 32 -13 32 -7 0 -21 14 -30 31 -10
16 -13 27 -8 24 21 -13 31 7 14 26 -18 20 -19 17 26 71 8 10 20 18 27 18 7 0
13 7 13 15 0 8 3 15 6 15 3 0 3 -15 -1 -32z m-4169 -13 c14 -13 14 -15 0 -15
-9 0 -16 -11 -18 -27 -2 -19 -10 -29 -27 -33 -13 -3 -29 -18 -36 -35 -7 -17
-14 -24 -14 -17 -2 24 -38 13 -43 -13 -4 -17 -1 -25 8 -25 8 0 14 5 14 10 0
19 15 9 38 -26 22 -36 30 -98 12 -109 -5 -3 -7 -12 -4 -19 3 -7 -2 -19 -11
-26 -8 -7 -15 -8 -15 -3 0 6 -17 13 -38 17 -21 3 -47 15 -57 26 -10 11 -21 17
-25 15 -4 -3 -11 5 -14 18 -3 12 -20 32 -38 45 -18 12 -28 22 -23 22 6 0 11
12 12 28 l1 27 -14 -27 c-17 -32 -35 -37 -27 -8 6 23 20 35 52 45 16 5 21 4
17 -4 -4 -6 -2 -11 3 -11 6 0 11 5 11 11 0 5 6 7 13 3 8 -5 7 -2 -2 9 -12 15
-11 20 4 37 10 11 24 20 32 20 7 0 13 7 13 15 0 21 16 19 40 -5 17 -17 24 -19
43 -9 12 7 24 12 27 11 3 -1 5 4 5 11 0 6 -6 11 -12 10 -7 -2 -13 4 -13 12 0
11 8 13 30 8 17 -3 30 -2 29 3 -5 27 6 31 27 9z m-826 -57 c0 -5 4 -7 8 -4 15
9 47 -38 47 -68 -1 -22 7 -34 37 -53 111 -74 47 -261 -85 -247 -95 10 -139
132 -78 215 15 20 17 27 6 23 -11 -5 -13 -2 -9 10 4 10 -1 25 -11 36 -38 42
13 130 62 107 13 -5 23 -14 23 -19z m3828 -5 c20 -4 32 -2 32 6 0 8 44 11 146
11 132 0 145 -2 142 -17 -2 -10 -18 -22 -38 -27 -19 -5 -37 -13 -40 -16 -6 -7
-95 -33 -121 -35 -10 -1 -24 -7 -33 -14 -14 -12 -16 -10 -16 8 0 20 -4 21 -48
15 -45 -6 -49 -4 -60 20 -7 16 -20 26 -34 27 -22 1 -22 1 2 9 14 4 19 8 13 9
-7 1 -13 6 -13 12 0 7 7 8 18 4 9 -4 32 -9 50 -12z m2842 -59 c0 -3 -19 -14
-42 -25 -141 -65 -259 -162 -329 -271 -27 -42 -54 -80 -60 -84 -16 -10 1 123
32 238 9 36 49 67 88 68 9 1 34 8 56 16 66 25 147 47 200 54 28 4 51 8 53 9 1
0 2 -2 2 -5z m-3962 -342 c-5 -15 -4 -21 2 -17 6 3 10 13 10 21 0 12 2 12 14
2 10 -9 11 -17 3 -26 -15 -19 -17 -75 -2 -62 10 8 14 2 19 -25 4 -19 11 -35
16 -35 6 0 10 -5 10 -11 0 -6 -7 -8 -16 -5 -14 5 -15 4 -4 -9 7 -8 16 -12 21
-9 5 3 9 -1 10 -8 0 -7 4 -4 9 7 8 19 9 19 9 -1 1 -25 -11 -29 -113 -40 -53
-5 -70 -3 -78 7 -7 11 -11 11 -15 2 -3 -8 -23 -13 -48 -13 -37 0 -42 3 -38 19
4 15 -4 22 -34 32 l-38 13 27 10 c24 8 27 14 24 47 -2 28 0 36 10 32 8 -3 17
2 20 11 3 9 15 16 26 16 14 0 19 6 16 23 -3 23 -15 25 -98 17 -62 -6 -64 -3
-25 43 35 41 38 42 148 63 l112 20 6 -50 c3 -28 2 -61 -3 -74z m-2365 -110
c-2 -14 1 -21 7 -17 15 9 -27 -62 -51 -88 -12 -12 -28 -32 -36 -44 -9 -13 -22
-23 -30 -23 -7 0 -25 -8 -40 -17 -26 -17 -26 -17 -13 6 7 15 8 21 1 17 -23
-15 -10 13 14 28 14 9 25 25 25 35 0 10 7 24 15 31 8 6 17 22 21 33 17 58 92
92 87 39z m6674 -47 c61 -39 192 -153 193 -166 0 -4 -17 2 -37 12 -21 10 -46
19 -56 19 -17 0 -17 -2 6 -20 14 -11 29 -20 33 -20 14 0 74 -63 74 -78 0 -8 6
-12 14 -9 10 4 13 1 10 -8 -3 -7 6 -21 20 -30 14 -9 28 -25 31 -36 4 -10 18
-33 32 -49 21 -26 24 -37 19 -70 -5 -31 -2 -42 12 -52 23 -16 34 -45 22 -53
-17 -10 -11 -25 10 -25 11 0 20 5 20 10 0 6 11 15 25 22 13 6 21 16 18 22 -4
6 2 4 12 -4 18 -14 18 -15 -3 -18 -25 -4 -30 -22 -7 -22 8 0 15 -4 15 -9 0 -4
-11 -6 -25 -3 -20 3 -25 0 -25 -16 0 -11 8 -22 20 -25 11 -3 20 -1 20 4 0 5 5
9 12 9 9 0 9 -3 0 -12 -19 -19 -14 -28 18 -28 35 0 38 12 11 39 -28 28 -17 61
20 61 21 0 29 5 29 18 0 21 19 42 38 42 16 0 51 -39 52 -58 0 -7 4 -11 9 -7 5
3 12 1 16 -5 3 -5 12 -10 20 -10 8 0 28 -13 45 -29 l32 -29 -36 12 c-20 6 -32
12 -26 14 20 7 -2 22 -31 22 -21 0 -28 -4 -23 -12 6 -10 4 -10 -7 0 -14 13
-49 17 -49 4 0 -4 5 -13 12 -20 9 -9 8 -16 -5 -30 -9 -10 -17 -23 -17 -28 0
-6 -15 -10 -34 -10 -19 0 -41 -6 -50 -13 -21 -17 -21 -67 0 -75 10 -4 13 -13
9 -27 -16 -49 92 -65 155 -22 20 13 28 23 19 23 -23 0 70 94 94 95 13 1 17 -3
14 -15 -4 -14 2 -17 37 -13 60 5 75 8 83 17 10 10 -53 3 -82 -9 -18 -8 -19 -7
-6 8 7 9 26 17 42 17 16 0 29 4 29 10 0 5 -7 7 -15 4 -19 -8 -19 3 -1 22 16
16 30 19 22 5 -4 -5 -3 -17 0 -26 5 -13 14 -16 38 -11 24 4 27 3 13 -5 -9 -5
-24 -23 -32 -39 -16 -30 -40 -40 -47 -19 -4 13 -38 -16 -38 -31 0 -12 49 -44
56 -37 3 3 -4 14 -15 24 -12 9 -21 21 -21 26 0 5 7 4 15 -3 12 -10 19 -10 27
-2 15 15 38 15 38 1 0 -7 -15 -26 -33 -43 -18 -17 -38 -40 -45 -51 -7 -13 -11
-15 -12 -6 0 8 7 23 17 33 22 25 2 23 -31 -3 -14 -11 -26 -17 -26 -14 0 4 -7
2 -15 -5 -9 -7 -18 -10 -22 -7 -3 4 -18 -2 -33 -13 l-28 -20 6 22 c5 22 4 22
-15 6 -22 -20 -44 -25 -25 -6 7 7 12 16 12 20 0 12 -38 10 -45 -2 -3 -5 -17
-10 -30 -10 -13 0 -27 -4 -30 -10 -3 -5 -2 -10 4 -10 6 0 8 -7 5 -15 -4 -10 0
-15 15 -15 27 0 27 -17 0 -25 -14 -5 -18 -10 -11 -17 13 -13 69 -1 79 16 5 8
19 17 33 20 18 5 21 5 10 -3 -8 -5 -11 -13 -8 -16 12 -12 28 6 28 30 0 13 5
27 11 31 8 4 9 0 4 -15 -3 -11 -3 -21 0 -21 9 0 40 31 41 42 3 21 5 22 15 6
12 -22 55 -24 62 -4 3 8 16 20 28 26 13 7 19 8 15 2 -7 -11 30 -42 50 -42 16
0 15 48 -1 54 -9 3 -11 -3 -9 -17 3 -14 -2 -10 -13 11 -17 32 -17 35 0 47 10
7 17 17 16 21 -4 24 2 74 9 74 5 0 6 -14 4 -31 -4 -26 -2 -30 14 -27 13 2 19
12 20 34 1 35 10 54 25 54 6 0 16 6 24 13 65 61 95 63 130 7 20 -32 31 -40 53
-39 20 1 22 2 7 6 -31 8 -38 19 -26 42 16 29 41 27 41 -4 0 -33 12 -32 33 5
19 31 57 42 57 16 0 -13 48 -36 76 -36 19 0 36 37 29 60 -4 11 -13 20 -21 20
-8 0 -22 8 -32 18 -10 9 -27 22 -38 29 -17 10 -17 11 5 6 22 -6 23 -4 18 19
-5 20 -3 27 12 31 18 4 23 -14 8 -29 -4 -4 -7 -16 -7 -26 0 -13 8 -18 30 -18
27 0 30 2 20 20 -9 16 -8 18 5 14 10 -4 15 0 15 10 0 22 5 21 56 -14 24 -17
41 -25 38 -17 -3 8 1 14 10 14 8 0 12 -6 9 -14 -3 -7 -1 -14 3 -14 5 -1 20 -3
33 -4 30 -3 44 -25 28 -44 -9 -12 -9 -13 1 -7 14 8 16 -3 2 -24 -5 -9 -5 -19
2 -27 5 -7 8 -19 5 -28 -4 -8 -2 -17 3 -20 10 -6 10 -65 0 -65 -3 0 -11 5 -18
12 -9 9 -12 5 -12 -20 0 -25 -4 -32 -20 -32 -11 0 -20 -4 -20 -9 0 -5 11 -8
25 -6 20 2 23 0 14 -11 -12 -15 -6 -44 10 -44 5 0 11 8 13 17 2 14 10 9 33
-21 24 -32 30 -49 32 -100 2 -58 0 -64 -33 -100 -30 -33 -37 -36 -51 -25 -13
12 -18 11 -30 -8 -37 -55 -62 -74 -114 -88 -30 -8 -65 -15 -79 -15 -29 0 -50
-16 -50 -38 0 -9 7 -11 19 -7 11 3 22 2 25 -3 3 -5 16 -7 28 -5 35 7 78 -13
78 -36 0 -11 -17 -31 -42 -48 -43 -29 -59 -53 -36 -53 7 0 14 -11 14 -24 2
-22 -4 -26 -44 -35 -26 -5 -50 -7 -54 -5 -5 3 -13 -7 -18 -22 -12 -30 6 -94
26 -94 6 0 32 22 57 49 26 28 48 44 51 38 5 -12 10 18 7 40 -3 20 16 15 21 -5
8 -33 -9 -167 -26 -204 -24 -49 -47 -56 -89 -24 -19 14 -42 26 -52 26 -12 0
-15 4 -8 13 5 6 10 24 11 38 3 22 -3 30 -29 43 -17 9 -36 13 -42 9 -6 -4 -8 0
-4 11 4 10 3 15 -3 11 -6 -3 -10 -15 -10 -26 0 -10 -4 -19 -10 -19 -13 0 -13
26 1 51 9 18 8 19 -8 10 -23 -12 -33 -6 -61 40 -77 127 -292 249 -436 249 -52
0 -197 -40 -221 -60 -8 -7 -18 -9 -24 -6 -5 4 -15 0 -23 -7 -20 -20 -64 -29
-148 -30 -115 -2 -191 41 -365 207 -210 200 -312 260 -464 273 -62 5 -90 -1
-165 -32 -15 -7 -17 -5 -10 6 4 8 9 19 10 26 1 6 13 27 27 45 13 18 33 53 44
78 11 25 27 51 36 59 10 7 17 19 17 25 0 6 -5 4 -10 -4 -5 -8 -10 -10 -10 -5
1 6 7 18 14 28 11 14 15 15 20 5 3 -7 3 -3 0 10 -6 24 11 57 52 101 12 13 36
53 54 88 18 36 39 67 46 70 8 3 14 13 14 23 0 11 4 21 9 24 13 9 64 97 58 102
-3 3 -26 -15 -51 -40 -25 -26 -51 -46 -56 -46 -6 0 -10 -5 -10 -11 0 -11 -25
-39 -34 -39 -9 0 51 117 64 125 5 3 10 -1 10 -9 0 -9 5 -16 10 -16 6 0 10 4
10 9 0 17 65 76 82 73 10 -2 38 18 67 47 27 27 58 54 69 60 14 7 18 17 15 31
-6 23 15 28 23 5 4 -10 20 -15 51 -15 24 0 57 -7 73 -15 16 -8 31 -11 34 -7
11 18 -83 70 -131 71 -13 1 -23 5 -23 11 0 16 97 4 127 -15z m1822 -95 c188
-175 206 -195 183 -198 -22 -3 -22 -4 -5 -34 25 -42 50 -54 58 -28 6 20 25 28
25 11 0 -19 -53 -156 -61 -159 -4 -2 -6 -9 -3 -17 3 -7 1 -16 -5 -20 -6 -3
-11 1 -11 10 0 9 -4 13 -10 10 -6 -3 -7 1 -4 10 11 26 -89 104 -133 105 -15 0
-23 6 -23 17 0 13 -3 14 -12 5 -8 -8 -4 -20 18 -49 41 -55 45 -59 92 -110 41
-45 51 -66 33 -77 -5 -3 -22 15 -37 41 -32 55 -83 113 -100 113 -6 0 -17 7
-24 15 -8 10 -21 13 -33 9 -11 -3 -17 -2 -14 3 3 5 -6 8 -21 8 -15 -1 -40 8
-57 19 -28 19 -27 17 15 -44 24 -36 58 -81 75 -101 76 -91 120 -195 83 -196
-7 0 -24 -3 -37 -7 -15 -5 -21 -4 -17 2 3 5 0 12 -7 15 -7 3 -22 23 -32 46
-11 22 -23 41 -27 41 -3 0 -14 21 -23 48 -10 26 -28 71 -41 100 -13 29 -24 58
-24 65 -1 19 -141 117 -168 117 -24 0 -25 1 -7 20 24 26 37 25 74 -6 17 -14
31 -23 31 -19 0 4 6 2 13 -4 10 -8 14 -7 14 5 0 8 -7 13 -16 12 -9 -2 -23 4
-32 12 -9 8 -24 20 -33 25 -16 9 -13 17 28 80 86 134 99 149 141 161 22 7 44
13 49 13 5 1 44 -31 85 -69z m-8326 1 c40 -32 67 -62 67 -73 0 -11 -4 -17 -9
-14 -5 4 -24 -10 -42 -29 -19 -19 -39 -35 -45 -35 -7 0 -36 -16 -65 -35 -30
-19 -58 -35 -65 -35 -12 0 -114 93 -114 104 0 4 11 19 24 33 14 15 23 29 21
33 -2 3 25 26 61 50 35 24 64 46 64 50 0 20 44 -1 103 -49z m1996 -58 c12 -9
21 -28 21 -42 0 -24 0 -24 20 -6 11 10 37 20 58 22 42 3 155 21 190 30 16 4
22 1 22 -12 0 -22 -37 -55 -60 -55 -10 0 -23 -6 -29 -14 -7 -8 -20 -15 -29
-15 -9 0 -38 -3 -64 -7 -31 -4 -53 -3 -62 5 -11 9 -16 9 -22 0 -5 -9 -11 -7
-20 6 -10 13 -17 15 -26 8 -7 -6 -26 -13 -41 -17 -25 -6 -29 -3 -40 26 -6 18
-10 36 -9 40 1 4 -5 5 -14 1 -16 -6 -34 11 -34 33 0 6 25 12 59 13 45 1 65 -2
80 -16z m-2632 -304 c55 -57 79 -88 71 -92 -29 -15 -43 -27 -40 -36 1 -6 -2
-11 -6 -11 -15 0 -103 60 -128 88 -13 15 -33 37 -44 48 -34 37 -13 60 57 63
26 1 41 -9 90 -60z m6456 -1 c4 -28 4 -54 2 -57 -3 -2 -5 5 -5 17 0 13 -6 22
-15 22 -8 0 -15 -9 -15 -20 0 -11 4 -20 9 -20 5 0 3 -13 -5 -30 -9 -16 -22
-30 -31 -30 -9 0 -13 -6 -10 -14 3 -8 -5 -29 -18 -46 -14 -18 -22 -37 -19 -41
3 -5 -5 -9 -18 -9 -13 0 -32 -7 -42 -15 -11 -8 -30 -15 -42 -15 -12 0 -34 -10
-50 -22 l-29 -23 20 26 c11 15 25 24 30 21 6 -3 3 2 -5 12 -12 16 -12 20 1 30
18 13 41 68 43 99 0 12 6 22 13 22 7 0 18 6 25 14 11 12 10 12 -2 5 -8 -4 -4
6 10 23 14 17 30 30 35 29 6 0 9 5 7 13 -4 18 27 51 48 51 9 0 22 -6 29 -12 7
-7 12 -8 11 -3 -4 16 -1 25 9 25 4 0 11 -23 14 -52z m2949 -114 c-5 -10 -7
-29 -3 -43 8 -28 6 -91 -3 -131 -3 -14 -10 -45 -16 -70 -28 -123 -37 -186 -27
-197 15 -21 -7 -15 -24 6 -9 10 -16 31 -17 47 0 16 -1 45 -3 64 -3 35 20 130
32 130 3 0 6 13 6 29 0 34 55 209 61 192 2 -5 -1 -18 -6 -27z m-2146 -1524
c83 -109 94 -126 81 -129 -24 -6 -178 -9 -173 -4 7 7 -15 27 -37 36 -13 5 -16
13 -12 26 4 13 -2 25 -21 40 -15 12 -23 21 -18 21 5 0 -2 9 -16 20 l-25 19 28
10 c16 6 36 11 45 12 9 0 33 6 52 14 19 7 38 10 41 6 3 -3 28 -35 55 -71z"/>
<path d="M10499 3848 c0 -18 -1 -64 -2 -103 l-2 -70 58 0 c52 0 60 -3 72 -25
8 -14 14 -21 15 -16 0 6 6 3 13 -6 6 -8 28 -18 47 -21 19 -3 29 -3 23 0 -7 2
-13 11 -13 19 0 8 -5 14 -11 14 -5 0 -7 -4 -4 -10 3 -5 -4 -10 -15 -10 -16 0
-20 4 -16 16 3 9 6 25 6 35 0 16 5 19 20 14 16 -5 20 -2 19 17 0 22 -1 22 -8
3 -8 -19 -9 -18 -13 5 -4 23 -5 24 -13 5 -14 -33 -30 -44 -47 -34 -13 7 -16
26 -13 104 l2 95 -58 0 -59 0 -1 -32z"/>
<path d="M7743 9580 c3 -11 2 -22 -2 -24 -12 -8 0 -96 14 -96 8 0 17 -5 21
-12 5 -8 0 -9 -14 -6 -18 5 -22 2 -22 -15 0 -18 2 -19 10 -7 12 19 16 13 23
-33 3 -22 2 -35 -4 -32 -5 4 -9 0 -9 -9 0 -8 -6 -17 -12 -19 -23 -10 10 -24
42 -19 30 4 30 5 30 72 0 37 3 101 6 143 l7 77 -48 0 c-42 0 -47 -2 -42 -20z"/>
<path d="M8086 9378 c-6 -200 -11 -298 -15 -305 0 -2 -9 5 -18 15 -24 23 -26
92 -4 93 14 0 14 1 1 6 -8 3 -18 10 -21 15 -3 5 -16 5 -29 0 -19 -7 -21 -10
-7 -15 26 -10 20 -27 -9 -27 -17 0 -28 -6 -31 -19 -4 -14 -15 -21 -41 -23 -27
-2 -40 -9 -49 -28 -7 -14 -13 -19 -13 -12 0 6 -4 12 -10 12 -5 0 -10 -7 -10
-15 0 -8 5 -15 11 -15 6 0 7 -5 2 -12 -4 -7 -6 -21 -5 -30 2 -10 -1 -18 -7
-18 -10 0 -27 -39 -22 -54 1 -5 -8 -41 -20 -80 -13 -39 -22 -74 -21 -77 0 -3
-12 -49 -27 -102 -28 -95 -28 -96 -7 -101 48 -13 53 -8 66 59 7 36 16 65 20
65 4 0 6 12 4 28 -2 15 -1 20 2 12 4 -8 13 -19 21 -23 11 -7 12 -22 7 -69 -6
-48 -4 -59 6 -53 10 6 11 0 6 -26 -3 -19 -9 -78 -12 -131 l-6 -97 29 -7 c15
-4 33 -10 39 -15 15 -12 84 22 86 43 0 10 1 23 2 30 1 11 -13 15 -61 20 -17 2
-21 7 -17 20 7 23 -5 23 -23 1 -13 -17 -14 -17 -11 2 3 18 11 20 60 18 41 -1
58 2 62 12 3 10 -1 14 -12 13 -46 -4 -103 3 -97 12 3 5 8 33 11 62 2 29 6 72
8 96 3 23 1 40 -4 37 -12 -7 -6 47 8 73 11 19 10 22 -5 23 -15 0 -14 2 5 11
22 11 31 38 12 38 -5 0 -10 5 -10 10 0 17 28 11 33 -7 4 -17 5 -17 6 0 1 13
10 17 46 17 42 0 45 -2 46 -27 l0 -28 10 24 c5 14 7 31 5 38 -12 30 6 72 35
82 18 6 31 6 34 0 13 -19 25 -8 23 22 -2 25 -6 30 -28 28 -42 -2 -50 0 -50 16
0 19 -7 20 80 -10 73 -25 99 -23 88 7 -3 7 -42 24 -87 38 l-81 25 5 130 c3 71
7 144 9 160 2 17 7 71 11 120 4 50 12 96 17 103 8 9 4 12 -14 12 l-25 0 -7
-222z"/>
<path d="M8163 9593 c14 -4 17 -16 17 -75 0 -78 11 -84 20 -10 4 42 7 47 30
46 14 -1 30 5 35 13 7 9 22 13 40 9 17 -2 47 -5 68 -5 l37 -1 0 -49 c0 -82 1
-81 -114 -81 -104 0 -118 -3 -110 -23 3 -8 37 -11 110 -9 l106 3 -3 -85 c-3
-52 0 -85 6 -83 5 2 11 21 12 43 2 21 6 58 9 82 5 40 7 42 42 44 20 0 51 2 67
3 17 2 45 0 63 -2 l34 -6 -7 -86 c-9 -111 10 -99 22 14 l8 80 213 3 214 2 -4
-80 c-2 -44 0 -80 4 -80 6 0 11 36 21 135 2 24 32 33 118 34 86 1 92 -6 83
-98 -4 -45 -3 -71 3 -71 6 0 12 33 15 73 3 41 8 79 12 85 5 9 68 12 217 12
192 0 209 -1 210 -17 0 -10 1 -49 1 -88 0 -64 0 -67 8 -30 5 22 12 62 15 88
l6 48 102 -3 102 -3 -3 -82 c-2 -47 1 -83 6 -83 9 0 18 76 27 219 2 36 7 77
10 93 6 27 5 28 -32 27 -34 0 -36 -1 -14 -10 22 -9 23 -14 19 -69 -2 -33 -7
-62 -10 -65 -3 -4 -44 -6 -90 -7 -130 0 -119 -7 -111 65 3 34 10 68 16 75 7 9
3 12 -14 12 -23 0 -24 -3 -24 -69 0 -38 -2 -72 -5 -75 -9 -8 -428 -18 -433 -9
-3 4 -2 41 2 81 6 61 4 72 -9 72 -12 0 -14 -10 -12 -52 2 -29 -1 -65 -7 -80
-10 -28 -11 -28 -106 -28 l-95 0 0 64 c0 45 5 69 16 80 14 15 13 16 -13 16
l-29 0 4 -71 c3 -53 1 -74 -9 -80 -8 -5 -108 -9 -222 -9 l-209 0 7 63 c4 34
11 66 16 72 5 5 9 13 9 17 0 4 -120 7 -267 7 -148 -1 -260 -3 -250 -6z m473
-58 c-3 -27 -6 -60 -6 -72 0 -22 -3 -23 -100 -23 l-101 0 3 63 3 62 41 10 c23
6 70 10 104 10 l62 0 -6 -50z"/>
<path d="M5325 9584 c-6 -2 -9 -40 -7 -93 l4 -89 -94 -6 c-51 -4 -187 -5 -303
-4 l-210 3 0 75 c0 71 1 74 25 80 22 6 20 7 -15 13 -39 6 -67 -4 -46 -17 6 -4
11 -39 11 -82 l0 -74 -117 0 c-65 0 -124 -4 -132 -9 -8 -5 38 -8 112 -8 69 0
130 -4 136 -7 6 -4 11 -35 11 -72 0 -36 4 -64 10 -64 6 0 10 30 10 69 0 80 1
81 98 81 84 0 95 -7 92 -56 -4 -58 -1 -94 8 -94 4 0 7 33 7 72 l0 73 196 3
196 2 7 -31 c3 -17 6 -52 6 -77 0 -25 3 -42 7 -38 4 4 8 37 8 74 l0 67 91 3
91 3 7 -32 c3 -17 6 -49 6 -70 0 -22 4 -39 9 -39 6 0 8 27 4 64 -7 83 -12 80
144 84 102 3 64 17 -45 17 l-97 0 -3 78 c-2 48 1 77 8 77 5 0 10 5 10 10 0 6
-13 10 -30 10 -28 0 -29 -2 -20 -26 6 -14 10 -54 10 -90 l0 -64 -95 0 -95 0 0
79 c0 52 4 81 12 83 6 2 8 10 4 16 -7 12 -14 14 -31 6z"/>
<path d="M3818 9574 c-5 -4 -3 -13 3 -21 8 -9 8 -13 1 -13 -6 0 -9 -7 -6 -15
4 -8 10 -12 15 -9 5 3 9 0 9 -6 0 -6 5 -8 10 -5 6 4 8 12 4 18 -3 7 2 3 10 -7
9 -11 17 -29 17 -40 1 -21 1 -21 6 -1 7 29 23 45 44 45 11 0 19 5 19 10 0 15
57 12 63 -2 3 -8 6 -6 6 5 1 16 3 16 26 1 22 -15 25 -23 25 -80 l0 -64 -81 0
c-44 0 -88 4 -98 9 -9 5 -23 6 -31 1 -11 -7 -10 -11 3 -25 10 -9 17 -21 17
-26 0 -5 5 -9 10 -9 6 0 10 7 10 15 0 12 16 15 84 15 l83 0 7 -37 c3 -21 6
-55 6 -75 0 -21 5 -38 10 -38 6 0 10 32 10 75 l0 75 89 0 88 0 7 -46 c3 -26 6
-60 6 -75 0 -16 5 -29 10 -29 7 0 9 27 7 75 l-5 75 59 0 c76 0 77 18 2 22
l-58 3 -3 64 c-3 69 4 81 46 81 21 0 22 1 8 16 -12 11 -39 15 -108 16 -51 0
-106 0 -123 -2 -16 -2 -91 0 -165 4 -74 4 -138 4 -142 0z m432 -30 c0 -8 4
-13 9 -10 10 7 26 -119 16 -134 -3 -5 -43 -10 -90 -10 -96 0 -99 3 -93 91 3
41 5 44 31 43 15 0 27 4 27 8 0 4 21 8 48 9 38 1 42 2 22 9 l-25 8 28 1 c18 1
27 -4 27 -15z"/>
<path d="M7614 9411 c-5 -5 -295 -12 -659 -16 -357 -4 -652 -9 -654 -11 -2 -2
316 -4 707 -4 468 0 712 3 712 10 0 10 -27 15 -64 11 -11 -1 -22 3 -26 9 -4 6
-10 6 -16 1z"/>
<path d="M6718 9342 c-260 -1 -448 -6 -448 -11 0 -42 -22 -40 638 -41 344 0
628 -3 631 -6 17 -17 -62 -21 -442 -24 -232 -2 -456 -4 -497 -5 -41 -2 -127
-4 -190 -5 -94 -2 -110 -5 -90 -14 14 -6 30 -16 37 -22 6 -6 35 -14 63 -18 28
-4 67 -14 86 -24 34 -16 37 -16 48 1 15 20 26 12 26 -17 0 -20 1 -20 20 4 17
21 20 22 20 7 0 -26 24 -47 54 -47 14 0 26 -4 26 -9 0 -6 12 -9 28 -7 19 1 26
7 24 19 -4 24 25 11 34 -15 6 -18 7 -19 25 -2 10 9 20 29 20 43 l2 26 4 -25
c6 -32 33 -51 54 -39 13 6 18 3 22 -12 3 -12 10 -18 16 -15 5 4 14 -2 20 -11
10 -17 10 -17 11 2 0 14 7 20 23 21 12 1 57 3 99 5 44 2 78 8 78 14 0 6 24 10
55 10 30 0 55 -4 55 -10 0 -6 3 -5 8 1 4 6 27 14 52 17 118 17 296 69 323 96
6 6 27 11 48 11 65 0 159 13 159 21 0 5 -25 9 -56 9 -60 0 -94 13 -94 35 0 24
-20 17 -21 -7 0 -16 -2 -18 -6 -8 -3 8 -11 18 -17 22 -7 5 -7 8 2 8 10 0 10 4
-2 16 -14 13 -49 15 -258 12 -134 -2 -444 -4 -690 -6z"/>
<path d="M4433 7869 c9 -5 17 -16 17 -24 0 -8 8 -19 18 -24 9 -6 11 -11 5 -11
-7 0 -19 -13 -28 -30 -14 -28 -14 -30 2 -31 15 0 15 -2 3 -7 -8 -4 -16 -15
-16 -24 -2 -21 12 -24 19 -5 3 7 6 5 6 -5 1 -10 -6 -18 -14 -18 -12 0 -15 -10
-13 -44 3 -42 5 -45 36 -51 40 -8 52 -1 52 31 0 14 7 32 15 41 14 14 14 17 -5
33 -13 11 -20 30 -20 54 0 20 -7 47 -16 60 -10 16 -12 26 -5 31 6 3 11 13 11
21 0 10 -12 14 -42 14 -34 -1 -39 -3 -25 -11z"/>
<path d="M10441 7832 c-7 -2 -6 -13 3 -30 14 -28 11 -56 -4 -47 -15 9 -32 -35
-26 -65 4 -22 0 -32 -17 -43 -18 -13 -20 -18 -11 -34 7 -11 10 -31 7 -46 -5
-26 -4 -27 44 -27 l50 0 7 46 c12 90 8 148 -13 163 -18 13 -18 14 3 47 11 18
28 34 36 37 8 2 -4 3 -27 3 -23 0 -47 -2 -52 -4z"/>
<path d="M12446 6564 c-4 -9 -5 -19 -2 -21 4 -4 346 -123 354 -123 2 0 2 12 0
27 -3 26 -12 30 -163 80 -88 29 -165 53 -171 53 -7 0 -15 -7 -18 -16z"/>
<path d="M12630 4299 c0 -7 -12 -8 -30 -4 -45 10 -38 -9 25 -69 52 -49 64 -77
24 -56 -12 7 -20 7 -24 0 -9 -15 -17 -13 -46 13 -44 37 -101 82 -115 90 -27
15 -14 -9 16 -31 34 -26 40 -47 10 -39 -11 3 -20 3 -20 1 0 -10 85 -82 90 -77
3 3 -1 8 -7 10 -7 3 -13 9 -13 14 0 5 43 6 98 3 102 -6 136 -19 152 -57 8 -21
9 -21 9 -1 1 11 -5 26 -11 33 -10 11 -10 14 0 18 25 10 9 40 -51 92 -63 55
-107 79 -107 60z"/>
<path d="M8665 370 c-4 -6 -11 -7 -17 -4 -6 4 -8 2 -5 -3 4 -6 0 -16 -8 -23
-8 -7 -12 -17 -8 -23 4 -6 0 -8 -10 -4 -11 4 -17 1 -17 -8 0 -9 6 -12 15 -9 8
4 15 4 15 2 0 -9 -134 -103 -143 -100 -5 1 -6 -2 -2 -8 3 -5 0 -19 -8 -31 -11
-15 -16 -17 -20 -7 -5 14 -6 0 -10 -92 l-2 -55 192 -3 193 -2 -6 32 c-4 18
-14 44 -22 58 -9 14 -20 52 -24 85 -11 84 -23 145 -36 178 -9 21 -18 27 -41
27 -16 0 -33 -5 -36 -10z"/>
<path d="M10656 142 c-2 -4 -7 -38 -11 -75 l-7 -67 178 1 c173 0 178 1 141 16
-28 11 -35 18 -25 24 9 7 8 9 -7 7 -11 0 -29 0 -40 1 -17 1 -18 3 -5 12 13 9
12 10 -3 5 -19 -6 -30 -2 -139 48 -43 19 -79 32 -82 28z"/>
</g>
</svg>
